<svg id="eglusqgl6y851" xmlns="http://www.w3.org/2000/svg" xmlns:xlink="http://www.w3.org/1999/xlink" viewBox="0 0 750 500" shape-rendering="geometricPrecision" text-rendering="geometricPrecision">
    <style>
        #eglusqgl6y852_to {
            animation: eglusqgl6y852_to__to 5000ms linear infinite normal forwards
        }

        @keyframes eglusqgl6y852_to__to {
            0% {
                transform: translate(1209.616443px, 150px)
            }

            100% {
                transform: translate(-416.995373px, 150px)
            }
        }

        .st0 {
            fill: #FFFFFF;
        }

        .st1 {
            fill: #BBBCBF;
        }

        .st2 {
            fill: #D54E69;
        }

        .st3 {
            fill: #558BBA;
        }

        .st4 {
            fill: #548488;
        }

        .st5 {
            fill: #6FAEDA;
        }

        .st6 {
            fill: #353541;
        }

        .st7 {
            fill: #2B2B36;
        }

        .st8 {
            fill: #4E4E59;
        }

        .st9 {
            fill: #B6A227;
        }

        .st10 {
            fill: #EED833;
        }

        .st11 {
            fill: #FFB6AA;
        }

        .st12 {
            fill: #1E2150;
        }

        .st13 {
            fill: #4A5A9C;
        }

        .st14 {
            fill: none;
            stroke: #FFFFFF;
            stroke-width: 0.2258;
            stroke-miterlimit: 10;
        }

        .st15 {
            fill: #FF8D98;
        }

        .st16 {
            opacity: 0.35;
            fill: #FF8D98;
            enable-background: new;
        }

        .st17 {
            fill: none;
            stroke: #4A5A9C;
            stroke-width: 0.2258;
            stroke-miterlimit: 10;
        }

        .st18 {
            fill: #FFB61C;
        }

        .st19 {
            fill: none;
            stroke: #FFB61C;
            stroke-width: 1.0855;
            stroke-miterlimit: 10;
        }

        .st20 {
            fill: none;
            stroke: #FFB61C;
            stroke-width: 0.4516;
            stroke-miterlimit: 10;
        }

        .st21 {
            fill: url(#SVGID_1_);
        }

        .st22 {
            fill: url(#SVGID_2_);
        }

    </style>
    <g id="eglusqgl6y852_to" transform="translate(1209.616443,150)">
        <g id="eglusqgl6y852" transform="translate(-378.946297,-180.886475)">
            <path id="eglusqgl6y853" d="M44.400000,172C44.900000,163.700000,49.300000,155.800000,56.200000,151C63,146.300000,72.100000,144.900000,80,147.400000C80.100000,137.100000,86.300000,127,95.500000,122.400000C104.700000,117.700000,116.500000,118.600000,124.900000,124.600000C128.200000,113.800000,135.900000,104.300000,146.200000,99.700000C156.500000,95.100000,169.300000,96.100000,178.300000,102.800000C187.300000,109.500000,191.900000,122.100000,188.400000,132.800000C196.200000,130.200000,204.500000,127.500000,212.400000,129.700000C219,131.600000,224.400000,136.800000,226.700000,143.200000C229.100000,149.600000,228.400000,157,225.400000,163.100000L44.400000,172Z" fill="rgb(255,255,255)" stroke="none" stroke-width="1" />
            <path id="eglusqgl6y854" d="M549.300000,264.900000C549.700000,259.600000,553.700000,254.600000,559.800000,251.600000C565.900000,248.600000,574,247.700000,581,249.300000C581.100000,242.700000,586.600000,236.300000,594.900000,233.400000C603.100000,230.400000,613.700000,231,621.200000,234.800000C624.100000,227.900000,631.100000,221.900000,640.300000,219C649.500000,216.100000,660.900000,216.700000,669,221C677.100000,225.300000,681.100000,233.300000,678,240.100000C684.900000,238.400000,692.400000,236.700000,699.400000,238.200000C705.300000,239.400000,710.100000,242.700000,712.200000,246.800000C714.300000,250.900000,713.800000,255.600000,711,259.400000L549.300000,264.900000Z" fill="rgb(255,255,255)" stroke="none" stroke-width="1" />
        </g>
    </g>
    <g id="e8bfyrs774hg4_to" transform="translate(343,253.832420)">
        <g id="e8bfyrs774hg4" transform="translate(-343,-253.832420)">
            <ellipse id="e8bfyrs774hg5" class="st1" cx="378.8" cy="458.3" rx="214.2" ry="10.1" />
            <g id="e8bfyrs774hg46">
                <g id="e8bfyrs774hg47">
                    <g id="e8bfyrs774hg48">
                        <path id="e8bfyrs774hg49" class="st2" d="M261.4,252c-1.9-5.8-4.3-13-6.1-23.9c-3.2-19.8,10.8-31.7,10.9-31.8l-1.3-1.7
						c-0.2,0.1-15.1,12.6-11.8,33.7c1.8,11,4.2,18.4,6.2,24.2c1.7,5,3,8.6,2.9,12.2h2.2C264.5,260.8,263.2,257.1,261.4,252z" />
                    </g>
                </g>
                <g id="e8bfyrs774hg50">
                    <g id="e8bfyrs774hg51">
                        <path id="e8bfyrs774hg52" class="st3" d="M242.2,333.7l42.5-132.6c1.2-4.1-1.1-8.5-5.2-9.8l-3.2-1.1l-43.5,140.7L242.2,333.7z" />
                    </g>
                </g>
                <g id="e8bfyrs774hg53">
                    <g id="e8bfyrs774hg54">
                        <path id="e8bfyrs774hg55" class="st4" d="M286.4,194.9c0.2-0.7-0.1-1.4-0.8-1.7l-12.8-4.3l-5.8,5.2l-8-2.4
						c-0.8,3.4,4.4,5.5,7.1,6.5l17.8,5.8L286.4,194.9z" />
                    </g>
                </g>
                <g id="e8bfyrs774hg56">
                    <path id="e8bfyrs774hg57" class="st5" d="M242.5,305.1l4.6-14.8c0-0.2-0.1-0.5-0.4-0.6l-3.2-1.1c-0.2,0-0.5,0.1-0.6,0.4
					l-4.6,14.8c0,0.2,0.1,0.5,0.4,0.6l3.2,1.1C242.2,305.6,242.4,305.4,242.5,305.1z" />
                </g>
                <g id="e8bfyrs774hg58">
                    <path id="e8bfyrs774hg59" class="st5" d="M236.9,331.4l-3.8-1.2l40.2-129.6C274.7,215.7,266.6,238.3,236.9,331.4z" />
                </g>
                <g id="e8bfyrs774hg60">
                    <g id="e8bfyrs774hg61">
                        <circle id="e8bfyrs774hg62" class="st6" cx="467.1" cy="429.8" r="32.6" />
                    </g>
                </g>
                <g id="e8bfyrs774hg63">
                    <g id="e8bfyrs774hg64">
                        <circle id="e8bfyrs774hg65" class="st6" cx="467.1" cy="429.8" r="21.4" />
                    </g>
                </g>
                <g id="e8bfyrs774hg66">
                    <g id="e8bfyrs774hg67">
                        <path id="e8bfyrs774hg68" class="st0" d="M467.1,454.2c-13.6,0-24.6-11-24.6-24.6c0-13.6,11-24.6,24.6-24.6
						c13.6,0,24.6,11,24.6,24.6C491.7,443.3,480.7,454.2,467.1,454.2z M467.1,411.4c-10.1,0-18.2,8.2-18.2,18.2
						c0,10.1,8.2,18.2,18.2,18.2c10.1,0,18.2-8.2,18.2-18.2C485.3,419.6,477.2,411.4,467.1,411.4z" />
                    </g>
                </g>
                <g id="e8bfyrs774hg69">
                    <path id="e8bfyrs774hg70" class="st7" d="M475.9,439.8c-1.7,1.3-3.7,2.3-5.9,2.6c0.6-2.3,0.2-4.9-2.4-5c-2.8-0.1-3.2,2.6-3,5
					c-0.2-0.1-0.6-0.1-1-0.2c-1.1-0.2-2-0.7-3-1.2c1.4-1.4,2.3-3.4,0.6-4.9c-1.8-1.7-3.6-0.4-4.9,1.3c-0.8-1.1-1.6-2.3-2-3.6
					c2.2,0.4,4.4,0.1,4.6-2.2c0.1-2.6-2.8-3.4-5.3-3.2c0-0.7,0.1-1.4,0.4-2.2c0.1-0.6,0.4-1.3,0.7-1.9c1.4,1.8,3.7,3.1,5.6,1.4
					c2.2-1.9-0.2-4.2-2.5-5.5c1.2-1,2.5-1.8,4-2.3c-0.1,2.3,0.7,5.2,3.6,4.7c3-0.5,2.5-3.4,1.4-5.5c1.2,0,2.4,0.1,3.6,0.5
					c0.7,0.1,1.4,0.5,2,0.7c-1.8,1.7-3.7,5-0.6,6.5c2.8,1.3,4.3-1.4,4.7-3.7c1.6,1.6,2.6,3.4,3.4,5.3c-2.8-0.2-6.5,0.4-5.5,3.4
					c0.8,2.6,4,2.4,6.2,1.6c0,0.8-0.1,1.6-0.4,2.4c-0.1,0.8-0.5,1.6-0.8,2.3c-2.2-1.6-5.4-2.9-6.7-0.4
					C471.4,437.8,473.6,439.2,475.9,439.8z" />
                </g>
                <g id="e8bfyrs774hg71">
                    <g id="e8bfyrs774hg72">
                        <path id="e8bfyrs774hg73" class="st6" d="M235.4,363.6l43.3,55.3h-17.2c0,0-22.9-29.9-26.3-33.2c-3.5-3.5-6.5,0-6.5,0
						L235.4,363.6z" />
                    </g>
                </g>
                <g id="e8bfyrs774hg74">
                    <g id="e8bfyrs774hg75">
                        <path id="e8bfyrs774hg76" class="st6" d="M436.8,421.3L436.8,421.3c0-1.2,0.5-2.3-0.8-2.3H253.6c-1.2,0-2.3,1-2.3,2.3l0,0
						c0,1.2,1,2.3,2.3,2.3h181.6C436.5,423.6,436.7,422.5,436.8,421.3z" />
                    </g>
                </g>
                <g id="e8bfyrs774hg77">
                    <g id="e8bfyrs774hg78">
                        <path id="e8bfyrs774hg79" class="st6" d="M438.3,423.6l-2.8,14.6H290.4c-12.2,0-24-5.4-32-14.6l0,0H438.3z" />
                    </g>
                </g>
                <g id="e8bfyrs774hg80">
                    <path id="e8bfyrs774hg81" class="st8" d="M258.5,423.6h179.8c0,1.2-1,2.3-2.3,2.3H260.5C259.8,425.2,259.1,424.3,258.5,423.6z" />
                </g>
                <g id="e8bfyrs774hg82">
                    <g id="e8bfyrs774hg83">
                        <path id="e8bfyrs774hg84" class="st9" d="M436.6,423c0,0,7.6-22.3,26.6-25c19.1-2.6,30.5,13.6,34.3,17.8
						c3.7,4.2,8.4,2.5,8.4,2.5s-12.7-31.3-41.5-29.8c-10.6,0.6-18.7,4.7-24.6,10.3c-10.3,10-14.3,25-14.3,25L436.6,423z" />
                    </g>
                </g>
                <g id="e8bfyrs774hg85">
                    <path id="e8bfyrs774hg86" class="st10" d="M430.8,423.8h-5.2c0,0,3.4-14.3,12.7-24c6-6.2,14.8-10.7,26-11.3
					c8.2-0.4,15,1.8,20.6,5.2c-4.9-2.3-10.7-3.6-17.2-3.2C443.6,391.8,433.1,417.6,430.8,423.8z" />
                </g>
                <g id="e8bfyrs774hg87">
                    <g id="e8bfyrs774hg88">
                        <g id="e8bfyrs774hg89">
                            <path id="e8bfyrs774hg90" class="st9" d="M248.5,433.3c-7-1.8-8.4-5.9-9.7-10.8c-1.7-6.1-5.5-14.6-14.9-19.8
							c-16-9-30.2,2-35.2,4.6c-4.9,2.5-9.8-1-9.8-1s19.8-26.5,47.8-13.3C252.1,405,248.5,433.3,248.5,433.3L248.5,433.3z" />
                        </g>
                    </g>
                </g>
                <g id="e8bfyrs774hg91">
                    <path id="e8bfyrs774hg92" class="st10" d="M184.3,408.2c-3.1-0.1-5.4-1.8-5.4-1.8s19.8-26.5,47.8-13.3l0,0
					C203.7,387.1,191.7,394.2,184.3,408.2z" />
                </g>
                <g id="e8bfyrs774hg93">
                    <g id="e8bfyrs774hg94">
                        <path id="e8bfyrs774hg95" class="st6" d="M435.5,438.1c2.4-1.6,29.9-4,32.8-4.6c3.2-0.7,4.2-4.6,2.6-6.6
						c-1.7-2.2-3.2-3.4-30.6-4c-32.8-0.7-49.6,15.1-49.6,15.1H435.5z" />
                    </g>
                </g>
                <g id="e8bfyrs774hg96">
                    <g id="e8bfyrs774hg97">
                        <circle id="e8bfyrs774hg98" class="st6" cx="210" cy="429.8" r="32.6" />
                    </g>
                </g>
                <g id="e8bfyrs774hg99">
                    <g id="e8bfyrs774hg100">
                        <circle id="e8bfyrs774hg101" class="st6" cx="210" cy="429.8" r="21.4" />
                    </g>
                </g>
                <g id="e8bfyrs774hg102">
                    <g id="e8bfyrs774hg103">
                        <path id="e8bfyrs774hg104" class="st0" d="M210,454.2c-13.6,0-24.6-11-24.6-24.6c0-13.6,11-24.6,24.6-24.6
						c13.6,0,24.6,11,24.6,24.6C234.6,443.3,223.6,454.2,210,454.2z M210,411.4c-10.1,0-18.2,8.2-18.2,18.2
						c0,10.1,8.2,18.2,18.2,18.2c10.1,0,18.2-8.2,18.2-18.2C228.2,419.6,220.1,411.4,210,411.4z" />
                    </g>
                </g>
                <g id="e8bfyrs774hg105">
                    <path id="e8bfyrs774hg106" class="st7" d="M218.8,439.8c-1.7,1.3-3.7,2.3-5.9,2.6c0.6-2.3,0.2-4.9-2.4-5c-2.8-0.1-3.2,2.6-3,5
					c-0.2-0.1-0.6-0.1-1-0.2c-1.1-0.2-2-0.7-3-1.2c1.4-1.4,2.3-3.4,0.6-4.9c-1.8-1.7-3.6-0.4-4.9,1.3c-0.8-1.1-1.6-2.3-2-3.6
					c2.2,0.4,4.4,0.1,4.6-2.2c0.1-2.6-2.8-3.4-5.3-3.2c0-0.7,0.1-1.4,0.4-2.2c0.1-0.6,0.4-1.3,0.7-1.9c1.4,1.8,3.7,3.1,5.6,1.4
					c2.2-1.9-0.2-4.2-2.5-5.5c1.2-1,2.5-1.8,4-2.3c-0.1,2.3,0.7,5.2,3.6,4.7c3-0.5,2.5-3.4,1.4-5.5c1.2,0,2.4,0.1,3.6,0.5
					c0.7,0.1,1.4,0.5,2,0.7c-1.8,1.7-3.7,5-0.6,6.5c2.8,1.3,4.3-1.4,4.7-3.7c1.6,1.6,2.6,3.4,3.4,5.3c-2.8-0.2-6.5,0.4-5.5,3.4
					c0.8,2.6,4,2.4,6.2,1.6c0,0.8-0.1,1.6-0.4,2.4c-0.1,0.8-0.5,1.6-0.8,2.3c-2.2-1.6-5.4-2.9-6.7-0.4
					C214.4,437.8,216.6,439.2,218.8,439.8z" />
                </g>
                <g id="e8bfyrs774hg107">
                    <g id="e8bfyrs774hg108">
                        <path id="e8bfyrs774hg109" class="st6" d="M208.1,435.1L208.1,435.1c2.4,0.7,5.5-1.2,6.2-3.7l29.8-93l-15.5-4.7l-23.6,94.5
						C204.2,430.8,205.4,434.3,208.1,435.1z" />
                    </g>
                </g>
                <g id="e8bfyrs774hg110">
                    <g id="e8bfyrs774hg111">
                        <path id="e8bfyrs774hg112" class="st6" d="M226.3,330.7L226.3,330.7c-0.4,1.2,0.4,2.4,1.6,2.8l16.4,4.9
						c1.2,0.4,2.5-0.2,2.9-1.4l0,0c0.4-1.2-0.4-2.5-1.6-2.9l-16.3-4.9C228.1,328.8,226.8,329.4,226.3,330.7z" />
                    </g>
                </g>
                <g id="e8bfyrs774hg113">
                    <g id="e8bfyrs774hg114">
                        <ellipse id="e8bfyrs774hg115" class="st0" cx="467.1" cy="429.2" rx="2.2" ry="2.2" />
                    </g>
                </g>
                <g id="e8bfyrs774hg116">

                    <ellipse id="e8bfyrs774hg117" transform="matrix(0.2319 -0.9727 0.9727 0.2319 -188.885 499.934)" class="st0" cx="222.1" cy="369.6" rx="7.4" ry="1.3" />
                </g>
                <g id="e8bfyrs774hg118">
                    <path id="e8bfyrs774hg119" class="st0" d="M258.8,396.5c0.5-0.5-0.7-2.5-2.5-4.8c-1.9-2.2-3.7-3.8-4.2-3.4s0.7,2.5,2.5,4.8
					C256.4,395.4,258.4,396.8,258.8,396.5z" />
                </g>
                <g id="e8bfyrs774hg120">
                    <path id="e8bfyrs774hg121" class="st0" d="M219.4,379.7c-0.7-0.2-1.7,1.1-2,2.6c-0.4,1.6-0.1,3.1,0.6,3.2c0.7,0.2,1.7-1,2-2.6
					C220.3,381.3,220.1,379.9,219.4,379.7z" />
                </g>
                <g id="e8bfyrs774hg122">
                    <path id="e8bfyrs774hg123" class="st0" d="M185.6,401.5c-0.4-0.2-1.3,0.2-2.2,1.2c-0.8,1-1.2,1.9-0.8,2.3
					c0.4,0.2,1.3-0.2,2.2-1.2S186,401.7,185.6,401.5z" />
                </g>
                <g id="e8bfyrs774hg124">
                    <path id="e8bfyrs774hg125" class="st0" d="M440.3,400.8c-0.5-0.4-1.9,0.7-3.4,2.4c-1.4,1.7-2.3,3.4-1.8,3.7s1.9-0.7,3.4-2.4
					C440,402.8,440.7,401.1,440.3,400.8z" />
                </g>
                <g id="e8bfyrs774hg126">
                    <path id="e8bfyrs774hg127" class="st0" d="M444.4,397.1c-0.2-0.4-1.2,0-2,0.7s-1.2,1.6-1,1.9c0.2,0.4,1.2,0,2-0.7
					C444.3,398.3,444.8,397.4,444.4,397.1z" />
                </g>
                <g id="e8bfyrs774hg128">
                    <path id="e8bfyrs774hg129" class="st7" d="M245.8,334.1c1.2,0.4,1.8,1.7,1.4,2.9l0,0c-0.4,1.2-1.7,1.9-2.9,1.6l-8.2-2.5l0.7-4.6
					L245.8,334.1z" />
                </g>
                <g>
                    <g>
                        <path class="st11" d="M312,56.8c-7.8,2.5-14.2,9.5-14.4,17.8c-0.2,10.9,0.1,22.1,4,32.4c0.5,1.3,1,2.5,2,3.5
						c2,1.8,5.2,1.6,7.8,1c10.2-2.3,24.7-8.5,29.2-18.8c2.2-5,2.4-10.8,1.1-16.2C338.2,63.4,326.2,52.2,312,56.8z" />
                        <g>
                            <g>
                                <g>
                                    <path class="st11" d="M297.6,83.8c0,0-4.4,10.4-4.3,12.5s6.1,3.4,6.1,3.4L297.6,83.8z" />
                                </g>
                            </g>
                        </g>
                        <path class="st12" d="M380.9,128.9l-5.5,0.1c-0.5-4.9-1.3-11.4-2.9-14.9c0,0,0.2,8.3-0.1,14.9l-48.7,1.7h-12.6
						c0,0-3-9.6,1-20.8s12.5-15,12.5-15l4.3-24.6l-6.1-18.7c19,2.2,23,17.2,28.2,27.7s10.1,8.9,21.6,19.2
						C384.2,108.9,380.9,128.9,380.9,128.9z" />
                        <g>
                            <path class="st12" d="M338.4,60.9c0,0-7.7-13.1-25.8-9.1c-20.6,4.4-20,25.6-20,25.6l9.5,1.4c0,0,4.8-11.5,8.2-14l-2.8,14
							l8.8,1.8l3.6-12.4c0,0-3.6,11.6-2.8,14.9c1,3.2,11.2,9.2,11.2,9.2s10.4-9.1,12.5-12C342.9,77.3,343.8,72,338.4,60.9z" />
                            <g>
                                <path class="st11" d="M316,89.1c0,0,1.3-11,9.8-8.4c8.5,2.6,6,12.7,0,15.2C319.9,98.4,316,89.1,316,89.1z" />
                            </g>
                            <path class="st12" d="M315.4,90.3c0,0.5,0.4,1,0.7,0.8c0.1-0.1,0.2-0.2,0.4-0.4c1.7-3.1,2.3-7.1,4.4-9.8
							c0.5-0.7,0.8-1.2,1.2-2c1.6-3-2.3-3.8-3.8-1.8c-0.6,0.7-0.8,1.8-1.1,2.8c-0.4,1.6-1,3-1.3,4.4
							C315.5,86.3,315.1,88.4,315.4,90.3z" />
                        </g>
                    </g>
                    <g>
                        <g>
                            <path class="st13" d="M371.9,415.1c-0.7,4.2-2.3,5-8.6,8.2c-6.4,3.1-8.6,5.8-17.9,8.3c-6.8,1.8-12.4-0.5-14.8-1.9
							c-1-0.5-1.6-1.4-1.7-2.5c-1-7.2,5.4-11.5,10.3-15.4c1-0.7,2-1.7,3-2.6c0.1-0.1,0.2-0.2,0.4-0.4c0.8-0.8,1.6-1.6,2.3-2.4
							c0.1-0.1,0.2-0.2,0.4-0.4c0.7-0.8,1.3-1.6,1.9-2.3c0.1-0.1,0.2-0.2,0.4-0.4c1-1.2,1.7-2.3,2.2-3c0.6-0.8,1-1.8,2-1.9l10.8-0.7
							c1.4-0.1,2.8,0.5,3.4,1.8C367.8,403.3,372.4,412.2,371.9,415.1z" />
                            <path class="st11" d="M349.5,392.6l0.8,6.4c0,0,3.8,4.2,9.2,2.6c5.4-1.6,4.8-3.7,4.8-3.7l-0.6-5.4L349.5,392.6z" />
                            <g>
                                <path class="st14" d="M336.3,414c0,0,10.7,1.6,13.3,16.2" />
                                <path class="st0" d="M354.6,410.9l-0.1,0.1h-0.1c-3.4-3-7.6-4.2-9.6-4.6c0.1-0.1,0.2-0.2,0.4-0.4c2.2,0.5,6.2,1.7,9.5,4.7
								C354.7,410.6,354.7,410.8,354.6,410.9z" />
                                <path class="st0" d="M357.1,408.2l-0.1,0.1c0,0-0.1,0-0.1-0.1c-3.6-3.1-7.9-4.3-9.8-4.7c0.1-0.1,0.2-0.2,0.4-0.4
								c2,0.4,6.4,1.6,9.8,4.7C357.3,408,357.3,408.1,357.1,408.2z" />
                                <path class="st0" d="M351.7,413.6l-0.1,0.1c0,0-0.1,0-0.1-0.1c-3.2-2.9-7.2-4.1-9.2-4.6c0.1-0.1,0.2-0.2,0.4-0.4
								c2.2,0.5,6,1.8,9.2,4.6C351.9,413.4,351.9,413.5,351.7,413.6z" />
                                <path class="st14" d="M367.9,403.8c0,0-5.4,10.4-3.5,18.8" />
                            </g>
                        </g>
                        <g>
                            <path class="st11" d="M309.7,385.8v9.6c0,0,1.8,3.2,7.7,3.2s7.6-1.2,7.6-1.2l0.4-10.6L309.7,385.8z" />
                            <g>
                                <path class="st13" d="M328.5,418.3c-0.1,1.1-1.1,1.9-2.2,2c-8.9,0.5-46.9,2.5-48.9,1.8c-2.2-0.8-3.4-7.9,0.8-11.4
								c2.4-2,12.5-7.2,20.6-11.3c0.1-0.1,0.2-0.1,0.5-0.2c1-0.5,1.9-1,2.9-1.4c0.1-0.1,0.2-0.1,0.5-0.2c1.2-0.6,2.3-1.1,3.2-1.6
								c0.1-0.1,0.4-0.1,0.5-0.2c2-1,3.2-1.6,3.2-1.6s5.8,6.7,15.6,3.1C325.2,397.3,329.5,409.1,328.5,418.3z" />
                                <path class="st14" d="M288.8,404.5c0,0,6.5,7.1,7.1,17.3" />
                                <path class="st14" d="M327.1,403.8c0,0-8,5.9-8.8,17.5" />
                                <path class="st0" d="M304,405.7c0,0.1,0,0.2-0.1,0.2c0,0,0,0-0.1,0c-0.1,0-0.1,0-0.2-0.1c-1.3-3.4-3.5-5.4-4.7-6.4
								c0.1-0.1,0.2-0.1,0.5-0.2C300.6,400.3,302.8,402.3,304,405.7z" />
                                <path class="st0" d="M306.7,404L306.7,404c-0.1,0-0.2,0-0.2-0.1c-1.2-3-3-4.9-4.3-6c0.1-0.1,0.2-0.1,0.5-0.2
								c1.3,1.1,3.1,3,4.2,6C307,403.8,306.9,403.9,306.7,404z" />
                                <path class="st0" d="M310.7,402.3L310.7,402.3c-0.1,0-0.2,0-0.2-0.1c-1.2-3.2-3.2-5.2-4.6-6.2c0.1-0.1,0.4-0.1,0.5-0.2
								c1.3,1.1,3.2,3.1,4.4,6.2C310.9,402.2,310.8,402.3,310.7,402.3z" />
                            </g>
                        </g>
                        <g>
                            <path class="st13" d="M309,324.7c1.2-15.2,6.6-121.8,6.6-121.8h50.7c0,0,6.5,43.3,3.5,75.3s-5.2,57.1-5.2,57.1
							s9,30.6,0.7,57.3l-19.7,0.1l-4.1-57.4l-3.8-24.2c-4,12-7.4,18.2-7.4,18.2s3.6,45.1-4.8,63.9l-17.5-0.6
							C307.7,392.6,307.8,336.6,309,324.7z" />
                        </g>
                    </g>
                    <path class="st15" d="M367.1,119.2c-0.4,2.6-1.8,7.1-5.2,5.2l0,0c-0.1,0-0.1-0.1-0.2-0.1c-0.6-0.4-1.1-1.2-1.7-2.4l0,0
					c-2.6-4.8-6.4-14.6-18.8-12.6c-0.4,0.1-0.8,0.1-1.2,0.2c-0.7,0.1-1.4,0.4-2.3,0.6c-9.4,2.9-16.1,8.2-20.5,12.7
					c-4,4.1-5.9,7.6-6.2,7.9c0-0.1,0-0.2,0.1-0.5c0.6-3.2,4.6-20.8,17.6-30c4.4-3.1,8.9-6,13.8-8c1.3-0.6,2.9-0.8,4.3-0.6
					c0,0,0,0,0.1,0c0.1,0,0.4,0.1,0.5,0.1c1.7,0.6,3.1,2.2,4.4,3.2c1.2,1.1,3.2,2.6,2.9,4.6c-0.6,2.5-0.6,2.6-0.6,2.6s0,0.1,0.1,0.2
					c0,0,0,0.1,0.1,0.1c0.5,0.5,1.9,1.4,3.2,2.3c1.7,1,3.5,1.9,3.8,2.2C365.4,109.4,367.7,114.8,367.1,119.2z" />
                    <path class="st15" d="M311.1,130.7c0,0-4.1,23-4.1,44.8s-6.4,40.3,4.1,50.4l59.4-3.1c0.4,0,0.7-0.2,0.8-0.6
					c1.6-3.6,9.8-24.4,5.5-48.9c-4.8-27-15.1-49.1-15.1-49.1s-1.2-14.5-16.1-15.2C330.7,108.3,313.9,122.1,311.1,130.7z" />
                    <path class="st15" d="M370.9,221.7l-1.8,6.8c-0.2,0.1-0.6,0.2-1,0.2c-0.1,0-0.2,0-0.5,0.1c-0.5,0.1-1.2,0.2-2,0.2
					c-0.1,0-0.2,0-0.5,0c-0.6,0.1-1.2,0.1-1.9,0.2c-0.1,0-0.2,0-0.5,0c-0.6,0-1.3,0.1-1.9,0.1c-0.1,0-0.4,0-0.5,0
					c-0.6,0-1.3,0.1-1.9,0.1c-0.1,0-0.2,0-0.5,0c-0.6,0-1.3,0.1-1.9,0.1c-0.1,0-0.2,0-0.5,0c-0.6,0-1.3,0.1-1.9,0.1
					c-0.1,0-0.2,0-0.5,0c-0.6,0-1.3,0-1.9,0.1c-0.1,0-0.4,0-0.5,0c-0.6,0-1.3,0-1.9,0.1c-0.1,0-0.4,0-0.5,0c-0.6,0-1.3,0.1-1.9,0.1
					c-0.1,0-0.4,0-0.5,0c-0.6,0-1.3,0-1.9,0.1c-0.1,0-0.4,0-0.5,0c-0.6,0-1.3,0-1.9,0.1c-0.1,0-0.2,0-0.5,0c-0.6,0-1.3,0-1.9,0
					c-0.1,0-0.4,0-0.5,0c-0.6,0-1.3,0-1.9,0c-0.1,0-0.4,0-0.5,0c-0.7,0-1.3,0-1.9,0c-0.1,0-0.4,0-0.5,0c-0.7,0-1.3,0-1.9,0
					c-0.1,0-0.4,0-0.5,0c-0.6,0-1.3,0-1.9,0c-0.1,0-0.4,0-0.5,0c-0.7,0-1.3,0-1.9,0h-0.5c-0.7,0-1.3,0-1.9,0c-0.1,0-0.4,0-0.5,0
					c-0.7,0-1.3,0-1.9,0H322c-0.7,0-1.3,0-1.9,0c-0.1,0-0.4,0-0.5,0c-0.7,0-1.4,0-1.9,0h-0.5c-0.8,0-1.4,0-1.9,0c-0.1,0-0.4,0-0.5,0
					c-0.4,0-0.6,0-0.6,0c-2-1.6-2.4-5.3-2.4-5.3L370.9,221.7z" />
                    <path class="st16" d="M357.6,104.8L357.6,104.8c-0.4,0.4-0.7,0.5-1.2,0.6c-1.8,0.5-3.8,1-5.6,0.7c-1.9-0.2-3.8-1.2-4.8-2.8
					c0,0,0,0,0.1-0.1c0.1-0.1,0.4-0.1,0.6-0.1c1.3,0,2.5,0,3.8,0c0.1,0,0.2,0,0.2,0c0.8-0.1,1.7-0.1,2.5-0.4c0.2,0,0.6-0.1,1.1-0.1
					C354.9,103.1,356.3,104,357.6,104.8z" />
                    <path class="st17" d="M368.4,223.6" />
                    <g>
                        <path class="st11" d="M280,182.5c0,0-14.8-5.9-17.2-3.6c-2.4,2.3-8.3,13-7.6,14.5c0.7,1.6,5.6,2.9,8,2.8c0,0-0.2,3.5,3.2,4.3
						c3.5,1,13.6-6.8,13.6-6.8v-11.2H280z" />
                        <g>
                            <path class="st15" d="M280,182c0,0,11.3-8,38.9-13.7c0,0-8.2-45.1,12.4-52.2c20.5-7.1,25.8,29.8,21.2,48.3
							c-4.6,18.5-10.8,31.3-17.4,34.1c-6.6,2.8-44.2,0.7-55.2-4.8V182H280z" />
                            <path class="st16" d="M351.5,178.4c1.7-4.9,1.9-10.2,2.3-15.4c0.6-6.8,1.4-14-1.7-20c0.4,7.2,0.6,14.4-0.4,21.6
							c-1.3,9.8-5.9,35.9-46,34.2C337.1,203.2,349.7,183.5,351.5,178.4z" />
                        </g>
                    </g>
                    <g>
                        <g>
                            <path class="st18" d="M333.5,116.6c2.3-0.5,4.6,0,6.8,0.6c1.1,0.4,2.2,0.7,3.2,1.3l1.6,0.7l1.4,0.8c0.5,0.4,1,0.6,1.4,1l1.3,1
							l1.3,1.1l1.3,1.1c0.8,0.7,1.8,1.4,2.5,2.3l2.4,2.4c0.8,0.8,1.4,1.7,2.3,2.5c0.7,0.8,1.6,1.7,2.2,2.6c1.3,1.8,2.8,3.6,4,5.5
							s2.5,3.7,3.7,5.6l3.4,5.9l-1,0.5l-3.5-5.8c-1.2-1.9-2.5-3.7-3.7-5.6c-1.2-1.9-2.6-3.6-4-5.4c-0.7-0.8-1.4-1.7-2.2-2.5
							c-0.7-0.8-1.4-1.7-2.2-2.5c-3-3.2-6.4-6.2-10.1-8.6l-1.4-1l-1.4-0.7c-1-0.6-2-1-3-1.4C337.9,117.2,335.8,116.4,333.5,116.6
							L333.5,116.6z" />
                        </g>
                        <path class="st19" d="M345.6,183.8c0,0,15.5,1.4,28.8-8.3" />
                        <g>
                            <path class="st18" d="M381.3,131c0,0-10.2,4.9-11,17.6c-0.8,12.7,2.6,38.4,5.5,41.5c2.9,3.2,18.6,11.6,25.1,8
							c6.6-3.5,1.1-47.8-2.6-56.1C394.6,134,390.8,128.8,381.3,131z" />
                            <path class="st20" d="M380.4,134.1c0,0,0.4-13.4,4.3-13.8c4-0.4,3.2,13.8,3.2,13.8" />
                        </g>
                    </g>
                </g>
                <g id="e8bfyrs774hg130">
                    <g id="e8bfyrs774hg131">
                        <ellipse id="e8bfyrs774hg132" class="st6" cx="259.4" cy="192.4" rx="7.6" ry="7.6" />
                    </g>
                </g>
                <g id="e8bfyrs774hg133">
                    <g id="e8bfyrs774hg134">
                        <ellipse id="e8bfyrs774hg135" class="st0" cx="210" cy="429.2" rx="2.2" ry="2.2" />
                    </g>
                </g>
            </g>
        </g>
    </g>
    <linearGradient id="SVGID_1_" gradientUnits="userSpaceOnUse" x1="0" y1="250" x2="116.7574" y2="250">
        <stop offset="0.3356" style="stop-color:#02B5DF" />
        <stop offset="1" style="stop-color:#02B5DF;stop-opacity:0" />
    </linearGradient>
    <rect class="st21" width="116.8" height="500" />
    <linearGradient id="SVGID_2_" gradientUnits="userSpaceOnUse" x1="633.2426" y1="250" x2="750" y2="250">
        <stop offset="0" style="stop-color:#02B5DF;stop-opacity:0" />
        <stop offset="0.6644" style="stop-color:#02B5DF" />
    </linearGradient>
    <rect x="633.2" class="st22" width="116.8" height="500" />
</svg>
