<svg id="e9ordztszu3b1" xmlns="http://www.w3.org/2000/svg" xmlns:xlink="http://www.w3.org/1999/xlink" viewBox="0 0 750 500" shape-rendering="geometricPrecision" text-rendering="geometricPrecision">
    <style>
        #e9ordztszu3b4_to {
            animation: e9ordztszu3b4_to__to 3000ms linear infinite normal forwards
        }

        @keyframes e9ordztszu3b4_to__to {
            0% {
                transform: translate(-178.470203px, 211.086441px)
            }

            100% {
                transform: translate(915.752621px, 211.090000px)
            }
        }

        #e9ordztszu3b175_to {
            animation: e9ordztszu3b175_to__to 1000ms linear infinite normal forwards
        }

        @keyframes e9ordztszu3b175_to__to {
            0% {
                transform: translate(642.342686px, 120.908008px)
            }
            10% {
                transform: translate(642.342686px, 120.908008px)
            }

            15% {
                transform: translate(642.342686px, 115px)
            }

            20% {
                transform: translate(642.342686px, 120.910000px)
            }
        
            100% {
                transform: translate(642.342686px, 120.910000px)
            }
        }
    </style>
    <defs>
        <path id="e9ordztszu3b2" d="M386.400000,103C385.500000,103,384.900000,104.100000,385.400000,105C387.400000,108.700000,391,111.200000,395.100000,111.200000C399.200000,111.200000,402.800000,108.600000,404.700000,104.900000C405.200000,104,404.600000,102.900000,403.700000,102.900000L386.400000,103Z" />
    </defs>
    <g id="e9ordztszu3b3">
        <g id="e9ordztszu3b4_to" transform="translate(-178.470203,211.086441)">
            <path id="e9ordztszu3b4" d="M540.300000,136.200000C540.600000,131.900000,540.600000,127.500000,540.100000,123C536.400000,83.800000,503.500000,53,464.100000,51.800000C425.800000,50.700000,394.300000,76.600000,385.300000,110.700000C380.600000,128.700000,367.700000,143.500000,350.600000,150.800000C329,160,313.500000,181.500000,313.500000,206.900000C313.500000,227.900000,324.100000,246.400000,340.300000,257.400000C352.700000,265.800000,362,278,365.800000,292.400000C379.300000,343,426.600000,379.900000,482.100000,377.200000C540.300000,374.400000,587.600000,327.200000,590.600000,269C592.300000,235.500000,579.700000,205,558.300000,183C546.200000,170.600000,539,153.700000,540.300000,136.200000Z" transform="translate(-452.126358,-214.552670)" fill="rgb(205,255,246)" stroke="none" stroke-width="1" />
        </g>
    </g>
    <g id="e9ordztszu3b5">
        <ellipse id="e9ordztszu3b6" rx="220.300000" ry="10.400000" transform="matrix(1 0 0 1 363.60000000000002 462.80000000000001)" fill="rgb(187,188,191)" stroke="none" stroke-width="1" />
        <g id="e9ordztszu3b7">
            <g id="e9ordztszu3b8">
                <g id="e9ordztszu3b9">
                    <path id="e9ordztszu3b10" d="M322.300000,264L320.100000,263.900000C320.200000,260.200000,318.900000,256.500000,317.200000,251.300000C315.100000,245.300000,312.600000,237.800000,310.800000,226.400000C307.300000,204.700000,322.700000,191.800000,322.900000,191.700000L324.300000,193.400000C324.200000,193.500000,309.700000,205.700000,313,226.100000C314.800000,237.300000,317.300000,244.700000,319.300000,250.600000C321.100000,256,322.500000,259.800000,322.300000,264Z" fill="rgb(213,78,105)" stroke="none" stroke-width="1" />
                </g>
            </g>
            <g id="e9ordztszu3b11">
                <g id="e9ordztszu3b12">
                    <path id="e9ordztszu3b13" d="M289.900000,331.800000L334.600000,187.100000L338,188.200000C342.200000,189.600000,344.500000,194.100000,343.300000,198.300000L299.500000,334.700000L289.900000,331.800000Z" fill="rgb(85,139,186)" stroke="none" stroke-width="1" />
                </g>
            </g>
            <g id="e9ordztszu3b14">
                <path id="e9ordztszu3b15" d="M375.700000,206.400000C363.900000,206.400000,347.700000,202.600000,326.400000,196.600000C321.400000,195.200000,318.500000,190,319.900000,184.900000C321.300000,179.900000,326.500000,177,331.600000,178.400000C366.200000,188.200000,377.400000,188.500000,380.700000,187C385.100000,181.800000,379,164.600000,375.400000,154.200000C374.100000,150.400000,372.800000,146.900000,371.800000,143.600000C370.300000,138.600000,373.200000,133.300000,378.200000,131.900000C383.200000,130.400000,388.500000,133.300000,389.900000,138.300000C390.700000,141.100000,391.900000,144.400000,393.200000,148C399.400000,165.400000,407,187.200000,394.100000,200.500000C390,204.500000,383.900000,206.400000,375.700000,206.400000ZM380.900000,186.800000L380.900000,186.800000L380.900000,186.800000Z" fill="rgb(225,178,126)" stroke="none" stroke-width="1" />
            </g>
            <g id="e9ordztszu3b16">
                <g id="e9ordztszu3b17">
                    <path id="e9ordztszu3b18" d="M394.200000,147.600000C393,144.100000,391.800000,140.800000,391,138C389.400000,132.500000,383.500000,129.300000,378,130.900000C372.500000,132.500000,369.300000,138.400000,370.900000,143.900000C371.900000,147.200000,373.100000,150.800000,374.500000,154.600000C377.800000,163.900000,383.900000,181.100000,380.200000,186.100000C376.900000,187.300000,366.800000,186.900000,338.800000,179.300000L338.800000,201C354.400000,205.100000,366.600000,207.500000,375.900000,207.500000C384.400000,207.500000,390.600000,205.500000,394.900000,201.100000C408.200000,187.300000,400.400000,165.300000,394.200000,147.600000Z" fill="rgb(113,179,227)" stroke="none" stroke-width="1" />
                </g>
            </g>
            <g id="e9ordztszu3b19">
                <g id="e9ordztszu3b20">
                    <path id="e9ordztszu3b21" d="M342.300000,201.400000L324,195.400000C321.300000,194.500000,315.900000,192.200000,316.700000,188.700000L325,191.200000L330.900000,186L344.100000,190.400000C344.800000,190.600000,345.200000,191.400000,345,192.200000L342.300000,201.400000Z" fill="rgb(84,132,136)" stroke="none" stroke-width="1" />
                </g>
            </g>
            <g id="e9ordztszu3b22">
                <path id="e9ordztszu3b23" d="M299.300000,305.800000L295.700000,304.700000C295.500000,304.600000,295.400000,304.400000,295.400000,304.200000L300.200000,288.800000C300.300000,288.600000,300.500000,288.500000,300.700000,288.500000L304.300000,289.600000C304.500000,289.700000,304.600000,289.900000,304.600000,290.100000L299.800000,305.500000C299.800000,305.700000,299.500000,305.800000,299.300000,305.800000Z" fill="rgb(111,174,218)" stroke="none" stroke-width="1" />
            </g>
            <g id="e9ordztszu3b24">
                <path id="e9ordztszu3b25" d="M331.500000,197.900000L290.100000,331.200000L294,332.400000C324.700000,236.700000,332.900000,213.400000,331.500000,197.900000Z" fill="rgb(111,174,218)" stroke="none" stroke-width="1" />
            </g>
            <g id="e9ordztszu3b26">
                <g id="e9ordztszu3b27">
                    <circle id="e9ordztszu3b28" r="33.500000" transform="matrix(1 0 0 1 530.70000000000005 433.60000000000002)" fill="rgb(53,53,65)" stroke="none" stroke-width="1" />
                </g>
            </g>
            <g id="e9ordztszu3b29">
                <g id="e9ordztszu3b30">
                    <circle id="e9ordztszu3b31" r="22" transform="matrix(1 0 0 1 530.70000000000005 433.60000000000002)" fill="rgb(53,53,65)" stroke="none" stroke-width="1" />
                </g>
            </g>
            <g id="e9ordztszu3b32">
                <g id="e9ordztszu3b33">
                    <path id="e9ordztszu3b34" d="M530.700000,458.700000C516.800000,458.700000,505.400000,447.400000,505.400000,433.400000C505.400000,419.500000,516.700000,408.100000,530.700000,408.100000C544.700000,408.100000,556,419.400000,556,433.400000C556,447.300000,544.700000,458.700000,530.700000,458.700000ZM530.700000,414.700000C520.400000,414.700000,511.900000,423.100000,511.900000,433.500000C511.900000,443.800000,520.300000,452.300000,530.700000,452.300000C541,452.300000,549.500000,443.900000,549.500000,433.500000C549.500000,423.100000,541.100000,414.700000,530.700000,414.700000Z" fill="rgb(255,255,255)" stroke="none" stroke-width="1" />
                </g>
            </g>
            <g id="e9ordztszu3b35">
                <path id="e9ordztszu3b36" d="M536.400000,439.500000C537.800000,436.900000,541.100000,438.200000,543.300000,439.800000C543.700000,439.100000,544,438.300000,544.200000,437.500000C544.400000,436.700000,544.600000,435.900000,544.600000,435C542.200000,435.900000,539.100000,436.100000,538.200000,433.400000C537.200000,430.300000,541.100000,429.700000,543.900000,429.900000C543.200000,427.900000,542,426,540.400000,424.500000C540,426.900000,538.500000,429.700000,535.600000,428.400000C532.400000,426.900000,534.400000,423.400000,536.300000,421.700000C535.600000,421.400000,535,421.100000,534.200000,420.900000C532.900000,420.500000,531.700000,420.400000,530.500000,420.400000C531.600000,422.600000,532.100000,425.600000,529.100000,426.100000C526.100000,426.600000,525.300000,423.600000,525.300000,421.300000C523.800000,421.900000,522.400000,422.600000,521.200000,423.700000C523.600000,425,526,427.400000,523.700000,429.400000C521.700000,431.100000,519.400000,429.700000,517.900000,427.900000C517.600000,428.500000,517.300000,429.200000,517.100000,429.900000C516.900000,430.700000,516.800000,431.400000,516.700000,432.200000C519.300000,432.100000,522.300000,432.800000,522.100000,435.500000C521.900000,437.800000,519.600000,438.100000,517.400000,437.700000C517.900000,439,518.600000,440.300000,519.500000,441.500000C520.800000,439.700000,522.700000,438.400000,524.600000,440.200000C526.300000,441.900000,525.500000,443.800000,524,445.300000C524.900000,445.800000,525.900000,446.200000,527,446.500000C527.300000,446.600000,527.700000,446.700000,528,446.700000C527.700000,444.300000,528.300000,441.400000,531.100000,441.600000C533.900000,441.700000,534.100000,444.400000,533.600000,446.800000C535.900000,446.400000,538,445.400000,539.700000,444C537.500000,443.300000,535.200000,441.700000,536.400000,439.500000Z" fill="rgb(43,43,54)" stroke="none" stroke-width="1" />
            </g>
            <g id="e9ordztszu3b37">
                <g id="e9ordztszu3b38">
                    <path id="e9ordztszu3b39" d="M285.800000,388.200000C285.800000,388.200000,288.900000,384.700000,292.400000,388.200000C295.900000,391.700000,319.400000,422.300000,319.400000,422.300000L337,422.300000L292.400000,365.500000L285.800000,388.200000Z" fill="rgb(53,53,65)" stroke="none" stroke-width="1" />
                </g>
            </g>
            <g id="e9ordztszu3b40">
                <g id="e9ordztszu3b41">
                    <path id="e9ordztszu3b42" d="M498,427.100000L311.200000,427.100000C309.900000,427.100000,308.800000,426,308.800000,424.700000L308.800000,424.700000C308.800000,423.400000,309.900000,422.300000,311.200000,422.300000L498.700000,422.300000C500,422.300000,499.500000,423.400000,499.500000,424.700000L499.500000,424.700000C499.600000,426.100000,499.300000,427.100000,498,427.100000Z" fill="rgb(53,53,65)" stroke="none" stroke-width="1" />
                </g>
            </g>
            <g id="e9ordztszu3b43">
                <g id="e9ordztszu3b44">
                    <path id="e9ordztszu3b45" d="M316.200000,427.100000L316.200000,427.100000C324.500000,436.600000,336.600000,442.100000,349.200000,442.100000L498.300000,442.100000L501.200000,427.100000L316.200000,427.100000Z" fill="rgb(53,53,65)" stroke="none" stroke-width="1" />
                </g>
            </g>
            <g id="e9ordztszu3b46">
                <path id="e9ordztszu3b47" d="M318.500000,429.500000L498.800000,429.500000C500.100000,429.500000,501.200000,428.400000,501.200000,427.100000L316.200000,427.100000C316.900000,427.900000,317.700000,428.700000,318.500000,429.500000Z" fill="rgb(78,78,89)" stroke="none" stroke-width="1" />
            </g>
            <g id="e9ordztszu3b48">
                <g id="e9ordztszu3b49">
                    <path id="e9ordztszu3b50" d="M488.100000,427.500000C488.100000,427.500000,492.200000,412.100000,502.800000,401.800000C508.800000,396,517.300000,391.800000,528.100000,391.200000C557.800000,389.600000,570.800000,421.800000,570.800000,421.800000C570.800000,421.800000,566,423.500000,562.100000,419.200000C558.200000,414.800000,546.400000,398.200000,526.800000,400.900000C507.200000,403.600000,499.300000,426.600000,499.300000,426.600000L488.100000,427.500000Z" fill="rgb(182,162,39)" stroke="none" stroke-width="1" />
                </g>
            </g>
            <g id="e9ordztszu3b51">
                <path id="e9ordztszu3b52" d="M531.600000,393.100000C538.300000,392.700000,544.200000,394.100000,549.200000,396.400000C543.400000,392.900000,536.300000,390.700000,527.900000,391.200000C516.300000,391.800000,507.200000,396.300000,501.100000,402.800000C491.500000,412.800000,488,427.500000,488,427.500000L493.300000,427.500000C495.800000,421,506.600000,394.500000,531.600000,393.100000Z" fill="rgb(238,216,51)" stroke="none" stroke-width="1" />
            </g>
            <g id="e9ordztszu3b53">
                <g id="e9ordztszu3b54">
                    <g id="e9ordztszu3b55">
                        <path id="e9ordztszu3b56" d="M306.100000,437.200000C306.100000,437.200000,309.800000,408.100000,283.700000,395.800000C254.900000,382.200000,234.600000,409.500000,234.600000,409.500000C234.600000,409.500000,239.700000,413,244.700000,410.400000C249.700000,407.800000,264.500000,396.500000,280.900000,405.700000C290.500000,411.100000,294.500000,419.700000,296.200000,426C297.500000,431.100000,298.900000,435.400000,306.100000,437.200000L306.100000,437.200000Z" fill="rgb(182,162,39)" stroke="none" stroke-width="1" />
                    </g>
                </g>
            </g>
            <g id="e9ordztszu3b57">
                <path id="e9ordztszu3b58" d="M283.600000,395.800000L283.600000,395.800000C254.800000,382.200000,234.500000,409.500000,234.500000,409.500000C234.500000,409.500000,236.900000,411.200000,240,411.400000C247.700000,396.900000,260,389.600000,283.600000,395.800000Z" fill="rgb(238,216,51)" stroke="none" stroke-width="1" />
            </g>
            <g id="e9ordztszu3b59">
                <g id="e9ordztszu3b60">
                    <path id="e9ordztszu3b61" d="M452.300000,442.100000C452.300000,442.100000,469.600000,425.900000,503.300000,426.600000C531.400000,427.200000,533.100000,428.400000,534.700000,430.600000C536.300000,432.700000,535.400000,436.600000,532,437.400000C529,438,500.800000,440.500000,498.300000,442.100000L452.300000,442.100000Z" fill="rgb(53,53,65)" stroke="none" stroke-width="1" />
                </g>
            </g>
            <g id="e9ordztszu3b62">
                <g id="e9ordztszu3b63">
                    <circle id="e9ordztszu3b64" r="33.500000" transform="matrix(1 0 0 1 266.50000000000000 433.60000000000002)" fill="rgb(53,53,65)" stroke="none" stroke-width="1" />
                </g>
            </g>
            <g id="e9ordztszu3b65">
                <g id="e9ordztszu3b66">
                    <circle id="e9ordztszu3b67" r="22" transform="matrix(1 0 0 1 266.50000000000000 433.60000000000002)" fill="rgb(53,53,65)" stroke="none" stroke-width="1" />
                </g>
            </g>
            <g id="e9ordztszu3b68">
                <g id="e9ordztszu3b69">
                    <path id="e9ordztszu3b70" d="M266.500000,458.700000C252.600000,458.700000,241.200000,447.400000,241.200000,433.400000C241.200000,419.500000,252.500000,408.100000,266.500000,408.100000C280.400000,408.100000,291.800000,419.400000,291.800000,433.400000C291.800000,447.300000,280.400000,458.700000,266.500000,458.700000ZM266.500000,414.700000C256.200000,414.700000,247.700000,423.100000,247.700000,433.500000C247.700000,443.800000,256.100000,452.300000,266.500000,452.300000C276.900000,452.300000,285.300000,443.900000,285.300000,433.500000C285.200000,423.100000,276.800000,414.700000,266.500000,414.700000Z" fill="rgb(255,255,255)" stroke="none" stroke-width="1" />
                </g>
            </g>
            <g id="e9ordztszu3b71">
                <path id="e9ordztszu3b72" d="M272.200000,439.500000C273.600000,436.900000,276.900000,438.200000,279.100000,439.800000C279.500000,439.100000,279.800000,438.300000,280,437.500000C280.200000,436.700000,280.400000,435.900000,280.400000,435C278,435.900000,274.900000,436.100000,274,433.400000C273,430.300000,276.900000,429.700000,279.700000,429.900000C279,427.900000,277.800000,426,276.200000,424.500000C275.800000,426.900000,274.300000,429.700000,271.400000,428.400000C268.200000,426.900000,270.200000,423.400000,272.100000,421.700000C271.400000,421.400000,270.800000,421.100000,270,420.900000C268.700000,420.500000,267.500000,420.400000,266.300000,420.400000C267.400000,422.600000,267.900000,425.600000,264.900000,426.100000C261.900000,426.600000,261.100000,423.600000,261.100000,421.300000C259.600000,421.900000,258.200000,422.600000,257,423.700000C259.400000,425,261.800000,427.400000,259.500000,429.400000C257.500000,431.100000,255.200000,429.700000,253.700000,427.900000C253.400000,428.500000,253.100000,429.200000,252.900000,429.900000C252.700000,430.700000,252.600000,431.400000,252.500000,432.200000C255.100000,432.100000,258.100000,432.800000,257.900000,435.500000C257.700000,437.800000,255.400000,438.100000,253.200000,437.700000C253.700000,439,254.400000,440.300000,255.300000,441.500000C256.600000,439.700000,258.500000,438.400000,260.400000,440.200000C262.100000,441.900000,261.300000,443.800000,259.800000,445.300000C260.700000,445.800000,261.700000,446.200000,262.800000,446.500000C263.100000,446.600000,263.500000,446.700000,263.800000,446.700000C263.500000,444.300000,264.100000,441.400000,266.900000,441.600000C269.700000,441.700000,269.900000,444.400000,269.400000,446.800000C271.700000,446.400000,273.800000,445.400000,275.500000,444C273.200000,443.300000,271,441.700000,272.200000,439.500000Z" fill="rgb(43,43,54)" stroke="none" stroke-width="1" />
            </g>
            <g id="e9ordztszu3b73">
                <g id="e9ordztszu3b74">
                    <path id="e9ordztszu3b75" d="M261.300000,431.800000L285.600000,334.700000L301.500000,339.500000L271,435.200000C270.300000,437.700000,267.100000,439.700000,264.500000,439L264.500000,439C261.800000,438.100000,260.600000,434.600000,261.300000,431.800000Z" fill="rgb(53,53,65)" stroke="none" stroke-width="1" />
                </g>
            </g>
            <g id="e9ordztszu3b76">
                <g id="e9ordztszu3b77">
                    <path id="e9ordztszu3b78" d="M286.300000,330L303.100000,335.100000C304.400000,335.500000,305.100000,336.800000,304.700000,338.100000L304.700000,338.100000C304.300000,339.300000,303,340,301.800000,339.600000L284.900000,334.600000C283.700000,334.200000,283,332.900000,283.300000,331.700000L283.300000,331.700000C283.700000,330.400000,285.100000,329.600000,286.300000,330Z" fill="rgb(53,53,65)" stroke="none" stroke-width="1" />
                </g>
            </g>
            <g id="e9ordztszu3b79">
                <g id="e9ordztszu3b80">
                    <ellipse id="e9ordztszu3b81" rx="2.200000" ry="2.200000" transform="matrix(0.22980000000000 -0.97320000000000 0.97320000000000 0.22980000000000 530.73716000000024 433.07216000000011)" fill="rgb(255,255,255)" stroke="none" stroke-width="1" />
                </g>
            </g>
            <g id="e9ordztszu3b82">
                <ellipse id="e9ordztszu3b83" rx="7.600000" ry="1.300000" transform="matrix(0.23190000000000 -0.97270000000000 0.97270000000000 0.23190000000000 278.92223000000001 371.62201000000005)" fill="rgb(255,255,255)" stroke="none" stroke-width="1" />
            </g>
            <g id="e9ordztszu3b84">
                <path id="e9ordztszu3b85" d="M312.300000,395.800000C310.400000,393.500000,309.200000,391.300000,309.700000,390.900000C310.200000,390.500000,312.100000,392.100000,314,394.400000C315.900000,396.700000,317.100000,398.900000,316.600000,399.300000C316.100000,399.700000,314.200000,398.100000,312.300000,395.800000Z" fill="rgb(255,255,255)" stroke="none" stroke-width="1" />
            </g>
            <g id="e9ordztszu3b86">
                <path id="e9ordztszu3b87" d="M276.700000,385.400000C276.300000,387.100000,275.400000,388.300000,274.700000,388.100000C274,387.900000,273.700000,386.400000,274.100000,384.700000C274.500000,383,275.400000,381.800000,276.100000,382C276.800000,382.200000,277.100000,383.700000,276.700000,385.400000Z" fill="rgb(255,255,255)" stroke="none" stroke-width="1" />
            </g>
            <g id="e9ordztszu3b88">
                <path id="e9ordztszu3b89" d="M240.500000,406.800000C239.600000,407.800000,238.700000,408.300000,238.300000,408C237.900000,407.700000,238.300000,406.600000,239.200000,405.700000C240.100000,404.700000,241,404.200000,241.400000,404.500000C241.800000,404.800000,241.400000,405.800000,240.500000,406.800000Z" fill="rgb(255,255,255)" stroke="none" stroke-width="1" />
            </g>
            <g id="e9ordztszu3b90">
                <path id="e9ordztszu3b91" d="M501.400000,407.600000C499.900000,409.300000,498.400000,410.500000,498,410.100000C497.600000,409.700000,498.400000,408.100000,499.800000,406.300000C501.200000,404.500000,502.800000,403.400000,503.200000,403.800000C503.600000,404.200000,502.800000,405.800000,501.400000,407.600000Z" fill="rgb(255,255,255)" stroke="none" stroke-width="1" />
            </g>
            <g id="e9ordztszu3b92">
                <path id="e9ordztszu3b93" d="M506.500000,401.900000C505.600000,402.700000,504.700000,403,504.400000,402.700000C504.100000,402.400000,504.500000,401.500000,505.400000,400.700000C506.300000,399.900000,507.200000,399.600000,507.500000,399.900000C507.800000,400.200000,507.300000,401.100000,506.500000,401.900000Z" fill="rgb(255,255,255)" stroke="none" stroke-width="1" />
            </g>
            <g id="e9ordztszu3b94">
                <path id="e9ordztszu3b95" d="M294,332.400000L293.300000,337.100000L301.800000,339.600000C303,340,304.400000,339.300000,304.800000,338L304.800000,338C305.200000,336.800000,304.500000,335.500000,303.300000,335.100000L294,332.400000Z" fill="rgb(43,43,54)" stroke="none" stroke-width="1" />
            </g>
            <g id="e9ordztszu3b96">
                <g id="e9ordztszu3b97">
                    <ellipse id="e9ordztszu3b98" rx="7.800000" ry="7.800000" transform="matrix(0.55750000000000 -0.83020000000000 0.83020000000000 0.55750000000000 317.32854999999995 189.46278999999993)" fill="rgb(53,53,65)" stroke="none" stroke-width="1" />
                </g>
            </g>
            <g id="e9ordztszu3b99">
                <g id="e9ordztszu3b100">
                    <ellipse id="e9ordztszu3b101" rx="2.200000" ry="2.200000" transform="matrix(0.16020000000000 -0.98710000000000 0.98710000000000 0.16020000000000 266.51860000000005 432.99745000000007)" fill="rgb(255,255,255)" stroke="none" stroke-width="1" />
                </g>
            </g>
        </g>
        <g id="e9ordztszu3b102">
            <g id="e9ordztszu3b103">
                <rect id="e9ordztszu3b104" width="16.600000" height="111.100000" rx="0" ry="0" transform="matrix(1 0 0 1 392.19999999999999 301.89999999999998)" fill="rgb(234,193,137)" stroke="none" stroke-width="1" />
            </g>
            <g id="e9ordztszu3b105">
                <rect id="e9ordztszu3b106" width="16.600000" height="111.100000" rx="0" ry="0" transform="matrix(1 0 0 1 423.80000000000001 301.89999999999998)" fill="rgb(234,193,137)" stroke="none" stroke-width="1" />
            </g>
            <g id="e9ordztszu3b107">
                <rect id="e9ordztszu3b108" width="27.100000" height="161.700000" rx="0" ry="0" transform="matrix(1 0 0 1 386.19999999999999 232.69999999999999)" fill="rgb(40,49,98)" stroke="none" stroke-width="1" />
            </g>
            <g id="e9ordztszu3b109">
                <polygon id="e9ordztszu3b110" points="444.800000,394.400000 417.800000,394.400000 417.800000,252.500000 444.800000,232.700000" fill="rgb(40,49,98)" stroke="none" stroke-width="1" />
            </g>
            <g id="e9ordztszu3b111">
                <rect id="e9ordztszu3b112" width="58.700000" height="47.400000" rx="0" ry="0" transform="matrix(1 0 0 1 386.19999999999999 232.69999999999999)" fill="rgb(40,49,98)" stroke="none" stroke-width="1" />
            </g>
            <g id="e9ordztszu3b113">
                <rect id="e9ordztszu3b114" width="30.400000" height="10.800000" rx="0" ry="0" transform="matrix(1 0 0 1 382.80000000000001 390.19999999999999)" fill="rgb(65,114,167)" stroke="none" stroke-width="1" />
            </g>
            <g id="e9ordztszu3b115">
                <rect id="e9ordztszu3b116" width="32.600000" height="10.800000" rx="0" ry="0" transform="matrix(1 0 0 1 412.60000000000002 390.19999999999999)" fill="rgb(65,114,167)" stroke="none" stroke-width="1" />
            </g>
            <g id="e9ordztszu3b117">
                <path id="e9ordztszu3b118" d="M410.800000,422.600000L363.600000,422.600000L363.600000,415.700000C363.600000,413.400000,365.500000,411.500000,367.800000,411.500000L410.700000,411.500000L410.700000,422.600000Z" fill="rgb(129,35,23)" stroke="none" stroke-width="1" />
            </g>
            <g id="e9ordztszu3b119">
                <path id="e9ordztszu3b120" d="M440.600000,422.600000L393.400000,422.600000L393.400000,415.700000C393.400000,413.400000,395.300000,411.500000,397.600000,411.500000L440.500000,411.500000L440.500000,422.600000Z" fill="rgb(188,27,44)" stroke="none" stroke-width="1" />
            </g>
            <g id="e9ordztszu3b121">
                <path id="e9ordztszu3b122" d="M446.800000,251.100000L382.200000,251.100000L382.200000,130.500000L443.400000,130.500000C445.300000,130.500000,446.800000,132,446.800000,133.900000L446.800000,251.100000Z" fill="rgb(145,199,238)" stroke="none" stroke-width="1" />
            </g>
            <g id="e9ordztszu3b123">
                <path id="e9ordztszu3b124" d="M421.900000,130.500000L421.900000,134.300000C421.900000,142.400000,415.400000,148.900000,407.300000,148.900000C399.200000,148.900000,392.700000,142.400000,392.700000,134.300000L392.700000,130.500000L421.900000,130.500000Z" fill="rgb(255,255,255)" stroke="none" stroke-width="1" />
            </g>
            <g id="e9ordztszu3b125">
                <path id="e9ordztszu3b126" d="M407.300000,141.500000L407.300000,141.500000C402.400000,141.500000,398.400000,137.500000,398.400000,132.600000L398.400000,112.300000L416.200000,112.300000L416.200000,132.600000C416.200000,137.500000,412.200000,141.500000,407.300000,141.500000Z" fill="rgb(204,157,109)" stroke="none" stroke-width="1" />
            </g>
            <path id="e9ordztszu3b127" d="M440.200000,140.400000C435.100000,139.200000,429.400000,143.800000,428.200000,148.900000C428.100000,149.300000,418,190.900000,389,204C386.800000,205,384.500000,205.700000,382.200000,206.300000L382.200000,225.700000C387.300000,224.800000,392.200000,223.300000,396.900000,221.100000C419.200000,210.900000,432.400000,189.500000,439.600000,173.300000C443.300000,165,445.800000,156.400000,447.300000,147.500000L447.300000,147.500000C447.500000,145.800000,444.300000,141.300000,440.200000,140.400000Z" fill="rgb(59,62,67)" stroke="none" stroke-width="1" />
            <g id="e9ordztszu3b128">
                <path id="e9ordztszu3b129" d="M357.100000,212.600000C346.600000,210.400000,335.600000,205.900000,324.200000,199.200000C319.700000,196.500000,318.200000,190.700000,320.900000,186.300000C323.600000,181.800000,329.400000,180.300000,333.800000,183C354.800000,195.400000,373.400000,198.500000,389.100000,192.200000C418.800000,180.300000,430.600000,139.300000,430.700000,138.900000C432.100000,133.900000,437.400000,130.900000,442.400000,132.400000C447.400000,133.800000,450.400000,139,448.900000,144.100000C448.300000,146.100000,434.400000,194.500000,396.200000,209.800000C384,214.500000,370.900000,215.500000,357.100000,212.600000Z" fill="rgb(234,193,137)" stroke="none" stroke-width="1" />
            </g>
            <g id="e9ordztszu3b130">
                <g id="e9ordztszu3b131">
                    <path id="e9ordztszu3b132" d="M442.700000,131.200000C437.200000,129.700000,431.300000,132.900000,429.800000,138.500000C429.700000,138.900000,418,179.400000,388.800000,191.100000C376.600000,196,362.500000,195.100000,346.800000,188.400000L338.500000,207.600000C344.800000,210.300000,350.900000,212.300000,356.900000,213.600000C370.900000,216.600000,384.200000,215.600000,396.600000,210.600000C435.300000,195.100000,449.400000,146.300000,449.900000,144.200000C451.500000,138.600000,448.300000,132.800000,442.700000,131.200000Z" fill="rgb(113,179,227)" stroke="none" stroke-width="1" />
                </g>
            </g>
            <g id="e9ordztszu3b133">
                <path id="e9ordztszu3b134" d="M398.400000,112.300000L398.400000,123.300000C398.400000,125.800000,400.400000,127.900000,403,127.900000L405.100000,127.900000C408.300000,127.900000,411,130.500000,411,133.800000L411,140.700000C414.100000,139.300000,416.200000,136.200000,416.200000,132.600000L416.200000,112.300000L398.400000,112.300000Z" fill="rgb(195,149,102)" stroke="none" stroke-width="1" />
            </g>
            <g id="e9ordztszu3b135">
                <g id="e9ordztszu3b136">
                    <circle id="e9ordztszu3b137" r="9" transform="matrix(1 0 0 1 381.50000000000000 88.40000000000001)" fill="rgb(204,157,109)" stroke="none" stroke-width="1" />
                </g>
            </g>
            <g id="e9ordztszu3b138">
                <g id="e9ordztszu3b139">
                    <path id="e9ordztszu3b140" d="M376.500000,89L376.500000,89C374.500000,89,372.900000,87.400000,372.900000,85.400000L372.900000,59.400000L380.100000,59.400000L380.100000,85.400000C380.100000,87.400000,378.500000,89,376.500000,89Z" fill="rgb(24,27,70)" stroke="none" stroke-width="1" />
                </g>
            </g>
            <g id="e9ordztszu3b141">
                <path id="e9ordztszu3b142" d="M438.100000,45.300000C436.400000,43.100000,438.300000,39.800000,441,40.300000C441,40.300000,441,40.300000,441.100000,40.300000C440.600000,39.800000,440.100000,39.400000,439.500000,39.100000C437.400000,38,435,38.200000,433.100000,39.400000C433.100000,38.200000,432.800000,37.100000,432.100000,36C431.700000,35.400000,431.300000,35,430.800000,34.500000C430.800000,34.500000,430.800000,34.500000,430.800000,34.600000C431.400000,36.900000,429.100000,38.900000,426.800000,38.200000C421.200000,36.300000,414.300000,35.500000,406.800000,35.500000C388,35.500000,372.700000,41,372.700000,53.700000C372.700000,66.400000,388,76.600000,406.800000,76.600000C425.600000,76.600000,440.700000,66.300000,440.700000,53.700000C440.800000,50.400000,439.900000,47.600000,438.100000,45.300000Z" fill="rgb(24,27,70)" stroke="none" stroke-width="1" />
            </g>
            <g id="e9ordztszu3b143">
                <g id="e9ordztszu3b144">
                    <path id="e9ordztszu3b145" d="M421.400000,124L387.500000,124C381.300000,124,376.200000,119,376.200000,112.700000L376.200000,52.800000L437,52.800000L437,108.400000C437,117,430,124,421.400000,124Z" fill="rgb(225,178,126)" stroke="none" stroke-width="1" />
                </g>
            </g>
            <g id="e9ordztszu3b146">
                <path id="e9ordztszu3b147" d="M403.700000,102.900000L386.400000,102.900000C385.500000,102.900000,384.900000,104.100000,385.400000,105C386.200000,106.600000,387.400000,108,388.800000,109L401.300000,109C402.700000,107.900000,403.900000,106.500000,404.700000,104.800000C405.100000,104.100000,404.600000,102.900000,403.700000,102.900000Z" fill="rgb(94,74,54)" stroke="none" stroke-width="1" />
            </g>
            <g id="e9ordztszu3b148">
                <use id="e9ordztszu3b149" width="19.662506" height="8.300003" xlink:href="#e9ordztszu3b2" fill="rgb(94,74,54)" stroke="none" stroke-width="1" />
                <g id="e9ordztszu3b150" clip-path="url(#e9ordztszu3b154)">
                    <g id="e9ordztszu3b151">
                        <g id="e9ordztszu3b152">
                            <path id="e9ordztszu3b153" d="M402.900000,114.700000C402.900000,119.700000,399.400000,123.700000,395,123.700000C390.600000,123.700000,387.100000,119.700000,387.100000,114.700000C387.100000,109.700000,390.600000,105.700000,395,105.700000C399.400000,105.700000,402.900000,109.800000,402.900000,114.700000Z" fill="rgb(183,77,77)" stroke="none" stroke-width="1" />
                        </g>
                    </g>
                    <clipPath id="e9ordztszu3b154">
                        <use id="e9ordztszu3b155" width="19.662506" height="8.300003" xlink:href="#e9ordztszu3b2" fill="rgb(0,0,0)" stroke="none" stroke-width="1" />
                    </clipPath>
                </g>
            </g>
            <g id="e9ordztszu3b156">
                <g id="e9ordztszu3b157">
                    <path id="e9ordztszu3b158" d="M430.900000,92.800000L428.400000,92.800000L428.400000,48.300000L440.800000,54L440.800000,83C440.800000,88.400000,436.300000,92.800000,430.900000,92.800000Z" fill="rgb(24,27,70)" stroke="none" stroke-width="1" />
                </g>
            </g>
            <g id="e9ordztszu3b159">
                <g id="e9ordztszu3b160">
                    <path id="e9ordztszu3b161" d="M429.500000,79.400000C429.100000,79.400000,428.700000,79.400000,428.400000,79.500000L428.400000,97.400000C428.800000,97.400000,429.200000,97.500000,429.500000,97.500000C434.500000,97.500000,438.500000,93.500000,438.500000,88.500000C438.500000,83.400000,434.400000,79.400000,429.500000,79.400000Z" fill="rgb(234,193,137)" stroke="none" stroke-width="1" />
                </g>
            </g>
            <g id="e9ordztszu3b162">
                <g id="e9ordztszu3b163">
                    <g id="e9ordztszu3b164">
                        <path id="e9ordztszu3b165" d="M382.100000,83C380.400000,83,378.800000,84.100000,377.800000,86.100000C377.600000,86.500000,377.600000,87.100000,378,87.500000C378.300000,87.800000,378.700000,87.700000,379,87.300000C379.700000,85.900000,380.900000,85.100000,382.200000,85.100000C383.500000,85.100000,384.600000,85.900000,385.400000,87.300000C385.500000,87.600000,385.700000,87.700000,386,87.700000C386.100000,87.700000,386.300000,87.600000,386.400000,87.500000C386.700000,87.200000,386.800000,86.600000,386.600000,86.100000C385.500000,84.100000,383.900000,83,382.100000,83Z" fill="rgb(94,74,54)" stroke="none" stroke-width="1" />
                    </g>
                </g>
                <g id="e9ordztszu3b166">
                    <g id="e9ordztszu3b167">
                        <path id="e9ordztszu3b168" d="M413.700000,87.400000C414.100000,87.100000,414.200000,86.500000,413.900000,86C412.500000,84.100000,410.300000,82.900000,407.900000,82.900000C405.500000,82.900000,403.200000,84,401.900000,86C401.600000,86.400000,401.700000,87,402.100000,87.400000C402.500000,87.700000,403.100000,87.600000,403.500000,87.200000C404.500000,85.800000,406.100000,85,407.900000,85C409.700000,85,411.300000,85.800000,412.300000,87.200000C412.500000,87.500000,412.800000,87.600000,413.100000,87.600000C413.400000,87.600000,413.600000,87.500000,413.700000,87.400000Z" fill="rgb(94,74,54)" stroke="none" stroke-width="1" />
                    </g>
                </g>
            </g>
            <g id="e9ordztszu3b169">
                <path id="e9ordztszu3b170" d="M376.200000,52.800000L376.200000,67.400000L413,67.400000C417.500000,67.400000,421.200000,71.100000,421.200000,75.600000L421.200000,90.800000C421.200000,92.600000,422.400000,94.300000,424.200000,94.500000C426.500000,94.900000,428.700000,93.100000,428.700000,90.900000L426.800000,67.200000L424.900000,52.600000L376.200000,52.600000Z" fill="rgb(204,157,109)" stroke="none" stroke-width="1" />
            </g>
            <g id="e9ordztszu3b171">
                <path id="e9ordztszu3b172" d="M428.700000,50.100000L360.800000,50.100000C360.800000,58.600000,367.700000,65.500000,376.200000,65.500000L413,65.500000C417.500000,65.500000,421.200000,69.200000,421.200000,73.700000L421.200000,88.900000C421.200000,90.700000,422.400000,92.400000,424.200000,92.600000C426.500000,93,428.700000,91.200000,428.700000,89L428.700000,65.500000L428.700000,50.100000Z" fill="rgb(24,27,70)" stroke="none" stroke-width="1" />
            </g>
            <g id="e9ordztszu3b173">
                <path id="e9ordztszu3b174" d="M398.500000,95.100000C398.500000,95.900000,396.700000,98.300000,394.500000,98.300000C392.300000,98.300000,390.500000,95.900000,390.500000,95.100000C390.500000,94.300000,392.300000,95.800000,394.500000,95.800000C396.700000,95.800000,398.500000,94.400000,398.500000,95.100000Z" fill="rgb(204,157,109)" stroke="none" stroke-width="1" />
            </g>
        </g>
    </g>
    <g id="e9ordztszu3b175_to" transform="translate(642.342686,120.908008)">
        <g id="e9ordztszu3b175" transform="translate(-266.700020,-115.992012)">
            <g id="e9ordztszu3b176">
                <g id="e9ordztszu3b177">
                    <g id="e9ordztszu3b178">
                        <circle id="e9ordztszu3b179" r="20.600000" transform="matrix(1 0 0 1 -152.19999999999999 106.80000000000000)" fill="rgb(238,216,51)" stroke="none" stroke-width="1" />
                        <path id="e9ordztszu3b180" d="M288.400000,106.800000C276.400000,106.700000,267.900000,106.900000,267.900000,106.900000C267.900000,106.900000,267.800000,102.100000,267.800000,86.200000C279.200000,86.100000,288.400000,95.400000,288.400000,106.800000Z" transform="matrix(1 0 0 1 -420 0)" fill="rgb(111,174,218)" stroke="none" stroke-width="1" />
                    </g>
                    <path id="e9ordztszu3b181" d="M304.600000,162.600000C304.600000,162.500000,305.900000,162.700000,308.100000,161.800000C309.200000,161.300000,310.400000,160.500000,311.400000,159.100000C311.900000,158.400000,312.400000,157.600000,312.700000,156.600000C313,155.700000,313.100000,154.600000,313.100000,153.500000C313.100000,144.500000,313.100000,131.400000,313,115.200000C313,107.100000,313,98.300000,313,88.800000C313,86.400000,313,84,313,81.600000C313,80.400000,313,79.100000,313,77.900000C312.900000,76.700000,312.600000,75.500000,312,74.400000C310.900000,72.200000,308.700000,70.500000,306.200000,70.100000C305,69.900000,303.600000,70,302.300000,70C301,70,299.700000,70,298.300000,70C276.900000,70,253.500000,70,228.800000,70C225.800000,70,222.900000,71.700000,221.500000,74.300000C220.800000,75.600000,220.400000,77.100000,220.500000,78.600000C220.500000,80.100000,220.500000,81.600000,220.500000,83.100000C220.500000,89.100000,220.500000,95,220.500000,100.800000C220.500000,112.400000,220.500000,123.600000,220.500000,134.300000C220.500000,139.600000,220.500000,144.800000,220.500000,149.900000C220.500000,151.200000,220.500000,152.400000,220.500000,153.700000C220.500000,154.900000,220.700000,156.100000,221.100000,157.300000C222,159.500000,223.900000,161.300000,226.100000,162C227.200000,162.400000,228.300000,162.500000,229.500000,162.500000C230.700000,162.500000,231.800000,162.500000,233,162.500000C235.300000,162.500000,237.500000,162.500000,239.700000,162.500000C244.100000,162.500000,248.300000,162.500000,252.400000,162.500000C268.500000,162.500000,281.600000,162.600000,290.700000,162.600000C295.200000,162.600000,298.700000,162.600000,301.100000,162.600000C302.300000,162.600000,303.200000,162.600000,303.800000,162.600000C304.200000,162.500000,304.600000,162.600000,304.600000,162.600000C304.600000,162.600000,304.300000,162.600000,303.700000,162.600000C303.100000,162.600000,302.200000,162.600000,301,162.600000C298.600000,162.600000,295.100000,162.600000,290.600000,162.600000C281.600000,162.600000,268.500000,162.600000,252.300000,162.700000C248.300000,162.700000,244,162.700000,239.600000,162.700000C237.400000,162.700000,235.100000,162.700000,232.900000,162.700000C231.800000,162.700000,230.600000,162.700000,229.400000,162.700000C228.200000,162.700000,227,162.600000,225.900000,162.200000C223.600000,161.400000,221.600000,159.600000,220.700000,157.200000C220.200000,156,220,154.700000,220,153.500000C220,152.300000,220,151,220,149.700000C220,144.600000,220,139.400000,220,134.100000C220,123.400000,220,112.200000,220,100.600000C220,94.800000,220,88.900000,220,82.900000C220,81.400000,220,79.900000,220,78.400000C220,76.900000,220.300000,75.300000,221.100000,73.900000C222.600000,71.100000,225.700000,69.300000,228.800000,69.300000C253.500000,69.300000,276.900000,69.300000,298.300000,69.300000C299.600000,69.300000,301,69.300000,302.300000,69.300000C303.600000,69.300000,304.900000,69.200000,306.300000,69.500000C308.900000,70,311.200000,71.700000,312.400000,74C313,75.100000,313.300000,76.400000,313.400000,77.700000C313.400000,79,313.400000,80.200000,313.400000,81.400000C313.400000,83.900000,313.400000,86.300000,313.400000,88.600000C313.400000,98.100000,313.400000,106.900000,313.400000,115C313.400000,131.100000,313.300000,144.200000,313.300000,153.300000C313.300000,154.400000,313.200000,155.500000,312.900000,156.500000C312.600000,157.500000,312.100000,158.300000,311.600000,159C310.600000,160.400000,309.300000,161.200000,308.200000,161.700000C307.100000,162.200000,306.200000,162.300000,305.600000,162.400000C304.900000,162.600000,304.600000,162.600000,304.600000,162.600000Z" transform="matrix(1 0 0 1 -420 0)" fill="rgb(38,50,56)" stroke="none" stroke-width="1" />
                </g>
            </g>
            <g id="e9ordztszu3b182">
                <g id="e9ordztszu3b183">
                    <path id="e9ordztszu3b184" d="M248,136.700000L248,138L244.700000,145.500000L242.500000,145.500000L245.700000,138.300000L242.800000,138.300000L242.800000,139.700000L241,139.700000L241,136.600000L248,136.600000Z" transform="matrix(1 0 0 1 -420 0)" fill="rgb(0,0,0)" stroke="none" stroke-width="1" />
                    <path id="e9ordztszu3b185" d="M255.800000,141.700000C256,142.100000,256.100000,142.500000,256.100000,142.900000C256.100000,143.400000,255.900000,143.900000,255.600000,144.300000C255.300000,144.700000,254.800000,145,254.300000,145.200000C253.700000,145.400000,253.100000,145.500000,252.300000,145.500000C251.600000,145.500000,250.900000,145.400000,250.300000,145.200000C249.700000,145,249.300000,144.700000,249,144.300000C248.700000,143.900000,248.500000,143.400000,248.500000,142.900000C248.500000,142.400000,248.600000,142,248.800000,141.700000C249,141.300000,249.400000,141.100000,249.800000,140.800000C249.500000,140.600000,249.200000,140.300000,249,140C248.800000,139.700000,248.700000,139.300000,248.700000,138.900000C248.700000,138.400000,248.800000,137.900000,249.100000,137.600000C249.400000,137.200000,249.800000,136.900000,250.300000,136.700000C250.800000,136.500000,251.400000,136.400000,252.100000,136.400000C252.800000,136.400000,253.400000,136.500000,253.900000,136.700000C254.400000,136.900000,254.800000,137.200000,255.100000,137.600000C255.400000,138,255.500000,138.400000,255.500000,138.900000C255.500000,139.300000,255.400000,139.600000,255.200000,140C255,140.300000,254.800000,140.600000,254.400000,140.800000C255.200000,141.100000,255.600000,141.400000,255.800000,141.700000ZM253.600000,143.800000C253.900000,143.600000,254,143.300000,254,142.900000C254,142.500000,253.800000,142.200000,253.600000,142C253.300000,141.800000,252.900000,141.700000,252.400000,141.700000C251.900000,141.700000,251.500000,141.800000,251.200000,142C250.900000,142.200000,250.800000,142.500000,250.800000,142.900000C250.800000,143.300000,250.900000,143.600000,251.200000,143.800000C251.500000,144,251.900000,144.100000,252.400000,144.100000C252.900000,144.200000,253.300000,144.100000,253.600000,143.800000ZM251.400000,138.300000C251.200000,138.500000,251,138.800000,251,139.100000C251,139.400000,251.100000,139.700000,251.400000,139.900000C251.600000,140.100000,252,140.200000,252.400000,140.200000C252.800000,140.200000,253.200000,140.100000,253.400000,139.900000C253.700000,139.700000,253.800000,139.400000,253.800000,139.100000C253.800000,138.800000,253.700000,138.500000,253.400000,138.300000C253.100000,138.100000,252.800000,138,252.400000,138C252,138,251.700000,138.100000,251.400000,138.300000Z" transform="matrix(1 0 0 1 -420 0)" fill="rgb(0,0,0)" stroke="none" stroke-width="1" />
                    <path id="e9ordztszu3b186" d="M262.900000,140.300000C263.400000,140.500000,263.700000,140.900000,264,141.300000C264.300000,141.700000,264.400000,142.200000,264.400000,142.700000C264.400000,143.300000,264.300000,143.800000,264,144.300000C263.700000,144.700000,263.300000,145.100000,262.800000,145.300000C262.300000,145.500000,261.700000,145.700000,261.100000,145.700000C259.900000,145.700000,258.900000,145.300000,258.200000,144.600000C257.500000,143.800000,257.100000,142.800000,257.100000,141.300000C257.100000,140.300000,257.300000,139.400000,257.700000,138.700000C258.100000,138,258.600000,137.400000,259.300000,137.100000C260,136.700000,260.800000,136.500000,261.700000,136.500000C262.200000,136.500000,262.600000,136.600000,263.100000,136.700000C263.500000,136.800000,263.900000,137,264.200000,137.100000L263.400000,138.600000C263,138.300000,262.400000,138.200000,261.700000,138.200000C260.900000,138.200000,260.400000,138.400000,259.900000,138.900000C259.500000,139.300000,259.200000,140,259.200000,140.800000C259.700000,140.300000,260.500000,140,261.400000,140C261.900000,140,262.400000,140.100000,262.900000,140.300000ZM262,143.800000C262.300000,143.600000,262.400000,143.200000,262.400000,142.800000C262.400000,142.400000,262.300000,142.100000,262,141.800000C261.700000,141.600000,261.400000,141.400000,260.900000,141.400000C260.500000,141.400000,260.100000,141.500000,259.800000,141.800000C259.500000,142,259.400000,142.400000,259.400000,142.800000C259.400000,143.200000,259.500000,143.500000,259.800000,143.800000C260.100000,144,260.500000,144.200000,260.900000,144.200000C261.400000,144.200000,261.700000,144,262,143.800000Z" transform="matrix(1 0 0 1 -420 0)" fill="rgb(0,0,0)" stroke="none" stroke-width="1" />
                    <path id="e9ordztszu3b187" d="M271.800000,142.400000L270.400000,143.700000L270.400000,145.500000L269.200000,145.500000L269.200000,136.100000L270.400000,136.100000L270.400000,142.100000L274.100000,138.800000L275.600000,138.800000L272.800000,141.600000L275.900000,145.500000L274.400000,145.500000L271.800000,142.400000Z" transform="matrix(1 0 0 1 -420 0)" fill="rgb(0,0,0)" stroke="none" stroke-width="1" />
                    <path id="e9ordztszu3b188" d="M277.800000,145.200000C277.300000,144.900000,276.800000,144.500000,276.500000,144C276.200000,143.500000,276,142.900000,276,142.200000C276,141.500000,276.200000,141,276.500000,140.400000C276.800000,139.900000,277.200000,139.500000,277.800000,139.200000C278.300000,138.900000,278.900000,138.800000,279.600000,138.800000C280.200000,138.800000,280.800000,138.900000,281.200000,139.200000C281.700000,139.400000,282,139.800000,282.300000,140.300000L281.400000,140.900000C281.200000,140.600000,280.900000,140.300000,280.600000,140.200000C280.300000,140,279.900000,140,279.600000,140C279.200000,140,278.800000,140.100000,278.400000,140.300000C278,140.500000,277.800000,140.800000,277.600000,141.100000C277.400000,141.500000,277.300000,141.900000,277.300000,142.300000C277.300000,142.800000,277.400000,143.200000,277.600000,143.500000C277.800000,143.900000,278.100000,144.100000,278.400000,144.300000C278.800000,144.500000,279.100000,144.600000,279.600000,144.600000C280,144.600000,280.300000,144.500000,280.600000,144.400000C280.900000,144.200000,281.200000,144,281.400000,143.700000L282.300000,144.300000C282,144.800000,281.700000,145.100000,281.200000,145.400000C280.700000,145.600000,280.200000,145.800000,279.600000,145.800000C279,145.600000,278.400000,145.500000,277.800000,145.200000Z" transform="matrix(1 0 0 1 -420 0)" fill="rgb(0,0,0)" stroke="none" stroke-width="1" />
                    <path id="e9ordztszu3b189" d="M288.600000,139.500000C289.100000,140,289.300000,140.600000,289.300000,141.500000L289.300000,145.600000L288.100000,145.600000L288.100000,144.700000C287.900000,145,287.600000,145.300000,287.200000,145.400000C286.800000,145.600000,286.400000,145.600000,285.900000,145.600000C285.100000,145.600000,284.500000,145.400000,284.100000,145.100000C283.600000,144.700000,283.400000,144.300000,283.400000,143.700000C283.400000,143.100000,283.600000,142.600000,284,142.300000C284.400000,141.900000,285.100000,141.800000,286.100000,141.800000L288,141.800000L288,141.600000C288,141.100000,287.800000,140.700000,287.500000,140.400000C287.200000,140.100000,286.700000,140,286.200000,140C285.800000,140,285.400000,140.100000,285,140.200000C284.600000,140.300000,284.300000,140.500000,284,140.700000L283.500000,139.800000C283.800000,139.500000,284.300000,139.300000,284.700000,139.200000C285.200000,139.100000,285.700000,139,286.200000,139C287.400000,138.800000,288.100000,139,288.600000,139.500000ZM287.400000,144.400000C287.700000,144.200000,288,143.900000,288.100000,143.500000L288.100000,142.600000L286.200000,142.600000C285.200000,142.600000,284.700000,142.900000,284.700000,143.600000C284.700000,143.900000,284.800000,144.200000,285.100000,144.400000C285.400000,144.600000,285.700000,144.700000,286.200000,144.700000C286.600000,144.700000,287,144.600000,287.400000,144.400000Z" transform="matrix(1 0 0 1 -420 0)" fill="rgb(0,0,0)" stroke="none" stroke-width="1" />
                    <path id="e9ordztszu3b190" d="M291.600000,136.100000L292.800000,136.100000L292.800000,145.500000L291.600000,145.500000L291.600000,136.100000Z" transform="matrix(1 0 0 1 -420 0)" fill="rgb(0,0,0)" stroke="none" stroke-width="1" />
                </g>
            </g>
        </g>
    </g>
</svg>
