<?xml version="1.0" encoding="utf-8"?>
<!-- Generator: Adobe Illustrator 25.0.0, SVG Export Plug-In . SVG Version: 6.00 Build 0)  -->
<svg version="1.1" id="moving" shape-rendering="geometricPrecision" text-rendering="geometricPrecision"
	 xmlns="http://www.w3.org/2000/svg" xmlns:xlink="http://www.w3.org/1999/xlink" x="0px" y="0px" viewBox="0 0 750 500"
	 style="enable-background:new 0 0 750 500;" xml:space="preserve">
<style type="text/css">
	.st0{fill:#FFFFFF;}
	.st1{clip-path:url(#bg_2_);}
	.st2{fill:#F8B6A8;}
	.st3{fill:#F7AB9A;}
	.st4{opacity:0.5;fill:#F38175;enable-background:new    ;}
	.st5{fill:#FFD977;}
	.st6{fill:#86D1D6;}
	.st7{fill:#70C9CA;}
	.st8{fill:#353535;}
	.st9{fill:#00687E;}
	.st10{fill:#004E5E;}
	.st11{fill:#232222;}
	.st12{clip-path:url(#SVGID_2_);fill:#F7AB9A;}
	.st13{fill:#F38175;}
	.st14{fill:#F2776C;}
	.st15{fill:#ECEBEB;}
	.st16{fill:#8BC26F;}
	.st17{fill:#212158;}
	.st18{fill:#0E0F1F;}
	.st19{fill:#ED365A;}
	.st20{fill:#491535;}
	.st21{fill:#F6A9AB;}
	.st22{fill:#F17682;}
	.st23{fill:#EE4760;}
</style>
<path id="bg" class="st0" d="M673.4,288.9c-15.8,57.5-43.3,113.8-112.7,169H220.1c-45.2-20.3-74.2-64.8-82.3-110.4
	c-3.8-21.7-3.3-43.7,6.6-63.9c10.3-21.1,27.3-40.2,30.3-63.9c2-15.8-2.8-31.6-3.9-47.4c-2-29.6,9.8-59.8,31.7-81.1
	s53.5-33.4,84.9-32.5c18.1,0.5,35.9,5.2,53.9,6.5C412.6,70.4,473,14.9,544.1,31c23.3,5.3,45.2,20.8,51.7,42.5
	c5.7,19-0.7,39.9,5.5,58.7c10.6,32.2,52.2,45.8,69.7,75.1C685.6,231.6,680.8,261.9,673.4,288.9z"/>
<g>
	<defs>
		<path id="bg_1_" d="M673.4,288.9c-15.8,57.5-43.3,113.8-112.7,169H220.1c-45.2-20.3-74.2-64.8-82.3-110.4
			c-3.8-21.7-3.3-43.7,6.6-63.9c10.3-21.1,27.3-40.2,30.3-63.9c2-15.8-2.8-31.6-3.9-47.4c-2-29.6,9.8-59.8,31.7-81.1
			s53.5-33.4,84.9-32.5c18.1,0.5,35.9,5.2,53.9,6.5C412.6,70.4,473,14.9,544.1,31c23.3,5.3,45.2,20.8,51.7,42.5
			c5.7,19-0.7,39.9,5.5,58.7c10.6,32.2,52.2,45.8,69.7,75.1C685.6,231.6,680.8,261.9,673.4,288.9z"/>
	</defs>
	<clipPath id="bg_2_">
		<use xlink:href="#bg_1_"  style="overflow:visible;"/>
	</clipPath>
	<g id="yes" class="st1">
		<g>
			<g>
				<g>
					<path class="st2" d="M382.9,258.9c0,0-5.4-12-6.8-20.5c0,0-6.2-8.4-5.5-9c6.2-5.5,11.3,6.6,11.3,6.6s6.6-4.5,8.1-4.3
						c1.5,0.1,3.5,3.2,3.5,3.2s2.5-0.4,3.7,0.8c1.2,1.1,2,4,2,4s-0.2,0.7,1.1,2s0.7,3.9,0.7,3.9s-0.6,2.5-0.9,3.8
						c-0.3,1.4-3.8,2.6-3.8,2.6l-1.3,1.6L382.9,258.9z"/>
					<path class="st3" d="M400,249.5c0.3-1.4,0.9-3.8,0.9-3.8s0.6-2.6-0.7-3.9c-1.3-1.3-1.1-2-1.1-2s-0.8-2.8-2-4
						c-1.2-1.1-3.7-0.8-3.7-0.8s-2-3.1-3.5-3.2c-0.3,0-0.7,0.1-1.2,0.3c-2.1,1.1-7.6,4.5-6.6,8.1c0.4,1.3,1.6,1.4,3,0.9
						c-0.7,0.8-1,1.6-0.8,2.2c0.3,0.9,1.9,1,3.9,0.8c-1.1,0.9-1.6,1.8-1.2,2.8c0.2,0.4,0.8,1.1,2.9,1.3c-0.6,1-0.5,1.9-0.4,2.6
						c0.2,1,6.4,1.4,6.4,1.4S399.7,250.9,400,249.5z"/>
					<path class="st4" d="M399.3,250.4c-1.2,0.6-2.7,0.6-3.9,0c-0.3-0.1-0.6-0.3-0.8-0.6c-0.2-0.3-0.2-0.7,0-1
						c0.3-0.3,0.9-0.5,0.8-0.9c-1-0.2-2-0.1-2.9-0.1c-1-0.1-2-0.4-2.6-1.2c-0.4-0.6-0.4-1.5-0.1-2.2s0.9-1.2,1.6-1.7
						s1.4-0.8,2.2-1.1c0.6-0.2,1.3-0.4,1.4-1c-1.7,0.1-3.4,0.5-5,1.2c-0.3,0.1-0.6,0.3-0.9,0.3s-0.6,0-0.9-0.1
						c-0.1,0-0.2-0.1-0.3-0.1c-0.1-0.1-0.1-0.2-0.1-0.3c0-1.2,0.9-2.1,1.8-2.9c0.9-0.8,1.9-1.6,2.2-2.7c-1.5,0.5-2.9,1.2-4.2,2
						c-0.5,0.3-0.9,0.7-1.5,0.9c-0.5,0.2-1.2,0.3-1.7,0s-0.8-0.8-1.1-1.4c-0.1-0.3-0.3-0.7-0.4-1.1c-0.1,0.1-0.1,0.2-0.2,0.2
						c0,0.1-0.1,0.1-0.1,0.2c-0.1,0.2-0.2,0.3-0.3,0.5c0,0.1-0.1,0.1-0.1,0.2c-0.1,0.1-0.1,0.3-0.2,0.4c0,0.1,0,0.1-0.1,0.2
						c-0.1,0.2-0.1,0.4-0.1,0.6v0.1c0,0.2,0,0.3,0,0.5c0,0.1,0,0.1,0,0.2c0,0.2,0,0.4,0.1,0.6c0.4,1.3,1.6,1.4,3,0.9
						c-0.7,0.8-1,1.6-0.8,2.2c0.3,0.9,1.9,1,3.9,0.8c-1.1,0.9-1.6,1.8-1.2,2.8c0.2,0.4,0.8,1.1,2.9,1.3c-0.6,1-0.5,1.9-0.4,2.6
						c0.2,1,6.4,1.4,6.4,1.4S398.3,251.4,399.3,250.4z"/>
				</g>
				<g>
					<path class="st5" d="M397.4,259c0,0,0.2-4.3-1.4-6.4c-1.5-2-14.1,2.9-14.7,3.4s1.1,4.5,1.1,4.5L397.4,259z"/>
					<path class="st6" d="M317.4,276.2c0,0,6.7,13.6,18.8,19.6c18.6,9.1,46.3,11.3,52.7,7.3c10.6-6.6,15.7-42,9.1-46.6
						c-1.6-1.1-5.4-0.4-8.5,0.3c-5.2,1.1-10.2,3.1-9.3,5.4c0.6,1.5-1.5,21.9-3,21.8s-35.6-19.4-49.7-20.5
						C324.1,263.3,317.4,276.2,317.4,276.2z"/>
					<g>
						<path class="st7" d="M317.4,276.2c0,0,0.7,1.5,2.2,3.8c1.3-0.7,2.5-1.4,3.4-2c4.7-2.7,8.9-7,9.1-12.2c0-0.5,0-1-0.1-1.4
							c-1.6-0.4-3.1-0.7-4.5-0.8C324.1,263.3,317.4,276.2,317.4,276.2z"/>
						<path class="st7" d="M390.3,299.6c-2.3,0.5-4.6,0.8-6.9,0.7c-2.5-0.1-5-0.7-7.5-1.3c-9.8-2.5-19.5-5.6-28.9-9.3
							c-1.4-0.6-2.8-1.1-4.3-1.2c-0.3,0-0.7,0-1,0.2c-0.5,0.3-0.5,1-0.4,1.5c0.2,2,0.7,4,1.1,6c0.2,0.8,0.4,1.7,0.6,2.6
							c18,6.6,40.3,8,46,4.5c1.5-0.9,2.8-2.4,4.1-4.3C392.1,299.2,391.2,299.4,390.3,299.6z"/>
					</g>
				</g>
				<path class="st8" d="M238.5,558.1"/>
				<g>
					<path class="st9" d="M301.8,459.2c2.5-25.3,3.9-50.6,4.6-74.3c6.8-0.3,13.6-0.5,20.4-0.8c2.1,24.8,3,49.8,2.8,74.9l19,0.7
						c1.9-36.9,1.4-73.8-1.5-110.5c-6.5,3.6-16,5.5-24.2,6.5c-0.7,0.1-1.4,0.1-2.1,0.2c-0.5,0-0.9,0-1.4,0.1
						c-2.9,0.1-5.9,0.3-8.8,0.4c-1,0-2,0.1-3,0.1c-0.6,0-1.2,0-1.9,0c-9.6-0.3-21.2-1.5-28.1-5.4c0.5,5.9,1.2,15.9,1.8,29.5
						c0,1.2,3.8,2.1,3.9,3.3c1.6,19.8,0.5,47.8-1.5,74.8L301.8,459.2z M286.4,461.5c0,0.5-0.5,0.9-1,0.9c0,0,0,0-0.1,0
						c-0.5,0-0.9-0.5-0.9-1c0.1-1.9,0.2-3.7,0.3-5.6c0-0.5,0.5-0.9,1-0.9s0.9,0.5,0.9,1C286.6,457.8,286.5,459.6,286.4,461.5z
						 M287,450.4c0,0.5-0.5,0.9-1,0.9l0,0c-0.5,0-1-0.5-0.9-1c0.1-1.9,0.2-3.7,0.2-5.6c0-0.5,0.5-0.9,1-0.9s1,0.4,0.9,1
						C287.1,446.7,287.1,448.5,287,450.4z M333.5,440c0.5,0,1,0.4,1,0.9c0,1.8,0.1,3.7,0.1,5.6c0,0.5-0.4,0.9-1,0.9l0,0
						c-0.5,0-1-0.4-1-0.9c0-1.9,0-3.7-0.1-5.6C332.6,440.4,333,440,333.5,440z M334.6,457.6c0,0.5-0.4,0.9-1,0.9l0,0
						c-0.5,0-1-0.4-1-0.9c0-1.3,0-2.6,0-3.9V452c0-0.5,0.4-0.9,1-0.9l0,0c0.5,0,1,0.4,1,0.9v1.7C334.6,455,334.6,456.3,334.6,457.6z
						"/>
					<path class="st10" d="M293.2,358.1c-1.3-0.3-2.6-0.5-3.8-0.8c0,0-1.2,8.5-8.6,13.4c0,1,0.1,2,0.1,3
						C280.8,373.6,290.4,374,293.2,358.1z"/>
					<path class="st10" d="M346.5,368.5c-7.8-4.7-9.9-13.4-9.9-13.4c-1.2,0.4-2.5,0.8-3.7,1.2c4.5,16.3,13.7,15.4,13.7,15.4
						C346.6,370.6,346.5,369.6,346.5,368.5z"/>
					<path class="st10" d="M311.4,380.5c0,0,7.8-0.7,8.5-4.6c0.6-2.9-0.2-14.1-0.7-20c-2.9,0.1-5.9,0.3-8.8,0.4
						C310.9,364.4,311.2,372.4,311.4,380.5z"/>
					<path class="st10" d="M331,391.9C331,391.9,331.1,391.9,331,391.9c0.6,0,1-0.5,1-1c-0.3-3.6-0.5-5.6-0.5-5.6
						c-0.1-0.5-0.5-0.9-1.1-0.8c-0.5,0.1-0.9,0.5-0.9,1c0,0,0.2,2,0.5,5.5C330.1,391.5,330.5,391.9,331,391.9z"/>
					<path class="st10" d="M333.6,447.4L333.6,447.4c0.5,0,1-0.4,1-0.9c0-1.9,0-3.7-0.1-5.6c0-0.5-0.5-0.9-1-0.9s-1,0.4-1,0.9
						c0,1.8,0.1,3.7,0.1,5.6C332.7,447,333.1,447.4,333.6,447.4z"/>
					<path class="st10" d="M332.6,414.1L332.6,414.1c0.6,0,1-0.5,1-1c-0.1-1.9-0.2-3.8-0.3-5.6c0-0.5-0.5-0.9-1-0.9s-0.9,0.5-0.9,1
						c0.1,1.8,0.2,3.6,0.3,5.5C331.6,413.7,332,414.1,332.6,414.1z"/>
					<path class="st10" d="M331.9,403c0.5,0,0.9-0.5,0.9-1c-0.1-2-0.3-3.9-0.4-5.6c0-0.5-0.5-0.9-1-0.9s-0.9,0.5-0.9,1
						c0.1,1.7,0.3,3.5,0.4,5.5C330.9,402.6,331.4,403,331.9,403L331.9,403z"/>
					<path class="st10" d="M333.1,425.2L333.1,425.2c0.6,0,1-0.4,1-1c-0.1-1.9-0.2-3.8-0.2-5.6c0-0.5-0.5-0.9-1-0.9s-0.9,0.5-0.9,1
						c0.1,1.8,0.2,3.6,0.2,5.6C332.1,424.8,332.6,425.2,333.1,425.2z"/>
					<path class="st10" d="M333.4,436.3L333.4,436.3c0.6,0,1-0.4,1-0.9c0-1.9-0.1-3.7-0.2-5.6c0-0.5-0.5-0.9-1-0.9s-1,0.4-0.9,1
						c0.1,1.8,0.1,3.7,0.2,5.6C332.5,435.9,332.9,436.3,333.4,436.3z"/>
					<path class="st10" d="M333.7,451.1L333.7,451.1c-0.5,0-1,0.4-1,0.9v1.7c0,1.3,0,2.6,0,3.9c0,0.5,0.4,0.9,1,0.9l0,0
						c0.5,0,1-0.4,1-0.9c0-1.3,0-2.6,0-3.9V452C334.6,451.5,334.2,451.1,333.7,451.1z"/>
					<path class="st10" d="M287.1,395.6L287.1,395.6c0.5,0,1-0.4,1-0.9c0-2,0-3.9,0-5.6c0-0.5-0.4-0.9-1-0.9l0,0c-0.5,0-1,0.4-1,0.9
						c0,1.7,0,3.5,0,5.6C286.2,395.2,286.6,395.6,287.1,395.6z"/>
					<path class="st10" d="M286.3,443.9c-0.5,0-1,0.4-1,0.9c-0.1,1.8-0.2,3.7-0.2,5.6c0,0.5,0.4,0.9,0.9,1l0,0c0.5,0,0.9-0.4,1-0.9
						c0.1-1.9,0.2-3.7,0.2-5.6C287.2,444.3,286.8,443.9,286.3,443.9z"/>
					<path class="st10" d="M285.8,455c-0.5,0-1,0.4-1,0.9c-0.1,1.8-0.2,3.7-0.3,5.6c0,0.5,0.4,0.9,0.9,1c0,0,0,0,0.1,0
						c0.5,0,0.9-0.4,1-0.9c0.1-1.9,0.2-3.7,0.3-5.6C286.7,455.4,286.3,455,285.8,455z"/>
					<path class="st10" d="M286.7,432.7c-0.5,0-1,0.4-1,0.9c-0.1,1.8-0.1,3.7-0.2,5.6c0,0.5,0.4,0.9,0.9,1l0,0c0.5,0,1-0.4,1-0.9
						c0.1-1.9,0.1-3.7,0.2-5.6C287.6,433.2,287.2,432.7,286.7,432.7z"/>
					<path class="st10" d="M286.9,421.6c-0.5,0-1,0.4-1,0.9c0,1.8-0.1,3.7-0.1,5.6c0,0.5,0.4,0.9,0.9,0.9l0,0c0.5,0,1-0.4,1-0.9
						c0-1.9,0.1-3.7,0.1-5.6C287.9,422,287.5,421.6,286.9,421.6z"/>
					<path class="st10" d="M287.1,384.5c0.5,0,1-0.4,1-0.9C288,380,288,378,288,378c0-0.5-0.5-0.9-1-0.9s-1,0.4-0.9,0.9
						c0,0,0.1,2,0.1,5.6C286.1,384.1,286.5,384.5,287.1,384.5L287.1,384.5z"/>
					<path class="st10" d="M287.1,410.5L287.1,410.5c-0.5,0-1,0.4-1,0.9c0,1.8,0,3.7-0.1,5.6c0,0.5,0.4,0.9,1,0.9l0,0
						c0.5,0,1-0.4,1-0.9c0-1.9,0.1-3.8,0.1-5.6C288.1,410.9,287.6,410.5,287.1,410.5z"/>
					<path class="st10" d="M287.1,399.3L287.1,399.3c-0.5,0-1,0.4-1,0.9c0,1.8,0,3.6,0,5.6c0,0.5,0.4,0.9,1,0.9l0,0
						c0.5,0,1-0.4,1-0.9c0-1.9,0-3.8,0-5.6C288.1,399.8,287.7,399.4,287.1,399.3z"/>
					<g>
						<path class="st6" d="M352.3,321.9c-1-1.7-1.8-3.2-1.8-4.2c0.1-4.1-3.7-35.7-8.9-43.3c-2.6-4.1-6.5-7-10.1-9
							c-3.2-1.8-6.2-2.8-8-3.2c-5.4,0.8-24.1-0.2-29.4,0.5c0,0.1-21.3,12.6-23.9,20.5c-2.4,8,1.3,37,1.8,40.8
							c0.7,3.8-8.1,12.8,1.4,23.9c1,1.2,2.4,2.2,4,3.1c6.9,3.8,18.5,5.1,28.1,5.4c0.6,0,1.2,0,1.9,0c1,0,2-0.1,3-0.1
							c2.9-0.1,5.9-0.3,8.8-0.4c0.5,0,0.9,0,1.4-0.1c0.7,0,1.4-0.1,2.1-0.2c8.2-1,17.7-2.9,24.2-6.5c2.8-1.6,5.1-3.4,6.4-5.7
							C359.1,333.8,355,326.7,352.3,321.9z"/>
						<path class="st7" d="M307.4,356.4c1,0,2-0.1,3-0.1c2.9-0.1,5.9-0.3,8.8-0.4c0.5,0,0.9,0,1.4-0.1c0.7,0,1.4-0.1,2.1-0.2
							c8.2-1,17.7-2.9,24.2-6.5c2.8-1.6,5.1-3.4,6.4-5.7c5.6-9.6,1.6-16.8-1.1-21.5c-0.6,0-1.2,0-1.7,0.2c-3.4,0.9-5,4.7-5.5,8.1
							s-0.4,7-2.3,9.9c-2.7,4-8.2,5.1-13.1,5.8c-4.1,0.6-8.2,1.2-12.3,1.8c-2.8,0.4-5.8,0.8-8.6,0.3c-2.8-0.5-5.6-2.2-6.6-4.7
							c-0.8-2-0.4-4.3-0.2-6.5c0.2-2.4,0-4.9-0.5-7.3c-4.5-1-9.7,2.5-13.6,0.1c-1.3-0.8-2.2-2.2-2.9-3.5c-4.4-8.3-5.4-18.2-2.6-27.2
							c0.7-2.4,1.8-4.8,3.5-6.7c3.6-3.9,9.5-5,14.8-6.1c5.7-1.2,11.2-2.9,16.6-4.9c5.1-1.9,10.5-4.6,12.6-9.4
							c0.6-1.3,1.2-3.7,1.6-6.2c-3.2-1.8-6.2-2.8-8-3.2c-5.4,0.8-24.1-0.2-29.4,0.5c0,0.1-21.3,12.6-23.9,20.5
							c-2.4,8,1.3,37,1.8,40.8c0.7,3.8-8.1,12.8,1.4,23.9c1,1.2,2.4,2.2,4,3.1c6.9,3.8,18.5,5.1,28.1,5.4
							C306.1,356.5,306.8,356.5,307.4,356.4z"/>
					</g>
				</g>
				<path class="st5" d="M312.6,268.9c6.6-0.9,11.2-3.7,11-6.7c-3.5-1.6-6-2.6-6-2.6h-16.3c0,0-2.9,0.9-6.9,2.8
					c-0.1,0.8,0.1,2.1,0.9,3C297.2,267.7,304.4,270.1,312.6,268.9z"/>
				<g>
					<path class="st3" d="M296.7,244.7l1.8,18.1c0,0,8.3,4.4,19.4-0.1l-1.1-17.2L296.7,244.7z"/>
					<path class="st4" d="M316.9,245.5h-0.2l-19.7,2.2l0.3,2.7c4.3,3.5,12.4,9.6,15.9,9.4c1.7-0.1,3.1-1.8,4.3-4L316.9,245.5z"/>
					<path class="st8" d="M273.1,212.1c-1.7-2.1-3.1-4.8-2.1-7.3c0.1-0.4,0.3-0.7,0.4-1.1c0.1-0.8-0.5-1.5-1.1-2.1
						c-1.8-1.8-3.9-3.5-5.2-5.7c-1.3-2.2,0.8-7,1.1-7.2c-0.3-1.9-0.5-3.8-0.2-5.6c0.3-1.9,1.3-3.7,3.1-4.6c0.5-0.3,1.2-0.5,1.7-0.9
						c1.1-0.8,1.4-2.3,1.8-3.5c1.8-5,8.1-8.1,13.4-6.7c0.7-3.1,4.8-12.2,19.2-9.6c-0.5-3.8-1.8-11.8,10.1-11.2
						c4.2,0.2,6.4,4.1,6.4,5.4c2-2.2,11.8,0,8.8,8.2c-0.1,0.4-0.3,0.8-0.2,1.2c0.1,0.4,0.5,0.7,0.8,1c2.9,2.7,4.7,7.3,4.1,12.8
						c-0.2,1.8-1.3,1.7-2.5,3.1c-0.7,0.8-1.6,1.2-2.6,1.6c-14,6.2-30.5,5.4-44.9,10.8c-1.8,0.7-3.6,1.5-4.5,3
						c-0.7,1.1-0.8,2.5-0.9,3.7c-0.1,4.7,0.9,9.4,2.9,13.6c0.7,1.5,1.5,2.9,1.6,4.6c0.1,1.6-0.8,3.4-2.5,3.8
						c-2.5,0.5-3.4-1.2-4.5-2.7C276,215.1,274.4,213.7,273.1,212.1z"/>
					<g>
						<path class="st11" d="M281.7,219.6c1.7-0.3,2.6-2.2,2.5-3.8s-0.9-3.1-1.6-4.6c-2-4.3-3-9-2.9-13.6c0-1.3,0.2-2.6,0.9-3.7
							c1-1.6,2.8-2.4,4.5-3c2.1-0.8,4.3-1.4,6.5-2c-1.5-0.4-3.2-1.1-3.4-2.6c-2,0.9-3.8,2.2-5.7,3.1c-2,0.9-4.3,1.5-6.4,0.9
							c-2.1-0.6-3.8-2.7-3.3-4.7c-0.6,2.6-4.5,3.7-6.7,2l0,0c0,0.4,0.1,0.8,0.2,1.2c-0.3,0.2-2.5,5-1.1,7.2c1.3,2.2,3.4,3.8,5.2,5.7
							c0.6,0.6,1.2,1.3,1.1,2.1c0,0.4-0.2,0.7-0.4,1.1c-1,2.5,0.4,5.3,2.1,7.3c1.3,1.6,3,3,4.1,4.7
							C278.3,218.4,279.2,220.1,281.7,219.6z"/>
						<path class="st11" d="M329.9,180c0.9-0.4,1.9-0.9,2.6-1.6c1.2-1.3,2.3-1.3,2.5-3.1c0,0,0,0,0-0.1c-0.7,0.3-1.4,0.5-2.2,0.5
							c-3.1-0.1-5.8-2.8-8.8-2.2c0.1,3-1.9,6-4.8,7.2s-6.5,0.6-8.8-1.5c0.7,2.4-0.8,5.1-3.1,6.2c-2.3,1.1-5.2,0.8-7.4-0.6
							c0.4,0.7,0.4,1.5,0,2.3C310.1,185.2,320.5,184.2,329.9,180z"/>
					</g>
					<path class="st3" d="M285.1,214.4c0,0-12.4-7.6-13.9,0c-1.4,7.6,1.2,20.3,13.9,15.4C297.8,224.9,285.1,214.4,285.1,214.4z"/>
					<path class="st2" d="M281.3,218.2c0,0,1.7,36.4,34.4,33.6s11.3-75,11.3-75l-52.7,12.5L281.3,218.2z"/>
					<g>
						<g>
							<defs>
								<path id="SVGID_1_" d="M281.3,218.2c0,0,1.7,36.4,34.4,33.6s11.3-75,11.3-75l-52.7,12.5L281.3,218.2z"/>
							</defs>
							<clipPath id="SVGID_2_">
								<use xlink:href="#SVGID_1_"  style="overflow:visible;"/>
							</clipPath>
							<path class="st12" d="M313.8,196.7c-0.4-0.1-0.9-0.2-1.3,0s-0.7,0.5-1,0.9c-2,2.4-5.3,3.5-8.5,3.7s-6.4-0.2-9.6-0.2
								c-0.4,0-0.7,0-1,0.3c-0.2,0.3-0.2,0.6-0.1,1c0.4,3.6-2.7,6.7-3.3,10.3c-0.5,3.1,0.9,6.3,1.2,9.4c0.3,3.3-0.7,6.7,0.2,9.8
								c0.4,1.5,1.3,2.9,2.3,4.1c4.8,6.3,12.6,10.3,20.7,10.7c5.2,0.2,10.4-1,15.5-2.2c1.2,1.8,0.8,4.3-0.6,6s-3.5,2.7-5.7,3.3
								c-3.4,0.9-6.9,0.9-10.4,0.9c-4,0-8,0.1-11.9-0.7c-5.2-1.1-10-3.6-14.6-6.1c-1.7-0.9-3.5-1.9-4.9-3.3c-1.4-1.3-2.4-3-3.3-4.6
								c-1.9-3.1-3.7-6.3-5.2-9.6c-1.8-4.1-3-8.4-4.1-12.6c-1.3-5.1-2.6-10.3-2.9-15.5c-0.3-5.7,0.6-11.6,4.1-16.3
								c4.6-6.3,12.8-9.1,20.6-10.8c9.9-2.2,20.8-3,29.6,1.8c3.2,1.8,9.6,5.2,9.3,9.5c-0.2,1.8-1.6,3.9-2.8,5.4
								c-1.3,1.6-3,2.9-4.9,3.8C318.6,196.7,316.1,197.1,313.8,196.7z"/>
						</g>
					</g>
					<path class="st13" d="M310.1,200.4c0,0,1,28.9,3.7,28.9c0.7,0,2,0,3.1-0.9c2.6-2.2,8.1,1,8.9-1.5
						C326.9,223.4,309.8,194.4,310.1,200.4z"/>
					<path class="st14" d="M313.8,229.3c0.7,0,2,0,3.1-0.9c2.6-2.2,8.1,1,8.9-1.5c0.1-0.2,0.1-0.4,0-0.7c-0.2,0-0.4,0.1-0.6,0.3
						c-1.2,1.8-4.3-1.9-6.9-2.5s-1,1.5-2.7,0c-1.4-1.3-2.8-17.3-3.3-22.7c-1.5-1.8-2.4-2.4-2.3-0.9
						C310.1,200.4,311.1,229.3,313.8,229.3z"/>
					<path class="st8" d="M284.8,220.4c0.3,0.2,0.6,0.4,0.9,0.3c0.3-0.1,0.3-0.4,0.4-0.7c0.3-2.5-0.2-5.1-1.4-7.3
						c-0.2-0.4-0.5-0.9-0.5-1.3c-0.1-0.5,0.1-1,0.3-1.5c0.5-1.5,0.7-3.2,0.5-4.7c-0.3-1.6-1.2-3.1-2.6-3.9c2.9-1.2,4.8-4.3,4.4-7.3
						c3.3,0.9,6.6,1.4,10,1.5c2.2,0,4.4-0.2,6.5-0.9s3.9-2.3,4.6-4.2c2.1,1.7,5.1,1.7,7.8,1.6c1.2,0,2.4-0.1,3.3-0.7
						c1.4-1,1.6-2.9,1.7-4.5c1.7,0.8,3.7,1.3,5.4,0.5c1.6-0.8,3.1-2.5,4.6-3.4c3.7-2.1,5-7.4,4.2-10c-0.6-1.9-5.7-1.3-7.7-1.8
						c-1.1-0.3-2.2-0.4-3.2-0.1c-1,0.3-2,1.2-2,2.2c-3.7-1.1-7.6-1.7-11.4-2c-1.2-0.1-2.5-0.1-3.6,0.2c-1,0.3-1.9,0.8-2.8,1.4
						c-2.1,1.5-4,3.3-5.4,5.4c-3.3-0.2-6.4-1.5-9.6-1.8c-3.2-0.3-7.1,0.7-8.3,3.6c-0.2,0.4-0.3,0.9-0.7,1.1
						c-0.3,0.3-0.7,0.4-1.1,0.4c-2.8,0.5-6.1,1-7.6,3.3c-0.5,0.8-0.8,1.8-0.9,2.8c-0.7,5.7,1.9,11.3,5.2,16.1c1,1.4,2.1,2.9,2.4,4.6
						c0.3,1.4,0.2,2.5,0.9,3.9C280.2,215.9,282.2,218.4,284.8,220.4z"/>
					<path class="st11" d="M307.8,190.1c2.1,1.7,5.1,1.7,7.8,1.6c1.2,0,2.4-0.1,3.3-0.7c1.4-1,1.6-2.9,1.7-4.5
						c1.7,0.8,3.7,1.3,5.4,0.5c1.6-0.8,3.1-2.5,4.6-3.4c3-1.7,4.4-5.5,4.4-8.3c-0.7,0.3-1.4,0.5-2.2,0.5c-3.1-0.1-5.8-2.8-8.8-2.2
						c0.1,3-1.9,6-4.8,7.2s-6.5,0.6-8.8-1.5c0.7,2.4-0.8,5.1-3.1,6.2c-2.3,1.1-5.2,0.8-7.4-0.6c0.9,1.6-0.5,3.7-2.3,4.3
						s-3.8,0.2-5.7-0.2c-1.6-0.4-3.5-1.1-3.8-2.7c-2,0.9-3.8,2.2-5.7,3.1c-2,0.9-4.3,1.5-6.4,0.9s-3.8-2.7-3.3-4.7
						c-0.3,1.1-1.2,2-2.3,2.4c0,0.2-0.1,0.3-0.1,0.5c-0.7,5.7,1.9,11.3,5.2,16.1c1,1.4,2.1,2.9,2.4,4.6c0.3,1.4,0.2,2.5,0.9,3.9
						c1.4,2.9,3.5,5.4,6.1,7.4c0.3,0.2,0.6,0.4,0.9,0.3c0.3-0.1,0.3-0.4,0.4-0.7c0.3-2.5-0.2-5.1-1.4-7.3c-0.2-0.4-0.5-0.9-0.5-1.3
						c-0.1-0.5,0.1-1,0.3-1.5c0.5-1.5,0.7-3.2,0.5-4.7c-0.3-1.6-1.2-3.1-2.6-3.9c2.9-1.2,4.8-4.3,4.4-7.3c3.3,0.9,6.6,1.4,10,1.5
						c2.2,0,4.4-0.2,6.5-0.9C305.2,193.5,307.1,192,307.8,190.1z"/>
					<path class="st11" d="M325.8,188.9c0.1,0.9,1.7,3.1,2.5,3.4c0,0-0.3,1.9,0.4,3.2c0.7,1.4,1.3,2.3,2.9,3
						c0.3-0.2,0.4-0.6,0.3-0.9c-1.1,1.7-1.1,4.1,0.5,5.4c0.7-4,0.4-8,0.4-11.9c0-3.6-0.1-7.5-2.6-10.2c-0.8,0.1-1.7,0.2-2.5,0.6
						c-1,0.6-1.7,2.5-2.3,3.5C324.8,186.4,325.6,187.3,325.8,188.9z"/>
					<g>
						<path class="st8" d="M300.6,212.6c0.3,2.5-0.4,4.7-1.5,4.8c-1.2,0.1-2.3-1.8-2.7-4.4c-0.3-2.5,0.4-4.7,1.5-4.8
							C299.1,208.1,300.3,210,300.6,212.6z"/>
						<path class="st8" d="M325.5,206.6c0.3,2.5-0.4,4.7-1.5,4.8c-1.2,0.1-2.3-1.8-2.7-4.4c-0.3-2.5,0.4-4.7,1.5-4.8
							C324,202.2,325.2,204.1,325.5,206.6z"/>
						<path class="st8" d="M291.3,208.8c0,0,3.8-4.1,8.1-4.3c4.4-0.2-0.1-3.6-5.6-0.6S288.3,211.3,291.3,208.8z"/>
						<path class="st8" d="M327,198.1c0,0-5.5-1.7-9.3,0.2c-3.9,1.9-1.8-3.2,4.5-3.2S330.9,198.8,327,198.1z"/>
					</g>
					<path class="st4" d="M274.2,216.2c0,0,0.6-1.9,2-1.2s5.2,7,5.3,8s-1.9,3.9-2.3,3.5s0.1-2.7,0.1-3.5c0-0.7-2.1-5.1-3.4-5.5
						C274.6,217.1,273.2,220.3,274.2,216.2z"/>
					<path class="st0" d="M325.8,235c0,3.2-5,5.9-11.1,5.9s-11.1-2.6-11.1-5.9s5-0.8,11.1-0.8C320.9,234.2,325.8,231.8,325.8,235z"
						/>
				</g>
				<g>
					<g>
						<path class="st13" d="M274.1,325.1c0,0,4.3-2.2,6.3-2.5c1.9-0.3,5.2,2.5,3.8,5C282.8,329.9,274.1,325.1,274.1,325.1z"/>
						<path class="st2" d="M266.9,336c0,0,9.3,6.3,12.1,5.7c2.7-0.6,3.7-2.4,3.7-2.4s3.3-1.4,3.7-2.7s0.5-2,0.5-2s1.7-1.6,1.6-2.7
							s-0.5-2.1-0.5-2.1s0.3-1.5,0.1-2.1c-0.2-0.7-12.6-3.6-15.6-3.5C269.4,324.2,265.6,333.7,266.9,336z"/>
					</g>
					<path class="st5" d="M261.7,334.7c0,0,3.5,2.6,6.3,2.7c2.6,0,5.8-12.6,5.7-13.4c-0.1-0.7-4.5-1.8-4.5-1.8L261.7,334.7z"/>
					<path class="st6" d="M294.1,262.8c0,0-12.4,1.4-24.6,7.3c-18.6,9-39.8,24.9-40.3,32.2c-0.7,12.1,26.3,36.8,34.1,34.5
						c1.8-0.6,3.5-3.9,4.8-6.7c2.1-4.7,3.4-9.7,0.9-10.4c-1.6-0.4-17.6-14.1-16.7-15.2c0.9-1.1,20.3-7.5,23.2-9.2
						C278.5,293.5,294.1,262.8,294.1,262.8z"/>
					<path class="st7" d="M278.1,266.6c-0.7,0.8-1.2,1.8-1.6,2.9c-1.1,3.2-0.9,6.6-1.5,9.8c-1,5.2-4.3,10.1-9.1,12.7
						c-4.7,2.6-10.4,2.9-15.5,4.9c-1.7,0.7-3.4,1.5-4.4,3c-0.8,1.2-1.1,2.6-1.2,4.1c-0.2,5,2.8,9.8,6.8,13.1c4,3.3,9.1,5.2,14.1,6.7
						c1.4,0.4,2.8,0.8,4.3,1c0.6-2.6,0.5-4.6-1-5c-1.6-0.4-17.6-14.1-16.7-15.2c0.9-1.1,20.3-7.5,23.2-9.2
						c3-1.8,18.6-32.4,18.6-32.4S286.9,263.6,278.1,266.6z"/>
				</g>
			</g>
			<g>
				<path class="st0" d="M292.5,217.5c-1,0-3.2,1.2-3.4,2.2c-0.5,3.8-1.1,17,0.8,22.2c2.3,6.2,12.8,12.7,27.9,9.7
					c14.8-2.9,17.5-19,17.2-34.4c0-0.5-0.6-0.9-1.1-0.6c-1.6,0.7-4.9,1.9-7.4,1.1c-3.8-1.2-6.2-4-8.8-2.8c-5,2.3-10.3,4.8-13.9,5.4
					C301.7,220.5,296.2,217.6,292.5,217.5z"/>
				<path class="st0" d="M289.9,220.7l-11.6-9.2c0,0,0-1.7,2.5-1.1c2.5,0.6,10.7,8.7,10.7,8.7L289.9,220.7z"/>
				<path class="st0" d="M283.8,230.3c0,0,5.8,8,6.9,8.6S290,242,290,242S281.8,233.9,283.8,230.3z"/>
			</g>
			<path class="st15" d="M308.2,227.5c8.4,0,17.2-1,24.4-5.8c0.2,0.9,0,1.8-0.5,2.5s-1.2,1.2-1.8,1.7c-2.1,1.5-4.2,2.8-6.4,3.9
				c-0.6,0.3-1.2,0.6-1.4,1.3c3.1,0.9,6.3,0.9,9.4,0c-0.5,0.9-1.3,1.4-2.1,1.9c-1.8,1.1-3.6,2.1-5.4,3.2c-1,0.6-2.1,1.2-2.9,2.2
				c1.9,0.7,4,1,6,0.7c-0.2,1.9-1.7,3.2-3.1,4c-4.2,2.4-9.1,2.6-13.7,2.2c-3.2-0.3-6.5-0.9-9.1-2.9c-0.2-0.1-0.3-0.3-0.4-0.5
				c-0.1-0.5,0.5-0.7,1-0.7c2.4,0,4.8,0,7.2,0c-1.4-1.3-3.1-1.9-4.8-2.7c-1.6-0.8-3.3-1.9-4.1-3.7c1.8-0.3,3.6-0.1,5.5-0.1
				c1.8,0,3.7-0.4,5.2-1.7c-4-0.7-8-1.9-11.8-3.5c-0.7-0.3-1.4-0.6-1.9-1.1s-0.9-1.3-0.8-2.1c0-0.2,4.9,0.8,5.3,0.8
				C303.8,227.4,306,227.5,308.2,227.5z"/>
		</g>
		<g>
			<ellipse class="st16" cx="212.5" cy="223.7" rx="32.3" ry="30.9"/>
			<path class="st0" d="M206.1,239.1c0.9,0.6,1.9,1.1,2.9,1c1.6-0.1,2.8-1.3,3.7-2.5c5.8-6.9,20.9-30.8,18.7-32
				c-3.5-2-23,25.6-24,25.2c-1-0.3-9.3-8.8-11.3-6.9C194.5,225.8,204.4,238,206.1,239.1z"/>
		</g>
	</g>
	<g id="no" class="st1">
		<g>
			<g>
				<g>
					<path class="st17" d="M567.8,314.5l-1.8-8.3c0,0-21,50.1-1.6,82.9c-0.2-0.1-4.6-3.6-10.6-8.9c-10.5-9.4-25.6-24.5-29.9-37.1
						c-11.2-33-9.4-56.3-5.9-70l0,0V273v-0.1c2.5-9.7,5.8-14.6,5.8-14.6s0.5-0.6,1.3-1.4c2.8-2.7,9.7-8.3,19.9-8.1
						c5,0.1,9.7,2.9,13.7,7.2c6.8,7.3,11.4,19.2,11.8,30.4C571.2,304.3,567.8,314.5,567.8,314.5z"/>
					<path class="st0" d="M558.9,256.1c-3.7-3.2-8.3-5.9-13-6.2c-10.7-0.5-19.9,7.5-19.9,7.5l-0.7-0.6c2.8-2.7,9.7-8.3,19.9-8.1
						C550.1,249,554.9,251.7,558.9,256.1z"/>
					<path class="st18" d="M546.1,341.1c-0.6,6.1,1.7,25.4,7.7,39c-10.5-9.4-25.6-24.5-29.9-37.1c-11.2-33-9.4-56.3-5.9-70l0,0v-0.1
						v-0.1l7.3-11.4c0,0,9.3-6.7,19.9-2.8c10.7,3.9,15.4,28.7,13.2,40.9C556.4,311.9,546.9,333.5,546.1,341.1z"/>
				</g>
				<g>
					<path class="st19" d="M542.1,271.9c1.6,5.5,0.2,10.7-3.1,11.6c-3.4,0.9-7.4-2.8-9-8.3c-1.6-5.5-0.2-10.7,3.1-11.6
						C536.4,262.7,540.4,266.4,542.1,271.9z"/>
					<path class="st20" d="M534.4,268.8c0,0,3.4,0.2,4.4,1.8c1.1,1.6,1.6,3.9,1.6,3.9s-0.2-2.3,0.2-2.8c0.4-0.5,1.3,1,1.5,2.8
						c0.1,1.9,0.2,7.6-3.4,8.5C535.1,284,534.4,268.8,534.4,268.8z"/>
					<path class="st0" d="M537.2,266.5c0,0.3-0.3,0.5-0.8,0.5s-0.8-0.2-0.8-0.5s0.3-0.5,0.8-0.5S537.2,266.2,537.2,266.5z"/>
					<path class="st0" d="M538.4,267.6c0,0.1-0.2,0.3-0.4,0.3s-0.4-0.1-0.4-0.3s0.2-0.3,0.4-0.3
						C538.3,267.3,538.4,267.4,538.4,267.6z"/>
				</g>
				<path class="st17" d="M539.4,288.8c0,0.1,0,0.2,0,0.4c-1.7,16.1-9.7,26.4-19.3,35.5c0.1-0.1,0.4-1.1,0.8-2.3
					c0.2-1,0.2-2.1-0.6-2.7c-1.6-1.3-2.8-2.9-2.8-2.9s0.1-0.3,0.2-0.8c0.6-2.5,2.3-10.1,1.1-16.3c-0.2-0.9-0.7-2.1-1.6-3.6
					c-6.2-10.4-27.3-32.3-27.3-32.3l-0.8-14.2c0,0,16.2-2.4,28.5,1.7S541,272.5,539.4,288.8z"/>
				<path class="st18" d="M520.9,322.4c0.2-1,0.2-2.1-0.6-2.7c-1.6-1.3-2.8-2.9-2.8-2.9s0.1-0.3,0.2-0.8c0.6-2.5,2.3-10.1,1.1-16.3
					c-0.2-0.9-0.7-2.1-1.6-3.6c1.1-4.5,2.3-8.8,3.1-11c2.2-5.8,5.5-10.4,5.5-10.4s4.6-2.1,8.9,3.4c2.3,2.9,3.9,7,4.7,11.2
					c-1.7,16.1-9.7,26.4-19.3,35.5C520.2,324.5,520.5,323.5,520.9,322.4z"/>
				<path class="st18" d="M469.3,309.2c0,0-3,11.5-6.6,15.5c0,0,7-4.9,9-11.4L469.3,309.2z"/>
				<path class="st21" d="M521.5,348.3c-15.2,5.5-32.5,2.5-32.5,2.5c0.6-1.9,1.1-3.9,1.5-6c1.1-5,1.7-9.7,1.7-9.7
					c1.8-4.3,8.3-9.1,14.2-12.9c5.1-3.2,10-5.7,11.3-6.3c-0.1,0.5-0.2,0.8-0.2,0.8s1.2,1.6,2.8,2.9c0.7,0.6,0.8,1.7,0.6,2.7
					c-0.4,1.2-0.7,2.2-0.8,2.3l0,0l0,0C518.5,330.7,521.5,348.3,521.5,348.3z"/>
				<path class="st22" d="M516.8,320.8c0,0-2.1,18-26.3,24.1c1.1-5,1.7-9.7,1.7-9.7c1.8-4.3,8.3-9.1,14.2-12.9
					C512.1,321.5,516.8,320.8,516.8,320.8z"/>
				<path class="st21" d="M506.5,332.4c-10.7,7.1-28.8,5.8-28.8,5.8s-6.5-9.9-9.7-20.1c-0.2-0.7-0.4-1.4-0.5-2.1
					c-2-9.1,2-15.1,2.3-17.3c0.4-2.4,1-19.2,1-19.2c0-0.9,0.1-1.8,0.2-2.7c1.1-8.1,7.2-12.9,20.7-15.6c15-3,29.4,19.2,29.8,35.6
					C521.9,313.2,517.1,325.3,506.5,332.4z"/>
				<path class="st0" d="M471.2,292.1c0.2,2.7,0.7,5-1.8,10.1s-1.9,13.8-1.9,13.8l0,0c-2-9.1,2-15.1,2.3-17.3c0.4-2.4,1-19.2,1-19.2
					c0-0.9,0.1-1.8,0.2-2.7l3.9-2.1C471.5,278.9,471,289.4,471.2,292.1z"/>
				<path class="st22" d="M478.3,270.7c0,0,5.4,22.4,39.7,28.9L478.3,270.7z"/>
				<path class="st17" d="M480,269.2c0,0-8.9,6.5-9.4,17.2c0,0-7.2-12.6-5.9-20.9c0.6-3.9,1.9-6.7,4.1-8.2c1.3-1,3-1.5,5-1.5
					c1.7,0,3.6,0.3,5.8,0.9L480,269.2z"/>
				<polygon class="st22" points="474.8,306 473,311.2 475,311.4 				"/>
				<path class="st19" d="M484.5,321.7c-0.9-0.4-2-0.5-3-0.5c-1.1,0-2.1,0.3-2.8,1c-0.6,0.6-1.1,1.5-1.1,2.4c0,0,0.1,0.1,0.1,0
					c0.5-0.6,0.9-1.3,1.5-1.8c0.7-0.6,1.5-0.9,2.5-0.8c0.8,0,1.7,0.1,2.4,0.4c0.4,0.1,0.7,0.3,1.1,0.5c0.3,0.2,0.5,0.5,0.8,0.7
					c0.2,0.1,0.4,0,0.4-0.2C486.3,322.6,485.2,322,484.5,321.7z"/>
				<g>
					<path class="st17" d="M493.4,299.1c-0.3,1.4-0.9,2.4-1.5,2.3s-0.8-1.3-0.5-2.6c0.3-1.4,0.9-2.4,1.5-2.3
						C493.4,296.6,493.6,297.7,493.4,299.1z"/>
					<path class="st17" d="M494.1,296.7c-0.2-0.3-0.7-0.3-1-0.4c-0.4-0.1-0.8-0.1-1.2-0.2c-0.7-0.1-1.5-0.1-2.2,0l0,0l0,0l0,0
						c0,0,0,0,0-0.1c0,0,0,0-0.1,0l0,0c-0.1,0-0.1-0.1-0.2-0.1h-0.1c0,0,0,0-0.1,0l-0.1,0.1v0.1l0,0l0,0l0,0c0,0.1,0,0.1,0.1,0.1
						c0,0,0,0,0-0.1c0,0,0,0.1,0.1,0.1l0,0l0.1,0.1l0,0c0,0,0.1,0.1,0.2,0.1c0.8,0,1.5,0,2.3,0.1c0.4,0.1,0.7,0.1,1.1,0.2
						C493.3,296.7,493.8,296.9,494.1,296.7C494.1,296.9,494.2,296.8,494.1,296.7z"/>
				</g>
				<g>
					<path class="st17" d="M476.2,297.9c0,1.2-0.4,2.2-0.8,2.2c-0.5,0-0.8-1-0.8-2.3c0-1.2,0.4-2.2,0.8-2.2S476.2,296.6,476.2,297.9
						z"/>
					<path class="st17" d="M476.1,295.6c-0.5-0.1-1-0.2-1.5-0.2c-0.2,0-0.5,0-0.7,0c-0.1,0-0.4,0-0.5,0.1l0,0l0,0c0,0,0,0-0.1-0.1
						l0,0l-0.1-0.1c0,0,0,0-0.1,0H473c0,0,0,0-0.1,0h-0.1l0,0c0,0,0,0,0,0.1c0,0,0,0,0,0.1v0.1c0,0.1,0.1,0.1,0.2,0.2c0,0,0,0,0.1,0
						l0,0c0,0,0,0,0.1,0h0.1c0,0,0,0,0.1,0l0,0c0.1,0.1,0.4,0.1,0.5,0.1c0.2,0,0.5,0,0.7,0c0.5,0,1,0.1,1.5,0c0.1,0,0.2-0.1,0.2-0.1
						l0,0l0,0C476.2,295.7,476.2,295.7,476.1,295.6z"/>
				</g>
				<path class="st22" d="M494.7,306.9c-0.1-0.3-0.4-0.5-0.6-0.7c-0.3-0.2-0.6-0.4-0.9-0.6s-0.6-0.3-0.9-0.5s-0.6-0.3-1-0.4
					c-0.2,0-0.3,0.2-0.2,0.3c0.2,0.2,0.5,0.4,0.8,0.5c0.3,0.2,0.6,0.3,0.9,0.5s0.5,0.4,0.8,0.6s0.6,0.4,0.9,0.5
					C494.6,307.2,494.8,307.1,494.7,306.9z"/>
				<path class="st22" d="M496.9,305.9c-0.1-0.2-0.4-0.3-0.5-0.4c-0.2-0.1-0.4-0.2-0.6-0.3c-0.4-0.2-0.8-0.4-1.2-0.6
					c-0.2-0.1-0.3,0.2-0.2,0.3c0.4,0.2,0.8,0.5,1.1,0.7c0.2,0.1,0.4,0.2,0.6,0.3c0.1,0,0.2,0.1,0.3,0.1c0.1,0.1,0.2,0.1,0.3,0.1
					C496.8,306.2,497,306,496.9,305.9z"/>
				<path class="st22" d="M499.4,306c-0.1-0.1-0.2-0.2-0.3-0.3c-0.1-0.1-0.2-0.2-0.4-0.3c-0.3-0.2-0.5-0.4-0.8-0.6
					c-0.1-0.1-0.3-0.1-0.4,0s-0.1,0.3,0.1,0.4l0.8,0.6c0.1,0.1,0.3,0.2,0.4,0.3c0.1,0.1,0.3,0.2,0.4,0.2
					C499.4,306.3,499.5,306.1,499.4,306z"/>
				<path class="st22" d="M471.2,303.5c-0.1-0.3-0.1-0.5-0.2-0.8c0-0.1-0.1-0.2-0.1-0.4c0-0.1-0.1-0.3-0.2-0.4s-0.2,0-0.2,0.1
					s0,0.1,0,0.2s0,0.1,0,0.2s0.1,0.3,0.1,0.4c0.1,0.3,0.1,0.5,0.2,0.8C470.8,303.9,471.2,303.8,471.2,303.5z"/>
				<path class="st22" d="M472.4,303.7c-0.1-0.2-0.1-0.5-0.2-0.7c0-0.1-0.1-0.2-0.1-0.4c-0.1-0.1-0.1-0.3-0.2-0.4s-0.2,0-0.2,0.1
					s0,0.3,0,0.4s0.1,0.3,0.1,0.4c0.1,0.2,0.1,0.5,0.2,0.7C472.1,304,472.5,303.9,472.4,303.7z"/>
				<path class="st17" d="M497.8,290.3c-1.5-0.4-3.2-0.2-4.6,0.1c-0.8,0.2-1.5,0.4-2.2,0.7c-0.6,0.3-1.5,0.6-1.9,1.2
					c-0.1,0.2,0.1,0.4,0.3,0.4c0.3-0.1,0.7-0.3,1-0.4s0.6-0.3,0.9-0.4c0.7-0.3,1.4-0.5,2.1-0.7s1.4-0.3,2.2-0.4
					c0.7-0.1,1.5-0.1,2.2-0.1C497.9,290.6,498,290.3,497.8,290.3z"/>
				<path class="st17" d="M477.2,290.2c-0.3-0.2-0.7-0.5-1.1-0.7s-0.8-0.4-1.2-0.5c-0.2-0.1-0.4-0.1-0.6-0.2c-0.2,0-0.4-0.1-0.6-0.1
					c-0.1,0-0.1,0.2-0.1,0.2c0.1,0.1,0.3,0.2,0.5,0.2c0.2,0.1,0.3,0.2,0.5,0.2c0.3,0.2,0.7,0.3,1,0.5s0.6,0.3,0.9,0.5
					c0.2,0.1,0.3,0.2,0.5,0.3c0.1,0.1,0.3,0.2,0.4,0.3c0.1,0.1,0.3,0.1,0.4,0C478,290.7,477.5,290.4,477.2,290.2z"/>
				<path class="st17" d="M526.5,297.3c-3.2,2.6-7.7,2.3-7.7,2.3c-35.9-10.5-41.2-33.5-41.2-33.5c-1.1-5.7-1.6-11.7,9.8-16.1
					c9.2-3.6,29,11.4,37.8,25.4l0,0c2.1,3.3,3.6,6.6,4.2,9.6C530.6,291.7,528.9,295.3,526.5,297.3z"/>
				<path class="st18" d="M526.5,297.3c-1-0.1-2.4-0.4-4.1-0.8c-6.3-1.4-16.8-11-17.1-11.3c0.3,0.1,7.4,2.3,13.6,0.9
					c6.3-1.4,6.4-10.7,6.4-10.7l0,0c2.1,3.3,3.6,6.6,4.2,9.6C530.6,291.7,528.9,295.3,526.5,297.3z"/>
				<path class="st21" d="M518.6,300.1c0,0,5.1-6.8,10.1-2.2c5,4.6-2.5,15.7-11.2,18.9L518.6,300.1z"/>
				<path class="st22" d="M527.3,299.7c0,0-3.4,0.4-5.9,3.4v3.2C521.4,306.2,523.7,300.7,527.3,299.7z"/>
				<path class="st17" d="M478.5,266.9c0,0-4.2,25.6,27.6,27.5c0,0-26-2.4-26.4-26.4L478.5,266.9z"/>
				<path class="st17" d="M517.9,297.9c0,0,0.8,20-4.2,29.9c0,0,10.3-14.5,8.7-31.3L517.9,297.9z"/>
				<path class="st0" d="M483,335.7c0,0.5-0.7,0.8-1.5,0.8s-1.5-0.4-1.5-0.8c0-0.5,0.7-0.8,1.5-0.8C482.3,334.9,483,335.3,483,335.7
					z"/>
				<path class="st0" d="M479.8,263.2c0,0-1.8-5.1,3-8.7c4.9-3.6,17.1-5,30.9-2.2c0,0-22.3-2.2-29.9,2.9
					C483.7,255.1,479.9,258.3,479.8,263.2z"/>
				<path class="st0" d="M491.6,255.8c0,0,16.3-2.5,29.6,1.7C521.2,257.5,507,251.4,491.6,255.8z"/>
				<path class="st0" d="M466.4,273.5c-2.6-8.4,0-13.6,2.2-16.1c1.3-1,3-1.5,5-1.5C462.8,258.4,466.3,272.8,466.4,273.5z"/>
			</g>
			<g>
				<path class="st21" d="M557.4,437.9c0,1.1,6.3,33.6,6.3,33.6s-98.8-1.5-98.6-3.5c0.2-2.1,4.9-24.4,4.9-24.4
					c-1-2.3-3.3-11.2-5.3-20.2c-0.4-1.9-0.8-3.7-1.2-5.5c-0.2-0.7-0.3-1.4-0.5-2.1c-0.8-3.6-1.5-7-2-9.4c-1.3-6.7-2-26.9-2.4-39
					c-0.1-4.4-0.2-7.7-0.2-9c0-0.4,0-0.6,0-0.6l1-0.3l4.8-1.5l1.2-0.4l15.5-5l11.3-3.6c2.3-0.7,16.3-2.4,21.5-2
					c2.9,0.2,13.7,1.7,23,3.1c7.7,1.1,14.2,2.1,14.2,2.1s0.4,0.9,1.2,2.5c3.1,6.9,11.7,26.5,11.7,38.2c0,3.1-0.3,6.9-0.7,11.1l0,0
					c-0.1,0.9-0.2,1.7-0.3,2.6C560.9,419.4,557.4,437.1,557.4,437.9z"/>
				<polygon class="st0" points="465.4,355.5 459.3,358.9 459.3,357.4 464.1,355.9 				"/>
				<path class="st22" d="M477.6,407.4c-1,2.1-2.1,4.6-2.4,5.1s-1.4,5.3-6,7.8c-1.9,1-3.3,2.3-4.5,3.1c-0.4-1.9-0.8-3.7-1.2-5.5
					c-0.2-0.7-0.3-1.4-0.5-2.1c-0.8-3.6-1.5-7-2-9.4c-1.3-6.7-2-26.9-2.4-39c0,0,12.8-1.3,14.1-1.4
					C474,365.9,478.6,405.3,477.6,407.4z"/>
				<path class="st19" d="M563.7,471.5c0,0-1.1,0-3.1,0c-4.8-0.1-14.8-0.3-26.6-0.5c-29.1-0.6-69-1.7-68.9-3
					c0.2-2.1,4.9-24.4,4.9-24.4c-1.2-2.8-4.2-15.2-6.6-25.7c10.5-14.9,8.8-35.4,5.7-49.3c-1.3-5.8-2.8-10.4-3.7-13.1l15.5-5
					c0.6,2.9,1.9,7.5,5,11.7c1.3,1.8,3,3.6,5.1,5c1.2,0.9,2.5,1.6,4,2.3c2.3,1,5,1.7,8.1,2c1.2,0.1,2.5,0.1,3.9,0.1
					c20.5-0.5,27.9-17.7,29.8-23.7c7.7,1.1,14.2,2.1,14.2,2.1s0.4,0.9,1.2,2.5c-1,11.4,2.2,25.8,5.8,37.6c1.2,4,2.5,7.8,3.6,11
					c0.4,1.2,0.8,2.3,1.2,3.3c0,0.3-0.1,0.7-0.1,1c-1,7.9-2.4,16.5-3.5,22.8c-0.9,5.4-1.7,9.3-1.7,9.6
					C557.4,439,563.7,471.5,563.7,471.5z"/>
				<path class="st0" d="M506.9,373.9c0,0,15.9,0.1,23.4-9.9C530.3,364,526,375.2,506.9,373.9z"/>
				<path class="st22" d="M493.4,360c-0.2,0.9-1.2,3.9-2.5,7.3c-2.1-1.5-3.7-3.2-5.1-5l6.4-8.9C492.2,353.3,493.9,357.5,493.4,360z"
					/>
				<path class="st22" d="M503,371.5c-3.1-0.3-5.8-1-8.1-2c2.1-2.2,6.2-7.3,6.2-7.3s3.6,1.5,4.2,3.9
					C505.4,366.7,504.5,368.6,503,371.5z"/>
				<path class="st20" d="M555.7,439.9l4.9,31.6c-4.8-0.1-14.8-0.3-26.6-0.5l1.2-12.3c0,0-11.3-14.8-13.9-15
					c-2.7-0.2-27.1,11.2-27.1,11.2l-24.1-11.2c-1.2-2.8-4.2-15.2-6.6-25.7c10.5-14.9,8.8-35.4,5.7-49.3l2.9-6.9l6.2,4.2l-2.9,13.2
					l9.9-16.2l0.6-0.8c1.3,1.8,3,3.6,5.1,5c-2,5.4-4.4,11.6-4.5,11.9c0.2-0.2,6.5-8,7.5-8.7c0.2-0.1,0.6-0.5,1-1c2.3,1,5,1.7,8.1,2
					c-6.2,11.8-22,39.2-15.7,43c7.9,4.7,24.7,1.5,27-1.1s-0.6-11.6-0.6-11.6s6.7,2.7,10.2,3.7s26.9-28,26.9-28l6.9,12.7l1.6,2.9l2,8
					l1.1,4.4c-1,7.9-2.4,16.5-3.5,22.8l-4.4,8.1l-7.8,8.7L555.7,439.9z"/>
			</g>
			<g>
				<g>
					<path class="st21" d="M462.9,415.8l-27-4c0,0,0-2.1,0.1-5.4l0,0c0.1-5.7,0.5-15,1.2-23.1l0,0c0.6-7.2,1.6-13.5,3-15.5
						c3.9-5.6,18.1-10.1,18.1-10.1s0,0.2,0,0.6c0,1.3,0.1,4.6,0.2,9c0.3,12.2,1,32.3,2.4,39C461.4,408.9,462.1,412.2,462.9,415.8z"
						/>
					<path class="st0" d="M458.4,358.3c-5.9,2.7-15.1,7.2-16.7,9.7c-2.4,3.7-4.4,15-4.5,15.3c0.6-7.2,1.6-13.5,3-15.5
						c3.9-5.6,18.1-10.1,18.1-10.1S458.4,357.9,458.4,358.3z"/>
					<path class="st22" d="M462.9,415.8l-27-4c0,0,0-2.1,0.1-5.4l0,0c0.5-4.7,2.9-25.1,4.5-29.5c1.5-4.2,14.1-8.3,18.1-9.6
						c0.3,12.2,1,32.3,2.4,39C461.4,408.9,462.1,412.2,462.9,415.8z"/>
				</g>
				<g>
					<path class="st21" d="M509.5,398.9c0,0-0.3,0.5-0.8,1.4c-1.2,2.1-3.7,6-6.4,7.8c-3.8,2.5-10.6,3.8-11.1,4.3
						s-22.7,16.3-24.3,16.5c-1.6,0.3-18.1-3.9-20.9-5.6c0,0-2.3-1.3-4.6-2.9c-2.1-1.4-4.3-3.1-5.1-4.4c-1.1-1.8,0.4-13.1,1.8-21.4
						l0,0l0,0c0.8-4.6,1.6-8.3,1.8-8.8c0.8-1.5,8.3-13.8,8.7-15.5c0.4-1.7,7.4-22.7,8-23.5c0.5-0.6,2.2-0.5,3.9-0.3
						c0.4,0.1,0.8,0.2,1.1,0.3c1.8,0.5-1.2,13-1.6,15.5s-4.1,13.6-4.1,13.6s2.2,1,2.8,0.3c0.1-0.2,0.9-1.6,2.1-3.9l0,0
						c4.6-9,15.3-30.1,16.2-30.5c1.1-0.4,3.8-0.8,4.7-0.2c0.1,0.1,0.2,0.1,0.2,0.2c0.7,0.9,0,5.3,0,6.5s-13.7,29.1-13.8,29.5
						c-0.1,0.4,1.6,1.7,2.1,1.7c0.2,0,3.8-6.4,7.8-13.5l0,0c4.7-8.5,10-18,10.8-19.1c1.4-1.9,3.3-2.1,4.8-1.5c0.1,0,0.2,0.1,0.3,0.1
						c1.7,0.7,2.7,3.5,2.3,3.9c0,0-0.1,0.2-0.3,0.5l0,0l0,0l0,0l0,0c0,0,0,0.1-0.1,0.1c0,0,0,0.1-0.1,0.1
						c-2.9,4.8-18.5,32-18.1,32.3s1.3,0.9,1.3,0.9s3.2-4,7.1-9l0,0c6.2-7.9,14.4-18.1,14.9-18.2c0.4-0.1,1.2,0.6,1.9,1.5
						c0.7,0.8,1.3,1.8,1.4,2.4c0,0.1-0.1,0.4-0.4,0.9c-0.3,0.7-0.9,1.7-1.6,3c-4.7,8-16,25.8-16.2,26.2c-0.3,0.6-3.6,13.4-5.3,18
						c0.3-0.1,8.6-3.8,10.3-5.1c1.7-1.4,10.3-7.3,12.3-7.6C505.7,395.2,509.5,398.9,509.5,398.9z"/>
					<path class="st22" d="M496.1,350.1c-2.9,4.8-18.5,32-18.1,32.3l-3.5-1.6c0,0,2.6-1.5,3.2-2
						C478.3,378.2,494.3,352.8,496.1,350.1z"/>
					<path class="st0" d="M460.5,346.6c-1.2,0.3-2.5,0.7-3.1,1.4c-1.2,1.5-5.3,18-5.3,18s-7.5,15.9-8.7,17.2
						c-1.2,1.2-5.3,11.2-5.4,11.5c0.8-4.6,1.6-8.3,1.8-8.8c0.8-1.5,8.3-13.8,8.7-15.5c0.4-1.7,7.4-22.7,8-23.5
						C457.2,346.3,458.9,346.3,460.5,346.6z"/>
					<path class="st0" d="M481.9,341.6c-1.9,0.7-4.2,2.2-4.2,2.2l-16.8,28.5c4.6-9,15.3-30.1,16.2-30.5
						C478.2,341.3,480.9,341,481.9,341.6z"/>
					<path class="st22" d="M508.8,400.3c-1.2,2.1-3.7,6-6.4,7.8c-3.8,2.5-10.6,3.8-11.1,4.3s-22.7,16.3-24.3,16.5
						c-1.6,0.3-18.1-3.9-20.9-5.6c0,0-2.3-1.3-4.6-2.9c-0.6-1.1-1.5-2.4-1-3.2c0.8-1.2,2.5-1.6,4.3-2.7s3.3-0.4,6.6-0.5
						c3.3-0.1,6.7,1.7,9.2,2.5c2.6,0.7,10.9,1,10.9,1l17.6-5.1l-1.5-2.8h4.2c0,0,8.4-4.4,10.8-7.2
						C504.4,400.4,507.3,399.3,508.8,400.3z"/>
					<path class="st0" d="M493.9,345.4c-0.9,0.2-1.7,0.4-2.3,0.6c-1.6,0.8-13,19.4-13.4,20l0,0l0,0c4.7-8.5,10-18,10.8-19.1
						C490.4,345,492.3,344.8,493.9,345.4z"/>
					<path class="st0" d="M503.2,357.6c-0.3,0-0.7,0.1-0.9,0.1c-1.5,0.4-15.9,16.6-15.9,16.6l0,0c6.2-7.9,14.4-18.1,14.9-18.2
						C501.6,356,502.4,356.7,503.2,357.6z"/>
					<path class="st0" d="M505,397.9c0,0.5-0.6,0.8-1.3,0.8c-0.7,0-1.3-0.4-1.3-0.8c0-0.5,0.6-0.8,1.3-0.8
						C504.4,397,505,397.4,505,397.9z"/>
					<ellipse class="st0" cx="501.1" cy="399.9" rx="0.6" ry="0.3"/>
					<path class="st22" d="M480.7,389.9c0,0-6.8-4-9.3-4s-3.9-2-3.9-2s-3.1-1.1-5.6-2c-0.2,0.2-0.4,0.5-0.5,0.8
						c-0.2,0.7,0.2,0.8,0.2,1.3l0,0c0.3,0.1,0.5,0.2,0.8,0.3c0.3,0.6,0,1.1-0.4,1.6c-1.9,0.4-4.2,1-5.9,1.7
						c-3.4,1.4-9.5,8.8-9.7,9.1c-1.3,1.6-4.7,7.7-4.7,7.7s1.8-1.2,5.3-2.5c3.4-1.2,10.9,0.7,16,0s8.3-0.5,13-3.6
						C480.7,395.1,480.7,389.9,480.7,389.9L480.7,389.9L480.7,389.9z"/>
					<path class="st22" d="M459.3,382.6c0,0.2-0.1,0.4-0.3,0.5c-2.6-0.7-7.3-1.7-7.3-1.7l2.2-0.6c0,0,4-0.4,5,0
						c0.1,0.1,0.1,0.2,0.2,0.3C459.3,381.4,459.4,381.8,459.3,382.6z"/>
					<path class="st22" d="M484.5,387.2L484.5,387.2l-1.9-1.1l2.6,3.4l0,0l0,0l1.2,0.6c0.2-0.5,11.5-18.2,16.2-26.2
						c0.9-1.7,1.5-2.8,1.6-2.9L484.5,387.2z"/>
					<polygon class="st22" points="467.6,377.5 479,354.1 465.7,377.1 					"/>
					<polygon class="st22" points="457.3,366.6 458.3,366.9 457.8,368.4 455.5,376 453.6,375.5 					"/>
					<polygon class="st22" points="459.9,358 458.6,366 457.6,365.7 458.4,363.9 					"/>
				</g>
			</g>
			<g>
				<g>
					<path class="st21" d="M580.5,392.8l-1.7,0.9l-15.8,8.2c0.4-4.2,0.7-8,0.7-11.1c0-7.8-3.8-19-7.2-27.7c-0.8-2-1.6-3.8-2.3-5.5
						c-1.9-4.5-3.4-7.4-3.4-7.4s0.6,0.1,1.7,0.3c0.8,0.1,1.8,0.4,3,0.6c5.8,1.2,15.3,3.4,18.7,5.8c2.7,1.9,4.4,12.5,5.3,21.8
						C580.2,386.2,580.5,392.8,580.5,392.8z"/>
					<path class="st22" d="M565.9,360.9l-9.4,2.1c-0.8-2-1.6-3.8-2.3-5.5l-1.7-7.1c0.8,0.1,1.8,0.4,3,0.6l5.6,6.7L565.9,360.9z"/>
					<path class="st22" d="M580.5,392.8l-1.7,0.9l-9.3-17.7v-17.1c0,0,4.7,2.1,6.7,7.5c1,2.6,2.2,7.5,3.3,12.2
						C580.2,386.2,580.5,392.8,580.5,392.8z"/>
				</g>
				<g>
					<path class="st21" d="M580.9,404.1c0,0-15.9,12.6-27.4,14.5l0,0c-0.5-0.3-21.3-10.8-23.1-12.5c-1.8-1.7-7.6-9-8.3-9.5
						c-0.7-0.5-6.5-3.5-6.5-3.5s-1.4-1.8-3.2-4l0,0c-2.6-3.4-6-7.9-6.2-9.1c-0.3-2,1.7-2.7,1.9-2.9c0.2-0.2,10.1,1.3,11.5,2.4
						c1.4,1.2,6,6.2,7.7,7.8c1.7,1.6,6.1,4.7,6.1,4.7c-0.2-0.3-6.7-16.1-7.2-17.5c-0.3-0.7-5.5-7.9-10.5-14.6c0,0,0,0,0-0.1
						c-4.4-6-8.5-11.5-8.6-11.8c-0.1-0.6-0.3-5,0.6-5.8c0.8-0.7,4.2-0.8,5.1-0.8c0.2,0,0.2,0,0.2,0l20.6,25.9l1.2-1.1
						c0,0-3.5-6-7.5-13l0,0c0,0,0,0,0-0.1c-5.4-9.3-11.8-20.2-12-20.5c-0.5-0.5,0.7-4.6,1.6-5c0.9-0.4,4.9-1.1,5.1-1.1l0,0
						l22.2,35.8l2.3-0.9c0,0-7.8-19.3-11.5-28.8c-1.2-3-1.9-5.1-1.9-5.2c0.2-0.6,2.5-2.3,4.2-2.8s5.9,1.1,6.2,1.2l0,0l13.6,33
						l4.2-0.3c0,0-1.7-12.3-2.5-21.2c-0.4-4.8-0.6-8.7-0.1-9c1.4-1.1,5.1-0.8,5.4-0.6c0.1,0,0.7,0.5,1.3,1.1c1.2,1,2.6,2.5,2.6,2.5
						s3.7,35.7,3.9,36s8.6,24.8,9.1,27.4C581.5,397.4,580.9,404.1,580.9,404.1z"/>
					<path class="st0" d="M515.6,359.9c-4.4-6-8.5-11.5-8.6-11.8c-0.1-0.6-0.3-5,0.6-5.8c0.8-0.7,4.2-0.8,5.1-0.8
						c-0.9,0.5-2,1.1-2.4,1.4c-0.8,0.5-1.3,2-1.5,4C508.5,348.8,515,359,515.6,359.9z"/>
					<path class="st0" d="M527.3,353.3c-5.4-9.3-11.8-20.2-12-20.5c-0.5-0.5,0.7-4.6,1.6-5c0.9-0.4,4.9-1.1,5.1-1.1
						c-0.2,0.1-2.9,1.3-3.8,2c-1,0.7-1.1,1.5-1.3,3.1C516.7,333.5,526.7,352.2,527.3,353.3z"/>
					<path class="st0" d="M515.1,380.5c0,0.7-0.9,1.4-1.9,1.4s-1.9-0.6-1.9-1.4c0-0.7,0.9-1.4,1.9-1.4S515.1,379.8,515.1,380.5z"/>
					<path class="st0" d="M543.5,326c0,0-4.9-0.5-6.3,0.8c-1.4,1.3-2.3,6.1-2.3,6.1l0,0c-1.2-3-1.9-5.1-1.9-5.2
						c0.2-0.6,2.5-2.3,4.2-2.8C539.1,324.3,543.3,325.9,543.5,326L543.5,326z"/>
					<path class="st0" d="M565.4,328.8c-4.1,0.3-5.8,1.1-5.8,1.1l-0.8,7.6c-0.4-4.8-0.6-8.7-0.1-9c1.4-1.1,5.1-0.8,5.4-0.6
						C564.2,327.8,564.7,328.2,565.4,328.8z"/>
					<path class="st22" d="M576.8,402.8c0,0-5.8,6.7-10.5,10c-4.7,3.2-12.9,5.9-12.9,5.9l0,0c-0.5-0.3-21.3-10.8-23.1-12.5
						c-1.8-1.7-7.6-9-8.3-9.5c-0.7-0.5-6.5-3.5-6.5-3.5s-1.4-1.8-3.2-4l0,0l-2.1-4.7c0,0,5.1,3,6.3,3.5c1.2,0.6,5.1,3.1,5.1,3.1
						l1.2,3.7l4.6-3.1l-2.5,4.5c0,0,10.1,6.2,12,6.4c2,0.3,6.8-1.6,11.3-2.6s12.7,0,15,0.3s9,1.6,9,1.6L576.8,402.8z"/>
					<path class="st22" d="M523.9,368.7l2.9,4.2l7.9-2.3c0,0,13.1-3.7,13.4-3.2c0.3,0.5-0.6,2-0.6,2l-4,3.3c0,0,12.6-3.2,14.6-2.9
						c2,0.4,6.6,0.6,7.6,2.8s3.2,8.5,3.2,8.5s2.9,5.4-1.2,6.2c-4,0.7-7.7,1-11-1.1s-8.1-6-8.1-6l3.3,6l-17.6,1.1l-8.1-12.6
						L515.7,360l4.2,4.2L523.9,368.7z"/>
					<polygon class="st22" points="535.5,365.8 530.7,357.7 537.2,364.8 539.6,364.6 					"/>
					<polygon class="st22" points="547.5,360.9 544.8,354.1 548.9,360.9 					"/>
					<polygon class="st22" points="559.4,360.4 568.7,360.9 571.3,367.1 568.9,344.4 568,337.1 567.6,348.5 568.6,359.2 					"/>
					<path class="st0" d="M520.7,330.3c0.1,0.3-0.2,0.8-0.7,1c-0.6,0.2-1.1,0.1-1.3-0.2c-0.1-0.3,0.2-0.8,0.7-1
						C520,329.9,520.6,330,520.7,330.3z"/>
				</g>
			</g>
		</g>
		<g>
			<ellipse class="st23" cx="560.7" cy="413.6" rx="30.5" ry="28.3"/>
			<path class="st0" d="M566.3,412.6c4.8-6.9,8.2-13.6,6.3-14.6c-1.5-0.7-6.9,4.4-12.2,10.7c-7.7-4.7-15.3-8.1-16.3-6.3
				c-0.8,1.4,5,6.6,12,11.7c-5.1,6.7-9,13.3-7.4,14.6c2.1,1.7,7.9-3.7,13.4-10.5c7,4.5,13.7,7.9,15.1,6.5
				C578.9,422.9,573.4,417.6,566.3,412.6z"/>
		</g>
	</g>
</g>
</svg>
