<svg id="eq30unkhvhl91" xmlns="http://www.w3.org/2000/svg" xmlns:xlink="http://www.w3.org/1999/xlink" viewBox="0 0 342 332" shape-rendering="geometricPrecision" text-rendering="geometricPrecision">
    <style>
        .grad-loop {
            fill: url(#SVGID_1_);
        }

        #eq30unkhvhl92_to {
            animation: eq30unkhvhl92_to__to 3000ms linear infinite reverse forwards
        }

        @keyframes eq30unkhvhl92_to__to {
            0% {
                transform: translate(-179.998243px, 177.802299px)
            }

            100% {
                transform: translate(469.300000px, 177.802299px)
            }
        }

        #eq30unkhvhl95_to {
            animation: eq30unkhvhl95_to__to 3000ms linear infinite normal forwards
        }

        @keyframes eq30unkhvhl95_to__to {
            0% {
                transform: translate(-117.351532px, 145.488986px)
            }

            100% {
                transform: translate(482.750000px, 145.488986px)
            }
        }

        #eq30unkhvhl96_to {
            animation: eq30unkhvhl96_to__to 3000ms linear infinite normal forwards
        }

        @keyframes eq30unkhvhl96_to__to {
            0% {
                transform: translate(215.329422px, 60.238997px)
            }

            23.333333% {
                transform: translate(215.329422px, 78.718075px)
            }

            50% {
                transform: translate(215.329422px, 60.241015px)
            }

            73.333333% {
                transform: translate(215.329422px, 78.718075px)
            }

            100% {
                transform: translate(215.329422px, 60.241015px)
            }
        }

        #eq30unkhvhl96_tr {
            animation: eq30unkhvhl96_tr__tr 3000ms linear infinite normal forwards
        }

        @keyframes eq30unkhvhl96_tr__tr {
            0% {
                transform: rotate(0deg)
            }

            23.333333% {
                transform: rotate(26deg)
            }

            50% {
                transform: rotate(0deg)
            }

            73.333333% {
                transform: rotate(26deg)
            }

            100% {
                transform: rotate(0deg)
            }
        }

        #eq30unkhvhl954_to {
            animation: eq30unkhvhl954_to__to 3000ms linear infinite normal forwards
        }

        @keyframes eq30unkhvhl954_to__to {
            0% {
                transform: translate(-119.299995px, 222.269981px)
            }

            100% {
                transform: translate(479.800000px, 222.269981px)
            }
        }

        .st23 {
            fill: url(#SVGID_1_);
        }

        .st24 {
            fill: url(#SVGID_2_);
        }

        .st25 {
            fill: url(#SVGID_3_);
        }

        .st26 {
            fill: url(#SVGID_4_);
        }

        .st27 {
            fill: url(#SVGID_5_);
        }

        .st28 {
            fill: url(#SVGID_6_);
        }

    </style>
    <g>

        <linearGradient id="SVGID_1_" gradientUnits="userSpaceOnUse" x1="-44.9375" y1="410.3335" x2="-97.6182" y2="453.189" gradientTransform="matrix(1 0 0 -1 123.2859 494.3844)">
            <stop offset="0" style="stop-color:#FBE519" />
            <stop offset="0.43" style="stop-color:#FAD112" />
            <stop offset="1" style="stop-color:#EF9321" />
        </linearGradient>
        <path class="st23" d="M42.5,30c-11.8,3.1-20.6,12.7-22.6,24.7c2.9,18.6,18.8,32.2,37.6,32.1c3.5,0,6.8-0.4,10.2-1.3
		c7.9-2.1,14.8-6.5,20-12.8c-6,6.1-14.2,9.6-22.7,9.8c-17.1,0.1-31-13.6-31.1-30.7v-0.1c-0.1-1.1-0.3-2-0.1-3.1
		c0-4.7,1.6-9.2,4.7-12.8c2.7-3.2,6.3-5.5,10.3-6.5C46.4,29.2,44.3,29.6,42.5,30" />

        <linearGradient id="SVGID_2_" gradientUnits="userSpaceOnUse" x1="-45.5616" y1="435.8369" x2="-92.2314" y2="473.8026" gradientTransform="matrix(1 0 0 -1 123.2859 494.3844)">
            <stop offset="0" style="stop-color:#EF9321" />
            <stop offset="0.54" style="stop-color:#FAD112" />
            <stop offset="1" style="stop-color:#FBE519" />
        </linearGradient>
        <path class="st24" d="M19.4,48.7c0,2,0.1,4.1,0.5,6.1c2.1-12,11-21.6,22.9-24.7c1.9-0.5,3.7-0.8,5.7-0.9c1.7-0.5,3.5-0.7,5.2-0.7
		c5.2,0,10.3,2.1,13.9,5.7c0.1,0.1,0.3,0.3,0.4,0.4L79.2,46l2.9,2.9l0.9,0.7l14.7-15.8L86.6,23.2c-7.2-8.4-17.8-13.1-28.7-13.1
		C36.5,10.2,19.4,27.4,19.4,48.7L19.4,48.7" />

        <linearGradient id="SVGID_3_" gradientUnits="userSpaceOnUse" x1="12.3986" y1="415.2582" x2="27.1176" y2="468.3056" gradientTransform="matrix(1 0 0 -1 123.2859 494.3844)">
            <stop offset="0.58" style="stop-color:#FAD112" />
            <stop offset="1" style="stop-color:#EF9321" />
        </linearGradient>
        <path class="st25" d="M155.1,34.3c3.1,3.5,4.8,8,4.8,12.7c0,1.1-0.1,2-0.3,3.1v0.1c-0.1,13.5-14.4,31.8-31.1,31.7
		c-2.5,0-5.1-0.3-7.6-0.9c-4.7-1.2-9.1-3.6-12.6-6.9c0,0-1.3-1.2-2.1-2c5.1,6.1,11.9,10.7,19.6,12.8c3.3,0.9,6.7,1.3,10.2,1.3
		c19.2,0,35.1-14.8,38.1-33c-2.3-11.9-11.2-21.5-23-24.5c-1.9-0.5-3.9-0.8-5.9-0.9C149,29.1,152.5,31.2,155.1,34.3" />

        <linearGradient id="SVGID_4_" gradientUnits="userSpaceOnUse" x1="26.2819" y1="419.6057" x2="-10.6499" y2="449.6495" gradientTransform="matrix(1 0 0 -1 123.2859 494.3844)">
            <stop offset="0" style="stop-color:#FBE519" />
            <stop offset="0.43" style="stop-color:#FAD112" />
            <stop offset="1" style="stop-color:#EF9321" />
        </linearGradient>
        <path class="st26" d="M97.7,63.1l8,8.4l0.1,0.1l2.8,2.8h0.1c3.5,3.5,7.9,5.9,12.7,7.1c2.5,0.7,5.2,1.1,7.8,1.1
		c17.2,0.1,30.6-15.1,30.6-32.6l0,0c-1.5,9.8-9.2,17.6-19.2,17.6c-4.3,0-9.2-2.9-13.9-6.5c-4.4-3.6-8.4-7.5-12.3-11.6L113,48
		L97.7,63.1z" />

        <linearGradient id="SVGID_5_" gradientUnits="userSpaceOnUse" x1="25.5341" y1="409.4742" x2="-60.231" y2="479.2437" gradientTransform="matrix(1 0 0 -1 123.2859 494.3844)">
            <stop offset="0" style="stop-color:#FBE519" />
            <stop offset="0.43" style="stop-color:#FAD112" />
            <stop offset="1" style="stop-color:#EF9321" />
        </linearGradient>
        <path class="st27" d="M136.4,10.3L136.4,10.3c-11.2,0-21.8,4.8-29,13.2l-10,10.7L82.7,50l-1.9,2C76,57.3,61.2,68.7,52.4,68.7
		c-9.9,0-17.5-7.4-19.1-17C32.9,69,47.7,83.2,64.8,83.2c2.5,0,5.2-0.3,7.6-0.9c5.7-1.5,11-4.5,15-8.8c4.3-4.4,9.4-9.4,9.4-9.4
		l0.1-0.1L112,49c9.4-9.8,14.2-14.7,14.2-14.8c8.3-9.5,23.3-4.4,25.1-3.9c11.6,2.8,20.4,12.3,22.5,24.1c0.4-2,0.5-4,0.5-6.1
		c0.3-20.7-16.3-37.7-36.9-37.8C137,10.3,136.7,10.3,136.4,10.3L136.4,10.3z" />
    </g>
    <linearGradient id="SVGID_6_" gradientUnits="userSpaceOnUse" x1="180.3308" y1="231.3786" x2="180.3308" y2="37.4978">
        <stop offset="0" style="stop-color:#FBE519" />
        <stop offset="0.43" style="stop-color:#FAD112" />
        <stop offset="1" style="stop-color:#EF9321" />
    </linearGradient>
    <path class="st28" d="M35.3,303c-1.1,0-2-0.9-2-2V51.8c0.1-0.2,0.2-0.3,0.2-0.3c-0.1-0.6-0.1-1.1-0.2-1.6v-1c0-0.2,0-0.3,0-0.5
	c0-4.7,1.6-9.2,4.7-12.8c2.7-3.2,6.3-5.5,10.3-6.5C46,29.2,44,29.6,42.1,30c-11.8,3.1-20.6,12.7-22.6,24.7c0,0,0,0.1,0,0.1l0,0
	L19.3,301c0,8.8,7.2,16,16,16h306.1v-14H35.3z" />
    <g id="eq30unkhvhl92_to" transform="translate(-179.998243,177.802299)">
        <g id="eq30unkhvhl92" transform="translate(-169.298283,-177.802299)">
            <path id="eq30unkhvhl94" d="M139.700000,69C147.200000,56.700000,162.400000,50.800000,176.200000,55.100000C181.400000,56.700000,187,55.400000,191.300000,52C201.600000,44,214.900000,39.600000,229.300000,40.800000C258.300000,43.300000,279.700000,67.700000,278.700000,96.800000C277.800000,121.300000,261.100000,140.400000,239.900000,146.700000C222.200000,152,208.200000,165.600000,201.800000,182.800000C190.600000,212.800000,161.500000,234.200000,127.300000,233.700000C85.100000,233.100000,50.500000,198.300000,50.200000,156.100000C49.800000,113.100000,84,78.600000,125.800000,77.200000C131.500000,77.100000,136.700000,74,139.700000,69Z" opacity="0.1" fill="rgb(255,255,255)" stroke="none" stroke-width="1" />
        </g>
    </g>
    <g id="eq30unkhvhl95_to" transform="translate(-117.351532,145.488986)">
        <g id="eq30unkhvhl95" transform="translate(-182.745735,-145.488986)">
            <g id="eq30unkhvhl96_to" transform="translate(215.329422,60.238997)">
                <g id="eq30unkhvhl96_tr" transform="rotate(0)">
                    <g id="eq30unkhvhl96" transform="translate(-215.329422,-60.238997)">
                        <g id="eq30unkhvhl97">
                            <path id="eq30unkhvhl98" d="M199.100000,111.500000C200.600000,111.500000,202.100000,111,203.300000,110C205,108.700000,244.300000,77.100000,239.700000,13.300000C239.400000,9.500000,236.100000,6.700000,232.400000,7C228.600000,7.300000,225.800000,10.500000,226.100000,14.300000C227.800000,37.900000,223.100000,59.300000,212.100000,78C203.900000,92,195,99.200000,194.900000,99.300000C192,101.600000,191.400000,105.900000,193.800000,108.900000C195.100000,110.600000,197.100000,111.500000,199.100000,111.500000Z" fill="rgb(249,195,136)" stroke="none" stroke-width="1" />
                        </g>
                        <g id="eq30unkhvhl99">
                            <path id="eq30unkhvhl910" d="M192.300000,98.900000C192.500000,98.800000,206.600000,88.800000,214.500000,71.600000C214.800000,70.800000,215.800000,70.600000,216.500000,71L229.200000,79.700000C230.100000,80.300000,230.500000,81.500000,230,82.500000C219.900000,103,205.400000,110.700000,204.600000,111.400000C203.300000,112.500000,200.800000,113.500000,199.300000,113.500000C197.400000,113.500000,194.500000,111.500000,193.200000,109.900000C190.500000,107.200000,189.400000,101.400000,192.300000,98.900000Z" fill="rgb(220,20,40)" stroke="none" stroke-width="1" />
                        </g>
                    </g>
                </g>
            </g>
            <path id="eq30unkhvhl911" d="M132.400000,158.700000C132.400000,158.700000,139.900000,121.800000,165.900000,106.100000" fill="none" stroke="rgb(0,115,170)" stroke-width="1.794600" stroke-linecap="round" stroke-miterlimit="10" />
            <g id="eq30unkhvhl912">
                <ellipse id="eq30unkhvhl93" rx="106.300000" ry="9.500000" transform="matrix(1 0 0 1 182.09999999999999 305.50000000000000)" opacity="0.1" fill="rgb(0,0,0)" stroke="none" stroke-width="1" />
                <path id="eq30unkhvhl913" d="M142.400000,240.400000L145.400000,249.900000L196.900000,232.700000C200.300000,231.500000,202.800000,228.500000,203.300000,224.900000L207.100000,194.700000L188.200000,196.100000L187.700000,219.800000L142.400000,240.400000Z" fill="rgb(249,195,136)" stroke="none" stroke-width="1" />
                <rect id="eq30unkhvhl914" width="8.400000" height="4.200000" rx="0" ry="0" transform="matrix(0.34740000000000 0.93770000000000 -0.93770000000000 0.34740000000000 148.40225000000007 244.26945000000003)" fill="rgb(0,115,170)" stroke="none" stroke-width="1" />
                <path id="eq30unkhvhl915" d="M135.900000,241.400000L144.900000,265.600000L149,264.100000C150.400000,263.600000,151.200000,262,150.600000,260.500000L142.600000,238.900000L135.900000,241.400000Z" fill="rgb(0,115,170)" stroke="none" stroke-width="1" />
                <rect id="eq30unkhvhl916" width="28.300000" height="1.800000" rx="0" ry="0" transform="matrix(-0.34740000000000 -0.93770000000000 0.93770000000000 -0.34740000000000 144.70155999999983 267.52597999999983)" fill="rgb(30,45,100)" stroke="none" stroke-width="1" />
            </g>
            <path id="eq30unkhvhl917" d="M197.500000,77.900000L178.200000,77.900000C178.300000,78.900000,178.500000,79.800000,178.700000,80.700000C180.700000,90,189.100000,96.500000,198.600000,96.500000C197.700000,89.900000,197.300000,83.700000,197.500000,77.900000Z" fill="rgb(15,20,70)" stroke="none" stroke-width="1" />
            <g id="eq30unkhvhl918">
                <polygon id="eq30unkhvhl919" points="154.500000,276.400000 164.600000,276.400000 175,195.600000 155.900000,195.600000" fill="rgb(249,195,136)" stroke="none" stroke-width="1" />
                <rect id="eq30unkhvhl920" width="8.400000" height="4.200000" rx="0" ry="0" transform="matrix(1 0 0 1 160.50000000000000 272.50000000000000)" fill="rgb(0,115,170)" stroke="none" stroke-width="1" />
                <path id="eq30unkhvhl921" d="M154,283.200000L179.800000,283.200000L179.800000,278.800000C179.800000,277.300000,178.600000,276,177,276L154,276L154,283.200000Z" fill="rgb(0,115,170)" stroke="none" stroke-width="1" />
                <rect id="eq30unkhvhl922" width="28.300000" height="1.800000" rx="0" ry="0" transform="matrix(1 0 0 1 152.80000000000001 282.19999999999999)" fill="rgb(30,45,100)" stroke="none" stroke-width="1" />
            </g>
            <path id="eq30unkhvhl923" d="M176.700000,128.300000C196.900000,128.300000,213.100000,162.500000,217,214.600000C199,223,162.600000,225.500000,140.200000,218.700000C140.100000,167.100000,156.500000,128.300000,176.700000,128.300000Z" fill="rgb(220,20,40)" stroke="none" stroke-width="1" />
            <path id="eq30unkhvhl924" d="M184.900000,175.100000L165.200000,175.100000L153.700000,98.100000L203.400000,98.100000C207.300000,116,196.500000,145.200000,184.900000,175.100000Z" fill="rgb(220,20,40)" stroke="none" stroke-width="1" />
            <g id="eq30unkhvhl925">
                <path id="eq30unkhvhl926" d="M178.900000,147.400000C177.400000,147.400000,176.300000,146.200000,176.300000,144.800000L176.300000,100.300000C176.300000,98.800000,177.500000,97.700000,178.900000,97.700000C180.300000,97.700000,181.500000,98.900000,181.500000,100.300000L181.500000,144.800000C181.600000,146.200000,180.400000,147.400000,178.900000,147.400000Z" fill="rgb(255,255,255)" stroke="none" stroke-width="1" />
            </g>
            <path id="eq30unkhvhl927" d="M189.400000,70.700000C189.400000,73.900000,192,76.500000,195.200000,76.500000C198.400000,76.500000,201,73.900000,201,70.700000C201,67.500000,198.400000,64.900000,195.200000,64.900000C192,64.900000,189.400000,67.500000,189.400000,70.700000Z" fill="rgb(221,159,107)" stroke="none" stroke-width="1" />
            <path id="eq30unkhvhl928" d="M178.900000,101.300000C178.900000,101.300000,176.800000,113,169.600000,110.100000C162.300000,107.200000,166.800000,97.600000,166.800000,97.600000L177,96.500000L178.900000,101.300000Z" fill="rgb(255,255,255)" stroke="none" stroke-width="1" />
            <path id="eq30unkhvhl929" d="M178.600000,101.300000C178.600000,101.300000,180.700000,113,187.900000,110.100000C195.200000,107.200000,190.700000,97.600000,190.700000,97.600000L180.500000,96.500000L178.600000,101.300000Z" fill="rgb(255,255,255)" stroke="none" stroke-width="1" />
            <path id="eq30unkhvhl930" d="M178.900000,103.800000L178.900000,103.800000C182.200000,103.800000,184.900000,101.100000,184.900000,97.800000L184.900000,84.100000L172.900000,84.100000L172.900000,97.800000C172.900000,101.200000,175.600000,103.800000,178.900000,103.800000Z" fill="rgb(242,180,124)" stroke="none" stroke-width="1" />
            <path id="eq30unkhvhl931" d="M176.600000,84.100000L172.900000,84.100000L172.900000,93.200000L172.900000,97.100000C172.800000,99.700000,173.900000,101.800000,175.900000,103.100000C177.600000,104.100000,179.400000,104,180.700000,103.600000C178.300000,102.800000,176.600000,100.600000,176.600000,97.900000L176.600000,97.800000C176.600000,96,178.100000,94.600000,179.900000,94.700000C180.300000,94.700000,180.700000,94.700000,181,94.700000L182.800000,94.700000C183.500000,94.700000,184.100000,94.600000,184.800000,94.600000L184.800000,84.100000L176.600000,84.100000Z" fill="rgb(221,159,107)" stroke="none" stroke-width="1" />
            <path id="eq30unkhvhl932" d="M173.900000,93.500000L187.600000,93.500000C193.200000,93.500000,197.700000,89,197.700000,83.400000L197.700000,51.600000C197.700000,46.100000,193.300000,41.700000,187.800000,41.700000L168.800000,41.700000C163.300000,41.700000,158.900000,46.100000,158.900000,51.600000L158.900000,78.400000C158.800000,86.800000,165.600000,93.500000,173.900000,93.500000Z" fill="rgb(242,180,124)" stroke="none" stroke-width="1" />
            <path id="eq30unkhvhl933" d="M173.900000,93.500000L187.600000,93.500000C193.200000,93.500000,197.700000,89,197.700000,83.400000L197.700000,51.600000C197.700000,46.100000,193.300000,41.700000,187.800000,41.700000L168.800000,41.700000C163.300000,41.700000,158.900000,46.100000,158.900000,51.600000L158.900000,78.400000C158.800000,86.800000,165.600000,93.500000,173.900000,93.500000Z" fill="rgb(242,180,124)" stroke="none" stroke-width="1" />
            <path id="eq30unkhvhl934" d="M191.700000,78.900000C192.400000,78.900000,192.800000,79.600000,192.400000,80.200000C191,82.600000,188.300000,84.200000,185.300000,84.200000C182.300000,84.200000,179.700000,82.600000,178.300000,80.100000C178,79.500000,178.400000,78.900000,179,78.900000L191.700000,78.900000Z" fill="rgb(255,255,255)" stroke="none" stroke-width="1" />
            <path id="eq30unkhvhl935" d="M157.800000,70.700000C157.800000,67.500000,160.400000,64.900000,163.600000,64.900000C163.800000,64.900000,164.100000,64.900000,164.300000,65L164.300000,76.400000C164.100000,76.400000,163.800000,76.500000,163.600000,76.500000C160.400000,76.500000,157.800000,73.900000,157.800000,70.700000Z" fill="rgb(249,195,136)" stroke="none" stroke-width="1" />
            <path id="eq30unkhvhl936" d="M183.100000,41.700000L173.400000,41.700000C165.300000,41.700000,158.800000,48.200000,158.800000,56.300000L158.800000,71.300000C158.800000,78.300000,162.100000,84.600000,167.100000,88.700000C166.700000,81,167.100000,73.900000,168.400000,67.300000C168.900000,66.900000,174.500000,65.100000,175.100000,58.700000C184.300000,67.600000,197.600000,66,197.600000,66L197.600000,56.300000C197.700000,48.200000,191.100000,41.700000,183.100000,41.700000Z" fill="rgb(221,159,107)" stroke="none" stroke-width="1" />
            <g id="eq30unkhvhl937">
                <path id="eq30unkhvhl938" d="M192.900000,66.100000C194,66.100000,195,66.800000,195.600000,68.100000C195.700000,68.400000,195.700000,68.800000,195.500000,69C195.300000,69.200000,195,69.100000,194.900000,68.900000C194.400000,68,193.700000,67.500000,192.900000,67.500000C192.100000,67.500000,191.300000,68,190.900000,68.900000C190.800000,69.100000,190.700000,69.200000,190.500000,69.200000C190.400000,69.200000,190.300000,69.200000,190.200000,69.100000C190,68.900000,190,68.500000,190.100000,68.200000C190.800000,66.900000,191.800000,66.100000,192.900000,66.100000Z" fill="rgb(101,73,50)" stroke="none" stroke-width="1" />
                <path id="eq30unkhvhl939" d="M172.500000,68.100000C173.400000,66.900000,174.800000,66.100000,176.400000,66.100000C177.900000,66.100000,179.400000,66.800000,180.300000,68.100000C180.500000,68.400000,180.400000,68.800000,180.200000,69C179.900000,69.200000,179.500000,69.100000,179.300000,68.900000C178.600000,68,177.600000,67.500000,176.500000,67.500000C175.300000,67.500000,174.300000,68,173.700000,68.900000C173.600000,69.100000,173.400000,69.200000,173.200000,69.200000C173.100000,69.200000,172.900000,69.200000,172.800000,69.100000C172.400000,68.800000,172.300000,68.400000,172.500000,68.100000Z" fill="rgb(101,73,50)" stroke="none" stroke-width="1" />
            </g>
            <path id="eq30unkhvhl940" d="M188.900000,74.800000C188.900000,75.300000,187.700000,76.900000,186.300000,76.900000C184.900000,76.900000,183.700000,75.300000,183.700000,74.800000C183.700000,74.300000,184.900000,75.200000,186.300000,75.200000C187.700000,75.200000,188.900000,74.300000,188.900000,74.800000Z" fill="rgb(221,159,107)" stroke="none" stroke-width="1" />
            <path id="eq30unkhvhl941" d="M184.800000,38.100000L169.500000,38.100000C166.400000,38.100000,163.500000,39.100000,161.100000,40.900000L161.100000,40.900000L161.100000,40.900000C159.700000,42,158.400000,43.300000,157.500000,44.800000C153.600000,49.500000,147.900000,58.300000,147.400000,69.100000C147.200000,73.400000,147.600000,77.300000,148.400000,80.700000C150.400000,90,158.800000,96.500000,168.300000,96.500000L168.300000,96.500000C166.700000,84.700000,166.700000,74.200000,168.600000,64.900000C169.100000,64.500000,174.700000,62.700000,175.300000,56.300000C180.700000,60.800000,187.200000,63.900000,194.100000,65.300000L199.100000,66.300000L199.100000,52.300000C199,44.400000,192.600000,38.100000,184.800000,38.100000Z" fill="rgb(30,45,100)" stroke="none" stroke-width="1" />
            <path id="eq30unkhvhl942" d="M192.300000,98.900000C192.300000,98.900000,199.800000,129.600000,154.500000,169.800000" fill="none" stroke="rgb(0,115,170)" stroke-width="1.794600" stroke-linecap="round" stroke-miterlimit="10" />
            <g id="eq30unkhvhl943">
                <g id="eq30unkhvhl944">
                    <path id="eq30unkhvhl945" d="M172.300000,158.700000C189.300000,158.700000,203.900000,149.400000,204.700000,148.900000C207.900000,146.800000,208.800000,142.600000,206.700000,139.400000C204.600000,136.200000,200.400000,135.300000,197.200000,137.400000C197,137.500000,176.100000,150.700000,159.700000,142.100000C156.900000,140.600000,155.200000,138.600000,154.300000,135.700000C151.800000,127.100000,157.800000,113.500000,160.200000,109.500000C162.100000,106.200000,160.900000,102,157.700000,100.200000C154.400000,98.300000,150.200000,99.500000,148.400000,102.700000C147.200000,104.800000,136.700000,123.800000,141.300000,139.500000C143.200000,145.900000,147.300000,151,153.400000,154.200000C159.600000,157.500000,166.100000,158.700000,172.300000,158.700000Z" fill="rgb(249,195,136)" stroke="none" stroke-width="1" />
                </g>
                <g id="eq30unkhvhl946">
                    <path id="eq30unkhvhl947" d="M147.400000,102.100000C149.600000,98.300000,154.400000,96.900000,158.300000,99.200000C162.100000,101.400000,163.400000,106.200000,161.300000,110C159.400000,113.400000,149,128.800000,156.700000,138.500000C157.100000,139,157.100000,139.600000,156.800000,140.200000L148.600000,155.700000C148.100000,156.700000,146.800000,156.800000,146,156C142.200000,151.800000,138.800000,145.500000,137.800000,142.200000C132.400000,125.100000,146.200000,104.300000,147.400000,102.100000Z" fill="rgb(220,20,40)" stroke="none" stroke-width="1" />
                </g>
            </g>
            <path id="eq30unkhvhl948" d="M136.600000,153.500000C139.500000,157.100000,145,161.400000,155.700000,163.800000C158.600000,164.500000,160.200000,167.600000,158.900000,170.300000C155.700000,177,149.700000,187.600000,144,187.900000C136.200000,188.300000,117.200000,179.600000,129.400000,154.300000C130.800000,151.400000,134.700000,151,136.600000,153.500000Z" fill="rgb(255,165,10)" stroke="none" stroke-width="1" />
            <path id="eq30unkhvhl949" d="M132.400000,161.700000C132.400000,161.700000,139.500000,169,149.500000,171.800000" fill="none" stroke="rgb(0,115,170)" stroke-width="1.794600" stroke-linecap="round" stroke-miterlimit="10" />
            <path id="eq30unkhvhl950" d="M180.500000,110.600000C180.500000,111.500000,179.800000,112.200000,178.900000,112.200000C178,112.200000,177.300000,111.500000,177.300000,110.600000C177.300000,109.700000,178,109,178.900000,109C179.800000,109.100000,180.500000,109.800000,180.500000,110.600000Z" fill="rgb(115,200,240)" stroke="none" stroke-width="1" />
            <circle id="eq30unkhvhl951" r="1.600000" transform="matrix(1 0 0 1 179 118.59999999999999)" fill="rgb(115,200,240)" stroke="none" stroke-width="1" />
            <circle id="eq30unkhvhl952" r="1.600000" transform="matrix(1 0 0 1 179 126.50000000000000)" fill="rgb(115,200,240)" stroke="none" stroke-width="1" />
            <circle id="eq30unkhvhl953" r="1.600000" transform="matrix(1 0 0 1 179 134.40000000000001)" fill="rgb(115,200,240)" stroke="none" stroke-width="1" />
        </g>
    </g>
    <g id="eq30unkhvhl954_to" transform="translate(-119.299995,222.269981)">
        <g id="eq30unkhvhl954" transform="translate(-179.800003,-222.269981)">
            <g id="eq30unkhvhl955">
                <g id="eq30unkhvhl956">
                    <path id="eq30unkhvhl957" d="M210.100000,179L211.100000,179C211.100000,177.200000,211.700000,175.400000,212.500000,173C213.500000,170.100000,214.700000,166.500000,215.600000,161.100000C217.300000,150.700000,209.900000,144.600000,209.800000,144.500000L209.100000,145.300000C209.200000,145.400000,216.100000,151.200000,214.500000,160.900000C213.600000,166.200000,212.400000,169.800000,211.500000,172.600000C210.700000,175.200000,210.100000,177.100000,210.100000,179Z" fill="rgb(246,77,106)" stroke="none" stroke-width="1" />
                </g>
            </g>
            <g id="eq30unkhvhl958">
                <g id="eq30unkhvhl959">
                    <path id="eq30unkhvhl960" d="M233.300000,241.600000L204.300000,142.300000L202.700000,142.800000C200.700000,143.500000,199.600000,145.600000,200.200000,147.600000L228.800000,243L233.300000,241.600000Z" fill="rgb(36,141,190)" stroke="none" stroke-width="1" />
                </g>
            </g>
            <g id="eq30unkhvhl961">
                <g id="eq30unkhvhl962">
                    <path id="eq30unkhvhl963" d="M200.600000,149.100000L209.300000,146.200000C210.600000,145.800000,213.200000,144.700000,212.800000,143L211.800000,139.700000L199.700000,143.700000C199.400000,143.800000,199.200000,144.200000,199.300000,144.500000L200.600000,149.100000Z" fill="rgb(46,134,138)" stroke="none" stroke-width="1" />
                </g>
            </g>
            <g id="eq30unkhvhl964">
                <path id="eq30unkhvhl965" d="M229,229.100000L230.300000,228.700000C230.500000,228.600000,230.600000,228.400000,230.600000,228.200000L228.400000,221.300000C228.300000,221.100000,228.100000,221,227.900000,221L226.600000,221.400000C226.400000,221.500000,226.300000,221.700000,226.300000,221.900000L228.500000,228.800000C228.500000,229.100000,228.800000,229.200000,229,229.100000Z" fill="rgb(64,177,222)" stroke="none" stroke-width="1" />
            </g>
            <g id="eq30unkhvhl966">
                <path id="eq30unkhvhl967" d="M205.800000,147.400000L233.200000,241.300000L231.300000,241.900000C216.600000,196.200000,205.100000,154.900000,205.800000,147.400000Z" fill="rgb(64,177,222)" stroke="none" stroke-width="1" />
            </g>
            <g id="eq30unkhvhl968">
                <g id="eq30unkhvhl969">
                    <circle id="eq30unkhvhl970" r="16" transform="matrix(1 0 0 1 118.20000000000000 290.30000000000001)" fill="rgb(50,50,63)" stroke="none" stroke-width="1" />
                </g>
            </g>
            <g id="eq30unkhvhl971">
                <g id="eq30unkhvhl972">
                    <circle id="eq30unkhvhl973" r="10.500000" transform="matrix(1 0 0 1 118.20000000000000 290.30000000000001)" fill="rgb(50,50,63)" stroke="none" stroke-width="1" />
                </g>
            </g>
            <g id="eq30unkhvhl974">
                <g id="eq30unkhvhl975">
                    <path id="eq30unkhvhl976" d="M106.100000,290.200000C106.100000,283.500000,111.500000,278.100000,118.200000,278.100000C124.900000,278.100000,130.300000,283.500000,130.300000,290.200000C130.300000,296.900000,124.900000,302.300000,118.200000,302.300000C111.500000,302.300000,106.100000,296.900000,106.100000,290.200000ZM109.200000,290.200000C109.200000,295.100000,113.200000,299.200000,118.200000,299.200000C123.200000,299.200000,127.200000,295.200000,127.200000,290.200000C127.200000,285.200000,123.200000,281.200000,118.200000,281.200000C113.200000,281.200000,109.200000,285.200000,109.200000,290.200000Z" fill="rgb(255,255,255)" stroke="none" stroke-width="1" />
                </g>
            </g>
            <g id="eq30unkhvhl977">
                <path id="eq30unkhvhl978" d="M115.500000,293.100000C114.900000,291.900000,113.300000,292.500000,112.200000,293.300000C112,293,111.900000,292.600000,111.800000,292.200000C111.700000,291.800000,111.600000,291.400000,111.600000,291C112.700000,291.400000,114.200000,291.500000,114.700000,290.200000C115.200000,288.700000,113.300000,288.400000,112,288.500000C112.300000,287.500000,112.900000,286.700000,113.700000,285.900000C113.900000,287,114.600000,288.400000,116,287.700000C117.500000,287,116.600000,285.300000,115.700000,284.500000C116,284.400000,116.300000,284.200000,116.700000,284.100000C117.300000,283.900000,117.900000,283.900000,118.500000,283.800000C118,284.800000,117.800000,286.300000,119.200000,286.500000C120.600000,286.800000,121,285.300000,121,284.200000C121.700000,284.500000,122.400000,284.800000,122.900000,285.300000C121.800000,285.900000,120.600000,287.100000,121.700000,288C122.600000,288.800000,123.700000,288.200000,124.500000,287.300000C124.600000,287.600000,124.800000,287.900000,124.900000,288.300000C125,288.700000,125.100000,289,125.100000,289.400000C123.900000,289.300000,122.400000,289.700000,122.500000,291C122.600000,292.100000,123.700000,292.300000,124.800000,292.100000C124.600000,292.700000,124.200000,293.300000,123.800000,293.900000C123.200000,293,122.300000,292.400000,121.400000,293.300000C120.600000,294.100000,121,295,121.700000,295.700000C121.200000,295.900000,120.800000,296.100000,120.300000,296.300000C120.100000,296.300000,120,296.400000,119.800000,296.400000C119.900000,295.200000,119.700000,293.900000,118.300000,293.900000C117,294,116.800000,295.300000,117.100000,296.400000C116,296.200000,115,295.700000,114.200000,295.100000C114.900000,294.900000,116,294.200000,115.500000,293.100000Z" fill="rgb(39,39,51)" stroke="none" stroke-width="1" />
            </g>
            <g id="eq30unkhvhl979">
                <g id="eq30unkhvhl980">
                    <path id="eq30unkhvhl981" d="M235.200000,268.600000C235.200000,268.600000,233.700000,266.900000,232,268.600000C230.300000,270.300000,219.100000,284.900000,219.100000,284.900000L210.700000,284.900000L232,257.700000L235.200000,268.600000Z" fill="rgb(50,50,63)" stroke="none" stroke-width="1" />
                </g>
            </g>
            <g id="eq30unkhvhl982">
                <g id="eq30unkhvhl983">
                    <path id="eq30unkhvhl984" d="M133.800000,287.200000L223.100000,287.200000C223.700000,287.200000,224.200000,286.700000,224.200000,286.100000L224.200000,286.100000C224.200000,285.500000,223.700000,285,223.100000,285L133.400000,285C132.800000,285,133,285.500000,133,286.100000L133,286.100000C133.100000,286.700000,133.200000,287.200000,133.800000,287.200000Z" fill="rgb(50,50,63)" stroke="none" stroke-width="1" />
                </g>
            </g>
            <g id="eq30unkhvhl985">
                <g id="eq30unkhvhl986">
                    <path id="eq30unkhvhl987" d="M220.700000,287.200000L220.700000,287.200000C216.700000,291.800000,211,294.400000,204.900000,294.400000L133.600000,294.400000L132.200000,287.200000L220.700000,287.200000Z" fill="rgb(50,50,63)" stroke="none" stroke-width="1" />
                </g>
            </g>
            <g id="eq30unkhvhl988">
                <path id="eq30unkhvhl989" d="M219.600000,288.300000L133.400000,288.300000C132.800000,288.300000,132.300000,287.800000,132.300000,287.200000L220.700000,287.200000C220.400000,287.600000,220,288,219.600000,288.300000Z" fill="rgb(77,77,89)" stroke="none" stroke-width="1" />
            </g>
            <g id="eq30unkhvhl990">
                <g id="eq30unkhvhl991">
                    <path id="eq30unkhvhl992" d="M138.600000,287.400000C138.600000,287.400000,136.600000,280,131.600000,275.100000C128.700000,272.300000,124.700000,270.300000,119.500000,270C105.300000,269.200000,99.100000,284.600000,99.100000,284.600000C99.100000,284.600000,101.400000,285.400000,103.200000,283.300000C105,281.200000,110.700000,273.300000,120.100000,274.600000C129.500000,275.900000,133.200000,286.900000,133.200000,286.900000L138.600000,287.400000Z" fill="rgb(192,164,2)" stroke="none" stroke-width="1" />
                </g>
            </g>
            <g id="eq30unkhvhl993">
                <path id="eq30unkhvhl994" d="M117.700000,270.900000C114.500000,270.700000,111.700000,271.400000,109.300000,272.500000C112.100000,270.800000,115.400000,269.800000,119.500000,270C125,270.300000,129.400000,272.500000,132.300000,275.500000C136.900000,280.300000,138.600000,287.300000,138.600000,287.300000L136,287.300000C134.800000,284.300000,129.700000,271.600000,117.700000,270.900000Z" fill="rgb(248,218,2)" stroke="none" stroke-width="1" />
            </g>
            <g id="eq30unkhvhl995">
                <g id="eq30unkhvhl996">
                    <g id="eq30unkhvhl997">
                        <path id="eq30unkhvhl998" d="M225.600000,292C225.600000,292,223.800000,278.100000,236.300000,272.200000C250.100000,265.700000,259.800000,278.700000,259.800000,278.700000C259.800000,278.700000,257.400000,280.400000,255,279.100000C252.600000,277.900000,245.500000,272.500000,237.700000,276.800000C233.100000,279.400000,231.200000,283.500000,230.400000,286.500000C229.700000,289.100000,229,291.100000,225.600000,292L225.600000,292Z" fill="rgb(192,164,2)" stroke="none" stroke-width="1" />
                    </g>
                </g>
            </g>
            <g id="eq30unkhvhl999">
                <path id="eq30unkhvhl9100" d="M236.300000,272.200000L236.300000,272.200000C250.100000,265.700000,259.800000,278.700000,259.800000,278.700000C259.800000,278.700000,258.700000,279.500000,257.200000,279.600000C253.400000,272.700000,247.600000,269.300000,236.300000,272.200000Z" fill="rgb(248,218,2)" stroke="none" stroke-width="1" />
            </g>
            <g id="eq30unkhvhl9101">
                <g id="eq30unkhvhl9102">
                    <path id="eq30unkhvhl9103" d="M155.700000,294.400000C155.700000,294.400000,147.400000,286.600000,131.300000,287C117.900000,287.300000,117.100000,287.900000,116.300000,288.900000C115.500000,289.900000,116,291.800000,117.600000,292.100000C119,292.400000,132.500000,293.600000,133.700000,294.300000L155.700000,294.300000Z" fill="rgb(50,50,63)" stroke="none" stroke-width="1" />
                </g>
            </g>
            <g id="eq30unkhvhl9104">
                <g id="eq30unkhvhl9105">
                    <circle id="eq30unkhvhl9106" r="16" transform="matrix(1 0 0 1 244.50000000000000 290.30000000000001)" fill="rgb(50,50,63)" stroke="none" stroke-width="1" />
                </g>
            </g>
            <g id="eq30unkhvhl9107">
                <g id="eq30unkhvhl9108">
                    <circle id="eq30unkhvhl9109" r="10.500000" transform="matrix(1 0 0 1 244.50000000000000 290.30000000000001)" fill="rgb(50,50,63)" stroke="none" stroke-width="1" />
                </g>
            </g>
            <g id="eq30unkhvhl9110">
                <g id="eq30unkhvhl9111">
                    <path id="eq30unkhvhl9112" d="M232.400000,290.200000C232.400000,283.500000,237.800000,278.100000,244.500000,278.100000C251.200000,278.100000,256.600000,283.500000,256.600000,290.200000C256.600000,296.900000,251.200000,302.300000,244.500000,302.300000C237.800000,302.300000,232.400000,296.900000,232.400000,290.200000ZM235.500000,290.200000C235.500000,295.100000,239.500000,299.200000,244.500000,299.200000C249.400000,299.200000,253.500000,295.200000,253.500000,290.200000C253.500000,285.200000,249.500000,281.200000,244.500000,281.200000C239.500000,281.200000,235.500000,285.200000,235.500000,290.200000Z" fill="rgb(255,255,255)" stroke="none" stroke-width="1" />
                </g>
            </g>
            <g id="eq30unkhvhl9113">
                <path id="eq30unkhvhl9114" d="M241.800000,293.100000C241.200000,291.900000,239.600000,292.500000,238.500000,293.300000C238.300000,293,238.200000,292.600000,238.100000,292.200000C238,291.800000,237.900000,291.400000,237.900000,291C239,291.400000,240.500000,291.500000,241,290.200000C241.500000,288.700000,239.600000,288.400000,238.300000,288.500000C238.600000,287.500000,239.200000,286.700000,240,285.900000C240.200000,287,240.900000,288.400000,242.300000,287.700000C243.800000,287,242.900000,285.300000,242,284.500000C242.300000,284.400000,242.600000,284.200000,243,284.100000C243.600000,283.900000,244.200000,283.900000,244.800000,283.800000C244.300000,284.800000,244.100000,286.300000,245.500000,286.500000C246.900000,286.800000,247.300000,285.300000,247.300000,284.200000C248,284.500000,248.700000,284.800000,249.200000,285.300000C248.100000,285.900000,246.900000,287.100000,248,288C248.900000,288.800000,250,288.200000,250.800000,287.300000C250.900000,287.600000,251.100000,287.900000,251.200000,288.300000C251.300000,288.700000,251.400000,289,251.400000,289.400000C250.200000,289.300000,248.700000,289.700000,248.800000,291C248.900000,292.100000,250,292.300000,251.100000,292.100000C250.900000,292.700000,250.500000,293.300000,250.100000,293.900000C249.500000,293,248.600000,292.400000,247.700000,293.300000C246.900000,294.100000,247.300000,295,248,295.700000C247.500000,295.900000,247.100000,296.100000,246.600000,296.300000C246.400000,296.300000,246.300000,296.400000,246.100000,296.400000C246.200000,295.200000,246,293.900000,244.600000,293.900000C243.300000,294,243.100000,295.300000,243.400000,296.400000C242.300000,296.200000,241.300000,295.700000,240.500000,295.100000C241.300000,294.900000,242.300000,294.200000,241.800000,293.100000Z" fill="rgb(39,39,51)" stroke="none" stroke-width="1" />
            </g>
            <g id="eq30unkhvhl9115">
                <g id="eq30unkhvhl9116">
                    <path id="eq30unkhvhl9117" d="M246.900000,289.400000L235.300000,243L227.700000,245.300000L242.300000,291C242.600000,292.200000,244.200000,293.200000,245.400000,292.800000L245.400000,292.800000C246.700000,292.500000,247.300000,290.800000,246.900000,289.400000Z" fill="rgb(50,50,63)" stroke="none" stroke-width="1" />
                </g>
            </g>
            <g id="eq30unkhvhl9118">
                <g id="eq30unkhvhl9119">
                    <path id="eq30unkhvhl9120" d="M235,240.800000L227,243.200000C226.400000,243.400000,226.100000,244,226.300000,244.600000L226.300000,244.600000C226.500000,245.200000,227.100000,245.500000,227.700000,245.300000L235.800000,242.900000C236.400000,242.700000,236.700000,242.100000,236.600000,241.500000L236.600000,241.500000C236.200000,240.900000,235.600000,240.600000,235,240.800000Z" fill="rgb(50,50,63)" stroke="none" stroke-width="1" />
                </g>
            </g>
            <g id="eq30unkhvhl9121">
                <g id="eq30unkhvhl9122">
                    <circle id="eq30unkhvhl9123" r="1" transform="matrix(1 0 0 1 118.20000000000000 290)" fill="rgb(255,255,255)" stroke="none" stroke-width="1" />
                </g>
            </g>
            <g id="eq30unkhvhl9124">
                <ellipse id="eq30unkhvhl9125" rx="0.600000" ry="3.700000" transform="matrix(0.97270000000000 -0.23190000000000 0.23190000000000 0.97270000000000 238.48478999999998 260.59567000000004)" fill="rgb(255,255,255)" stroke="none" stroke-width="1" />
            </g>
            <g id="eq30unkhvhl9126">
                <path id="eq30unkhvhl9127" d="M222.600000,272.200000C223.500000,271.100000,224.100000,270.100000,223.800000,269.900000C223.600000,269.700000,222.700000,270.500000,221.700000,271.600000C220.800000,272.700000,220.200000,273.700000,220.500000,273.900000C220.800000,274.100000,221.700000,273.300000,222.600000,272.200000Z" fill="rgb(255,255,255)" stroke="none" stroke-width="1" />
            </g>
            <g id="eq30unkhvhl9128">
                <path id="eq30unkhvhl9129" d="M239.600000,267.200000C239.800000,268,240.200000,268.600000,240.600000,268.500000C241,268.400000,241.100000,267.700000,240.900000,266.900000C240.700000,266.100000,240.300000,265.500000,239.900000,265.600000C239.500000,265.700000,239.400000,266.400000,239.600000,267.200000Z" fill="rgb(255,255,255)" stroke="none" stroke-width="1" />
            </g>
            <g id="eq30unkhvhl9130">
                <path id="eq30unkhvhl9131" d="M256.900000,277.500000C257.300000,278,257.800000,278.200000,257.900000,278.100000C258,278,257.900000,277.500000,257.500000,277C257.100000,276.500000,256.600000,276.300000,256.500000,276.400000C256.400000,276.500000,256.500000,277,256.900000,277.500000Z" fill="rgb(255,255,255)" stroke="none" stroke-width="1" />
            </g>
            <g id="eq30unkhvhl9132">
                <path id="eq30unkhvhl9133" d="M132.200000,277.800000C132.900000,278.600000,133.600000,279.200000,133.800000,279C134,278.800000,133.600000,278,132.900000,277.200000C132.200000,276.400000,131.500000,275.800000,131.300000,276C131.100000,276.200000,131.500000,277,132.200000,277.800000Z" fill="rgb(255,255,255)" stroke="none" stroke-width="1" />
            </g>
            <g id="eq30unkhvhl9134">
                <path id="eq30unkhvhl9135" d="M129.800000,275.100000C130.200000,275.500000,130.700000,275.600000,130.800000,275.500000C130.900000,275.400000,130.700000,274.900000,130.300000,274.600000C129.900000,274.200000,129.400000,274.100000,129.300000,274.200000C129.100000,274.300000,129.400000,274.700000,129.800000,275.100000Z" fill="rgb(255,255,255)" stroke="none" stroke-width="1" />
            </g>
            <g id="eq30unkhvhl9136">
                <path id="eq30unkhvhl9137" d="M231.300000,241.900000L231.600000,244.200000L227.600000,245.400000C227,245.600000,226.400000,245.200000,226.200000,244.700000L226.200000,244.700000C226,244.100000,226.300000,243.500000,226.900000,243.300000L231.300000,241.900000Z" fill="rgb(39,39,51)" stroke="none" stroke-width="1" />
            </g>
            <g id="eq30unkhvhl9138">
                <g id="eq30unkhvhl9139">
                    <ellipse id="eq30unkhvhl9140" rx="3.700000" ry="3.700000" transform="matrix(0.83020000000000 -0.55750000000000 0.55750000000000 0.83020000000000 212.59251999999998 143.37418000000002)" fill="rgb(50,50,63)" stroke="none" stroke-width="1" />
                </g>
            </g>
            <g id="eq30unkhvhl9141">
                <g id="eq30unkhvhl9142">
                    <ellipse id="eq30unkhvhl9143" rx="1" ry="1" transform="matrix(0.98710000000000 -0.16020000000000 0.16020000000000 0.98710000000000 244.50914999999998 289.99450000000002)" fill="rgb(255,255,255)" stroke="none" stroke-width="1" />
                </g>
            </g>
        </g>
    </g>
</svg>
