<?xml version="1.0" encoding="utf-8"?>
<!-- Generator: Adobe Illustrator 25.0.0, SVG Export Plug-In . SVG Version: 6.00 Build 0)  -->
<svg version="1.1" id="eq30unkhvhl91" shape-rendering="geometricPrecision" text-rendering="geometricPrecision"
	 xmlns="http://www.w3.org/2000/svg" xmlns:xlink="http://www.w3.org/1999/xlink" x="0px" y="0px" viewBox="0 0 342 332"
	 style="enable-background:new 0 0 342 332;" xml:space="preserve">
<style type="text/css">
	.st0{opacity:0.1;fill:#FFFFFF;enable-background:new    ;}
	.st1{fill:#F9C388;}
	.st2{fill:#DC1428;}
	.st3{fill:none;stroke:#0073AA;stroke-width:1.7946;stroke-linecap:round;stroke-miterlimit:10;}
	.st4{opacity:0.1;enable-background:new    ;}
	.st5{fill:#0073AA;}
	.st6{fill:#1E2D64;}
	.st7{fill:#0F1446;}
	.st8{fill:#FFFFFF;}
	.st9{fill:#DD9F6B;}
	.st10{fill:#F2B47C;}
	.st11{fill:#654932;}
	.st12{fill:#FFA50A;}
	.st13{fill:#73C8F0;}
	.st14{fill:#F64D6A;}
	.st15{fill:#248DBE;}
	.st16{fill:#2E868A;}
	.st17{fill:#40B1DE;}
	.st18{fill:#32323F;}
	.st19{fill:#272733;}
	.st20{fill:#4D4D59;}
	.st21{fill:#C0A402;}
	.st22{fill:#F8DA02;}
	.st23{fill:url(#SVGID_1_);}
	.st24{fill:url(#SVGID_2_);}
	.st25{fill:url(#SVGID_3_);}
	.st26{fill:url(#SVGID_4_);}
	.st27{fill:url(#SVGID_5_);}
	.st28{fill:url(#SVGID_6_);}
</style>
<g id="eq30unkhvhl92_to" transform="translate(-179.998243,177.802299)">
	<g id="eq30unkhvhl92" transform="translate(-169.298283,-177.802299)">
		<path id="eq30unkhvhl94" class="st0" d="M139.7,69c7.5-12.3,22.7-18.2,36.5-13.9c5.2,1.6,10.8,0.3,15.1-3.1
			c10.3-8,23.6-12.4,38-11.2c29,2.5,50.4,26.9,49.4,56c-0.9,24.5-17.6,43.6-38.8,49.9c-17.7,5.3-31.7,18.9-38.1,36.1
			c-11.2,30-40.3,51.4-74.5,50.9c-42.2-0.6-76.8-35.4-77.1-77.6c-0.4-43,33.8-77.5,75.6-78.9C131.5,77.1,136.7,74,139.7,69z"/>
	</g>
</g>
<g id="eq30unkhvhl95_to" transform="translate(-117.351532,145.488986)">
	<g id="eq30unkhvhl95" transform="translate(-182.745735,-145.488986)">
		<g id="eq30unkhvhl96_to" transform="translate(215.329422,60.238997)">
			<g id="eq30unkhvhl96_tr" transform="rotate(0)">
				<g id="eq30unkhvhl96" transform="translate(-215.329422,-60.238997)">
					<g id="eq30unkhvhl97">
						<path id="eq30unkhvhl98" class="st1" d="M199.1,111.5c1.5,0,3-0.5,4.2-1.5c1.7-1.3,41-32.9,36.4-96.7
							c-0.3-3.8-3.6-6.6-7.3-6.3c-3.8,0.3-6.6,3.5-6.3,7.3c1.7,23.6-3,45-14,63.7c-8.2,14-17.1,21.2-17.2,21.3
							c-2.9,2.3-3.5,6.6-1.1,9.6C195.1,110.6,197.1,111.5,199.1,111.5z"/>
					</g>
					<g id="eq30unkhvhl99">
						<path id="eq30unkhvhl910" class="st2" d="M192.3,98.9c0.2-0.1,14.3-10.1,22.2-27.3c0.3-0.8,1.3-1,2-0.6l12.7,8.7
							c0.9,0.6,1.3,1.8,0.8,2.8c-10.1,20.5-24.6,28.2-25.4,28.9c-1.3,1.1-3.8,2.1-5.3,2.1c-1.9,0-4.8-2-6.1-3.6
							C190.5,107.2,189.4,101.4,192.3,98.9z"/>
					</g>
				</g>
			</g>
		</g>
		<path id="eq30unkhvhl911" class="st3" d="M132.4,158.7c0,0,7.5-36.9,33.5-52.6"/>
		<g id="eq30unkhvhl912">
			<ellipse id="eq30unkhvhl93" class="st4" cx="182.1" cy="305.5" rx="106.3" ry="9.5"/>
			<path id="eq30unkhvhl913" class="st1" d="M142.4,240.4l3,9.5l51.5-17.2c3.4-1.2,5.9-4.2,6.4-7.8l3.8-30.2l-18.9,1.4l-0.5,23.7
				L142.4,240.4z"/>
			
				<rect id="eq30unkhvhl914" x="145.8" y="244.7" transform="matrix(0.9377 -0.3474 0.3474 0.9377 -77.2708 66.8836)" class="st5" width="4.2" height="8.4"/>
			<path id="eq30unkhvhl915" class="st5" d="M135.9,241.4l9,24.2l4.1-1.5c1.4-0.5,2.2-2.1,1.6-3.6l-8-21.6L135.9,241.4z"/>
			
				<rect id="eq30unkhvhl916" x="139.7" y="239.8" transform="matrix(0.9377 -0.3474 0.3474 0.9377 -79.4627 64.6725)" class="st6" width="1.8" height="28.3"/>
		</g>
		<path id="eq30unkhvhl917" class="st7" d="M197.5,77.9h-19.3c0.1,1,0.3,1.9,0.5,2.8c2,9.3,10.4,15.8,19.9,15.8
			C197.7,89.9,197.3,83.7,197.5,77.9z"/>
		<g id="eq30unkhvhl918">
			<polygon id="eq30unkhvhl919" class="st1" points="154.5,276.4 164.6,276.4 175,195.6 155.9,195.6 			"/>
			<rect id="eq30unkhvhl920" x="160.5" y="272.5" class="st5" width="8.4" height="4.2"/>
			<path id="eq30unkhvhl921" class="st5" d="M154,283.2h25.8v-4.4c0-1.5-1.2-2.8-2.8-2.8h-23V283.2z"/>
			<rect id="eq30unkhvhl922" x="152.8" y="282.2" class="st6" width="28.3" height="1.8"/>
		</g>
		<path id="eq30unkhvhl923" class="st2" d="M176.7,128.3c20.2,0,36.4,34.2,40.3,86.3c-18,8.4-54.4,10.9-76.8,4.1
			C140.1,167.1,156.5,128.3,176.7,128.3z"/>
		<path id="eq30unkhvhl924" class="st2" d="M184.9,175.1h-19.7l-11.5-77h49.7C207.3,116,196.5,145.2,184.9,175.1z"/>
		<g id="eq30unkhvhl925">
			<path id="eq30unkhvhl926" class="st8" d="M178.9,147.4c-1.5,0-2.6-1.2-2.6-2.6v-44.5c0-1.5,1.2-2.6,2.6-2.6
				c1.4,0,2.6,1.2,2.6,2.6v44.5C181.6,146.2,180.4,147.4,178.9,147.4z"/>
		</g>
		<path id="eq30unkhvhl927" class="st9" d="M189.4,70.7c0,3.2,2.6,5.8,5.8,5.8s5.8-2.6,5.8-5.8c0-3.2-2.6-5.8-5.8-5.8
			S189.4,67.5,189.4,70.7z"/>
		<path id="eq30unkhvhl928" class="st8" d="M178.9,101.3c0,0-2.1,11.7-9.3,8.8c-7.3-2.9-2.8-12.5-2.8-12.5l10.2-1.1L178.9,101.3z"/>
		<path id="eq30unkhvhl929" class="st8" d="M178.6,101.3c0,0,2.1,11.7,9.3,8.8c7.3-2.9,2.8-12.5,2.8-12.5l-10.2-1.1L178.6,101.3z"/>
		<path id="eq30unkhvhl930" class="st10" d="M178.9,103.8L178.9,103.8c3.3,0,6-2.7,6-6V84.1h-12v13.7
			C172.9,101.2,175.6,103.8,178.9,103.8z"/>
		<path id="eq30unkhvhl931" class="st9" d="M176.6,84.1h-3.7v9.1v3.9c-0.1,2.6,1,4.7,3,6c1.7,1,3.5,0.9,4.8,0.5
			c-2.4-0.8-4.1-3-4.1-5.7v-0.1c0-1.8,1.5-3.2,3.3-3.1c0.4,0,0.8,0,1.1,0h1.8c0.7,0,1.3-0.1,2-0.1V84.1H176.6z"/>
		<path id="eq30unkhvhl932" class="st10" d="M173.9,93.5h13.7c5.6,0,10.1-4.5,10.1-10.1V51.6c0-5.5-4.4-9.9-9.9-9.9h-19
			c-5.5,0-9.9,4.4-9.9,9.9v26.8C158.8,86.8,165.6,93.5,173.9,93.5z"/>
		<path id="eq30unkhvhl933" class="st10" d="M173.9,93.5h13.7c5.6,0,10.1-4.5,10.1-10.1V51.6c0-5.5-4.4-9.9-9.9-9.9h-19
			c-5.5,0-9.9,4.4-9.9,9.9v26.8C158.8,86.8,165.6,93.5,173.9,93.5z"/>
		<path id="eq30unkhvhl934" class="st8" d="M191.7,78.9c0.7,0,1.1,0.7,0.7,1.3c-1.4,2.4-4.1,4-7.1,4s-5.6-1.6-7-4.1
			c-0.3-0.6,0.1-1.2,0.7-1.2H191.7z"/>
		<path id="eq30unkhvhl935" class="st1" d="M157.8,70.7c0-3.2,2.6-5.8,5.8-5.8c0.2,0,0.5,0,0.7,0.1v11.4c-0.2,0-0.5,0.1-0.7,0.1
			C160.4,76.5,157.8,73.9,157.8,70.7z"/>
		<path id="eq30unkhvhl936" class="st9" d="M183.1,41.7h-9.7c-8.1,0-14.6,6.5-14.6,14.6v15c0,7,3.3,13.3,8.3,17.4
			c-0.4-7.7,0-14.8,1.3-21.4c0.5-0.4,6.1-2.2,6.7-8.6c9.2,8.9,22.5,7.3,22.5,7.3v-9.7C197.7,48.2,191.1,41.7,183.1,41.7z"/>
		<g id="eq30unkhvhl937">
			<path id="eq30unkhvhl938" class="st11" d="M192.9,66.1c1.1,0,2.1,0.7,2.7,2c0.1,0.3,0.1,0.7-0.1,0.9s-0.5,0.1-0.6-0.1
				c-0.5-0.9-1.2-1.4-2-1.4c-0.8,0-1.6,0.5-2,1.4c-0.1,0.2-0.2,0.3-0.4,0.3c-0.1,0-0.2,0-0.3-0.1c-0.2-0.2-0.2-0.6-0.1-0.9
				C190.8,66.9,191.8,66.1,192.9,66.1z"/>
			<path id="eq30unkhvhl939" class="st11" d="M172.5,68.1c0.9-1.2,2.3-2,3.9-2c1.5,0,3,0.7,3.9,2c0.2,0.3,0.1,0.7-0.1,0.9
				c-0.3,0.2-0.7,0.1-0.9-0.1c-0.7-0.9-1.7-1.4-2.8-1.4c-1.2,0-2.2,0.5-2.8,1.4c-0.1,0.2-0.3,0.3-0.5,0.3c-0.1,0-0.3,0-0.4-0.1
				C172.4,68.8,172.3,68.4,172.5,68.1z"/>
		</g>
		<path id="eq30unkhvhl940" class="st9" d="M188.9,74.8c0,0.5-1.2,2.1-2.6,2.1c-1.4,0-2.6-1.6-2.6-2.1s1.2,0.4,2.6,0.4
			C187.7,75.2,188.9,74.3,188.9,74.8z"/>
		<path id="eq30unkhvhl941" class="st6" d="M184.8,38.1h-15.3c-3.1,0-6,1-8.4,2.8l0,0l0,0c-1.4,1.1-2.7,2.4-3.6,3.9
			c-3.9,4.7-9.6,13.5-10.1,24.3c-0.2,4.3,0.2,8.2,1,11.6c2,9.3,10.4,15.8,19.9,15.8l0,0c-1.6-11.8-1.6-22.3,0.3-31.6
			c0.5-0.4,6.1-2.2,6.7-8.6c5.4,4.5,11.9,7.6,18.8,9l5,1v-14C199,44.4,192.6,38.1,184.8,38.1z"/>
		<path id="eq30unkhvhl942" class="st3" d="M192.3,98.9c0,0,7.5,30.7-37.8,70.9"/>
		<g id="eq30unkhvhl943">
			<g id="eq30unkhvhl944">
				<path id="eq30unkhvhl945" class="st1" d="M172.3,158.7c17,0,31.6-9.3,32.4-9.8c3.2-2.1,4.1-6.3,2-9.5c-2.1-3.2-6.3-4.1-9.5-2
					c-0.2,0.1-21.1,13.3-37.5,4.7c-2.8-1.5-4.5-3.5-5.4-6.4c-2.5-8.6,3.5-22.2,5.9-26.2c1.9-3.3,0.7-7.5-2.5-9.3
					c-3.3-1.9-7.5-0.7-9.3,2.5c-1.2,2.1-11.7,21.1-7.1,36.8c1.9,6.4,6,11.5,12.1,14.7C159.6,157.5,166.1,158.7,172.3,158.7z"/>
			</g>
			<g id="eq30unkhvhl946">
				<path id="eq30unkhvhl947" class="st2" d="M147.4,102.1c2.2-3.8,7-5.2,10.9-2.9c3.8,2.2,5.1,7,3,10.8
					c-1.9,3.4-12.3,18.8-4.6,28.5c0.4,0.5,0.4,1.1,0.1,1.7l-8.2,15.5c-0.5,1-1.8,1.1-2.6,0.3c-3.8-4.2-7.2-10.5-8.2-13.8
					C132.4,125.1,146.2,104.3,147.4,102.1z"/>
			</g>
		</g>
		<path id="eq30unkhvhl948" class="st12" d="M136.6,153.5c2.9,3.6,8.4,7.9,19.1,10.3c2.9,0.7,4.5,3.8,3.2,6.5
			c-3.2,6.7-9.2,17.3-14.9,17.6c-7.8,0.4-26.8-8.3-14.6-33.6C130.8,151.4,134.7,151,136.6,153.5z"/>
		<path id="eq30unkhvhl949" class="st3" d="M132.4,161.7c0,0,7.1,7.3,17.1,10.1"/>
		<path id="eq30unkhvhl950" class="st13" d="M180.5,110.6c0,0.9-0.7,1.6-1.6,1.6c-0.9,0-1.6-0.7-1.6-1.6s0.7-1.6,1.6-1.6
			C179.8,109.1,180.5,109.8,180.5,110.6z"/>
		<circle id="eq30unkhvhl951" class="st13" cx="179" cy="118.6" r="1.6"/>
		<circle id="eq30unkhvhl952" class="st13" cx="179" cy="126.5" r="1.6"/>
		<circle id="eq30unkhvhl953" class="st13" cx="179" cy="134.4" r="1.6"/>
	</g>
</g>
<g id="eq30unkhvhl954_to" transform="translate(-119.299995,222.269981)">
	<g id="eq30unkhvhl954" transform="translate(-179.800003,-222.269981)">
		<g id="eq30unkhvhl955">
			<g id="eq30unkhvhl956">
				<path id="eq30unkhvhl957" class="st14" d="M210.1,179h1c0-1.8,0.6-3.6,1.4-6c1-2.9,2.2-6.5,3.1-11.9c1.7-10.4-5.7-16.5-5.8-16.6
					l-0.7,0.8c0.1,0.1,7,5.9,5.4,15.6c-0.9,5.3-2.1,8.9-3,11.7C210.7,175.2,210.1,177.1,210.1,179z"/>
			</g>
		</g>
		<g id="eq30unkhvhl958">
			<g id="eq30unkhvhl959">
				<path id="eq30unkhvhl960" class="st15" d="M233.3,241.6l-29-99.3l-1.6,0.5c-2,0.7-3.1,2.8-2.5,4.8l28.6,95.4L233.3,241.6z"/>
			</g>
		</g>
		<g id="eq30unkhvhl961">
			<g id="eq30unkhvhl962">
				<path id="eq30unkhvhl963" class="st16" d="M200.6,149.1l8.7-2.9c1.3-0.4,3.9-1.5,3.5-3.2l-1-3.3l-12.1,4
					c-0.3,0.1-0.5,0.5-0.4,0.8L200.6,149.1z"/>
			</g>
		</g>
		<g id="eq30unkhvhl964">
			<path id="eq30unkhvhl965" class="st17" d="M229,229.1l1.3-0.4c0.2-0.1,0.3-0.3,0.3-0.5l-2.2-6.9c-0.1-0.2-0.3-0.3-0.5-0.3
				l-1.3,0.4c-0.2,0.1-0.3,0.3-0.3,0.5l2.2,6.9C228.5,229.1,228.8,229.2,229,229.1z"/>
		</g>
		<g id="eq30unkhvhl966">
			<path id="eq30unkhvhl967" class="st17" d="M205.8,147.4l27.4,93.9l-1.9,0.6C216.6,196.2,205.1,154.9,205.8,147.4z"/>
		</g>
		<g id="eq30unkhvhl968">
			<g id="eq30unkhvhl969">
				<circle id="eq30unkhvhl970" class="st18" cx="118.2" cy="290.3" r="16"/>
			</g>
		</g>
		<g id="eq30unkhvhl971">
			<g id="eq30unkhvhl972">
				<circle id="eq30unkhvhl973" class="st18" cx="118.2" cy="290.3" r="10.5"/>
			</g>
		</g>
		<g id="eq30unkhvhl974">
			<g id="eq30unkhvhl975">
				<path id="eq30unkhvhl976" class="st8" d="M106.1,290.2c0-6.7,5.4-12.1,12.1-12.1c6.7,0,12.1,5.4,12.1,12.1
					c0,6.7-5.4,12.1-12.1,12.1C111.5,302.3,106.1,296.9,106.1,290.2z M109.2,290.2c0,4.9,4,9,9,9s9-4,9-9s-4-9-9-9
					S109.2,285.2,109.2,290.2z"/>
			</g>
		</g>
		<g id="eq30unkhvhl977">
			<path id="eq30unkhvhl978" class="st19" d="M115.5,293.1c-0.6-1.2-2.2-0.6-3.3,0.2c-0.2-0.3-0.3-0.7-0.4-1.1
				c-0.1-0.4-0.2-0.8-0.2-1.2c1.1,0.4,2.6,0.5,3.1-0.8c0.5-1.5-1.4-1.8-2.7-1.7c0.3-1,0.9-1.8,1.7-2.6c0.2,1.1,0.9,2.5,2.3,1.8
				c1.5-0.7,0.6-2.4-0.3-3.2c0.3-0.1,0.6-0.3,1-0.4c0.6-0.2,1.2-0.2,1.8-0.3c-0.5,1-0.7,2.5,0.7,2.7c1.4,0.3,1.8-1.2,1.8-2.3
				c0.7,0.3,1.4,0.6,1.9,1.1c-1.1,0.6-2.3,1.8-1.2,2.7c0.9,0.8,2,0.2,2.8-0.7c0.1,0.3,0.3,0.6,0.4,1c0.1,0.4,0.2,0.7,0.2,1.1
				c-1.2-0.1-2.7,0.3-2.6,1.6c0.1,1.1,1.2,1.3,2.3,1.1c-0.2,0.6-0.6,1.2-1,1.8c-0.6-0.9-1.5-1.5-2.4-0.6c-0.8,0.8-0.4,1.7,0.3,2.4
				c-0.5,0.2-0.9,0.4-1.4,0.6c-0.2,0-0.3,0.1-0.5,0.1c0.1-1.2-0.1-2.5-1.5-2.5c-1.3,0.1-1.5,1.4-1.2,2.5c-1.1-0.2-2.1-0.7-2.9-1.3
				C114.9,294.9,116,294.2,115.5,293.1z"/>
		</g>
		<g id="eq30unkhvhl979">
			<g id="eq30unkhvhl980">
				<path id="eq30unkhvhl981" class="st18" d="M235.2,268.6c0,0-1.5-1.7-3.2,0c-1.7,1.7-12.9,16.3-12.9,16.3h-8.4l21.3-27.2
					L235.2,268.6z"/>
			</g>
		</g>
		<g id="eq30unkhvhl982">
			<g id="eq30unkhvhl983">
				<path id="eq30unkhvhl984" class="st18" d="M133.8,287.2h89.3c0.6,0,1.1-0.5,1.1-1.1l0,0c0-0.6-0.5-1.1-1.1-1.1h-89.7
					c-0.6,0-0.4,0.5-0.4,1.1l0,0C133.1,286.7,133.2,287.2,133.8,287.2z"/>
			</g>
		</g>
		<g id="eq30unkhvhl985">
			<g id="eq30unkhvhl986">
				<path id="eq30unkhvhl987" class="st18" d="M220.7,287.2L220.7,287.2c-4,4.6-9.7,7.2-15.8,7.2h-71.3l-1.4-7.2H220.7z"/>
			</g>
		</g>
		<g id="eq30unkhvhl988">
			<path id="eq30unkhvhl989" class="st20" d="M219.6,288.3h-86.2c-0.6,0-1.1-0.5-1.1-1.1h88.4C220.4,287.6,220,288,219.6,288.3z"/>
		</g>
		<g id="eq30unkhvhl990">
			<g id="eq30unkhvhl991">
				<path id="eq30unkhvhl992" class="st21" d="M138.6,287.4c0,0-2-7.4-7-12.3c-2.9-2.8-6.9-4.8-12.1-5.1
					c-14.2-0.8-20.4,14.6-20.4,14.6s2.3,0.8,4.1-1.3c1.8-2.1,7.5-10,16.9-8.7c9.4,1.3,13.1,12.3,13.1,12.3L138.6,287.4z"/>
			</g>
		</g>
		<g id="eq30unkhvhl993">
			<path id="eq30unkhvhl994" class="st22" d="M117.7,270.9c-3.2-0.2-6,0.5-8.4,1.6c2.8-1.7,6.1-2.7,10.2-2.5
				c5.5,0.3,9.9,2.5,12.8,5.5c4.6,4.8,6.3,11.8,6.3,11.8H136C134.8,284.3,129.7,271.6,117.7,270.9z"/>
		</g>
		<g id="eq30unkhvhl995">
			<g id="eq30unkhvhl996">
				<g id="eq30unkhvhl997">
					<path id="eq30unkhvhl998" class="st21" d="M225.6,292c0,0-1.8-13.9,10.7-19.8c13.8-6.5,23.5,6.5,23.5,6.5s-2.4,1.7-4.8,0.4
						c-2.4-1.2-9.5-6.6-17.3-2.3c-4.6,2.6-6.5,6.7-7.3,9.7C229.7,289.1,229,291.1,225.6,292L225.6,292z"/>
				</g>
			</g>
		</g>
		<g id="eq30unkhvhl999">
			<path id="eq30unkhvhl9100" class="st22" d="M236.3,272.2L236.3,272.2c13.8-6.5,23.5,6.5,23.5,6.5s-1.1,0.8-2.6,0.9
				C253.4,272.7,247.6,269.3,236.3,272.2z"/>
		</g>
		<g id="eq30unkhvhl9101">
			<g id="eq30unkhvhl9102">
				<path id="eq30unkhvhl9103" class="st18" d="M155.7,294.4c0,0-8.3-7.8-24.4-7.4c-13.4,0.3-14.2,0.9-15,1.9
					c-0.8,1-0.3,2.9,1.3,3.2c1.4,0.3,14.9,1.5,16.1,2.2h22V294.4z"/>
			</g>
		</g>
		<g id="eq30unkhvhl9104">
			<g id="eq30unkhvhl9105">
				<circle id="eq30unkhvhl9106" class="st18" cx="244.5" cy="290.3" r="16"/>
			</g>
		</g>
		<g id="eq30unkhvhl9107">
			<g id="eq30unkhvhl9108">
				<circle id="eq30unkhvhl9109" class="st18" cx="244.5" cy="290.3" r="10.5"/>
			</g>
		</g>
		<g id="eq30unkhvhl9110">
			<g id="eq30unkhvhl9111">
				<path id="eq30unkhvhl9112" class="st8" d="M232.4,290.2c0-6.7,5.4-12.1,12.1-12.1s12.1,5.4,12.1,12.1c0,6.7-5.4,12.1-12.1,12.1
					S232.4,296.9,232.4,290.2z M235.5,290.2c0,4.9,4,9,9,9c4.9,0,9-4,9-9s-4-9-9-9S235.5,285.2,235.5,290.2z"/>
			</g>
		</g>
		<g id="eq30unkhvhl9113">
			<path id="eq30unkhvhl9114" class="st19" d="M241.8,293.1c-0.6-1.2-2.2-0.6-3.3,0.2c-0.2-0.3-0.3-0.7-0.4-1.1
				c-0.1-0.4-0.2-0.8-0.2-1.2c1.1,0.4,2.6,0.5,3.1-0.8c0.5-1.5-1.4-1.8-2.7-1.7c0.3-1,0.9-1.8,1.7-2.6c0.2,1.1,0.9,2.5,2.3,1.8
				c1.5-0.7,0.6-2.4-0.3-3.2c0.3-0.1,0.6-0.3,1-0.4c0.6-0.2,1.2-0.2,1.8-0.3c-0.5,1-0.7,2.5,0.7,2.7c1.4,0.3,1.8-1.2,1.8-2.3
				c0.7,0.3,1.4,0.6,1.9,1.1c-1.1,0.6-2.3,1.8-1.2,2.7c0.9,0.8,2,0.2,2.8-0.7c0.1,0.3,0.3,0.6,0.4,1c0.1,0.4,0.2,0.7,0.2,1.1
				c-1.2-0.1-2.7,0.3-2.6,1.6c0.1,1.1,1.2,1.3,2.3,1.1c-0.2,0.6-0.6,1.2-1,1.8c-0.6-0.9-1.5-1.5-2.4-0.6c-0.8,0.8-0.4,1.7,0.3,2.4
				c-0.5,0.2-0.9,0.4-1.4,0.6c-0.2,0-0.3,0.1-0.5,0.1c0.1-1.2-0.1-2.5-1.5-2.5c-1.3,0.1-1.5,1.4-1.2,2.5c-1.1-0.2-2.1-0.7-2.9-1.3
				C241.3,294.9,242.3,294.2,241.8,293.1z"/>
		</g>
		<g id="eq30unkhvhl9115">
			<g id="eq30unkhvhl9116">
				<path id="eq30unkhvhl9117" class="st18" d="M246.9,289.4L235.3,243l-7.6,2.3l14.6,45.7c0.3,1.2,1.9,2.2,3.1,1.8l0,0
					C246.7,292.5,247.3,290.8,246.9,289.4z"/>
			</g>
		</g>
		<g id="eq30unkhvhl9118">
			<g id="eq30unkhvhl9119">
				<path id="eq30unkhvhl9120" class="st18" d="M235,240.8l-8,2.4c-0.6,0.2-0.9,0.8-0.7,1.4l0,0c0.2,0.6,0.8,0.9,1.4,0.7l8.1-2.4
					c0.6-0.2,0.9-0.8,0.8-1.4l0,0C236.2,240.9,235.6,240.6,235,240.8z"/>
			</g>
		</g>
		<g id="eq30unkhvhl9121">
			<g id="eq30unkhvhl9122">
				<circle id="eq30unkhvhl9123" class="st8" cx="118.2" cy="290" r="1"/>
			</g>
		</g>
		<g id="eq30unkhvhl9124">
			
				<ellipse id="eq30unkhvhl9125" transform="matrix(0.9727 -0.2319 0.2319 0.9727 -53.9328 62.4112)" class="st8" cx="238.5" cy="260.6" rx="0.6" ry="3.7"/>
		</g>
		<g id="eq30unkhvhl9126">
			<path id="eq30unkhvhl9127" class="st8" d="M222.6,272.2c0.9-1.1,1.5-2.1,1.2-2.3c-0.2-0.2-1.1,0.6-2.1,1.7
				c-0.9,1.1-1.5,2.1-1.2,2.3C220.8,274.1,221.7,273.3,222.6,272.2z"/>
		</g>
		<g id="eq30unkhvhl9128">
			<path id="eq30unkhvhl9129" class="st8" d="M239.6,267.2c0.2,0.8,0.6,1.4,1,1.3c0.4-0.1,0.5-0.8,0.3-1.6c-0.2-0.8-0.6-1.4-1-1.3
				C239.5,265.7,239.4,266.4,239.6,267.2z"/>
		</g>
		<g id="eq30unkhvhl9130">
			<path id="eq30unkhvhl9131" class="st8" d="M256.9,277.5c0.4,0.5,0.9,0.7,1,0.6s0-0.6-0.4-1.1s-0.9-0.7-1-0.6
				S256.5,277,256.9,277.5z"/>
		</g>
		<g id="eq30unkhvhl9132">
			<path id="eq30unkhvhl9133" class="st8" d="M132.2,277.8c0.7,0.8,1.4,1.4,1.6,1.2s-0.2-1-0.9-1.8c-0.7-0.8-1.4-1.4-1.6-1.2
				S131.5,277,132.2,277.8z"/>
		</g>
		<g id="eq30unkhvhl9134">
			<path id="eq30unkhvhl9135" class="st8" d="M129.8,275.1c0.4,0.4,0.9,0.5,1,0.4c0.1-0.1-0.1-0.6-0.5-0.9c-0.4-0.4-0.9-0.5-1-0.4
				C129.1,274.3,129.4,274.7,129.8,275.1z"/>
		</g>
		<g id="eq30unkhvhl9136">
			<path id="eq30unkhvhl9137" class="st19" d="M231.3,241.9l0.3,2.3l-4,1.2c-0.6,0.2-1.2-0.2-1.4-0.7l0,0c-0.2-0.6,0.1-1.2,0.7-1.4
				L231.3,241.9z"/>
		</g>
		<g id="eq30unkhvhl9138">
			<g id="eq30unkhvhl9139">
				<ellipse id="eq30unkhvhl9140" class="st18" cx="212.6" cy="143.4" rx="3.7" ry="3.7"/>
			</g>
		</g>
		<g id="eq30unkhvhl9141">
			<g id="eq30unkhvhl9142">
				<ellipse id="eq30unkhvhl9143" class="st8" cx="244.5" cy="290" rx="1" ry="1"/>
			</g>
		</g>
	</g>
</g>
<g>
	
		<linearGradient id="SVGID_1_" gradientUnits="userSpaceOnUse" x1="-44.9375" y1="410.3335" x2="-97.6182" y2="453.189" gradientTransform="matrix(1 0 0 -1 123.2859 494.3844)">
		<stop  offset="0" style="stop-color:#FBE519"/>
		<stop  offset="0.43" style="stop-color:#FAD112"/>
		<stop  offset="1" style="stop-color:#EF9321"/>
	</linearGradient>
	<path class="st23" d="M42.5,30c-11.8,3.1-20.6,12.7-22.6,24.7c2.9,18.6,18.8,32.2,37.6,32.1c3.5,0,6.8-0.4,10.2-1.3
		c7.9-2.1,14.8-6.5,20-12.8c-6,6.1-14.2,9.6-22.7,9.8c-17.1,0.1-31-13.6-31.1-30.7v-0.1c-0.1-1.1-0.3-2-0.1-3.1
		c0-4.7,1.6-9.2,4.7-12.8c2.7-3.2,6.3-5.5,10.3-6.5C46.4,29.2,44.3,29.6,42.5,30"/>
	
		<linearGradient id="SVGID_2_" gradientUnits="userSpaceOnUse" x1="-45.5616" y1="435.8369" x2="-92.2314" y2="473.8026" gradientTransform="matrix(1 0 0 -1 123.2859 494.3844)">
		<stop  offset="0" style="stop-color:#EF9321"/>
		<stop  offset="0.54" style="stop-color:#FAD112"/>
		<stop  offset="1" style="stop-color:#FBE519"/>
	</linearGradient>
	<path class="st24" d="M19.4,48.7c0,2,0.1,4.1,0.5,6.1c2.1-12,11-21.6,22.9-24.7c1.9-0.5,3.7-0.8,5.7-0.9c1.7-0.5,3.5-0.7,5.2-0.7
		c5.2,0,10.3,2.1,13.9,5.7c0.1,0.1,0.3,0.3,0.4,0.4L79.2,46l2.9,2.9l0.9,0.7l14.7-15.8L86.6,23.2c-7.2-8.4-17.8-13.1-28.7-13.1
		C36.5,10.2,19.4,27.4,19.4,48.7L19.4,48.7"/>
	
		<linearGradient id="SVGID_3_" gradientUnits="userSpaceOnUse" x1="12.3986" y1="415.2582" x2="27.1176" y2="468.3056" gradientTransform="matrix(1 0 0 -1 123.2859 494.3844)">
		<stop  offset="0.58" style="stop-color:#FAD112"/>
		<stop  offset="1" style="stop-color:#EF9321"/>
	</linearGradient>
	<path class="st25" d="M155.1,34.3c3.1,3.5,4.8,8,4.8,12.7c0,1.1-0.1,2-0.3,3.1v0.1c-0.1,13.5-14.4,31.8-31.1,31.7
		c-2.5,0-5.1-0.3-7.6-0.9c-4.7-1.2-9.1-3.6-12.6-6.9c0,0-1.3-1.2-2.1-2c5.1,6.1,11.9,10.7,19.6,12.8c3.3,0.9,6.7,1.3,10.2,1.3
		c19.2,0,35.1-14.8,38.1-33c-2.3-11.9-11.2-21.5-23-24.5c-1.9-0.5-3.9-0.8-5.9-0.9C149,29.1,152.5,31.2,155.1,34.3"/>
	
		<linearGradient id="SVGID_4_" gradientUnits="userSpaceOnUse" x1="26.2819" y1="419.6057" x2="-10.6499" y2="449.6495" gradientTransform="matrix(1 0 0 -1 123.2859 494.3844)">
		<stop  offset="0" style="stop-color:#FBE519"/>
		<stop  offset="0.43" style="stop-color:#FAD112"/>
		<stop  offset="1" style="stop-color:#EF9321"/>
	</linearGradient>
	<path class="st26" d="M97.7,63.1l8,8.4l0.1,0.1l2.8,2.8h0.1c3.5,3.5,7.9,5.9,12.7,7.1c2.5,0.7,5.2,1.1,7.8,1.1
		c17.2,0.1,30.6-15.1,30.6-32.6l0,0c-1.5,9.8-9.2,17.6-19.2,17.6c-4.3,0-9.2-2.9-13.9-6.5c-4.4-3.6-8.4-7.5-12.3-11.6L113,48
		L97.7,63.1z"/>
	
		<linearGradient id="SVGID_5_" gradientUnits="userSpaceOnUse" x1="25.5341" y1="409.4742" x2="-60.231" y2="479.2437" gradientTransform="matrix(1 0 0 -1 123.2859 494.3844)">
		<stop  offset="0" style="stop-color:#FBE519"/>
		<stop  offset="0.43" style="stop-color:#FAD112"/>
		<stop  offset="1" style="stop-color:#EF9321"/>
	</linearGradient>
	<path class="st27" d="M136.4,10.3L136.4,10.3c-11.2,0-21.8,4.8-29,13.2l-10,10.7L82.7,50l-1.9,2C76,57.3,61.2,68.7,52.4,68.7
		c-9.9,0-17.5-7.4-19.1-17C32.9,69,47.7,83.2,64.8,83.2c2.5,0,5.2-0.3,7.6-0.9c5.7-1.5,11-4.5,15-8.8c4.3-4.4,9.4-9.4,9.4-9.4
		l0.1-0.1L112,49c9.4-9.8,14.2-14.7,14.2-14.8c8.3-9.5,23.3-4.4,25.1-3.9c11.6,2.8,20.4,12.3,22.5,24.1c0.4-2,0.5-4,0.5-6.1
		c0.3-20.7-16.3-37.7-36.9-37.8C137,10.3,136.7,10.3,136.4,10.3L136.4,10.3z"/>
</g>
<linearGradient id="SVGID_6_" gradientUnits="userSpaceOnUse" x1="180.3308" y1="231.3786" x2="180.3308" y2="37.4978">
	<stop  offset="0" style="stop-color:#FBE519"/>
	<stop  offset="0.43" style="stop-color:#FAD112"/>
	<stop  offset="1" style="stop-color:#EF9321"/>
</linearGradient>
<path class="st28" d="M35.3,303c-1.1,0-2-0.9-2-2V51.8c0.1-0.2,0.2-0.3,0.2-0.3c-0.1-0.6-0.1-1.1-0.2-1.6v-1c0-0.2,0-0.3,0-0.5
	c0-4.7,1.6-9.2,4.7-12.8c2.7-3.2,6.3-5.5,10.3-6.5C46,29.2,44,29.6,42.1,30c-11.8,3.1-20.6,12.7-22.6,24.7c0,0,0,0.1,0,0.1l0,0
	L19.3,301c0,8.8,7.2,16,16,16h306.1v-14H35.3z"/>
</svg>
