<svg id="eo70m9thm8d1" xmlns="http://www.w3.org/2000/svg" xmlns:xlink="http://www.w3.org/1999/xlink" viewBox="0 0 342 332" shape-rendering="geometricPrecision" text-rendering="geometricPrecision">
    <style>
        #eo70m9thm8d4_to {
            animation: eo70m9thm8d4_to__to 3000ms linear infinite normal forwards
        }

        @keyframes eo70m9thm8d4_to__to {
            0% {
                transform: translate(216.076076px, 133.651984px)
            }

            100% {
                transform: translate(825.498554px, 133.650000px)
            }
        }

        #eo70m9thm8d31_tr {
            animation: eo70m9thm8d31_tr__tr 3000ms linear infinite normal forwards
        }

        @keyframes eo70m9thm8d31_tr__tr {
            0% {
                transform: translate(583.099945px, 294.699997px) rotate(0deg)
            }

            100% {
                transform: translate(583.099945px, 294.699997px) rotate(-1080deg)
            }
        }

        #eo70m9thm8d67_tr {
            animation: eo70m9thm8d67_tr__tr 3000ms linear infinite normal forwards
        }

        @keyframes eo70m9thm8d67_tr__tr {
            0% {
                transform: translate(354.999969px, 294.699997px) rotate(0deg)
            }

            100% {
                transform: translate(354.999969px, 294.699997px) rotate(-1080deg)
            }
        }

    </style>
    <g id="eo70m9thm8d2" transform="matrix(1 0 0 1 -179.99799999999999 177.80199999999999)">
        <g id="eo70m9thm8d3" transform="matrix(1 0 0 1 -169.29800000000000 -177.80199999999999)">
            <g id="eo70m9thm8d4_to" transform="translate(216.076076,133.651984)">
                <path id="eo70m9thm8d4" d="M445.900000,69C453.400000,56.700000,468.600000,50.800000,482.400000,55.100000C487.600000,56.700000,493.200000,55.400000,497.500000,52C507.800000,44,521.100000,39.600000,535.500000,40.800000C564.500000,43.300000,585.900000,67.700000,584.900000,96.800000C584,121.300000,567.300000,140.400000,546.100000,146.700000C528.400000,152,514.400000,165.600000,508,182.800000C496.800000,212.800000,467.700000,234.200000,433.500000,233.700000C391.300000,233.100000,356.700000,198.300000,356.400000,156.100000C356,113.100000,390.200000,78.600000,432,77.200000C437.700000,77.100000,442.900000,74,445.900000,69Z" transform="translate(-470.665100,-137.156593)" opacity="0.1" fill="rgb(255,255,255)" stroke="none" stroke-width="1" />
            </g>
        </g>
    </g>
    <path id="eo70m9thm8d5" d="M129.700000,40.300000C129.700000,40.300000,159.700000,40.300000,177.500000,40.300000C207.500000,40.300000,231.900000,64.700000,231.900000,94.700000C231.900000,124.700000,207.500000,149.100000,177.500000,149.100000C156.900000,149.100000,100.800000,149.100000,100.800000,149.100000" fill="none" stroke="rgb(248,218,2)" stroke-width="20" stroke-miterlimit="10" />
    <g id="eo70m9thm8d6" transform="matrix(1 0 0 1 -119.30000000000000 222.27000000000001)">
        <g id="eo70m9thm8d7" transform="matrix(1 0 0 1 -179.80000000000001 -222.27000000000001)">
            <g id="eo70m9thm8d8">
                <g id="eo70m9thm8d9">
                    <path id="eo70m9thm8d10" d="M414.700000,82.600000C413.100000,77.500000,410.900000,71,409.300000,61.500000C406.400000,44,418.900000,33.500000,419.100000,33.300000L417.800000,31.900000C417.600000,32.100000,404.300000,43.100000,407.300000,61.900000C408.900000,71.700000,411.100000,78.200000,412.900000,83.400000C414.300000,87.700000,415.400000,91,415.400000,94.200000L417.200000,94.200000C417.200000,90.700000,416.200000,87.300000,414.700000,82.600000Z" fill="rgb(246,77,106)" stroke="none" stroke-width="1" />
                </g>
            </g>
            <g id="eo70m9thm8d11">
                <g id="eo70m9thm8d12">
                    <path id="eo70m9thm8d13" d="M383.500000,209.700000L435.200000,37.400000C436.300000,33.800000,434.300000,30,430.700000,28.700000L427.800000,27.800000L375.400000,207.100000L383.500000,209.700000Z" fill="rgb(36,141,190)" stroke="none" stroke-width="1" />
                </g>
            </g>
            <g id="eo70m9thm8d14">
                <g id="eo70m9thm8d15">
                    <path id="eo70m9thm8d16" d="M436.700000,31.800000C436.900000,31.300000,436.500000,30.500000,436,30.400000L414.100000,23.200000L412.300000,29.200000C411.600000,32.300000,416.300000,34.300000,418.600000,35L434.300000,40.200000L436.700000,31.800000Z" fill="rgb(46,134,138)" stroke="none" stroke-width="1" />
                </g>
            </g>
            <g id="eo70m9thm8d17">
                <path id="eo70m9thm8d18" d="M384,184.100000L388,171.600000C388,171.200000,387.800000,170.900000,387.500000,170.700000L385.200000,170C384.800000,170,384.500000,170.200000,384.300000,170.500000L380.300000,183C380.300000,183.400000,380.500000,183.700000,380.800000,183.900000L383.100000,184.600000C383.500000,184.800000,384,184.600000,384,184.100000Z" fill="rgb(64,177,222)" stroke="none" stroke-width="1" />
            </g>
            <g id="eo70m9thm8d19">
                <path id="eo70m9thm8d20" d="M379,207.700000L375.600000,206.600000L425,37.100000C426.300000,50.600000,405.500000,125.200000,379,207.700000Z" fill="rgb(64,177,222)" stroke="none" stroke-width="1" />
            </g>
            <g id="eo70m9thm8d21">
                <g id="eo70m9thm8d22">
                    <circle id="eo70m9thm8d23" r="28.900000" transform="matrix(1 0 0 1 583.20000000000005 295.10000000000002)" fill="rgb(50,50,63)" stroke="none" stroke-width="1" />
                </g>
            </g>
            <g id="eo70m9thm8d24">
                <g id="eo70m9thm8d25">
                    <circle id="eo70m9thm8d26" r="19" transform="matrix(1 0 0 1 583.20000000000005 295.10000000000002)" fill="rgb(50,50,63)" stroke="none" stroke-width="1" />
                </g>
            </g>
            <g id="eo70m9thm8d27">
                <g id="eo70m9thm8d28">
                    <path id="eo70m9thm8d29" d="M583.200000,316.800000C571.100000,316.800000,561.300000,307,561.300000,294.900000C561.300000,282.800000,571.100000,273,583.200000,273C595.300000,273,605.100000,282.800000,605.100000,294.900000C605.100000,307.100000,595.300000,316.800000,583.200000,316.800000ZM583.200000,278.700000C574.200000,278.700000,566.900000,285.900000,566.900000,295C566.900000,304.100000,574.100000,311.300000,583.200000,311.300000C592.200000,311.300000,599.500000,303.900000,599.500000,295C599.500000,285.900000,592.200000,278.700000,583.200000,278.700000Z" fill="rgb(255,255,255)" stroke="none" stroke-width="1" />
                </g>
            </g>
            <g id="eo70m9thm8d30">
                <g id="eo70m9thm8d31_tr" transform="translate(583.099945,294.699997) rotate(0)">
                    <path id="eo70m9thm8d31" d="M590.400000,303.800000C589,304.900000,587.100000,305.800000,585.200000,306.100000C585.700000,304.100000,585.400000,301.800000,583,301.600000C580.500000,301.600000,580.100000,303.900000,580.300000,306.100000C579.900000,306.100000,579.800000,305.900000,579.400000,305.900000C578.500000,305.500000,577.800000,305.200000,576.900000,304.800000C578.200000,303.500000,578.900000,301.900000,577.400000,300.500000C575.800000,298.900000,574.100000,300,573.100000,301.600000C572.400000,300.500000,571.700000,299.400000,571.300000,298.300000C573.300000,298.700000,575.300000,298.300000,575.500000,296.300000C575.700000,294,573,293.200000,570.800000,293.400000C570.800000,292.700000,571,292.100000,571.200000,291.400000C571.400000,290.700000,571.700000,290.100000,571.900000,289.600000C573.300000,291.200000,575.300000,292.300000,577,290.900000C579,289.300000,576.800000,287.100000,574.800000,286C575.700000,285.100000,577,284.600000,578.200000,284C578.200000,286,578.900000,288.700000,581.500000,288.200000C584,287.800000,583.700000,285.100000,582.800000,283.300000C583.900000,283.500000,585,283.500000,586.100000,283.800000C586.800000,284,587.400000,284.300000,587.900000,284.500000C586.300000,285.900000,584.600000,289,587.400000,290.300000C589.900000,291.600000,591.200000,289,591.600000,287C593,288.400000,594.100000,289.900000,594.700000,291.700000C592.400000,291.500000,588.900000,292.100000,589.800000,294.800000C590.700000,297.100000,593.400000,297,595.400000,296.200000C595.400000,296.900000,595.200000,297.600000,595,298.400000C594.800000,299.100000,594.600000,299.800000,594.300000,300.400000C592.300000,299,589.400000,297.900000,588.300000,300C587.200000,302.200000,589.200000,303.500000,590.400000,303.800000Z" transform="translate(-583.099945,-294.699997)" fill="rgb(39,39,51)" stroke="none" stroke-width="1" />
                </g>
            </g>
            <g id="eo70m9thm8d32">
                <g id="eo70m9thm8d33">
                    <path id="eo70m9thm8d34" d="M377.700000,236.300000L416.200000,285.400000L401,285.400000C401,285.400000,380.800000,259,377.700000,256C374.600000,252.900000,371.900000,256,371.900000,256L377.700000,236.300000Z" fill="rgb(50,50,63)" stroke="none" stroke-width="1" />
                </g>
            </g>
            <g id="eo70m9thm8d35">
                <g id="eo70m9thm8d36">
                    <path id="eo70m9thm8d37" d="M556.500000,287.600000L556.500000,287.600000C556.500000,286.500000,556.900000,285.600000,555.800000,285.600000L393.800000,285.600000C392.700000,285.600000,391.800000,286.500000,391.800000,287.600000L391.800000,287.600000C391.800000,288.700000,392.700000,289.600000,393.800000,289.600000L555,289.600000C556.100000,289.500000,556.300000,288.600000,556.500000,287.600000Z" fill="rgb(50,50,63)" stroke="none" stroke-width="1" />
                </g>
            </g>
            <g id="eo70m9thm8d38">
                <g id="eo70m9thm8d39">
                    <path id="eo70m9thm8d40" d="M557.900000,289.500000L555.400000,302.500000L426.600000,302.500000C415.600000,302.500000,405.300000,297.800000,398.100000,289.500000L398.100000,289.500000L557.900000,289.500000Z" fill="rgb(50,50,63)" stroke="none" stroke-width="1" />
                </g>
            </g>
            <g id="eo70m9thm8d41">
                <path id="eo70m9thm8d42" d="M398.100000,289.500000L557.800000,289.500000C557.800000,290.600000,556.900000,291.500000,555.800000,291.500000L400.100000,291.500000C399.400000,291,398.600000,290.300000,398.100000,289.500000Z" fill="rgb(77,77,89)" stroke="none" stroke-width="1" />
            </g>
            <g id="eo70m9thm8d43">
                <g id="eo70m9thm8d44">
                    <path id="eo70m9thm8d45" d="M556.100000,289C556.100000,289,562.800000,269.100000,579.800000,266.800000C596.800000,264.500000,607.100000,278.700000,610.300000,282.500000C613.600000,286.300000,617.700000,284.800000,617.700000,284.800000C617.700000,284.800000,606.500000,257,580.900000,258.400000C571.500000,258.900000,564.300000,262.600000,559,267.600000C550,276.400000,546.400000,289.800000,546.400000,289.800000L556.100000,289Z" fill="rgb(192,164,2)" stroke="none" stroke-width="1" />
                </g>
            </g>
            <g id="eo70m9thm8d46">
                <path id="eo70m9thm8d47" d="M551.100000,289.700000L546.400000,289.700000C546.400000,289.700000,549.500000,277.100000,557.800000,268.400000C563,263,571,259,580.900000,258.500000C588.300000,258.100000,594.300000,259.900000,599.300000,263C595,261,589.900000,259.700000,584.100000,260.100000C562.400000,261.400000,553.200000,284.300000,551.100000,289.700000Z" fill="rgb(248,218,2)" stroke="none" stroke-width="1" />
            </g>
            <g id="eo70m9thm8d48">
                <g id="eo70m9thm8d49">
                    <g id="eo70m9thm8d50">
                        <path id="eo70m9thm8d51" d="M389.300000,298.200000C383.200000,296.600000,381.900000,293,380.600000,288.300000C379.200000,282.900000,375.700000,275.500000,367.400000,270.800000C353.300000,263,340.500000,272.800000,336.200000,275C331.900000,277.300000,327.500000,274.300000,327.500000,274.300000C327.500000,274.300000,345,250.800000,369.900000,262.600000C392.500000,273.100000,389.300000,298.200000,389.300000,298.200000L389.300000,298.200000Z" fill="rgb(192,164,2)" stroke="none" stroke-width="1" />
                    </g>
                </g>
            </g>
            <g id="eo70m9thm8d52">
                <path id="eo70m9thm8d53" d="M332.200000,275.800000C329.500000,275.600000,327.500000,274.200000,327.500000,274.200000C327.500000,274.200000,345,250.700000,369.900000,262.500000L369.900000,262.500000C349.500000,257.200000,339,263.400000,332.200000,275.800000Z" fill="rgb(248,218,2)" stroke="none" stroke-width="1" />
            </g>
            <g id="eo70m9thm8d54">
                <g id="eo70m9thm8d55">
                    <path id="eo70m9thm8d56" d="M515.500000,302.400000L555.200000,302.400000C557.400000,301.100000,581.700000,299,584.300000,298.400000C587.200000,297.900000,588.100000,294.400000,586.600000,292.600000C585.100000,290.800000,583.700000,289.700000,559.500000,289.200000C530.400000,288.500000,515.400000,302.600000,515.400000,302.600000L515.400000,302.400000Z" fill="rgb(50,50,63)" stroke="none" stroke-width="1" />
                </g>
            </g>
            <g id="eo70m9thm8d57">
                <g id="eo70m9thm8d58">
                    <circle id="eo70m9thm8d59" r="28.900000" transform="matrix(1 0 0 1 355.10000000000002 295.10000000000002)" fill="rgb(50,50,63)" stroke="none" stroke-width="1" />
                </g>
            </g>
            <g id="eo70m9thm8d60">
                <g id="eo70m9thm8d61">
                    <circle id="eo70m9thm8d62" r="19" transform="matrix(1 0 0 1 355.10000000000002 295.10000000000002)" fill="rgb(50,50,63)" stroke="none" stroke-width="1" />
                </g>
            </g>
            <g id="eo70m9thm8d63">
                <g id="eo70m9thm8d64">
                    <path id="eo70m9thm8d65" d="M355.100000,316.800000C343,316.800000,333.200000,307,333.200000,294.900000C333.200000,282.800000,343,273,355.100000,273C367.200000,273,377,282.800000,377,294.900000C377,307.100000,367.200000,316.800000,355.100000,316.800000ZM355.100000,278.700000C346.100000,278.700000,338.800000,285.900000,338.800000,295C338.800000,304.100000,346.200000,311.300000,355.100000,311.300000C364.100000,311.300000,371.400000,303.900000,371.400000,295C371.400000,285.900000,364.100000,278.700000,355.100000,278.700000Z" fill="rgb(255,255,255)" stroke="none" stroke-width="1" />
                </g>
            </g>
            <g id="eo70m9thm8d66">
                <g id="eo70m9thm8d67_tr" transform="translate(354.999969,294.699997) rotate(0)">
                    <path id="eo70m9thm8d67" d="M362.300000,303.800000C360.900000,304.900000,359,305.800000,357.100000,306.100000C357.600000,304.100000,357.300000,301.800000,354.900000,301.600000C352.400000,301.600000,352,303.900000,352.200000,306.100000C351.800000,306.100000,351.700000,305.900000,351.300000,305.900000C350.400000,305.500000,349.700000,305.200000,348.800000,304.800000C350.100000,303.500000,350.800000,301.900000,349.300000,300.500000C347.700000,298.900000,346,300,345,301.600000C344.300000,300.500000,343.600000,299.400000,343.200000,298.300000C345.200000,298.700000,347.200000,298.300000,347.400000,296.300000C347.600000,294,344.900000,293.200000,342.700000,293.400000C342.700000,292.700000,342.900000,292.100000,343.100000,291.400000C343.300000,290.700000,343.600000,290.100000,343.800000,289.600000C345.200000,291.200000,347.200000,292.300000,348.900000,290.900000C350.900000,289.300000,348.700000,287.100000,346.700000,286C347.600000,285.100000,348.900000,284.600000,350.100000,284C350.100000,286,350.800000,288.700000,353.400000,288.200000C355.900000,287.800000,355.600000,285.100000,354.700000,283.300000C355.800000,283.500000,356.900000,283.500000,358,283.800000C358.700000,284,359.300000,284.300000,359.800000,284.500000C358.200000,285.900000,356.500000,289,359.300000,290.300000C361.800000,291.600000,363.100000,289,363.500000,287C364.900000,288.400000,366,289.900000,366.600000,291.700000C364.300000,291.500000,360.800000,292.100000,361.700000,294.800000C362.600000,297.100000,365.300000,297,367.300000,296.200000C367.300000,296.900000,367.100000,297.600000,366.900000,298.400000C366.700000,299.100000,366.500000,299.800000,366.200000,300.400000C364.200000,299,361.300000,297.900000,360.200000,300C359.100000,302.200000,360.900000,303.500000,362.300000,303.800000Z" transform="translate(-354.999969,-294.699997)" fill="rgb(39,39,51)" stroke="none" stroke-width="1" />
                </g>
            </g>
            <g id="eo70m9thm8d68">
                <g id="eo70m9thm8d69">
                    <path id="eo70m9thm8d70" d="M353.500000,299.700000L353.500000,299.700000C355.700000,300.400000,358.600000,298.600000,359.100000,296.400000L385.500000,213.900000L371.800000,209.700000L350.900000,293.500000C350.100000,296,351.100000,299.100000,353.500000,299.700000Z" fill="rgb(50,50,63)" stroke="none" stroke-width="1" />
                </g>
            </g>
            <g id="eo70m9thm8d71">
                <g id="eo70m9thm8d72">
                    <path id="eo70m9thm8d73" d="M369.400000,207L369.400000,207C369.200000,208.100000,369.800000,209.200000,370.800000,209.500000L385.400000,213.800000C386.500000,214.200000,387.600000,213.600000,387.900000,212.500000L387.900000,212.500000C388.300000,211.400000,387.700000,210.300000,386.600000,210L372.200000,205.700000C371.200000,205.400000,370.100000,205.900000,369.400000,207Z" fill="rgb(50,50,63)" stroke="none" stroke-width="1" />
                </g>
            </g>
            <g id="eo70m9thm8d74">
                <g id="eo70m9thm8d75">
                    <circle id="eo70m9thm8d76" r="1.800000" transform="matrix(1 0 0 1 583.20000000000005 294.60000000000002)" fill="rgb(255,255,255)" stroke="none" stroke-width="1" />
                </g>
            </g>
            <g id="eo70m9thm8d77">
                <ellipse id="eo70m9thm8d78" rx="6.700000" ry="1.100000" transform="matrix(0.23190000000000 -0.97270000000000 0.97270000000000 0.23190000000000 365.97354999999999 241.49164999999994)" fill="rgb(255,255,255)" stroke="none" stroke-width="1" />
            </g>
            <g id="eo70m9thm8d79">
                <path id="eo70m9thm8d80" d="M398.500000,265.500000C399,265.100000,398,263.300000,396.300000,261.300000C394.500000,259.300000,392.900000,257.900000,392.500000,258.200000C392,258.600000,393,260.400000,394.700000,262.400000C396.300000,264.400000,397.900000,265.900000,398.500000,265.500000Z" fill="rgb(255,255,255)" stroke="none" stroke-width="1" />
            </g>
            <g id="eo70m9thm8d81">
                <path id="eo70m9thm8d82" d="M363.400000,250.500000C362.700000,250.300000,362,251.400000,361.600000,252.800000C361.200000,254.200000,361.400000,255.500000,362.100000,255.700000C362.800000,255.900000,363.500000,254.800000,363.900000,253.400000C364.300000,252,364.100000,250.700000,363.400000,250.500000Z" fill="rgb(255,255,255)" stroke="none" stroke-width="1" />
            </g>
            <g id="eo70m9thm8d83">
                <path id="eo70m9thm8d84" d="M333.400000,270C333.200000,269.800000,332.300000,270.200000,331.600000,271.100000C330.900000,272,330.700000,272.900000,330.900000,273.100000C331.100000,273.300000,332,272.900000,332.700000,272C333.400000,271.100000,333.600000,270.200000,333.400000,270Z" fill="rgb(255,255,255)" stroke="none" stroke-width="1" />
            </g>
            <g id="eo70m9thm8d85">
                <path id="eo70m9thm8d86" d="M559.600000,269.300000C559.200000,268.900000,558,270,556.700000,271.500000C555.400000,272.900000,554.700000,274.400000,555.100000,274.800000C555.500000,275.200000,556.700000,274.100000,558,272.600000C559.200000,271.100000,559.900000,269.700000,559.600000,269.300000Z" fill="rgb(255,255,255)" stroke="none" stroke-width="1" />
            </g>
            <g id="eo70m9thm8d87">
                <path id="eo70m9thm8d88" d="M563.200000,266.100000C563,265.900000,562.100000,266.100000,561.400000,266.800000C560.700000,267.300000,560.300000,268.200000,560.500000,268.400000C560.700000,268.600000,561.600000,268.400000,562.300000,267.700000C563,267,563.500000,266.200000,563.200000,266.100000Z" fill="rgb(255,255,255)" stroke="none" stroke-width="1" />
            </g>
            <g id="eo70m9thm8d89">
                <path id="eo70m9thm8d90" d="M386.900000,210.300000C388,210.700000,388.500000,211.700000,388.200000,212.800000L388.200000,212.800000C387.800000,213.700000,386.800000,214.400000,385.700000,214.100000L378.500000,211.900000L379,207.700000L386.900000,210.300000Z" fill="rgb(39,39,51)" stroke="none" stroke-width="1" />
            </g>
            <g id="eo70m9thm8d91">
                <g id="eo70m9thm8d92">
                    <ellipse id="eo70m9thm8d93" rx="6.700000" ry="6.700000" transform="matrix(1 0 0 1 412.69999999999999 29.80000000000000)" fill="rgb(50,50,63)" stroke="none" stroke-width="1" />
                </g>
            </g>
            <g id="eo70m9thm8d94">
                <g id="eo70m9thm8d95">
                    <ellipse id="eo70m9thm8d96" rx="1.800000" ry="1.800000" transform="matrix(1 0 0 1 355.10000000000002 294.60000000000002)" fill="rgb(255,255,255)" stroke="none" stroke-width="1" />
                </g>
            </g>
        </g>
    </g>
</svg>
