<?xml version="1.0" encoding="utf-8"?>
<!-- Generator: Adobe Illustrator 25.0.0, SVG Export Plug-In . SVG Version: 6.00 Build 0)  -->
<svg version="1.1" id="Layer_1" xmlns="http://www.w3.org/2000/svg" xmlns:xlink="http://www.w3.org/1999/xlink" x="0px" y="0px"
	 viewBox="0 0 1920 700" style="enable-background:new 0 0 1920 700;" xml:space="preserve">
<style type="text/css">
	.st0{opacity:0.2;fill:#FBE519;}
</style>
<path class="st0" d="M1944,9.3c-7.3,0.9-15.3-0.3-21.9,0.8c-7.9,1.4-15.4,0.1-23.2,0.9c-9.7,1.1-20.4,1.2-30.6,1.6
	c-6.8,0.3-13.9-1.2-20.5,0.5c-1.6,0.4-3.5,1-5,0.8c-8.7-1.3-17.6-0.1-25.9,0.6c-6.5,0.6-13.1,0.2-19.6,1.1
	c-7.8,1.1-15.8,1.1-23.8,1.3c-6.9,0.1-13.7,0.9-20.6,1.4c-11,0.7-22,1.2-32.9,1.9c-13.6,0.9-27.1,2-40.7,2.9c-6,0.4-12.5,0.1-17.9,1
	c-11.3,2-23,1.7-34.3,2.9c-9.7,1.1-19.6,2.2-29.5,2.7c-18.2,1-35.8,3.8-53.9,5.1c-18,1.4-35.6,3.9-53.4,5.7
	c-12.3,1.3-24.7,2.7-37.1,3.8c-18.1,1.7-36,4.3-54.1,6.4c-25.4,2.9-50.6,6.2-75.3,10.6c-20,3.5-40.4,6.1-59.8,11
	c-9.9,2.5-20.5,4.4-30.6,6.8c-18,4.3-35.6,9.3-52.6,14.9c-19.7,6.5-39.8,12.6-58.9,19.7c-12.6,4.7-26.7,7.7-38.6,13.4
	c-3.8,1.8-10,1.8-14.5,3.2c-30.3,9.7-62.4,16.8-94.4,23.9c-28.6,6.4-57.5,12.1-86.1,18.4c-38.3,8.4-76.8,16.3-114.7,25.4
	c-16.6,4-33.3,7.7-49.6,12.1c-23.1,6.2-46.1,12.4-68.8,19.1c-20.1,6-39.9,12.3-59.3,19c-33.4,11.5-65.8,24.1-98.3,36.4
	c-34.1,13-68.8,25.5-103.1,38.2c-19.9,7.4-39.5,15-59.4,22.3c-20.4,7.6-41.3,14.8-61.6,22.5c-21.6,8.2-43.9,15.7-66,23.3
	c-14.2,4.9-29.2,9-42.9,14.5c-29,11.5-60.5,20.4-90.8,30.4c-23.1,7.7-46.3,15.4-70.5,21.9c-9.3,2.5-17.8,6.1-27.5,8.3
	c0-8.2,0-16.5,0-24.7c3.3-2.3,7.9-3.3,12.3-4.4c24.3-6.4,47.1-14.6,70.8-21.7c23.4-6.9,45.8-14.9,69.1-21.9
	c18-5.4,35.1-11.8,52.5-18c16.2-5.8,33.2-10.8,49.3-16.6c11.8-4.3,23.6-8.7,35.7-12.6c16.8-5.4,33.4-11,49.5-17.1
	c22.4-8.5,45.3-16.6,68-24.8c18.8-6.8,37.2-14,56.1-20.6c32.2-11.3,63.7-23.2,96.3-34.1c23-7.7,45.8-15.5,69.4-22.4
	c28.5-8.4,57.6-16.1,86.9-23.3c25.1-6.2,50.6-11.8,75.9-17.7c13-3.1,26.6-5.4,39.6-8.4c17.5-4.2,35.6-7.3,53.2-11.3
	c17.2-3.9,34.8-7.1,52-10.9c28.5-6.3,57-12.6,85.1-19.6c28.1-7,55.5-14.9,82.6-23.3c21.8-6.8,43.4-13.7,65.4-20.2
	c27.3-8.1,54.9-15.9,83.6-21.9c26.8-5.7,54.1-10.4,81.7-14.4c28.5-4.2,57-8.2,85.7-11.4c21.9-2.5,43.7-5.4,65.9-6.8
	c6.2-0.4,12.5-1,18.6-2.2c8.8-1.8,18.2-1.3,27.2-2.3c36.1-4,72.5-6.8,108.8-10.1c30.9-2.8,61.9-4.9,93-6.8c28-1.7,56-3.6,84.1-4.5
	c15.6-0.5,31.3-1.5,46.9-2.7c7.6-0.6,15.3-0.4,22.9-0.7c24-0.9,47.9-2.3,71.9-2.7c2.8-0.1,5.7-0.3,8.1,1C1944,7.7,1944,8.5,1944,9.3
	z"/>
<path class="st0" d="M-84.5,697.2c-2.8-1.6-1.5-2.5,1.7-3.1c12.3-2.2,23.8-5.4,35.3-8.6c13.3-3.7,27.2-6.6,40.2-10.7
	c17.8-5.6,36.9-10,55.9-14.3c10.6-2.4,20.2-6.1,30.5-9.1c20.9-6,41.1-12.7,62.2-18.5c15.2-4.1,29.8-8.8,44.5-13.5
	c17.4-5.5,34.3-11.6,51.9-16.8c21.7-6.4,42.7-13.4,64-20.1c15.5-4.9,30.6-10.1,45.7-15.4c10.3-3.6,20-7.8,30.3-11.3
	c13.4-4.6,27.2-8.9,39.6-14.4c12.9-5.8,27.8-9.7,42-14.4c8.7-2.9,16.4-6.7,24.3-10.2c12.2-5.4,26.5-8.7,39-13.6
	c10.3-4.1,20.6-8.2,30.8-12.3c8.1-3.3,16.5-6.5,25.1-9.4c13.1-4.3,24.6-9.7,36.8-14.7c8-3.3,17.7-5.1,25-9
	c19.1-10.3,44.3-15.9,64.4-25.6c7.9-3.8,16.6-7.3,25.4-10.6c8.8-3.3,19-5.4,27.3-9.3c19.8-9.4,43.2-15.9,63.4-25.1
	c8-3.7,19.3-5.8,28.8-8.8c14.8-4.6,28.5-10.2,43-15c18.6-6.1,36.8-12.7,56.5-17.8c8.3-2.1,16.9-4,24.8-6.8c6.9-2.5,15-4,22.5-6
	c20.8-5.3,40.8-11.4,60.7-17.6c15.1-4.7,31.9-6.9,46.9-11.5c13.8-4.2,28.1-8,42.7-11.1c15.6-3.4,29.7-8,44.1-12.5
	c4.6-1.4,10.3-1.8,15.2-3c12.5-2.9,24.5-6.6,37.4-8.6c15.5-2.5,29.2-7.6,44.6-9.7c17.9-2.5,34.6-6.5,52-9.6
	c16-2.8,32.2-5.4,48.5-7.9c12.1-1.8,23.8-4.7,36-6.5c14.5-2.1,28.9-4.9,44-5.3c0.9,0,2,0.1,2.7-0.1c14.8-4,31.3-3.9,47-4.8
	c15-0.8,29.7-2.9,44.9-2.9c13.4,0,26.8-1.8,40.1-3.1c9.2-0.9,18.5-0.3,27.7-1.1c16.7-1.5,33.5-2.4,50.3-3.7c7.6-0.6,15.4-0.5,23-0.6
	c12-0.2,23.8-1.4,35.7-1.9c13-0.6,25.9-2,38.9-2.5c10.5-0.4,20.9-1.1,31.6-0.8c10.9,0.3,22.1-0.5,33.1-0.5c28.7-0.1,57.3-3.2,86,0
	c4.9,0.5,9.3-1.1,14.1-0.6c0,7.6,0,15.1,0,22.7c-3.4,1.3-7,0.9-10.4,0.1c-10.4-2.4-21.2-3.6-32.5-3.1c-2.1,0.1-4.2,0-6-0.5
	c-10.4-2.8-21.2-2.3-32.3-1.9c-10.1,0.4-20.4,1-30.4-1.1c-3.3-0.7-7.3-0.5-10.8-0.1c-9.5,1-19,0.1-28.4,0.5
	c-14.9,0.6-29.8-1.4-44.8,0.6c-9.1,1.2-19,0.6-28.4,0.8c-24,0.5-47.8,1.9-71.6,3.4c-9.4,0.6-18.9,1-28.1,2.6
	c-1.5,0.3-3.1,0.5-4.7,0.4c-25.1-1.1-49.2,2.6-73.8,3.9c-11.5,0.6-23,1.7-34.1,3.1c-14.3,1.8-28.8,2.8-43.1,4.8
	c-15.6,2.1-30.7,5.3-46.5,6.6c-10.4,0.8-19.5,3-29.1,4.8c-7,1.4-14.5,1.8-21.7,2.8c-8.9,1.2-17.1,3.3-25.7,4.7
	c-20.2,3.3-39.6,7.8-59.3,11.8c-10.7,2.2-20.6,5.4-31.5,7.1c-17.5,2.6-33.8,7-50.7,10.6c-13.2,2.8-26.2,6.2-39.2,9.5
	c-16.5,4.1-32.6,8.8-50.1,11.6c-15.7,2.6-29.9,7.2-44.4,11.3c-20.8,5.9-42.3,11-63.1,16.8c-0.8,0.2-1.8,0.3-2.6,0.5
	c-26.4,8.3-54.4,14.8-80.6,23.5c-23.8,7.8-49,14.2-72.7,22.2c-16.7,5.6-33,11.6-48.8,17.9c-8.3,3.3-16.3,6.8-24.5,10.2
	c-4.4,1.8-9.5,2.9-14,4.6c-19.4,7-38.3,14.4-56.6,22.2c-3.6,1.5-7.5,2.8-11.4,4.1c-19.9,6.6-37.4,15.1-56.5,22.2
	c-19.9,7.4-38.5,15.9-59.6,22.4c-9.1,2.8-15.1,7.6-23.4,10.9c-14.5,5.6-28.7,11.4-43.9,16.4c-9.5,3.2-18.8,6.7-27.3,10.6
	c-15.3,7-32.7,12.2-48.8,18.6c-19.8,7.9-41.3,14.5-61.7,22c-11.5,4.3-21.9,9.3-33.7,13.3c-30.4,10.3-60.6,20.8-92.2,29.9
	c-22.1,6.3-41,15.3-63.3,21.3c-9.8,2.6-19.1,5.7-28.8,8.5c-7.6,2.2-14.5,5.1-21.9,7.5c-14.7,4.7-29.3,9.5-45.1,13.2
	c-5,1.1-9.6,2.9-14.2,4.4c-14.6,4.9-29.9,9.1-45.3,12.9c-20.3,5-39.3,11.5-60.3,15.6c-9.1,1.8-16.8,4.9-25.7,6.9
	C-72.5,705.3-77.5,704.5-84.5,697.2z"/>
<path class="st0" d="M1546.5,15.7c-9.8,1.8-19.9,2.1-29.9,3.1c-16.2,1.6-32.6,2.7-48.9,4.2c-21.2,2-42.4,4.1-63.6,6.2
	c-30.8,3-61.6,6.3-92.2,9.9c-29.4,3.5-58.7,7.3-87.5,12.4c-18.7,3.4-37.4,6.9-55.8,10.9c-22.3,4.8-44.3,10.1-66.4,15.3
	c-21.5,5.1-42.6,10.7-64.3,15.4c-14.7,3.2-29,7.1-43.7,10.2c-19.2,4.1-38.5,8.1-57.7,12.1c-31.6,6.6-63.2,13.4-95,19.8
	c-22,4.4-44.3,8.4-66.5,12.4c-17.6,3.2-35.3,6.4-52.9,9.9c-23.9,4.7-48.5,8.2-72.3,13c-21.8,4.3-44.2,7.6-65.9,12.2
	c-15.3,3.3-31.3,5.6-46.6,8.9c-22.5,4.8-45.1,9.5-67.4,14.6c-19.4,4.4-38.8,9-57.7,14.1c-13.7,3.7-27.5,7.3-41.2,10.9
	c-14.5,3.9-28.9,7.8-43.4,11.7c-11.6,3.2-22.8,7-34.5,10.1c-25.4,6.7-49.3,15.1-74,22.6c-13.6,4.1-27.4,8-40.6,12.4
	c-22.2,7.4-45.1,13.9-67.6,20.9c-20.7,6.4-41.5,12.8-62.5,18.8c-14.1,4-27.7,8.8-41.9,12.6C-4,343-13.5,346.7-24,349.1
	c0-3.7,0-7.4,0-11.2c3.4-3.3,9.3-4.3,14.6-5.7c5.4-1.5,10.7-2.9,15.9-4.6c15-4.9,30.5-9.2,46.2-13.3c5.7-1.4,10.7-3.6,16.4-5.1
	c21.7-5.6,42.6-12.3,63.8-18.6c35.1-10.4,70.5-20.6,105.3-31.4c37.9-11.7,76.6-22.6,115.9-32.6c35.9-9.1,72.1-17.7,108.6-25.8
	c30.8-6.9,62-13,93.3-18.9c37.8-7.2,76-13.3,114-20c50.2-8.8,100.5-17.3,150.3-26.9c52.3-10.1,104.4-20.5,156.2-31.5
	c46.2-9.8,91.7-20.7,137.4-31.4c47.1-11,94.6-21.3,143.9-28.3c47.5-6.7,95.4-11.8,143.4-16.6c29.5-2.9,59-5.7,88.6-8.4
	c16.2-1.5,32.4-2.8,48.6-4.2C1541.2,14.5,1544.1,14.3,1546.5,15.7z"/>
<path class="st0" d="M948.4,102.8c-3.9,0.8-7.7,1.6-11.6,2.4c-7,1.1-13.7,2.8-20.7,4c-1.3,0.3-2.6,0.5-3.9,0.8
	c-10.7,2.2-21.7,3.8-32.2,6.3c-3,0.7-6.1,1-9.1,1.6l0,0c-18.5,3.7-37.1,7-55.6,10.6c-17.5,3.4-35.2,6.5-52.9,9.5
	c-15.6,2.7-31.3,5.4-47.1,7.9c-21.7,3.4-43.4,6.9-65.2,10.3c-6,0.9-11.9,2.1-18,2.9c-5.2-0.3-9.5,1.5-14.3,2.1
	c-18.9,2.4-37.6,5.5-56.2,8.5c-23.2,3.8-46.5,7.6-69.6,11.7c-22.5,4-44.8,8.3-67.1,12.6c-19,3.7-37.7,8.1-56.6,12
	c-26.1,5.4-51.7,11.6-77.3,17.7c-21.2,5.1-42.3,10.4-63.2,16c-15.8,4.2-31.4,8.6-47.4,12.5c-11.3,2.8-22.2,6.2-33.4,9.3
	c-1.8,0.5-3.6,0.9-5.5,1c-6.3-0.3-11.1,2.1-16.1,3.6c-19.5,5.8-39.8,10.5-59.5,16.1c-11.5,3.3-23.2,6.2-34.8,9.4
	c-15.5,4.2-31.1,8.1-46.8,12.1c-2.6,0.7-5.4,1.9-8.5,0.6c0-1.1,0-2.1,0-3.2c7.8-3.1,16.9-4.2,25.2-6.5c10.3-2.9,20.8-5.5,31.4-8
	c11.7-2.8,22.5-6.7,34.3-9.4c11.6-2.7,22.7-6.2,33.7-9.7c5.8-1.8,12.4-2.2,18-4.3c12-4.3,25.4-6.9,37.7-10.9
	c6.2-2,13.3-3.2,19.9-5.1c14.5-4,29.3-7.7,44-11.4c15.4-3.9,30.7-7.8,46.1-11.6c15.2-3.7,30.3-7.4,45.6-11
	c12.1-2.8,24.4-5.5,36.6-8.2c15.1-3.3,30-6.9,45.2-10c18.2-3.7,36.6-7.2,55-10.5c26.8-4.9,53.7-9.7,80.7-14.1
	c21.9-3.6,44-6.6,66.1-9.8c22-3.2,44.2-6.3,66.1-9.7c50-7.7,100-15.4,149.3-24.6c28.3-5.3,56.5-10.7,84.7-15.9
	c28.9-5.4,57.6-11.1,86.4-16.7c23.1-4.5,45.7-9.8,68.4-15c38-8.7,76-17.4,114.5-25.1c42.8-8.5,86.7-14.2,130.9-19.3
	c23.5-2.7,47.1-5,70.6-7.6c21.2-2.3,42.6-3.9,64-5.8c15.4-1.4,30.8-3,46.2-4.3c15-1.3,30-2.4,45.1-3.6c15.7-1.2,31.3-2.5,47-3.7
	c13.4-1,26.7-1.8,40.1-2.7c15.3-1,30.5-2.1,45.8-3c10.6-0.7,21.3-1.4,31.9-1.7c8.8-0.3,17.5-1.4,26.3-0.9
	c-5.3,1.8-11.3,0.9-16.9,1.4c-16.5,1.3-33.2,1.6-49.8,2.6c-17.8,1.1-35.6,2.5-53.4,3.8c-16.3,1.1-32.7,2.1-49,3.3
	c-14.6,1.1-29.2,2.3-43.8,3.5c-16.5,1.4-32.9,2.9-49.4,4.4c-15.4,1.4-30.9,2.7-46.2,4.1c-20.9,2-41.7,4.1-62.5,6.2
	c-30.8,3.1-61.4,6.6-91.9,10.6c-32.1,4.2-63.7,9.4-94.7,15.8c-30.2,6.3-60.2,13.1-90.1,20c-36.5,8.4-73.3,16.6-110.3,24.2
	C952.7,101.5,950.2,101.7,948.4,102.8z"/>
<path class="st0" d="M733,129.7c19.7-2.9,39.4-5.9,59.1-8.8c5.2-0.8,10.2-2.2,15.7-2.4c2.8-0.7,4.1,0,4.2,1.8
	c-1.1,1.1-2.9,1.5-4.8,1.8c-16.6,2.5-33.2,5.3-49.9,7.8c-3.7,0-7.3,0-10.7,1.1c-1.9,0.4-3.8,0.8-5.7,1c-2.2,0.2-4.6,0.2-6.6,1
	c-18.8,3.1-37.8,5.5-56.8,8c-48.6,6.5-97.5,12.4-146,19.4c-46,6.6-91.6,13.8-136.7,22.4c-30.6,5.8-61.1,11.9-91.4,18.5
	c-30,6.5-60,13.2-89.7,20.1c-25.9,6-51.6,12.4-77.4,18.6C91.3,251,46.7,262.7,1.7,273.7c-6.1,1.5-12.2,3-18.2,4.5
	c-2.4,0.6-4.8,1.4-7.5,0.7c0-2.7,0-5.3,0-8c11.7-1.6,22.4-4.9,33.4-7.6c20.9-5.1,42.2-9.6,62.7-15.2c20-5.4,40.7-9.9,60.9-15
	c23.6-5.9,47.6-11.1,71.4-16.7c26.5-6.2,53.1-12.2,80-17.6c16.2-3.3,32.5-6.6,48.8-9.9c31.9-6.4,64.1-12.4,96.4-17.9
	c27.5-4.7,55.2-8.9,83-12.9c36.8-5.3,73.8-9.7,110.8-14.5c21-2.7,42.2-5,63.2-7.6c13.4-1.7,26.6-3.6,39.9-5.5
	C728.4,129.6,731.1,130.7,733,129.7z"/>
<path class="st0" d="M675.3,244.6c-5.8,4.2-14.4,5.8-21.8,8.5c-26.2,9.3-51.3,19.6-76.7,29.6c-45.5,17.9-90.8,36-136.3,53.9
	c-23.6,9.3-47.3,18.4-71.1,27.4c-34.9,13.2-69.7,26.5-105.1,39.3c-24.3,8.8-48.4,17.7-73.3,25.9c-14.2,4.7-28.6,9.3-42.4,14.5
	c-26.8,9.9-54.7,18.6-82.2,27.6C36.8,481,6.2,489.8-24,499c0-0.8,0-1.6,0-2.4c13.7-4.2,27.5-8.3,40.9-12.7
	c16.1-5.4,33.2-9.8,49.1-15.3c17-5.9,34.9-10.6,51.6-16.7c9.4-3.4,19.3-6.6,29.1-9.6c7.6-2.4,15-5.2,22.5-7.8
	c15.5-5.4,30.5-11.2,46.1-16.4c14.6-4.9,28.7-10.3,43.1-15.4c16.1-5.7,32.3-11.2,48-17.3c9.9-3.8,19.9-7.6,29.8-11.3
	c10.6-4,21.1-8.1,32-11.8c6.8-2.3,13-5.3,19.6-7.8c11.6-4.5,23.4-8.8,35.1-13.3c9.9-3.8,19.6-7.7,29.3-11.6
	c19.8-7.9,39.7-15.8,59.5-23.6c15.4-6.1,30.8-12.3,46.3-18.3c21-8.1,42.1-16.1,63.1-24.1c12.1-4.6,23.9-9.5,36.3-13.9
	C663.2,247.6,668.6,245.1,675.3,244.6z"/>
<path class="st0" d="M-24,203.9c13.4-2.7,26.7-5.4,40.1-8C36,192.2,56,188.5,76,184.9c19.7-3.6,39.6-6.7,59-10.8
	c24.3-5,49.2-8.6,73.6-13.1c22.4-4.2,45.1-7.9,67.7-11.6c27.8-4.5,56-8.6,84.1-12.6c44.8-6.4,89.6-12.8,134.8-17.9
	c37.7-4.3,75.4-8.8,113.3-12.3c23.8-2.2,47.5-4.8,71.2-7c35.3-3.3,70.7-6.4,106-9.8c13.1-1.2,25.9-3.3,39.1-3.9
	c-12.3,2.7-25.3,3.4-38,4.7c-36.8,3.6-73.7,7-110.5,10.5c-22.9,2.2-46,3.8-68.7,6.6c-11.6,1.5-23.5,2.5-35.1,3.9
	c-23.5,2.8-47.1,5.3-70.7,7.9c-17.9,1.9-35.8,4.1-53.6,6.4c-22.6,3-45.2,6.1-67.7,9.5c-20,3.1-39.9,6.3-60,9
	c-20.3,2.7-40.3,6.1-60.2,9.7c-12.2,2.2-24.7,4.3-36.9,6.3c-15.6,2.5-30.6,6.5-46.8,7.9c-8.4,0.7-16.6,2.9-24.8,4.5
	c-8.9,1.8-18.2,3-27,5c-11,2.5-22.5,3.6-33.6,5.8c-19.3,3.9-38.7,7.3-57.9,11.4c-19,4-38.6,6.9-57.4,11.3
	C-24,205.5-24,204.7-24,203.9z"/>
</svg>
