<?xml version="1.0" encoding="utf-8"?>
<!-- Generator: Adobe Illustrator 25.0.0, SVG Export Plug-In . SVG Version: 6.00 Build 0)  -->
<svg version="1.1" id="Layer_1" xmlns="http://www.w3.org/2000/svg" xmlns:xlink="http://www.w3.org/1999/xlink" x="0px" y="0px"
	 viewBox="0 0 1920 700" style="enable-background:new 0 0 1920 700;" xml:space="preserve">
<style type="text/css">
	.st0{opacity:0.2;fill:#FBE519;}
</style>
<path class="st0" d="M1944,9.3c-7.3,0.9-15.3-0.3-21.9,0.8c-7.9,1.4-15.4,0.1-23.2,0.9c-9.7,1.1-20.4,1.2-30.6,1.6
	c-6.8,0.3-13.9-1.2-20.5,0.5c-1.6,0.4-3.5,1-5,0.8c-8.7-1.3-17.6-0.1-25.9,0.6c-6.5,0.6-13.1,0.2-19.6,1.1
	c-7.8,1.1-15.8,1.1-23.8,1.3c-6.9,0.1-13.7,0.9-20.6,1.4c-11,0.7-22,1.2-32.9,1.9c-13.6,0.9-27.1,2-40.7,2.9c-6,0.4-12.5,0.1-17.9,1
	c-11.3,2-23,1.7-34.3,2.9c-9.7,1.1-19.6,2.2-29.5,2.7c-18.2,1-35.8,3.8-53.9,5.1c-18,1.4-35.6,3.9-53.4,5.7
	c-12.3,1.3-24.7,2.7-37.1,3.8c-18.1,1.7-36,4.3-54.1,6.4c-25.4,2.9-50.6,6.2-75.3,10.6c-20,3.5-40.4,6.1-59.8,11
	c-9.9,2.5-20.5,4.4-30.6,6.8c-18,4.3-35.6,9.3-52.6,14.9c-19.7,6.5-39.8,12.6-58.9,19.7c-12.6,4.7-26.7,7.7-38.6,13.4
	c-3.8,1.8-10,1.8-14.5,3.2c-30.3,9.7-62.4,16.8-94.4,23.9c-28.6,6.4-57.5,12.1-86.1,18.4c-38.3,8.4-76.8,16.3-114.7,25.4
	c-16.6,4-33.3,7.7-49.6,12.1c-23.1,6.2-46.1,12.4-68.8,19.1c-20.1,6-39.9,12.3-59.3,19c-33.4,11.5-65.8,24.1-98.3,36.4
	c-34.1,13-68.8,25.5-103.1,38.2c-19.9,7.4-39.5,15-59.4,22.3c-20.4,7.6-41.3,14.8-61.6,22.5c-21.6,8.2-43.9,15.7-66,23.3
	c-14.2,4.9-29.2,9-42.9,14.5c-29,11.5-60.5,20.4-90.8,30.4c-23.1,7.7-46.3,15.4-70.5,21.9c-9.3,2.5-17.8,6.1-27.5,8.3
	c0-8.2,0-16.5,0-24.7c3.3-2.3,7.9-3.3,12.3-4.4c24.3-6.4,47.1-14.6,70.8-21.7c23.4-6.9,45.8-14.9,69.1-21.9
	c18-5.4,35.1-11.8,52.5-18c16.2-5.8,33.2-10.8,49.3-16.6c11.8-4.3,23.6-8.7,35.7-12.6c16.8-5.4,33.4-11,49.5-17.1
	c22.4-8.5,45.3-16.6,68-24.8c18.8-6.8,37.2-14,56.1-20.6c32.2-11.3,63.7-23.2,96.3-34.1c23-7.7,45.8-15.5,69.4-22.4
	c28.5-8.4,57.6-16.1,86.9-23.3c25.1-6.2,50.6-11.8,75.9-17.7c13-3.1,26.6-5.4,39.6-8.4c17.5-4.2,35.6-7.3,53.2-11.3
	c17.2-3.9,34.8-7.1,52-10.9c28.5-6.3,57-12.6,85.1-19.6c28.1-7,55.5-14.9,82.6-23.3c21.8-6.8,43.4-13.7,65.4-20.2
	c27.3-8.1,54.9-15.9,83.6-21.9c26.8-5.7,54.1-10.4,81.7-14.4c28.5-4.2,57-8.2,85.7-11.4c21.9-2.5,43.7-5.4,65.9-6.8
	c6.2-0.4,12.5-1,18.6-2.2c8.8-1.8,18.2-1.3,27.2-2.3c36.1-4,72.5-6.8,108.8-10.1c30.9-2.8,61.9-4.9,93-6.8c28-1.7,56-3.6,84.1-4.5
	c15.6-0.5,31.3-1.5,46.9-2.7c7.6-0.6,15.3-0.4,22.9-0.7c24-0.9,47.9-2.3,71.9-2.7c2.8-0.1,5.7-0.3,8.1,1C1944,7.7,1944,8.5,1944,9.3
	z"/>
<path class="st0" d="M-6.9,723.9c-2.6-1.7-1.5-2.7,1.6-3.3c11.8-2.4,22.9-5.7,34-9c12.8-3.9,26.1-7,38.7-11.3
	c17.2-5.9,35.4-10.5,53.7-15.1c10.2-2.5,19.5-6.5,29.3-9.5c20.1-6.3,39.5-13.4,59.9-19.5c14.6-4.3,28.7-9.3,42.8-14.2
	c16.7-5.8,33-12.2,50-17.7c20.8-6.7,41-14.1,61.5-21.2c14.9-5.2,29.5-10.7,44-16.2c9.9-3.8,19.2-8.2,29.2-11.9
	c12.9-4.8,26.2-9.3,38.1-15.2c12.4-6.1,26.8-10.3,40.4-15.2c8.4-3,15.7-7.1,23.4-10.8c11.7-5.6,25.5-9.1,37.5-14.4
	c9.9-4.3,19.8-8.6,29.6-13c7.8-3.5,15.8-6.9,24.1-9.9c12.6-4.5,23.7-10.2,35.3-15.5c7.7-3.5,17-5.3,24.1-9.5
	c18.4-10.8,42.6-16.8,61.9-27c7.6-4,16-7.7,24.4-11.2c8.4-3.5,18.3-5.7,26.2-9.8c19-9.9,41.5-16.8,60.9-26.4
	c7.7-3.8,18.5-6.1,27.7-9.3c14.2-4.9,27.5-10.7,41.4-15.8c17.9-6.5,35.4-13.4,54.4-18.8c8-2.3,16.3-4.2,23.9-7.2
	c6.6-2.6,14.4-4.3,21.7-6.3c20-5.6,39.2-12.1,58.4-18.5c14.5-4.9,30.6-7.3,45.1-12.1c13.2-4.4,27-8.4,41.1-11.7
	c15-3.5,28.6-8.5,42.4-13.2c4.5-1.5,9.9-1.9,14.7-3.1c12-3,23.6-6.9,36-9.1c14.9-2.6,28.1-8,42.9-10.2c17.2-2.6,33.3-6.8,50-10.1
	c15.4-3,31-5.7,46.6-8.4c11.6-1.9,22.9-5,34.7-6.8c14-2.2,27.8-5.1,42.4-5.6c0.9,0,1.9,0.1,2.6-0.1c14.3-4.2,30.1-4.1,45.2-5
	c14.4-0.8,28.5-3.1,43.2-3.1c12.9,0,25.8-1.9,38.6-3.2c8.8-1,17.8-0.3,26.6-1.2c16-1.6,32.2-2.5,48.3-3.9c7.4-0.6,14.8-0.5,22.1-0.7
	c11.6-0.2,22.9-1.5,34.4-2c12.5-0.6,24.9-2.1,37.5-2.7c10.1-0.5,20.1-1.2,30.4-0.9c10.4,0.3,21.3-0.5,31.9-0.5
	c27.6-0.1,55.2-3.3,82.7,0c4.7,0.6,9-1.1,13.6-0.6c0,8,0,16,0,23.9c-3.3,1.4-6.8,0.9-10,0.1c-10-2.5-20.4-3.8-31.3-3.3
	c-2,0.1-4.1,0-5.8-0.5c-10-3-20.4-2.4-31.1-2c-9.7,0.4-19.6,1.1-29.2-1.2c-3.2-0.8-7-0.5-10.4-0.1c-9.1,1.1-18.3,0.1-27.3,0.5
	c-14.3,0.6-28.6-1.5-43,0.6c-8.8,1.3-18.2,0.7-27.3,0.9c-23.1,0.5-46,2-68.9,3.5c-9,0.6-18.2,1.1-27,2.7c-1.5,0.3-3,0.5-4.5,0.4
	c-24.1-1.1-47.4,2.7-71,4.2c-11.1,0.7-22.1,1.7-32.7,3.2c-13.7,1.9-27.7,3-41.5,5c-15,2.2-29.6,5.6-44.8,6.9
	c-10,0.9-18.8,3.1-28,5.1c-6.8,1.4-13.9,1.9-20.9,2.9c-8.5,1.3-16.5,3.4-24.8,4.9c-19.4,3.5-38,8.2-57,12.4
	c-10.3,2.3-19.8,5.7-30.3,7.5c-16.8,2.8-32.5,7.4-48.7,11.2c-12.7,3-25.2,6.6-37.7,10c-15.9,4.3-31.3,9.3-48.2,12.3
	c-15.1,2.7-28.8,7.6-42.7,11.9c-20,6.2-40.7,11.6-60.7,17.7c-0.8,0.2-1.7,0.3-2.5,0.5c-25.4,8.8-52.4,15.6-77.5,24.7
	c-22.8,8.3-47.1,15-69.9,23.4c-16,5.9-31.7,12.2-46.9,18.8c-7.9,3.5-15.7,7.1-23.6,10.7c-4.2,1.9-9.1,3.1-13.5,4.8
	c-18.6,7.4-36.8,15.2-54.4,23.4c-3.5,1.6-7.2,3-11,4.4c-19.1,7-35.9,15.9-54.3,23.4c-19.1,7.9-37.1,16.8-57.3,23.6
	c-8.7,3-14.5,8-22.6,11.5c-13.9,5.9-27.6,12-42.2,17.3c-9.2,3.3-18.1,7-26.3,11.2c-14.7,7.4-31.5,12.9-46.9,19.6
	c-19.1,8.4-39.8,15.3-59.3,23.2c-11,4.5-21,9.8-32.4,14c-29.3,10.8-58.3,21.9-88.7,31.5c-21.2,6.7-39.4,16.2-60.9,22.5
	c-9.4,2.8-18.4,6-27.7,9c-7.3,2.3-13.9,5.4-21.1,7.9c-14.1,5-28.2,10.1-43.4,13.9c-4.8,1.2-9.2,3-13.7,4.6
	c-14,5.1-28.7,9.6-43.5,13.6c-19.5,5.3-37.8,12.1-58,16.4c-8.7,1.9-16.2,5.2-24.8,7.3C4.6,732.4-0.3,731.5-6.9,723.9z"/>
<path class="st0" d="M1546.5,15.7c-9.8,1.8-19.9,2.1-29.9,3.1c-16.2,1.6-32.6,2.7-48.9,4.2c-21.2,2-42.4,4.1-63.6,6.2
	c-30.8,3-61.6,6.3-92.2,9.9c-29.4,3.5-58.7,7.3-87.5,12.4c-18.7,3.4-37.4,6.9-55.8,10.9c-22.3,4.8-44.3,10.1-66.4,15.3
	c-21.5,5.1-42.6,10.7-64.3,15.4c-14.7,3.2-29,7.1-43.7,10.2c-19.2,4.1-38.5,8.1-57.7,12.1c-31.6,6.6-63.2,13.4-95,19.8
	c-22,4.4-44.3,8.4-66.5,12.4c-17.6,3.2-35.3,6.4-52.9,9.9c-23.9,4.7-48.5,8.2-72.3,13c-21.8,4.3-44.2,7.6-65.9,12.2
	c-15.3,3.3-31.3,5.6-46.6,8.9c-22.5,4.8-45.1,9.5-67.4,14.6c-19.4,4.4-38.8,9-57.7,14.1c-13.7,3.7-27.5,7.3-41.2,10.9
	c-14.5,3.9-28.9,7.8-43.4,11.7c-11.6,3.2-22.8,7-34.5,10.1c-25.4,6.7-49.3,15.1-74,22.6c-13.6,4.1-27.4,8-40.6,12.4
	c-22.2,7.4-45.1,13.9-67.6,20.9c-20.7,6.4-41.5,12.8-62.5,18.8c-14.1,4-27.7,8.8-41.9,12.6C-4,343-13.5,346.7-24,349.1
	c0-3.7,0-7.4,0-11.2c3.4-3.3,9.3-4.3,14.6-5.7c5.4-1.5,10.7-2.9,15.9-4.6c15-4.9,30.5-9.2,46.2-13.3c5.7-1.4,10.7-3.6,16.4-5.1
	c21.7-5.6,42.6-12.3,63.8-18.6c35.1-10.4,70.5-20.6,105.3-31.4c37.9-11.7,76.6-22.6,115.9-32.6c35.9-9.1,72.1-17.7,108.6-25.8
	c30.8-6.9,62-13,93.3-18.9c37.8-7.2,76-13.3,114-20c50.2-8.8,100.5-17.3,150.3-26.9c52.3-10.1,104.4-20.5,156.2-31.5
	c46.2-9.8,91.7-20.7,137.4-31.4c47.1-11,94.6-21.3,143.9-28.3c47.5-6.7,95.4-11.8,143.4-16.6c29.5-2.9,59-5.7,88.6-8.4
	c16.2-1.5,32.4-2.8,48.6-4.2C1541.2,14.5,1544.1,14.3,1546.5,15.7z"/>
<path class="st0" d="M963.9,101.8c-3.9,0.8-7.9,1.6-11.8,2.4c-7.1,1.1-13.9,2.8-21,4c-1.3,0.3-2.6,0.5-3.9,0.8
	c-10.8,2.2-22,3.8-32.7,6.3c-3,0.7-6.2,1-9.3,1.6l0,0c-18.8,3.7-37.7,7.1-56.5,10.6c-17.8,3.4-35.7,6.5-53.7,9.6
	c-15.9,2.7-31.8,5.4-47.8,7.9c-22.1,3.5-44.1,6.9-66.2,10.3c-6.1,0.9-12.1,2.1-18.3,2.9c-5.2-0.3-9.6,1.5-14.5,2.2
	c-19.2,2.4-38.2,5.5-57.1,8.6c-23.6,3.9-47.2,7.6-70.7,11.8c-22.8,4-45.5,8.4-68.2,12.7c-19.3,3.7-38.3,8.1-57.5,12.1
	c-26.5,5.4-52.5,11.6-78.5,17.8c-21.6,5.1-43,10.5-64.3,16c-16,4.2-31.9,8.6-48.1,12.6c-11.5,2.8-22.6,6.3-33.9,9.4
	c-1.8,0.5-3.6,0.9-5.6,1c-6.4-0.3-11.3,2.1-16.4,3.6c-19.9,5.8-40.5,10.5-60.4,16.2c-11.7,3.3-23.6,6.3-35.4,9.4
	c-15.7,4.2-31.6,8.2-47.5,12.2c-2.7,0.7-5.5,1.9-8.7,0.6c0-1.1,0-2.1,0-3.2c7.9-3.1,17.2-4.2,25.6-6.5c10.5-2.9,21.1-5.5,31.9-8
	c11.9-2.8,22.8-6.7,34.8-9.4c11.8-2.7,23.1-6.2,34.3-9.7c5.9-1.9,12.5-2.3,18.2-4.3c12.2-4.3,25.8-6.9,38.3-10.9
	c6.3-2,13.6-3.2,20.3-5.1c14.8-4.1,29.8-7.7,44.7-11.5c15.6-3.9,31.2-7.8,46.9-11.7c15.4-3.8,30.8-7.5,46.3-11.1
	c12.3-2.9,24.8-5.5,37.2-8.2c15.3-3.4,30.5-6.9,45.9-10c18.5-3.7,37.1-7.2,55.9-10.6c27.3-4.9,54.6-9.7,82-14.2
	c22.2-3.6,44.7-6.6,67.1-9.9c22.4-3.3,44.9-6.3,67.2-9.7c50.8-7.7,101.6-15.5,151.7-24.7c28.7-5.3,57.4-10.7,86.1-16
	c29.4-5.4,58.5-11.1,87.8-16.8c23.4-4.5,46.5-9.9,69.5-15.1c38.6-8.7,77.2-17.5,116.4-25.2c43.5-8.6,88.1-14.3,132.9-19.4
	c23.9-2.7,47.9-5,71.8-7.6c21.6-2.3,43.3-3.9,65-5.9c15.7-1.4,31.3-3,46.9-4.4c15.2-1.3,30.5-2.4,45.8-3.6
	c15.9-1.2,31.8-2.5,47.7-3.7c13.6-1,27.2-1.8,40.7-2.7c15.5-1,31-2.1,46.6-3c10.8-0.7,21.6-1.4,32.4-1.7c8.9-0.3,17.7-1.4,26.7-0.9
	c-5.4,1.8-11.5,0.9-17.2,1.4c-16.8,1.3-33.7,1.6-50.6,2.7c-18.1,1.1-36.2,2.5-54.3,3.8c-16.6,1.1-33.2,2.2-49.8,3.4
	c-14.8,1.1-29.7,2.3-44.5,3.5c-16.7,1.4-33.5,2.9-50.2,4.4c-15.7,1.4-31.3,2.7-47,4.1c-21.2,2-42.4,4.1-63.5,6.2
	c-31.3,3.1-62.4,6.6-93.4,10.6c-32.6,4.2-64.7,9.4-96.2,15.9c-30.7,6.3-61.2,13.2-91.6,20.1c-37.1,8.5-74.4,16.6-112,24.3
	C968.2,100.6,965.7,100.7,963.9,101.8z"/>
<path class="st0" d="M733,129.7c19.7-2.9,39.4-5.9,59.1-8.8c5.2-0.8,10.2-2.2,15.7-2.4c2.8-0.7,4.1,0,4.2,1.8
	c-1.1,1.1-2.9,1.5-4.8,1.8c-16.6,2.5-33.2,5.3-49.9,7.8c-3.7,0-7.3,0-10.7,1.1c-1.9,0.4-3.8,0.8-5.7,1c-2.2,0.2-4.6,0.2-6.6,1
	c-18.8,3.1-37.8,5.5-56.8,8c-48.6,6.5-97.5,12.4-146,19.4c-46,6.6-91.6,13.8-136.7,22.4c-30.6,5.8-61.1,11.9-91.4,18.5
	c-30,6.5-60,13.2-89.7,20.1c-25.9,6-51.6,12.4-77.4,18.6C91.3,251,46.7,262.7,1.7,273.7c-6.1,1.5-12.2,3-18.2,4.5
	c-2.4,0.6-4.8,1.4-7.5,0.7c0-2.7,0-5.3,0-8c11.7-1.6,22.4-4.9,33.4-7.6c20.9-5.1,42.2-9.6,62.7-15.2c20-5.4,40.7-9.9,60.9-15
	c23.6-5.9,47.6-11.1,71.4-16.7c26.5-6.2,53.1-12.2,80-17.6c16.2-3.3,32.5-6.6,48.8-9.9c31.9-6.4,64.1-12.4,96.4-17.9
	c27.5-4.7,55.2-8.9,83-12.9c36.8-5.3,73.8-9.7,110.8-14.5c21-2.7,42.2-5,63.2-7.6c13.4-1.7,26.6-3.6,39.9-5.5
	C728.4,129.6,731.1,130.7,733,129.7z"/>
<path class="st0" d="M675.3,244.6c-5.8,4.2-14.4,5.8-21.8,8.5c-26.2,9.3-51.3,19.6-76.7,29.6c-45.5,17.9-90.8,36-136.3,53.9
	c-23.6,9.3-47.3,18.4-71.1,27.4c-34.9,13.2-69.7,26.5-105.1,39.3c-24.3,8.8-48.4,17.7-73.3,25.9c-14.2,4.7-28.6,9.3-42.4,14.5
	c-26.8,9.9-54.7,18.6-82.2,27.6C36.8,481,6.2,489.8-24,499c0-0.8,0-1.6,0-2.4c13.7-4.2,27.5-8.3,40.9-12.7
	c16.1-5.4,33.2-9.8,49.1-15.3c17-5.9,34.9-10.6,51.6-16.7c9.4-3.4,19.3-6.6,29.1-9.6c7.6-2.4,15-5.2,22.5-7.8
	c15.5-5.4,30.5-11.2,46.1-16.4c14.6-4.9,28.7-10.3,43.1-15.4c16.1-5.7,32.3-11.2,48-17.3c9.9-3.8,19.9-7.6,29.8-11.3
	c10.6-4,21.1-8.1,32-11.8c6.8-2.3,13-5.3,19.6-7.8c11.6-4.5,23.4-8.8,35.1-13.3c9.9-3.8,19.6-7.7,29.3-11.6
	c19.8-7.9,39.7-15.8,59.5-23.6c15.4-6.1,30.8-12.3,46.3-18.3c21-8.1,42.1-16.1,63.1-24.1c12.1-4.6,23.9-9.5,36.3-13.9
	C663.2,247.6,668.6,245.1,675.3,244.6z"/>
<path class="st0" d="M-24,203.9c13.4-2.7,26.7-5.4,40.1-8C36,192.2,56,188.5,76,184.9c19.7-3.6,39.6-6.7,59-10.8
	c24.3-5,49.2-8.6,73.6-13.1c22.4-4.2,45.1-7.9,67.7-11.6c27.8-4.5,56-8.6,84.1-12.6c44.8-6.4,89.6-12.8,134.8-17.9
	c37.7-4.3,75.4-8.8,113.3-12.3c23.8-2.2,47.5-4.8,71.2-7c35.3-3.3,70.7-6.4,106-9.8c13.1-1.2,25.9-3.3,39.1-3.9
	c-12.3,2.7-25.3,3.4-38,4.7c-36.8,3.6-73.7,7-110.5,10.5c-22.9,2.2-46,3.8-68.7,6.6c-11.6,1.5-23.5,2.5-35.1,3.9
	c-23.5,2.8-47.1,5.3-70.7,7.9c-17.9,1.9-35.8,4.1-53.6,6.4c-22.6,3-45.2,6.1-67.7,9.5c-20,3.1-39.9,6.3-60,9
	c-20.3,2.7-40.3,6.1-60.2,9.7c-12.2,2.2-24.7,4.3-36.9,6.3c-15.6,2.5-30.6,6.5-46.8,7.9c-8.4,0.7-16.6,2.9-24.8,4.5
	c-8.9,1.8-18.2,3-27,5c-11,2.5-22.5,3.6-33.6,5.8c-19.3,3.9-38.7,7.3-57.9,11.4c-19,4-38.6,6.9-57.4,11.3
	C-24,205.5-24,204.7-24,203.9z"/>
</svg>
