<svg id="e8bfyrs774hg1" xmlns="http://www.w3.org/2000/svg" xmlns:xlink="http://www.w3.org/1999/xlink" viewBox="0 0 750 500" shape-rendering="geometricPrecision" text-rendering="geometricPrecision">
    <style>
        #e8bfyrs774hg3_to {
            animation: e8bfyrs774hg3_to__to 1000ms linear infinite normal forwards
        }

        @keyframes e8bfyrs774hg3_to__to {
            0% {
                transform: translate(928.717249px, 188.490000px)
            }

            100% {
                transform: translate(-211.529076px, 188.486804px)
            }
        }

        #e8bfyrs774hg4_to {
            animation: e8bfyrs774hg4_to__to 1500ms linear infinite normal forwards
        }

        @keyframes e8bfyrs774hg4_to__to {
            0% {
                transform: translate(343px, 253.832420px)
            }

            10% {
                transform: translate(343px, 253.832420px)
            }

            15% {
                transform: translate(343px, 252px)
            }

            20% {
                transform: translate(343px, 253.830000px)
            }

            100% {
                transform: translate(343px, 253.830000px)
            }
        }

    </style>
    <defs>
        <path id="e8bfyrs774hg2" d="M336.700000,100.400000C325.400000,92.800000,324.400000,88.300000,327.200000,83.100000C330,77.900000,335.400000,82.900000,337.100000,85C338.800000,87.100000,340.300000,93,340.300000,93C340.300000,93,342,92.600000,342.700000,91C343.400000,89.400000,337.700000,72.200000,339,71.300000C340.300000,70.400000,336,62.600000,336,62.600000C336,62.600000,343.100000,61.900000,344.200000,60.900000C345.300000,60,340.500000,52.500000,340.500000,52.500000L354.100000,51.900000C367.300000,60.300000,364.300000,76.600000,366,79.100000C367.700000,81.500000,374.900000,79.100000,375.900000,80C376.800000,80.900000,375.200000,88,375.200000,88C375.200000,88,378.500000,105.900000,374.500000,111.800000C370.500000,117.700000,359.400000,111.800000,357.200000,113.500000C355,115.200000,356.800000,128.200000,356.800000,128.200000L337.500000,125.800000L336,114.100000C335.800000,114,343.900000,106.900000,336.700000,100.400000Z" />
    </defs>
    <g id="e8bfyrs774hg3_to" transform="translate(928.717249,188.490000)">
        <path id="e8bfyrs774hg3" d="M180.500000,189.200000C182.200000,159.100000,420.800000,56.600000,458.800000,68.600000C496.800000,80.600000,497,271.500000,456,278.200000C415,284.900000,179,214.900000,180.500000,189.200000Z" transform="translate(-333.762939,-173.138817)" fill="rgb(228,241,238)" stroke="none" stroke-width="1" />
    </g>
    <g id="e8bfyrs774hg4_to" transform="translate(343,253.832420)">
        <g id="e8bfyrs774hg4" transform="translate(-343,-253.832420)">
            <ellipse id="e8bfyrs774hg5" rx="178.500000" ry="8.400000" transform="matrix(1 0 0 1 343 464.80000000000001)" fill="rgb(187,188,191)" stroke="none" stroke-width="1" />
            <g id="e8bfyrs774hg6">
                <path id="e8bfyrs774hg7" d="M371.900000,193.200000C363.200000,197.600000,358.200000,208,360.400000,211.200000C362.600000,214.500000,417.300000,233.600000,420,235.300000C422.700000,236.900000,428.200000,244,432,244C435.800000,244,438.600000,238,441.800000,238.500000C445,239,448.900000,240.100000,448.900000,242.300000C448.900000,244.500000,448.900000,250.500000,448.900000,250.500000C450.100000,252.100000,450.100000,253.600000,451.600000,252.600000C453,251.600000,454.300000,240.700000,453.900000,239.500000C453.500000,238.300000,444.100000,231.900000,441.600000,231.900000C439.100000,231.900000,425.400000,228.800000,423.100000,227.600000C420.800000,226.400000,371.900000,193.200000,371.900000,193.200000Z" fill="rgb(139,114,79)" stroke="none" stroke-width="1" />
                <g id="e8bfyrs774hg8">
                    <g id="e8bfyrs774hg9">
                        <path id="e8bfyrs774hg10" d="M408.600000,431C405.900000,433.200000,352.800000,433.200000,352.800000,431.500000C352.800000,431.200000,353.400000,428.600000,354.300000,424.500000L391,414C391.100000,414,411.300000,428.800000,408.600000,431Z" fill="rgb(67,59,51)" stroke="none" stroke-width="1" />
                        <path id="e8bfyrs774hg11" d="M302.700000,414.500000L318.300000,339.100000L326.600000,240.700000L384.600000,236.300000C384.600000,236.300000,414.700000,338,415.200000,346.200000C415.700000,354.400000,391.100000,414,391.100000,414L354.400000,424.500000C358.900000,405.500000,377.500000,351.500000,377.500000,346.500000C377.500000,337.200000,363,298.700000,363,298.700000C363,298.700000,337.600000,409.700000,338.100000,412.400000C338,412.400000,323.500000,406.300000,302.700000,414.500000Z" fill="rgb(209,199,165)" stroke="none" stroke-width="1" />
                        <path id="e8bfyrs774hg12" d="M302.700000,414.500000C323.500000,406.300000,338.100000,412.400000,338.100000,412.400000C338.600000,415.100000,347.900000,431.500000,338.600000,431.500000C329.300000,431.500000,300.300000,431.500000,300.300000,431.500000L302.700000,414.500000Z" fill="rgb(67,59,51)" stroke="none" stroke-width="1" />
                    </g>
                    <path id="e8bfyrs774hg13" d="M329.800000,217.800000L339.100000,179L361.500000,137.500000C361.500000,137.500000,381.200000,156.600000,385,171.400000C388.800000,186.200000,390.500000,247.400000,390.500000,247.400000C390.500000,247.400000,353.900000,256.100000,322.700000,250.700000L329.800000,217.800000Z" fill="rgb(165,235,216)" stroke="none" stroke-width="1" />
                    <path id="e8bfyrs774hg14" d="M371.700000,288.600000C372.800000,290,371.200000,294.100000,371.200000,294.100000C371.200000,294.100000,375.300000,294.100000,375.300000,296.600000C375.300000,299.100000,372.300000,301.500000,372.300000,301.500000C372.300000,301.500000,384.300000,339.500000,384.300000,343.300000C384.300000,345.300000,378.200000,355.700000,372.400000,365.100000C375.400000,355.500000,377.500000,348.200000,377.500000,346.600000C377.500000,337.300000,363,298.800000,363,298.800000C363,298.800000,370.600000,287.200000,371.700000,288.600000Z" fill="rgb(187,188,191)" stroke="none" stroke-width="1" />
                </g>
                <path id="e8bfyrs774hg15" d="M281.500000,49C281.700000,46.400000,285.300000,48.300000,285.300000,48.300000C285.300000,48.300000,280.500000,44.300000,281.300000,42.800000C282,41.400000,285.600000,43.800000,288.400000,44.500000C291.300000,45.200000,293.200000,42.600000,302.900000,38.300000C312.700000,34,317.700000,39,317.700000,39C317.700000,39,313.200000,34,314.800000,34.500000C316.500000,35,338.400000,35.200000,347.200000,41.200000C356,47.200000,353.700000,52.900000,353.700000,52.900000L351,88.300000L347.400000,99.500000C347.400000,99.500000,344.100000,111.900000,340.500000,114.700000C336.900000,117.600000,329.100000,123,325.700000,121.100000C322.400000,119.200000,320.200000,116.300000,320.200000,116.300000C320.200000,116.300000,307.100000,120.800000,305.900000,119.900000C304.700000,118.900000,305.900000,112.800000,305.900000,112.800000C305.900000,112.800000,295.400000,112.300000,293,110.700000C290.600000,109.100000,294,108.100000,294,108.100000C294,108.100000,291.400000,108.300000,290.700000,106.700000C290,105,295,93.100000,295,93.100000C295,93.100000,285.500000,92.100000,283.600000,89.100000C281.700000,86,286.700000,86.200000,286.700000,86.200000C286.700000,86.200000,283.600000,85.700000,282.900000,84.500000C282.200000,83.300000,286,81.900000,287.400000,81.200000C288.800000,80.500000,288.600000,76.400000,288.800000,71.400000C289,66.400000,291.400000,59.300000,291.400000,59.300000C291.400000,59.300000,281.300000,51.600000,281.500000,49Z" fill="rgb(67,59,51)" stroke="none" stroke-width="1" />
                <path id="e8bfyrs774hg16" d="M336.700000,100.400000C325.400000,92.800000,324.400000,88.300000,327.200000,83.100000C330,77.900000,335.400000,82.900000,337.100000,85C338.800000,87.100000,340.300000,93,340.300000,93C340.300000,93,342,92.600000,342.700000,91C343.400000,89.400000,337.700000,72.200000,339,71.300000C340.300000,70.400000,336,62.600000,336,62.600000C336,62.600000,343.100000,61.900000,344.200000,60.900000C345.300000,60,340.500000,52.500000,340.500000,52.500000L354.100000,51.900000C367.300000,60.300000,364.300000,76.600000,366,79.100000C367.700000,81.500000,374.900000,79.100000,375.900000,80C376.800000,80.900000,375.200000,88,375.200000,88C375.200000,88,378.500000,105.900000,374.500000,111.800000C370.500000,117.700000,359.400000,111.800000,357.200000,113.500000C355,115.200000,356.800000,128.200000,356.800000,128.200000L337.500000,125.800000L336,114.100000C335.800000,114,343.900000,106.900000,336.700000,100.400000Z" fill="rgb(159,130,90)" stroke="none" stroke-width="1" />
                <g id="e8bfyrs774hg17">
                    <g id="e8bfyrs774hg18" clip-path="url(#e8bfyrs774hg24)">
                        <g id="e8bfyrs774hg19">
                            <path id="e8bfyrs774hg20" d="M366.600000,92.800000C370.200000,94.300000,373.800000,95.600000,377.600000,96.700000C379.100000,97.100000,378.500000,99.500000,376.900000,99.100000C373.200000,98,369.500000,96.700000,365.900000,95.200000C364.500000,94.600000,365.200000,92.200000,366.600000,92.800000Z" fill="rgb(67,59,51)" stroke="none" stroke-width="1" />
                            <path id="e8bfyrs774hg21" d="M323.300000,85C325.500000,82.200000,329.300000,83.700000,331.900000,85.200000C334.900000,87.100000,337,89.800000,338.300000,93C338.900000,94.500000,336.500000,95.100000,335.900000,93.700000C335.400000,92.600000,334.800000,91.600000,334.100000,90.600000C333.100000,90.800000,332.600000,92,332.100000,92.900000C331.400000,94.300000,329.300000,93.100000,330,91.700000C330.500000,90.600000,331.300000,89.400000,332.300000,88.700000C332.200000,88.600000,332.200000,88.600000,332.100000,88.500000C330.500000,87.100000,326.700000,84.500000,325,86.700000C324.100000,88,322.300000,86.300000,323.300000,85Z" fill="rgb(67,59,51)" stroke="none" stroke-width="1" />
                            <path id="e8bfyrs774hg22" d="M358.900000,62.300000C356.700000,61.100000,354.500000,62.900000,354.800000,65.200000C355,67.300000,351.700000,67.300000,351.500000,65.200000C351,60.200000,356.300000,57.100000,360.500000,59.400000C362.400000,60.500000,360.800000,63.300000,358.900000,62.300000L358.900000,62.300000Z" fill="rgb(67,59,51)" stroke="none" stroke-width="1" />
                        </g>
                        <circle id="e8bfyrs774hg23" r="5.400000" transform="matrix(1 0 0 1 353.80000000000001 94.20000000000000)" fill="rgb(169,143,124)" stroke="none" stroke-width="1" />
                        <clipPath id="e8bfyrs774hg24">
                            <use id="e8bfyrs774hg25" width="50.598358" height="76.299995" xlink:href="#e8bfyrs774hg2" fill="rgb(0,0,0)" stroke="none" stroke-width="1" />
                        </clipPath>
                    </g>
                </g>
                <path id="e8bfyrs774hg26" d="M331.600000,118.300000C333.200000,116.900000,362.100000,124.200000,363.200000,126.700000C364.300000,129.200000,360.100000,135.300000,360.100000,135.300000L331.200000,135.300000C331.100000,135.400000,329.900000,119.800000,331.600000,118.300000Z" fill="rgb(90,140,203)" stroke="none" stroke-width="1" />
                <path id="e8bfyrs774hg27" d="M360.500000,133.600000C362.400000,135.500000,393.800000,195.400000,379.600000,222.700000C365.400000,250,343,250,326.600000,240.200000C310.200000,230.400000,297.600000,207.900000,285.600000,210.100000C273.600000,212.300000,262.600000,215,262.600000,215C262.600000,215,273,193.100000,289.900000,188.800000C306.800000,184.400000,327.100000,199.700000,329.800000,195.900000C332.500000,192.100000,315,150,324.900000,137.400000C334.800000,124.800000,350.600000,123.700000,360.500000,133.600000Z" fill="rgb(65,109,167)" stroke="none" stroke-width="1" />
                <path id="e8bfyrs774hg28" d="M352.500000,164.700000C353.400000,169.700000,369.200000,207.100000,369.200000,207.100000L350.800000,219C350.800000,219,327.600000,193.600000,325.500000,159.900000C324.200000,139.300000,349,145.900000,352.500000,164.700000Z" fill="rgb(187,188,191)" stroke="none" stroke-width="1" />
                <path id="e8bfyrs774hg29" d="M353.400000,158.200000C354.800000,163,372,199.700000,372,199.700000L351.800000,213.400000C351.800000,213.400000,323.400000,178.400000,323.400000,157.600000C323.400000,136.800000,345.700000,131.900000,353.400000,158.200000Z" fill="rgb(65,109,167)" stroke="none" stroke-width="1" />
                <path id="e8bfyrs774hg30" d="M365.600000,194.400000C359.300000,179.900000,353.800000,165.200000,349.100000,150.200000C348.500000,148.200000,351.600000,147.300000,352.300000,149.300000C356.900000,164.100000,362.300000,178.500000,368.400000,192.700000C369.300000,194.700000,366.500000,196.400000,365.600000,194.400000L365.600000,194.400000Z" fill="rgb(187,188,191)" stroke="none" stroke-width="1" />
                <path id="e8bfyrs774hg31" d="M362.600000,192.100000C369.200000,189.400000,371.300000,195.900000,371.300000,195.900000C375.400000,198.400000,377,203.300000,376.200000,205.500000L367.700000,220.300000C360.600000,226.900000,350.200000,222.200000,347.200000,214C344.300000,205.700000,356.100000,194.800000,362.600000,192.100000Z" fill="rgb(90,140,203)" stroke="none" stroke-width="1" />
                <path id="e8bfyrs774hg32" d="M371.900000,199.700000C363.200000,204.100000,358.200000,214.500000,360.400000,217.700000C362.600000,221,417.300000,235.200000,420,236.800000C422.700000,238.400000,428.200000,243.900000,432,243.900000C435.800000,243.900000,438.600000,237.900000,441.800000,238.400000C445,238.900000,448.900000,240,448.900000,242.200000C448.900000,244.400000,448.900000,250.400000,448.900000,250.400000C450.100000,252,450.100000,253.500000,451.600000,252.500000C453,251.500000,454.300000,240.600000,453.900000,239.400000C453.500000,238.200000,444.100000,231.800000,441.600000,231.800000C439.100000,231.800000,425.400000,230.400000,423.100000,229.100000C420.800000,227.800000,371.900000,199.700000,371.900000,199.700000Z" fill="rgb(159,130,90)" stroke="none" stroke-width="1" />
                <ellipse id="e8bfyrs774hg33" rx="4" ry="9.600000" transform="matrix(0.97320000000000 -0.23010000000000 0.23010000000000 0.97320000000000 360.20495999999991 78.20681999999998)" fill="rgb(67,59,51)" stroke="none" stroke-width="1" />
                <path id="e8bfyrs774hg34" d="M366.700000,77.800000C365.600000,77.500000,364.400000,77.800000,363.600000,78.600000C362.400000,79.600000,360.700000,77.900000,361.900000,76.900000C363.400000,75.500000,365.400000,75,367.400000,75.500000C368.900000,75.800000,368.200000,78.200000,366.700000,77.800000L366.700000,77.800000Z" fill="rgb(67,59,51)" stroke="none" stroke-width="1" />
                <path id="e8bfyrs774hg35" d="M356.100000,79.500000C350.100000,80.900000,344.200000,82.500000,338.300000,84.300000C336.800000,84.800000,336.100000,82.400000,337.600000,81.900000C343.500000,80,349.400000,78.400000,355.400000,77.100000C357,76.800000,357.700000,79.200000,356.100000,79.500000L356.100000,79.500000Z" fill="rgb(67,59,51)" stroke="none" stroke-width="1" />
                <path id="e8bfyrs774hg36" d="M367.200000,79.800000C369.900000,80.600000,375,79.100000,375.700000,79.900000C376.600000,80.800000,375,87.900000,375,87.900000C373.100000,88.600000,367.600000,82.700000,367.200000,79.800000Z" fill="rgb(159,130,90)" stroke="none" stroke-width="1" />
                <path id="e8bfyrs774hg37" d="M347.900000,258.700000C344.500000,267,337.100000,272.500000,328.200000,273.600000C326.100000,273.800000,326.100000,270.600000,328.200000,270.300000C335.500000,269.500000,341.900000,264.700000,344.700000,257.800000C345.500000,255.900000,348.700000,256.700000,347.900000,258.700000L347.900000,258.700000Z" fill="rgb(187,188,191)" stroke="none" stroke-width="1" />
                <path id="e8bfyrs774hg38" d="M296.500000,294C309.600000,294,322.700000,294,335.900000,294C338,294,338,297.300000,335.900000,297.300000C322.800000,297.300000,309.700000,297.300000,296.500000,297.300000C294.400000,297.300000,294.400000,294,296.500000,294L296.500000,294Z" fill="rgb(209,199,165)" stroke="none" stroke-width="1" />
                <path id="e8bfyrs774hg39" d="M310.400000,302.200000C319.100000,302.200000,327.900000,302.200000,336.600000,302.200000C338.700000,302.200000,338.700000,305.500000,336.600000,305.500000C327.900000,305.500000,319.100000,305.500000,310.400000,305.500000C308.300000,305.500000,308.300000,302.200000,310.400000,302.200000L310.400000,302.200000Z" fill="rgb(209,199,165)" stroke="none" stroke-width="1" />
                <path id="e8bfyrs774hg40" d="M284.200000,362.100000C297.900000,362.100000,311.500000,362.100000,325.200000,362.100000C327.300000,362.100000,327.300000,365.400000,325.200000,365.400000C311.500000,365.400000,297.900000,365.400000,284.200000,365.400000C282.100000,365.400000,282.100000,362.100000,284.200000,362.100000L284.200000,362.100000Z" fill="rgb(209,199,165)" stroke="none" stroke-width="1" />
                <path id="e8bfyrs774hg41" d="M293.200000,153C308,153,322.700000,153,337.500000,153C339.600000,153,339.600000,156.300000,337.500000,156.300000C322.700000,156.300000,308,156.300000,293.200000,156.300000C291.100000,156.300000,291.100000,153,293.200000,153L293.200000,153Z" fill="rgb(65,109,167)" stroke="none" stroke-width="1" />
                <path id="e8bfyrs774hg42" d="M312.100000,167.800000C320.600000,167.800000,329,167.800000,337.500000,167.800000C339.600000,167.800000,339.600000,171.100000,337.500000,171.100000C329,171.100000,320.600000,171.100000,312.100000,171.100000C310,171,310,167.800000,312.100000,167.800000L312.100000,167.800000Z" fill="rgb(65,109,167)" stroke="none" stroke-width="1" />
                <g id="e8bfyrs774hg43">
                    <g id="e8bfyrs774hg44">
                        <path id="e8bfyrs774hg45" d="M304.700000,171.300000C306.100000,171.300000,306.100000,169.200000,304.700000,169.200000C303.300000,169.200000,303.300000,171.300000,304.700000,171.300000L304.700000,171.300000Z" fill="rgb(65,109,167)" stroke="none" stroke-width="1" />
                    </g>
                </g>
            </g>
            <g id="e8bfyrs774hg46">
                <g id="e8bfyrs774hg47">
                    <g id="e8bfyrs774hg48">
                        <path id="e8bfyrs774hg49" d="M438.300000,303.600000L440.100000,303.600000C440,300.600000,441.100000,297.600000,442.500000,293.400000C444.200000,288.500000,446.200000,282.400000,447.700000,273.200000C450.500000,255.600000,438.100000,245.200000,437.900000,245.100000L436.800000,246.500000C436.900000,246.600000,448.600000,256.500000,445.900000,273C444.400000,282.100000,442.400000,288.100000,440.800000,292.900000C439.300000,297.200000,438.200000,300.300000,438.300000,303.600000Z" fill="rgb(213,78,105)" stroke="none" stroke-width="1" />
                    </g>
                </g>
                <g id="e8bfyrs774hg50">
                    <g id="e8bfyrs774hg51">
                        <path id="e8bfyrs774hg52" d="M464.600000,358.600000L428.400000,241.400000L425.700000,242.300000C422.300000,243.400000,420.400000,247.100000,421.400000,250.500000L456.800000,361L464.600000,358.600000Z" fill="rgb(85,139,186)" stroke="none" stroke-width="1" />
                    </g>
                </g>
                <g id="e8bfyrs774hg53">
                    <g id="e8bfyrs774hg54">
                        <path id="e8bfyrs774hg55" d="M422.100000,252.900000L436.900000,248.100000C439.100000,247.300000,443.500000,245.500000,442.800000,242.700000L436.100000,244.700000L431.300000,240.400000L420.600000,244C420,244.200000,419.700000,244.800000,419.900000,245.400000L422.100000,252.900000Z" fill="rgb(84,132,136)" stroke="none" stroke-width="1" />
                    </g>
                </g>
                <g id="e8bfyrs774hg56">
                    <path id="e8bfyrs774hg57" d="M457,337.500000L459.700000,336.600000C459.900000,336.500000,460,336.300000,460,336.100000L456.200000,323.800000C456.100000,323.600000,455.900000,323.500000,455.700000,323.500000L453,324.400000C452.800000,324.500000,452.700000,324.700000,452.700000,324.900000L456.500000,337.200000C456.600000,337.400000,456.800000,337.600000,457,337.500000Z" fill="rgb(111,174,218)" stroke="none" stroke-width="1" />
                </g>
                <g id="e8bfyrs774hg58">
                    <path id="e8bfyrs774hg59" d="M430.900000,250.100000L464.400000,358.100000L461.200000,359.100000C436.400000,281.500000,429.700000,262.700000,430.900000,250.100000Z" fill="rgb(111,174,218)" stroke="none" stroke-width="1" />
                </g>
                <g id="e8bfyrs774hg60">
                    <g id="e8bfyrs774hg61">
                        <circle id="e8bfyrs774hg62" r="27.200000" transform="matrix(1 0 0 1 269.39999999999998 441.10000000000002)" fill="rgb(53,53,65)" stroke="none" stroke-width="1" />
                    </g>
                </g>
                <g id="e8bfyrs774hg63">
                    <g id="e8bfyrs774hg64">
                        <circle id="e8bfyrs774hg65" r="17.800000" transform="matrix(1 0 0 1 269.39999999999998 441.10000000000002)" fill="rgb(53,53,65)" stroke="none" stroke-width="1" />
                    </g>
                </g>
                <g id="e8bfyrs774hg66">
                    <g id="e8bfyrs774hg67">
                        <path id="e8bfyrs774hg68" d="M248.900000,440.900000C248.900000,429.600000,258.100000,420.400000,269.400000,420.400000C280.700000,420.400000,289.900000,429.600000,289.900000,440.900000C289.900000,452.200000,280.700000,461.400000,269.400000,461.400000C258.100000,461.400000,248.900000,452.300000,248.900000,440.900000ZM254.200000,440.900000C254.200000,449.300000,261,456.100000,269.400000,456.100000C277.800000,456.100000,284.600000,449.300000,284.600000,440.900000C284.600000,432.500000,277.800000,425.700000,269.400000,425.700000C261,425.700000,254.200000,432.600000,254.200000,440.900000Z" fill="rgb(255,255,255)" stroke="none" stroke-width="1" />
                    </g>
                </g>
                <g id="e8bfyrs774hg69">
                    <path id="e8bfyrs774hg70" d="M264.800000,445.900000C263.700000,443.800000,261,444.900000,259.200000,446.200000C258.900000,445.600000,258.600000,445,258.500000,444.300000C258.300000,443.600000,258.200000,443,258.200000,442.300000C260.100000,443,262.700000,443.200000,263.400000,441C264.200000,438.500000,261.100000,438,258.800000,438.200000C259.400000,436.600000,260.300000,435.100000,261.600000,433.800000C261.900000,435.700000,263.200000,438,265.500000,436.900000C268.100000,435.700000,266.500000,432.900000,265,431.500000C265.500000,431.300000,266.100000,431,266.700000,430.900000C267.700000,430.600000,268.700000,430.500000,269.700000,430.500000C268.800000,432.300000,268.400000,434.700000,270.900000,435.100000C273.300000,435.500000,274,433.100000,273.900000,431.200000C275.100000,431.600000,276.200000,432.300000,277.200000,433.100000C275.300000,434.200000,273.300000,436.100000,275.100000,437.700000C276.700000,439.100000,278.600000,438,279.800000,436.500000C280.100000,437,280.300000,437.600000,280.400000,438.100000C280.600000,438.700000,280.700000,439.300000,280.700000,439.900000C278.600000,439.800000,276.200000,440.400000,276.300000,442.600000C276.400000,444.500000,278.300000,444.700000,280.100000,444.400000C279.700000,445.500000,279.100000,446.500000,278.400000,447.400000C277.300000,446,275.800000,444.900000,274.300000,446.300000C272.900000,447.600000,273.600000,449.200000,274.800000,450.400000C274,450.800000,273.200000,451.200000,272.300000,451.400000C272,451.500000,271.700000,451.500000,271.500000,451.600000C271.700000,449.600000,271.300000,447.300000,269,447.400000C266.800000,447.500000,266.500000,449.700000,267,451.600000C265.200000,451.300000,263.500000,450.500000,262.100000,449.400000C264,448.900000,265.800000,447.700000,264.800000,445.900000Z" fill="rgb(43,43,54)" stroke="none" stroke-width="1" />
                </g>
                <g id="e8bfyrs774hg71">
                    <g id="e8bfyrs774hg72">
                        <path id="e8bfyrs774hg73" d="M467.900000,404.300000C467.900000,404.300000,465.400000,401.400000,462.500000,404.300000C459.700000,407.100000,440.600000,432,440.600000,432L426.300000,432L462.400000,385.900000L467.900000,404.300000Z" fill="rgb(53,53,65)" stroke="none" stroke-width="1" />
                    </g>
                </g>
                <g id="e8bfyrs774hg74">
                    <g id="e8bfyrs774hg75">
                        <path id="e8bfyrs774hg76" d="M296,435.900000L447.300000,435.900000C448.400000,435.900000,449.200000,435,449.200000,434L449.200000,434C449.200000,432.900000,448.300000,432.100000,447.300000,432.100000L295.300000,432.100000C294.200000,432.100000,294.600000,433,294.600000,434L294.600000,434C294.700000,435,294.900000,435.900000,296,435.900000Z" fill="rgb(53,53,65)" stroke="none" stroke-width="1" />
                    </g>
                </g>
                <g id="e8bfyrs774hg77">
                    <g id="e8bfyrs774hg78">
                        <path id="e8bfyrs774hg79" d="M443.300000,435.900000L443.300000,435.900000C436.600000,443.600000,426.800000,448.100000,416.600000,448.100000L295.700000,448.100000L293.400000,435.900000L443.300000,435.900000Z" fill="rgb(53,53,65)" stroke="none" stroke-width="1" />
                    </g>
                </g>
                <g id="e8bfyrs774hg80">
                    <path id="e8bfyrs774hg81" d="M441.500000,437.800000L295.300000,437.800000C294.200000,437.800000,293.400000,436.900000,293.400000,435.900000L443.200000,435.900000C442.700000,436.500000,442.100000,437.200000,441.500000,437.800000Z" fill="rgb(78,78,89)" stroke="none" stroke-width="1" />
                </g>
                <g id="e8bfyrs774hg82">
                    <g id="e8bfyrs774hg83">
                        <path id="e8bfyrs774hg84" d="M304,436.100000C304,436.100000,300.700000,423.600000,292.100000,415.300000C287.200000,410.600000,280.400000,407.200000,271.600000,406.700000C247.600000,405.400000,237,431.500000,237,431.500000C237,431.500000,240.900000,432.900000,244,429.400000C247.200000,425.900000,256.700000,412.400000,272.600000,414.600000C288.500000,416.800000,294.800000,435.400000,294.800000,435.400000L304,436.100000Z" fill="rgb(182,162,39)" stroke="none" stroke-width="1" />
                    </g>
                </g>
                <g id="e8bfyrs774hg85">
                    <path id="e8bfyrs774hg86" d="M268.700000,408.300000C263.300000,408,258.500000,409.100000,254.400000,411C259.100000,408.200000,264.800000,406.400000,271.600000,406.700000C281,407.200000,288.300000,410.900000,293.300000,416.100000C301.100000,424.200000,303.900000,436.100000,303.900000,436.100000L299.600000,436.100000C297.700000,430.900000,289,409.400000,268.700000,408.300000Z" fill="rgb(238,216,51)" stroke="none" stroke-width="1" />
                </g>
                <g id="e8bfyrs774hg87">
                    <g id="e8bfyrs774hg88">
                        <g id="e8bfyrs774hg89">
                            <path id="e8bfyrs774hg90" d="M451.500000,444C451.500000,444,448.500000,420.400000,469.700000,410.400000C493,399.400000,509.500000,421.500000,509.500000,421.500000C509.500000,421.500000,505.400000,424.400000,501.300000,422.300000C497.200000,420.200000,485.300000,411,472,418.500000C464.200000,422.800000,461,429.900000,459.600000,435C458.500000,439.100000,457.300000,442.500000,451.500000,444L451.500000,444Z" fill="rgb(182,162,39)" stroke="none" stroke-width="1" />
                        </g>
                    </g>
                </g>
                <g id="e8bfyrs774hg91">
                    <path id="e8bfyrs774hg92" d="M469.700000,410.500000L469.700000,410.500000C493,399.500000,509.500000,421.600000,509.500000,421.600000C509.500000,421.600000,507.600000,423,505,423.100000C498.800000,411.400000,488.800000,405.500000,469.700000,410.500000Z" fill="rgb(238,216,51)" stroke="none" stroke-width="1" />
                </g>
                <g id="e8bfyrs774hg93">
                    <g id="e8bfyrs774hg94">
                        <path id="e8bfyrs774hg95" d="M333,448C333,448,319,434.800000,291.700000,435.400000C268.900000,435.900000,267.600000,436.900000,266.200000,438.700000C264.900000,440.400000,265.700000,443.600000,268.400000,444.200000C270.800000,444.700000,293.700000,446.700000,295.700000,448L333,448Z" fill="rgb(53,53,65)" stroke="none" stroke-width="1" />
                    </g>
                </g>
                <g id="e8bfyrs774hg96">
                    <g id="e8bfyrs774hg97">
                        <circle id="e8bfyrs774hg98" r="27.200000" transform="matrix(1 0 0 1 483.60000000000002 441.10000000000002)" fill="rgb(53,53,65)" stroke="none" stroke-width="1" />
                    </g>
                </g>
                <g id="e8bfyrs774hg99">
                    <g id="e8bfyrs774hg100">
                        <circle id="e8bfyrs774hg101" r="17.800000" transform="matrix(1 0 0 1 483.60000000000002 441.10000000000002)" fill="rgb(53,53,65)" stroke="none" stroke-width="1" />
                    </g>
                </g>
                <g id="e8bfyrs774hg102">
                    <g id="e8bfyrs774hg103">
                        <path id="e8bfyrs774hg104" d="M463.100000,440.900000C463.100000,429.600000,472.300000,420.400000,483.600000,420.400000C494.900000,420.400000,504.100000,429.600000,504.100000,440.900000C504.100000,452.200000,494.900000,461.400000,483.600000,461.400000C472.300000,461.400000,463.100000,452.300000,463.100000,440.900000ZM468.400000,440.900000C468.400000,449.300000,475.200000,456.100000,483.600000,456.100000C492,456.100000,498.800000,449.300000,498.800000,440.900000C498.800000,432.500000,492,425.700000,483.600000,425.700000C475.200000,425.700000,468.400000,432.600000,468.400000,440.900000Z" fill="rgb(255,255,255)" stroke="none" stroke-width="1" />
                    </g>
                </g>
                <g id="e8bfyrs774hg105">
                    <path id="e8bfyrs774hg106" d="M479,445.900000C477.900000,443.800000,475.200000,444.900000,473.400000,446.200000C473.100000,445.600000,472.800000,445,472.700000,444.300000C472.500000,443.600000,472.400000,443,472.400000,442.300000C474.300000,443,476.900000,443.200000,477.600000,441C478.400000,438.500000,475.300000,438,473,438.200000C473.600000,436.600000,474.500000,435.100000,475.800000,433.800000C476.100000,435.700000,477.400000,438,479.700000,436.900000C482.300000,435.700000,480.700000,432.900000,479.200000,431.500000C479.700000,431.300000,480.300000,431,480.900000,430.900000C481.900000,430.600000,482.900000,430.500000,483.900000,430.500000C483,432.300000,482.600000,434.700000,485.100000,435.100000C487.500000,435.500000,488.200000,433.100000,488.100000,431.200000C489.300000,431.600000,490.400000,432.300000,491.400000,433.100000C489.500000,434.200000,487.500000,436.100000,489.300000,437.700000C490.900000,439.100000,492.800000,438,494,436.500000C494.300000,437,494.500000,437.600000,494.600000,438.100000C494.800000,438.700000,494.900000,439.300000,494.900000,439.900000C492.800000,439.800000,490.400000,440.400000,490.500000,442.600000C490.600000,444.500000,492.500000,444.700000,494.300000,444.400000C493.900000,445.500000,493.300000,446.500000,492.600000,447.400000C491.500000,446,490,444.900000,488.500000,446.300000C487.100000,447.600000,487.800000,449.200000,489,450.400000C488.200000,450.800000,487.400000,451.200000,486.500000,451.400000C486.200000,451.500000,485.900000,451.500000,485.700000,451.600000C485.900000,449.600000,485.500000,447.300000,483.200000,447.400000C481,447.500000,480.700000,449.700000,481.200000,451.600000C479.400000,451.300000,477.700000,450.500000,476.300000,449.400000C478.100000,448.900000,479.900000,447.700000,479,445.900000Z" fill="rgb(43,43,54)" stroke="none" stroke-width="1" />
                </g>
                <g id="e8bfyrs774hg107">
                    <g id="e8bfyrs774hg108">
                        <path id="e8bfyrs774hg109" d="M487.800000,439.700000L468.100000,361L455.200000,364.900000L480,442.400000C480.600000,444.500000,483.200000,446.100000,485.200000,445.500000L485.200000,445.500000C487.400000,444.800000,488.400000,441.900000,487.800000,439.700000Z" fill="rgb(53,53,65)" stroke="none" stroke-width="1" />
                    </g>
                </g>
                <g id="e8bfyrs774hg110">
                    <g id="e8bfyrs774hg111">
                        <path id="e8bfyrs774hg112" d="M467.500000,357.200000L453.900000,361.300000C452.900000,361.600000,452.300000,362.700000,452.600000,363.700000L452.600000,363.700000C452.900000,364.700000,454,365.200000,455,364.900000L468.700000,360.800000C469.700000,360.500000,470.300000,359.500000,470,358.500000L470,358.500000C469.600000,357.400000,468.500000,356.900000,467.500000,357.200000Z" fill="rgb(53,53,65)" stroke="none" stroke-width="1" />
                    </g>
                </g>
                <g id="e8bfyrs774hg113">
                    <g id="e8bfyrs774hg114">
                        <ellipse id="e8bfyrs774hg115" rx="1.800000" ry="1.800000" transform="matrix(0.97320000000000 -0.22980000000000 0.22980000000000 0.97320000000000 269.40495999999996 440.57420000000008)" fill="rgb(255,255,255)" stroke="none" stroke-width="1" />
                    </g>
                </g>
                <g id="e8bfyrs774hg116">
                    <ellipse id="e8bfyrs774hg117" rx="1.100000" ry="6.200000" transform="matrix(0.97270000000000 -0.23190000000000 0.23190000000000 0.97270000000000 473.49466000000001 390.87778000000003)" fill="rgb(255,255,255)" stroke="none" stroke-width="1" />
                </g>
                <g id="e8bfyrs774hg118">
                    <path id="e8bfyrs774hg119" d="M446.400000,410.500000C447.900000,408.600000,448.900000,406.900000,448.500000,406.500000C448.100000,406.100000,446.600000,407.500000,445,409.300000C443.500000,411.200000,442.500000,412.900000,442.900000,413.300000C443.300000,413.600000,444.900000,412.400000,446.400000,410.500000Z" fill="rgb(255,255,255)" stroke="none" stroke-width="1" />
                </g>
                <g id="e8bfyrs774hg120">
                    <path id="e8bfyrs774hg121" d="M475.300000,402C475.600000,403.400000,476.400000,404.400000,477,404.200000C477.600000,404.100000,477.800000,402.800000,477.500000,401.500000C477.200000,400.200000,476.400000,399.100000,475.800000,399.300000C475.200000,399.500000,475,400.700000,475.300000,402Z" fill="rgb(255,255,255)" stroke="none" stroke-width="1" />
                </g>
                <g id="e8bfyrs774hg122">
                    <path id="e8bfyrs774hg123" d="M504.600000,419.400000C505.300000,420.200000,506.100000,420.600000,506.400000,420.400000C506.700000,420.100000,506.400000,419.300000,505.700000,418.500000C505,417.700000,504.200000,417.300000,503.900000,417.500000C503.600000,417.700000,503.900000,418.600000,504.600000,419.400000Z" fill="rgb(255,255,255)" stroke="none" stroke-width="1" />
                </g>
                <g id="e8bfyrs774hg124">
                    <path id="e8bfyrs774hg125" d="M293.200000,420C294.400000,421.400000,295.600000,422.300000,296,422C296.400000,421.700000,295.700000,420.300000,294.500000,418.900000C293.300000,417.500000,292.100000,416.600000,291.700000,416.900000C291.400000,417.200000,292,418.600000,293.200000,420Z" fill="rgb(255,255,255)" stroke="none" stroke-width="1" />
                </g>
                <g id="e8bfyrs774hg126">
                    <path id="e8bfyrs774hg127" d="M289.100000,415.400000C289.800000,416,290.600000,416.300000,290.800000,416C291,415.700000,290.700000,415,290,414.400000C289.300000,413.800000,288.500000,413.500000,288.300000,413.800000C288,414.100000,288.400000,414.800000,289.100000,415.400000Z" fill="rgb(255,255,255)" stroke="none" stroke-width="1" />
                </g>
                <g id="e8bfyrs774hg128">
                    <path id="e8bfyrs774hg129" d="M461.200000,359.100000L461.800000,362.900000L455,365C454,365.300000,452.900000,364.700000,452.600000,363.700000L452.600000,363.700000C452.300000,362.700000,452.800000,361.600000,453.800000,361.300000L461.200000,359.100000Z" fill="rgb(43,43,54)" stroke="none" stroke-width="1" />
                </g>
                <g id="e8bfyrs774hg130">
                    <g id="e8bfyrs774hg131">
                        <ellipse id="e8bfyrs774hg132" rx="6.300000" ry="6.300000" transform="matrix(0.83020000000000 -0.55750000000000 0.55750000000000 0.83020000000000 442.43032999999997 243.29866000000007)" fill="rgb(53,53,65)" stroke="none" stroke-width="1" />
                    </g>
                </g>
                <g id="e8bfyrs774hg133">
                    <g id="e8bfyrs774hg134">
                        <ellipse id="e8bfyrs774hg135" rx="1.800000" ry="1.800000" transform="matrix(0.98710000000000 -0.16020000000000 0.16020000000000 0.98710000000000 483.61068000000006 440.59123999999997)" fill="rgb(255,255,255)" stroke="none" stroke-width="1" />
                    </g>
                </g>
            </g>
        </g>
    </g>
</svg>
