<svg xmlns="http://www.w3.org/2000/svg" xmlns:xlink="http://www.w3.org/1999/xlink" viewBox="0 0 166.3 92.14"><defs><style>.cls-1{fill:none;}.cls-2{clip-path:url(#clip-path);}.cls-3{fill:url(#linear-gradient);}.cls-4{clip-path:url(#clip-path-2);}.cls-5{fill:url(#linear-gradient-2);}.cls-6{clip-path:url(#clip-path-3);}.cls-7{fill:url(#linear-gradient-3);}.cls-8{clip-path:url(#clip-path-4);}.cls-9{fill:url(#linear-gradient-4);}.cls-10{clip-path:url(#clip-path-5);}.cls-11{fill:url(#linear-gradient-5);}</style><clipPath id="clip-path" transform="translate(24.91 13.15)"><path class="cls-1" d="M101.61,18a14.43,14.43,0,0,1,3.58,9.51,16.07,16.07,0,0,1-.16,2.3v.11C104.87,40,94.15,53.73,81.71,53.68A23.76,23.76,0,0,1,76,53a22.76,22.76,0,0,1-9.45-5.18s-1-.94-1.63-1.45A29.71,29.71,0,0,0,79.59,56a30,30,0,0,0,7.56,1c14.41,0,26.33-11.11,28.51-24.71A23.19,23.19,0,0,0,98.44,14a21.55,21.55,0,0,0-4.39-.67A15.28,15.28,0,0,1,101.61,18"/></clipPath><linearGradient id="linear-gradient" x1="-568.02" y1="-383.83" x2="-567.87" y2="-383.83" gradientTransform="matrix(409.6, -317.08, 369.37, 351.61, 374518.35, -45076.6)" gradientUnits="userSpaceOnUse"><stop offset="0" stop-color="#fbe519"/><stop offset="0.58" stop-color="#fad112"/><stop offset="1" stop-color="#ef9321"/></linearGradient><clipPath id="clip-path-2" transform="translate(24.91 13.15)"><path class="cls-1" d="M17.29,14.88A23.09,23.09,0,0,0,.36,33.39a28.35,28.35,0,0,0,28.12,24,28.81,28.81,0,0,0,7.56-1A29.27,29.27,0,0,0,51,46.82a23.76,23.76,0,0,1-17,7.26,23.17,23.17,0,0,1-23.31-23v-.11a17.65,17.65,0,0,1-.15-2.3A14.44,14.44,0,0,1,14,19.12a16,16,0,0,1,7.66-4.94,25.05,25.05,0,0,0-4.4.7"/></clipPath><linearGradient id="linear-gradient-2" x1="-569.37" y1="-385.15" x2="-569.22" y2="-385.15" gradientTransform="matrix(-288.25, -234.49, 274.4, -246.32, -58370.54, -228322.39)" gradientUnits="userSpaceOnUse"><stop offset="0" stop-color="#fbe519"/><stop offset="0.43" stop-color="#fad112"/><stop offset="1" stop-color="#ef9321"/></linearGradient><clipPath id="clip-path-3" transform="translate(24.91 13.15)"><path class="cls-1" d="M87.54.09h-.07A28.7,28.7,0,0,0,65.81,10l-7.45,8-11,11.81L46,31.31C42.39,35.16,31.27,43.79,24.7,43.79c-7.39,0-13.13-5.54-14.27-12.67C10.11,44,21.19,54.67,34,54.67a22.73,22.73,0,0,0,5.74-.73,23,23,0,0,0,11.17-6.61c3.25-3.33,7-7,7-7l.1-.11L69.29,29q10.54-11,10.64-11.08c6.24-7.06,17.41-3.28,18.8-2.92a22.2,22.2,0,0,1,16.8,18,26.79,26.79,0,0,0,.36-4.58A28,28,0,0,0,87.59.09Z"/></clipPath><linearGradient id="linear-gradient-3" x1="-567.38" y1="-383.18" x2="-567.23" y2="-383.18" gradientTransform="matrix(736.83, -98.32, 190.02, 381.27, 490902.97, 90354.98)" gradientUnits="userSpaceOnUse"><stop offset="0" stop-color="#ef9321"/><stop offset="0.47" stop-color="#fad112"/><stop offset="1" stop-color="#fbe519"/></linearGradient><clipPath id="clip-path-4" transform="translate(24.91 13.15)"><path class="cls-1" d="M58.58,39.66l6,6.35.11.11,2.07,2.06.05,0a20,20,0,0,0,9.51,5.3,24,24,0,0,0,5.82.78C95,54.31,105,43,105,29.88h0c-1.08,7.3-6.9,13.17-14.45,13.23-3.16,0-6.88-2.22-10.4-4.92A80.25,80.25,0,0,1,71,29.48l-1-1.14Z"/></clipPath><linearGradient id="linear-gradient-4" x1="-568.71" y1="-388.39" x2="-568.56" y2="-388.39" gradientTransform="matrix(-248.2, -29.87, 54.73, -135.46, -119776.91, -69540.83)" gradientUnits="userSpaceOnUse"><stop offset="0" stop-color="#fbe519"/><stop offset="0.28" stop-color="#fad112"/><stop offset="1" stop-color="#ef9321"/></linearGradient><clipPath id="clip-path-5" transform="translate(24.91 13.15)"><path class="cls-1" d="M0,28.86a26.16,26.16,0,0,0,.36,4.56,23.27,23.27,0,0,1,17.06-18.5,23.58,23.58,0,0,1,4.27-.67,13.68,13.68,0,0,1,3.86-.52A14.67,14.67,0,0,1,36,18.08a3.19,3.19,0,0,0,.26.26l8.43,8.5,2.21,2.23.67.54,11-11.79-8.39-8A28.39,28.39,0,0,0,28.63,0,28.72,28.72,0,0,0,0,28.86"/></clipPath><linearGradient id="linear-gradient-5" x1="-566.24" y1="-382.4" x2="-566.09" y2="-382.4" gradientTransform="matrix(478.78, 21.09, -36.95, 273.23, 256987.54, 116451.51)" gradientUnits="userSpaceOnUse"><stop offset="0" stop-color="#fbe519"/><stop offset="0.46" stop-color="#fad112"/><stop offset="1" stop-color="#ef9321"/></linearGradient></defs><g id="Layer_2" data-name="Layer 2"><g id="Layer_1-2" data-name="Layer 1"><g class="cls-2"><polygon class="cls-3" points="112.5 91.88 165.88 50.55 117.74 4.73 64.36 46.05 112.5 91.88"/></g><g class="cls-4"><polygon class="cls-5" points="101.12 47.88 49.31 5.73 0 50 51.8 92.14 101.12 47.88"/></g><g class="cls-6"><polygon class="cls-7" points="41.61 81.05 166.3 64.41 134.2 0 9.51 16.64 41.61 81.05"/></g><g class="cls-8"><polygon class="cls-9" points="140.42 42.83 85.82 36.26 73.78 66.06 128.38 72.63 140.42 42.83"/></g><g class="cls-10"><polygon class="cls-11" points="20.41 46.37 83.12 49.13 87.96 13.34 25.25 10.58 20.41 46.37"/></g></g></g></svg>