<?xml version="1.0" encoding="utf-8"?>
<!-- Generator: Adobe Illustrator 25.0.0, SVG Export Plug-In . SVG Version: 6.00 Build 0)  -->
<svg version="1.1" id="Layer_1" xmlns="http://www.w3.org/2000/svg" xmlns:xlink="http://www.w3.org/1999/xlink" x="0px" y="0px"
	 viewBox="0 0 121.5 61.5" style="enable-background:new 0 0 121.5 61.5;" xml:space="preserve">
<style type="text/css">
	.st0{clip-path:url(#SVGID_2_);}
	.st1{fill:url(#SVGID_3_);}
	.st2{clip-path:url(#SVGID_5_);}
	.st3{fill:url(#SVGID_6_);}
	.st4{clip-path:url(#SVGID_8_);}
	.st5{fill:url(#SVGID_9_);}
	.st6{clip-path:url(#SVGID_11_);}
	.st7{fill:url(#SVGID_12_);}
	.st8{clip-path:url(#SVGID_14_);}
	.st9{fill:url(#SVGID_15_);}
</style>
<g id="Layer_2_1_">
	<g id="Layer_1-2">
		<g>
			<defs>
				<path id="SVGID_1_" d="M104.5,20.3c2.3,2.6,3.6,6,3.6,9.5c0,0.8-0.1,1.5-0.2,2.3v0.1C107.8,42.3,97.1,56,84.6,55.9
					c-1.9,0-3.8-0.2-5.7-0.7c-3.5-0.9-6.8-2.7-9.4-5.2c0,0-1-0.9-1.6-1.5c3.8,4.6,8.9,8,14.7,9.6c2.5,0.7,5,1,7.6,1
					c14.4,0,26.3-11.1,28.5-24.7c-1.7-8.9-8.4-16.1-17.2-18.3c-1.4-0.4-2.9-0.6-4.4-0.7C99.9,16.4,102.5,18,104.5,20.3"/>
			</defs>
			<clipPath id="SVGID_2_">
				<use xlink:href="#SVGID_1_"  style="overflow:visible;"/>
			</clipPath>
			<g class="st0">
				
					<linearGradient id="SVGID_3_" gradientUnits="userSpaceOnUse" x1="-1046.6774" y1="1377.955" x2="-1046.5273" y2="1377.955" gradientTransform="matrix(409.6 -317.08 -369.37 -351.61 937755 152684.7656)">
					<stop  offset="0" style="stop-color:#FBE519"/>
					<stop  offset="0.58" style="stop-color:#FAD112"/>
					<stop  offset="1" style="stop-color:#EF9321"/>
				</linearGradient>
				<polygon class="st1" points="90.5,81 143.9,39.7 95.8,-6.2 42.4,35.2 				"/>
			</g>
		</g>
		<g>
			<defs>
				<path id="SVGID_4_" d="M20.2,17.1c-8.8,2.3-15.4,9.5-16.9,18.5c2.2,13.9,14.1,24.1,28.1,24c2.6,0,5.1-0.3,7.6-1
					c5.9-1.6,11.1-4.9,15-9.6c-4.5,4.6-10.6,7.2-17,7.3c-12.8,0.1-23.2-10.2-23.3-23v-0.1c-0.1-0.8-0.2-1.5-0.1-2.3
					c0-3.5,1.2-6.9,3.5-9.6c2-2.4,4.7-4.1,7.7-4.9C23.1,16.5,21.6,16.8,20.2,17.1"/>
			</defs>
			<clipPath id="SVGID_5_">
				<use xlink:href="#SVGID_4_"  style="overflow:visible;"/>
			</clipPath>
			<g class="st2">
				
					<linearGradient id="SVGID_6_" gradientUnits="userSpaceOnUse" x1="-1050.0308" y1="1382.4202" x2="-1049.8807" y2="1382.4202" gradientTransform="matrix(-288.25 -234.49 -274.4 246.32 76707.0469 -586690.25)">
					<stop  offset="0" style="stop-color:#FBE519"/>
					<stop  offset="0.43" style="stop-color:#FAD112"/>
					<stop  offset="1" style="stop-color:#EF9321"/>
				</linearGradient>
				<polygon class="st3" points="79.1,37 27.3,-5.2 -22,39.1 29.8,81.3 				"/>
			</g>
		</g>
		<g>
			<defs>
				<path id="SVGID_7_" d="M90.5,2.4L90.5,2.4c-8.4,0-16.3,3.6-21.7,9.9l-7.5,8l-11,11.8l-1.4,1.5c-3.6,3.9-14.7,12.5-21.3,12.5
					c-7.4,0-13.1-5.5-14.3-12.7C13,46.3,24.1,56.9,36.9,56.9c1.9,0,3.9-0.2,5.7-0.7c4.3-1.1,8.2-3.4,11.2-6.6c3.2-3.3,7-7,7-7
					l0.1-0.1l11.3-11.2c7-7.3,10.6-11,10.6-11.1c6.2-7.1,17.4-3.3,18.8-2.9c8.7,2.1,15.3,9.2,16.8,18c0.3-1.5,0.4-3,0.4-4.6
					C119,15.2,106.6,2.5,91.2,2.4C90.9,2.4,90.7,2.4,90.5,2.4L90.5,2.4z"/>
			</defs>
			<clipPath id="SVGID_8_">
				<use xlink:href="#SVGID_7_"  style="overflow:visible;"/>
			</clipPath>
			<g class="st4">
				
					<linearGradient id="SVGID_9_" gradientUnits="userSpaceOnUse" x1="-1045.3586" y1="1376.8884" x2="-1045.2086" y2="1376.8884" gradientTransform="matrix(736.83 -98.32 -190.02 -381.27 1031896.1875 422223.9062)">
					<stop  offset="0" style="stop-color:#EF9321"/>
					<stop  offset="0.47" style="stop-color:#FAD112"/>
					<stop  offset="1" style="stop-color:#FBE519"/>
				</linearGradient>
				<polygon class="st5" points="19.6,70.2 144.3,53.5 112.2,-10.9 -12.5,5.8 				"/>
			</g>
		</g>
		<g>
			<defs>
				<path id="SVGID_10_" d="M61.5,41.9l6,6.3l0.1,0.1l2.1,2.1h0.1c2.6,2.6,5.9,4.4,9.5,5.3c1.9,0.5,3.9,0.8,5.8,0.8
					c12.9,0.1,22.9-11.3,22.9-24.4l0,0c-1.1,7.3-6.9,13.2-14.4,13.2c-3.2,0-6.9-2.2-10.4-4.9c-3.3-2.7-6.3-5.6-9.2-8.7l-1-1.1
					L61.5,41.9z"/>
			</defs>
			<clipPath id="SVGID_11_">
				<use xlink:href="#SVGID_10_"  style="overflow:visible;"/>
			</clipPath>
			<g class="st6">
				
					<linearGradient id="SVGID_12_" gradientUnits="userSpaceOnUse" x1="-1049.8593" y1="1390.5309" x2="-1049.7092" y2="1390.5309" gradientTransform="matrix(-248.2 -29.87 -54.73 135.46 -184372.25 -219675.375)">
					<stop  offset="0" style="stop-color:#FBE519"/>
					<stop  offset="0.28" style="stop-color:#FAD112"/>
					<stop  offset="1" style="stop-color:#EF9321"/>
				</linearGradient>
				<polygon class="st7" points="118.4,31.9 63.8,25.4 51.8,55.2 106.4,61.7 				"/>
			</g>
		</g>
		<g>
			<defs>
				<path id="SVGID_13_" d="M2.9,31.1c0,1.5,0.1,3.1,0.4,4.6c1.6-9,8.2-16.2,17.1-18.5c1.4-0.4,2.8-0.6,4.3-0.7
					c1.3-0.4,2.6-0.5,3.9-0.5c3.9,0,7.7,1.6,10.4,4.3c0.1,0.1,0.2,0.2,0.3,0.3l8.4,8.5l2.2,2.2l0.7,0.5l11-11.8l-8.4-8
					c-5.4-6.3-13.3-9.8-21.5-9.8C15.7,2.3,2.9,15.2,2.9,31.1C2.9,31.1,2.9,31.1,2.9,31.1"/>
			</defs>
			<clipPath id="SVGID_14_">
				<use xlink:href="#SVGID_13_"  style="overflow:visible;"/>
			</clipPath>
			<g class="st8">
				
					<linearGradient id="SVGID_15_" gradientUnits="userSpaceOnUse" x1="-1043.0167" y1="1375.2577" x2="-1042.8668" y2="1375.2577" gradientTransform="matrix(478.78 21.09 36.95 -273.23 448550.4062 397776.0312)">
					<stop  offset="0" style="stop-color:#FBE519"/>
					<stop  offset="0.46" style="stop-color:#FAD112"/>
					<stop  offset="1" style="stop-color:#EF9321"/>
				</linearGradient>
				<polygon class="st9" points="-1.6,35.5 61.1,38.2 66,2.5 3.3,-0.3 				"/>
			</g>
		</g>
	</g>
</g>
</svg>
