<?xml version="1.0" encoding="utf-8"?>
<!-- Generator: Adobe Illustrator 25.0.0, SVG Export Plug-In . SVG Version: 6.00 Build 0)  -->
<svg version="1.1" id="Layer_1" xmlns="http://www.w3.org/2000/svg" xmlns:xlink="http://www.w3.org/1999/xlink" x="0px" y="0px"
	 viewBox="0 0 121.5 61.5" style="enable-background:new 0 0 121.5 61.5;" xml:space="preserve">
<style type="text/css">
	.st0{fill:url(#SVGID_1_);}
	.st1{fill:url(#SVGID_2_);}
	.st2{fill:url(#SVGID_3_);}
	.st3{fill:url(#SVGID_4_);}
	.st4{fill:url(#SVGID_5_);}
</style>
<linearGradient id="SVGID_1_" gradientUnits="userSpaceOnUse" x1="47.0414" y1="57.5539" x2="7.6219" y2="25.4863">
	<stop  offset="0" style="stop-color:#FBE519"/>
	<stop  offset="0.43" style="stop-color:#FAD112"/>
	<stop  offset="1" style="stop-color:#EF9321"/>
</linearGradient>
<path class="st0" d="M20.2,17.1c-8.8,2.3-15.4,9.5-16.9,18.5c2.2,13.9,14.1,24.1,28.1,24c2.6,0,5.1-0.3,7.6-1
	c5.9-1.6,11.1-4.9,15-9.6c-4.5,4.6-10.6,7.2-17,7.3c-12.8,0.1-23.2-10.2-23.3-23v-0.1c-0.1-0.8-0.2-1.5-0.1-2.3
	c0-3.5,1.2-6.9,3.5-9.6c2-2.4,4.7-4.1,7.7-4.9C23.1,16.5,21.6,16.8,20.2,17.1"/>
<linearGradient id="SVGID_2_" gradientUnits="userSpaceOnUse" x1="46.5745" y1="38.4704" x2="11.6526" y2="10.0616">
	<stop  offset="0" style="stop-color:#EF9321"/>
	<stop  offset="0.54" style="stop-color:#FAD112"/>
	<stop  offset="1" style="stop-color:#FBE519"/>
</linearGradient>
<path class="st1" d="M2.9,31.1c0,1.5,0.1,3.1,0.4,4.6c1.6-9,8.2-16.2,17.1-18.5c1.4-0.4,2.8-0.6,4.3-0.7c1.3-0.4,2.6-0.5,3.9-0.5
	c3.9,0,7.7,1.6,10.4,4.3c0.1,0.1,0.2,0.2,0.3,0.3l8.4,8.5l2.2,2.2l0.7,0.5l11-11.8l-8.4-8c-5.4-6.3-13.3-9.8-21.5-9.8
	C15.7,2.3,2.9,15.2,2.9,31.1L2.9,31.1"/>
<linearGradient id="SVGID_3_" gradientUnits="userSpaceOnUse" x1="89.9446" y1="53.8689" x2="100.9584" y2="14.1749">
	<stop  offset="0.58" style="stop-color:#FAD112"/>
	<stop  offset="1" style="stop-color:#EF9321"/>
</linearGradient>
<path class="st2" d="M104.5,20.3c2.3,2.6,3.6,6,3.6,9.5c0,0.8-0.1,1.5-0.2,2.3v0.1C107.8,42.3,97.1,56,84.6,55.9
	c-1.9,0-3.8-0.2-5.7-0.7c-3.5-0.9-6.8-2.7-9.4-5.2c0,0-1-0.9-1.6-1.5c3.8,4.6,8.9,8,14.7,9.6c2.5,0.7,5,1,7.6,1
	c14.4,0,26.3-11.1,28.5-24.7c-1.7-8.9-8.4-16.1-17.2-18.3c-1.4-0.4-2.9-0.6-4.4-0.7C99.9,16.4,102.5,18,104.5,20.3"/>
<linearGradient id="SVGID_4_" gradientUnits="userSpaceOnUse" x1="100.3331" y1="50.6158" x2="72.698" y2="28.1348">
	<stop  offset="0" style="stop-color:#FBE519"/>
	<stop  offset="0.43" style="stop-color:#FAD112"/>
	<stop  offset="1" style="stop-color:#EF9321"/>
</linearGradient>
<path class="st3" d="M61.5,41.9l6,6.3l0.1,0.1l2.1,2.1h0.1c2.6,2.6,5.9,4.4,9.5,5.3c1.9,0.5,3.9,0.8,5.8,0.8
	C98,56.6,108,45.2,108,32.1l0,0c-1.1,7.3-6.9,13.2-14.4,13.2c-3.2,0-6.9-2.2-10.4-4.9c-3.3-2.7-6.3-5.6-9.2-8.7l-1-1.1L61.5,41.9z"
	/>
<linearGradient id="SVGID_5_" gradientUnits="userSpaceOnUse" x1="99.7735" y1="58.1969" x2="35.5977" y2="5.9902">
	<stop  offset="0" style="stop-color:#FBE519"/>
	<stop  offset="0.43" style="stop-color:#FAD112"/>
	<stop  offset="1" style="stop-color:#EF9321"/>
</linearGradient>
<path class="st4" d="M90.5,2.4L90.5,2.4c-8.4,0-16.3,3.6-21.7,9.9l-7.5,8l-11,11.8l-1.4,1.5c-3.6,3.9-14.7,12.5-21.3,12.5
	c-7.4,0-13.1-5.5-14.3-12.7C13,46.3,24.1,56.9,36.9,56.9c1.9,0,3.9-0.2,5.7-0.7c4.3-1.1,8.2-3.4,11.2-6.6c3.2-3.3,7-7,7-7l0.1-0.1
	l11.3-11.2c7-7.3,10.6-11,10.6-11.1c6.2-7.1,17.4-3.3,18.8-2.9c8.7,2.1,15.3,9.2,16.8,18c0.3-1.5,0.4-3,0.4-4.6
	C119,15.2,106.6,2.5,91.2,2.4C90.9,2.4,90.7,2.4,90.5,2.4L90.5,2.4z"/>
</svg>
