<?xml version="1.0" encoding="utf-8"?>
<!-- Generator: Adobe Illustrator 23.0.1, SVG Export Plug-In . SVG Version: 6.00 Build 0)  -->
<svg version="1.1" id="Layer_1" xmlns="http://www.w3.org/2000/svg" xmlns:xlink="http://www.w3.org/1999/xlink" x="0px" y="0px"
	 viewBox="0 0 170 160" style="enable-background:new 0 0 170 160;" xml:space="preserve">
<style type="text/css">
	.st0{fill:#00B5E1;}
</style>
<g>
	<path class="st0" d="M159.71,111.47c-7.62-10.41-21.12-14.73-33.41-11.68l-22.94-21.55l-4.84,4.55l15.4,14.47
		c2.2,2.07,2.2,5.4,0,7.47c-1.1,1.03-2.53,1.55-3.99,1.55c-1.43,0-2.86-0.51-3.96-1.55l-15.4-14.5l-4.84,4.58l20.95,19.69
		c-5.14,9.25-4.81,20.78,1.9,29.98c6.49,8.89,17.27,13.31,27.94,12.56l-14.03-19.2c-1.92-2.64-1.21-6.2,1.6-8.04l15.49-10
		c2.8-1.81,6.63-1.14,8.58,1.47l14,19.2C166.75,131.4,166.21,120.33,159.71,111.47z M62.49,51.11c1.43,0,2.89,0.51,3.96,1.55
		l17.19,16.15l4.84-4.55L66.18,43.3c4.9-9.25,4.35-20.65-2.39-29.69C57.19,4.8,46.38,0.46,35.74,1.34l14.22,19.04
		c1.95,2.64,1.26,6.23-1.51,8.07L33.07,38.6c-2.8,1.83-6.63,1.21-8.58-1.42L10.24,18.11c-4.48,9.15-3.82,20.18,2.75,28.99
		c7.81,10.44,21.56,14.6,33.97,11.27l23.9,22.46l4.87-4.55L58.53,60.13c-2.2-2.07-2.2-5.4,0-7.47
		C59.61,51.62,61.06,51.11,62.49,51.11z"/>
	<path class="st0" d="M80.32,105.76c-1.04,0.98-2.74,0.98-3.78,0l-17.34-16.3c-1.04-0.98-1.04-2.57,0-3.55l0.93-0.87
		c1.04-0.98,2.74-0.98,3.78,0l17.34,16.3c1.04,0.98,1.04,2.57,0,3.56L80.32,105.76z"/>
	<path class="st0" d="M72.62,109.38l-37.9,38.84L30.04,153c-1.46,1.37-3.11,2.4-4.93,3.07c-1.38,0.54-2.78,0.85-4.21,0.96
		c-0.47,0.05-0.93,0.08-1.43,0.08c-3.82,0.03-7.65-1.34-10.56-4.08c-5.86-5.5-5.86-14.39,0-19.87l5.06-4.37l41.33-35.64
		L72.62,109.38z"/>
	<path class="st0" d="M150.25,26.4l-7.2,10.65l-6.38,2.56l-57.23,53.8l-7.1-6.67l57.26-53.8l2.72-5.97l11.33-6.77l0.6,0.57
		l-8.36,6.56c-1.46,1.37-0.8,4.32,0.66,5.71c1.51,1.4,4.73,2.22,6.22,0.83l6.85-8.06L150.25,26.4z"/>
</g>
</svg>
