<?xml version="1.0" encoding="utf-8"?>
<!-- Generator: Adobe Illustrator 25.0.0, SVG Export Plug-In . SVG Version: 6.00 Build 0)  -->
<svg version="1.1" id="Layer_1" xmlns="http://www.w3.org/2000/svg" xmlns:xlink="http://www.w3.org/1999/xlink" x="0px" y="0px"
	 viewBox="0 0 512 512" style="enable-background:new 0 0 512 512;" xml:space="preserve">
<style type="text/css">
	.st0{fill:#4EB4E3;}
	.st1{fill:#FDE500;}
	.st2{enable-background:new    ;}
</style>
<path class="st0" d="M467.7,84H44.2C19.9,84,0,103.9,0,128.3v255.2c0,24.4,19.9,44.3,44.2,44.3h423.5c24.4,0,44.3-19.9,44.3-44.3
	V128.3C512,103.9,492.1,84,467.7,84z M496.8,383.4c0,16-13,29-29,29H44.2c-16,0-29-13-29-29V128.3c0-16,13-29,29-29h423.5
	c16,0,29,13,29,29L496.8,383.4L496.8,383.4z"/>
<path class="st0" d="M227.6,144.8H51.2c-4.2,0-7.6,3.4-7.6,7.6v18.2c0,4.2,3.4,7.6,7.6,7.6s7.6-3.4,7.6-7.6V160H220v185.5H58.8
	V201.1c0-4.2-3.4-7.6-7.6-7.6s-7.6,3.4-7.6,7.6v152.1c0,4.2,3.4,7.6,7.6,7.6h176.4c4.2,0,7.6-3.4,7.6-7.6V152.4
	C235.2,148.2,231.8,144.8,227.6,144.8z"/>
<path class="st0" d="M462.8,162.5H272.2c-4.2,0-7.6,3.4-7.6,7.6s3.4,7.6,7.6,7.6h190.6c4.2,0,7.6-3.4,7.6-7.6S467,162.5,462.8,162.5
	z"/>
<path class="st1" d="M462.8,217.6h-42.6c-4.2,0-7.6,3.4-7.6,7.6s3.4,7.6,7.6,7.6h42.6c4.2,0,7.6-3.4,7.6-7.6S467,217.6,462.8,217.6z
	"/>
<path class="st1" d="M272.2,232.8h117.6c4.2,0,7.6-3.4,7.6-7.6s-3.4-7.6-7.6-7.6H272.2c-4.2,0-7.6,3.4-7.6,7.6
	S268,232.8,272.2,232.8z"/>
<path class="st1" d="M462.8,272.8H272.2c-4.2,0-7.6,3.4-7.6,7.6s3.4,7.6,7.6,7.6h190.6c4.2,0,7.6-3.4,7.6-7.6S467,272.8,462.8,272.8
	z"/>
<path class="st1" d="M352,327.9h-81.4c-3.3,0-6,3.4-6,7.6s2.7,7.6,6,7.6H352c3.3,0,6-3.4,6-7.6S355.3,327.9,352,327.9z"/>
<path class="st1" d="M86.2,328.8c0,4.2,3.4,7.6,7.6,7.6s7.6-3.4,7.6-7.6c0-21,17.1-38,38-38s38,17.1,38,38c0,4.2,3.4,7.6,7.6,7.6
	s7.6-3.4,7.6-7.6c0-19.3-10.4-36.3-25.8-45.6c15.5-9.3,25.8-26.3,25.8-45.6c0-29.3-23.9-53.2-53.2-53.2c-29.4,0-53.2,23.9-53.2,53.2
	c0,19.3,10.4,36.3,25.8,45.6C96.6,292.5,86.2,309.5,86.2,328.8z M101.4,237.6c0-21,17.1-38,38-38s38,17.1,38,38s-17.1,38-38,38
	S101.4,258.6,101.4,237.6z"/>
<g class="st2">
	<path class="st0" d="M380.9,351.2v-26.3c-4.9,3.8-8.2,5.6-9.9,5.6c-0.8,0-1.5-0.3-2.2-1s-0.9-1.4-0.9-2.2c0-1,0.3-1.7,0.9-2.2
		c0.6-0.5,1.7-1.1,3.3-1.8c2.3-1.1,4.2-2.3,5.6-3.5c1.4-1.2,2.6-2.6,3.7-4.1c1.1-1.5,1.8-2.4,2.1-2.8s0.9-0.5,1.9-0.5
		c1,0,1.8,0.4,2.5,1.2s0.9,1.9,0.9,3.3v33.1c0,3.9-1.3,5.8-4,5.8c-1.2,0-2.1-0.4-2.8-1.2S380.9,352.8,380.9,351.2z"/>
	<path class="st0" d="M403.4,323.6c0-1.9,0.5-3.7,1.6-5.5c1.1-1.7,2.6-3.1,4.6-4.1c2-1,4.4-1.5,7.1-1.5c2.3,0,4.3,0.3,6,0.9
		c1.7,0.6,3.2,1.4,4.3,2.5c1.2,1.1,2,2.2,2.6,3.6c0.6,1.3,0.8,2.7,0.8,4.2c0,1.9-0.5,3.6-1.5,5.1c-1,1.5-2.4,2.7-4.4,3.6
		c1.6,0.6,3,1.5,4.1,2.5c1.1,1,1.9,2.2,2.4,3.6s0.8,2.9,0.8,4.5c0,2.4-0.6,4.6-1.8,6.6c-1.2,2-2.9,3.5-5.2,4.6c-2.3,1.1-5,1.7-8,1.7
		c-3.2,0-5.9-0.6-8.2-1.7c-2.3-1.1-4-2.7-5.2-4.6c-1.2-2-1.7-4.2-1.7-6.6c0-5.2,2.5-8.8,7.4-10.7
		C405.4,330.5,403.4,327.5,403.4,323.6z M424.1,342.7c0-1.5-0.3-2.8-0.9-3.9c-0.6-1.1-1.5-2-2.6-2.6c-1.1-0.6-2.4-0.9-3.8-0.9
		c-2,0-3.6,0.7-4.9,2c-1.3,1.3-2,3.1-2,5.5c0,1.5,0.3,2.8,0.9,4c0.6,1.1,1.5,2,2.6,2.7c1.1,0.6,2.3,0.9,3.6,0.9c1.3,0,2.6-0.3,3.6-1
		c1.1-0.6,1.9-1.5,2.5-2.7C423.8,345.5,424.1,344.2,424.1,342.7z M416.9,318c-1.8,0-3.3,0.6-4.4,1.7c-1.1,1.1-1.7,2.6-1.7,4.4
		c0,1.6,0.6,3,1.7,4.1c1.1,1.1,2.6,1.6,4.4,1.6c0.9,0,1.7-0.1,2.5-0.4c0.7-0.3,1.4-0.7,1.9-1.2c0.5-0.5,0.9-1.1,1.2-1.8
		c0.3-0.7,0.4-1.5,0.4-2.3c0-1.1-0.3-2.2-0.8-3.1c-0.5-0.9-1.2-1.6-2.2-2.1C419.2,318.3,418.1,318,416.9,318z"/>
	<path class="st0" d="M451.9,349.1L451.9,349.1c-2.1,0-3.7-1.7-3.7-3.7v-7.3h-7.4c-2.1,0-3.7-1.7-3.7-3.7v-0.1
		c0-2.1,1.7-3.7,3.7-3.7h7.4v-7.4c0-2.1,1.7-3.7,3.7-3.7l0,0c2.1,0,3.7,1.7,3.7,3.7v7.4h7.4c2.1,0,3.7,1.7,3.7,3.7v0.1
		c0,2.1-1.7,3.7-3.7,3.7h-7.4v7.3C455.6,347.4,454,349.1,451.9,349.1z"/>
</g>
</svg>
