<?xml version="1.0" encoding="utf-8"?>
<!-- Generator: Adobe Illustrator 23.0.1, SVG Export Plug-In . SVG Version: 6.00 Build 0)  -->
<svg version="1.1" id="Layer_1" xmlns="http://www.w3.org/2000/svg" xmlns:xlink="http://www.w3.org/1999/xlink" x="0px" y="0px"
	 viewBox="0 0 170 160" style="enable-background:new 0 0 170 160;" xml:space="preserve">
<style type="text/css">
	.st0{fill:#00B5E1;}
	.st1{fill:#65B4C1;}
</style>
<g>
	<g>
		<path class="st0" d="M2.83,57.38v77.7h141.59v-77.7H2.83z M137.51,112.19c-8.47,0-15.34,7.2-15.34,16.07H25.07
			c0-8.87-6.86-16.07-15.33-16.07V80.28c8.47,0,15.33-7.2,15.33-16.07h97.11c0,8.87,6.87,16.07,15.34,16.07V112.19z"/>
		<g>
			<path class="st0" d="M63.33,85.05c-0.04,0.25-0.06,0.51-0.06,0.77c0,3.49,3.25,6.44,7.65,7.31V78.51
				C66.85,79.31,63.76,81.89,63.33,85.05z"/>
			<path class="st0" d="M76.33,113.96c4.4-0.87,7.65-3.81,7.65-7.32c0,0,0-0.01,0-0.02c-0.02-3.49-3.26-6.42-7.65-7.29V113.96z"/>
			<path class="st0" d="M73.62,64.21c-14.37,0-26.03,14.34-26.03,32.02c0,17.69,11.66,32.04,26.03,32.04
				c14.37,0,26.03-14.34,26.03-32.04C99.65,78.54,88,64.21,73.62,64.21z M89.38,106.64c0,6.53-5.65,11.97-13.05,13.05v0.72
				c0,1.57-1.22,2.84-2.71,2.84c-1.49,0-2.7-1.27-2.7-2.84v-0.72c-7.41-1.08-13.06-6.52-13.06-13.05c0-1.56,1.21-2.83,2.7-2.83
				c1.49,0,2.7,1.27,2.7,2.83c0,3.5,3.25,6.45,7.65,7.32V98.87c-7.41-1.08-13.06-6.52-13.06-13.05c0-0.92,0.11-1.81,0.31-2.67
				c1.3-5.3,6.38-9.46,12.75-10.38v-0.72c0-1.57,1.21-2.83,2.7-2.83c1.49,0,2.71,1.27,2.71,2.83v0.72
				c7.4,1.08,13.05,6.52,13.05,13.05c0,1.55-1.21,2.83-2.69,2.83c-1.5,0-2.71-1.27-2.71-2.83c0-3.5-3.25-6.45-7.65-7.32v15.09
				C83.73,94.68,89.38,100.12,89.38,106.64z"/>
		</g>
	</g>
	<g>
		<path class="st1" d="M148.27,126.21l21.2-49.35l-21.2-10v22.95c1.5,2.08,3.5,3.81,5.93,4.96l-5.93,13.81V126.21z"/>
		<polygon class="st1" points="124.19,140.71 139.03,147.72 142.04,140.71 		"/>
		<path class="st1" d="M32.28,52.41l5.42-12.62c7.72,3.65,16.8,0.03,20.27-8.05l43.82,20.67h15.87L40.37,15.94L24.7,52.41H32.28z"/>
	</g>
</g>
</svg>
