<?xml version="1.0" encoding="utf-8"?>
<!-- Generator: Adobe Illustrator 23.0.1, SVG Export Plug-In . SVG Version: 6.00 Build 0)  -->
<svg version="1.1" id="Layer_1" xmlns="http://www.w3.org/2000/svg" xmlns:xlink="http://www.w3.org/1999/xlink" x="0px" y="0px"
	 viewBox="0 0 170 160" style="enable-background:new 0 0 170 160;" xml:space="preserve">
<style type="text/css">
	.st0{fill:#5FCCF5;stroke:#00B5E1;stroke-width:6.384;stroke-miterlimit:10;}
	.st1{fill:none;stroke:#00B5E1;stroke-width:6.384;stroke-miterlimit:10;}
	.st2{fill:#00B5E1;}
</style>
<g>
	<line class="st0" x1="51.21" y1="73.38" x2="119.66" y2="73.38"/>
	<line class="st0" x1="51.21" y1="97.09" x2="67.23" y2="97.09"/>
	<line class="st0" x1="73.54" y1="97.09" x2="119.66" y2="97.09"/>
	<line class="st0" x1="51.21" y1="84.48" x2="77.43" y2="84.48"/>
	<line class="st0" x1="84.71" y1="84.48" x2="119.66" y2="84.48"/>
	<line class="st0" x1="51.21" y1="109.14" x2="119.66" y2="109.14"/>
	<line class="st0" x1="51.21" y1="132.84" x2="67.23" y2="132.84"/>
	<line class="st0" x1="73.54" y1="132.84" x2="119.66" y2="132.84"/>
	<line class="st0" x1="51.21" y1="120.23" x2="77.43" y2="120.23"/>
	<line class="st0" x1="84.71" y1="120.23" x2="119.66" y2="120.23"/>
</g>
<g>
	<polygon class="st1" points="130.22,23.93 130.22,147.24 40.65,147.24 40.65,23.93 32.19,23.93 32.19,156.09 138.68,156.09 
		138.68,23.93 	"/>
	<path class="st1" d="M64.08,32.02h42.72V17.9h-8.76c0-0.16,0.02-0.33,0.02-0.5c0-7.24-5.65-13.12-12.62-13.12
		c-6.97,0-12.63,5.88-12.63,13.12c0,0.17,0.02,0.34,0.03,0.5h-8.76V32.02z"/>
</g>
<path class="st1" d="M97.97,52.78c0-0.4-0.02-0.78-0.05-1.17l2.51-0.69l-1.13-4.47l-2.56,0.69c-0.54-1.17-1.24-2.24-2.07-3.18
	l1.64-2.2l-3.52-2.83l-1.66,2.24c-1.08-0.57-2.24-0.99-3.47-1.21v-2.84h-4.44v2.84c-1.17,0.21-2.28,0.6-3.31,1.13l-1.64-2.27
	l-3.56,2.77l1.62,2.24c-0.62,0.67-1.16,1.41-1.63,2.21l-2.5-0.95l-1.54,4.33l2.45,0.94c-0.15,0.78-0.22,1.59-0.22,2.42
	c0,0.29,0.02,0.57,0.03,0.85l-2.48,0.68l1.13,4.47l2.43-0.66c0.53,1.22,1.23,2.34,2.07,3.32l-1.51,2.04l3.52,2.82l1.5-2
	c1.12,0.62,2.34,1.06,3.64,1.3v2.52h4.44v-2.52c1.23-0.22,2.4-0.64,3.48-1.21l1.46,2.02l3.56-2.77l-1.48-2.06
	c0.63-0.71,1.18-1.5,1.64-2.34l2.35,0.89l1.53-4.33l-2.39-0.92C97.91,54.2,97.97,53.5,97.97,52.78z M85.44,58.64
	c-3.21,0-5.8-2.7-5.8-6.03c0-3.33,2.6-6.02,5.8-6.02c3.2,0,5.8,2.69,5.8,6.02C91.24,55.95,88.64,58.64,85.44,58.64z"/>
<rect x="29.09" y="20.81" class="st2" width="32.04" height="5.77"/>
<rect x="104.04" y="20.81" class="st2" width="32.04" height="5.77"/>
</svg>
