<?xml version="1.0" encoding="utf-8"?>
<!-- Generator: Adobe Illustrator 23.0.1, SVG Export Plug-In . SVG Version: 6.00 Build 0)  -->
<svg version="1.1" id="Layer_1" xmlns="http://www.w3.org/2000/svg" xmlns:xlink="http://www.w3.org/1999/xlink" x="0px" y="0px"
	 viewBox="0 0 170 160" style="enable-background:new 0 0 170 160;" xml:space="preserve">
<style type="text/css">
	.st0{display:none;}
	.st1{display:inline;fill:none;stroke:#00B5E1;stroke-width:6.384;stroke-miterlimit:10;}
	.st2{display:none;fill:none;stroke:#00B5E1;stroke-width:6.384;stroke-miterlimit:10;}
	.st3{display:none;fill:#00B5E1;}
</style>
<g class="st0">
	<line class="st1" x1="51.2" y1="73.4" x2="119.7" y2="73.4"/>
	<line class="st1" x1="51.2" y1="97.1" x2="67.2" y2="97.1"/>
	<line class="st1" x1="73.5" y1="97.1" x2="119.7" y2="97.1"/>
	<line class="st1" x1="51.2" y1="84.5" x2="77.4" y2="84.5"/>
	<line class="st1" x1="84.7" y1="84.5" x2="119.7" y2="84.5"/>
	<line class="st1" x1="51.2" y1="109.1" x2="119.7" y2="109.1"/>
	<line class="st1" x1="51.2" y1="132.8" x2="67.2" y2="132.8"/>
	<line class="st1" x1="73.5" y1="132.8" x2="119.7" y2="132.8"/>
	<line class="st1" x1="51.2" y1="120.2" x2="77.4" y2="120.2"/>
	<line class="st1" x1="84.7" y1="120.2" x2="119.7" y2="120.2"/>
</g>
<g class="st0">
	<polygon class="st1" points="130.2,23.9 130.2,147.2 40.7,147.2 40.7,23.9 32.2,23.9 32.2,156.1 138.7,156.1 138.7,23.9 	"/>
	<path class="st1" d="M64.1,32h42.7V17.9H98c0-0.2,0-0.3,0-0.5c0-7.2-5.7-13.1-12.6-13.1s-12.6,5.9-12.6,13.1c0,0.2,0,0.3,0,0.5
		h-8.8C64.1,17.9,64.1,32,64.1,32z"/>
</g>
<path class="st2" d="M98,52.8c0-0.4,0-0.8-0.1-1.2l2.5-0.7l-1.1-4.5l-2.6,0.7c-0.5-1.2-1.2-2.2-2.1-3.2l1.6-2.2l-3.5-2.8l-1.7,2.2
	c-1.1-0.6-2.2-1-3.5-1.2v-2.8h-4.4V40c-1.2,0.2-2.3,0.6-3.3,1.1l-1.6-2.3l-3.6,2.8l1.6,2.2c-0.6,0.7-1.2,1.4-1.6,2.2l-2.5-1
	l-1.5,4.3l2.4,0.9c-0.2,0.8-0.2,1.6-0.2,2.4c0,0.3,0,0.6,0,0.8l-2.5,0.7l1.1,4.5l2.4-0.7c0.5,1.2,1.2,2.3,2.1,3.3l-1.5,2l3.5,2.8
	l1.5-2c1.1,0.6,2.3,1.1,3.6,1.3v2.5h4.4v-2.5c1.2-0.2,2.4-0.6,3.5-1.2l1.5,2l3.6-2.8l-1.5-2.1c0.6-0.7,1.2-1.5,1.6-2.3l2.3,0.9
	l1.5-4.3l-2.4-0.9C97.9,54.2,98,53.5,98,52.8z M85.4,58.6c-3.2,0-5.8-2.7-5.8-6c0-3.3,2.6-6,5.8-6c3.2,0,5.8,2.7,5.8,6
	C91.2,56,88.6,58.6,85.4,58.6z"/>
<rect x="29.1" y="20.8" class="st3" width="32" height="5.8"/>
<rect x="104" y="20.8" class="st3" width="32" height="5.8"/>
<image style="overflow:visible;" width="3840" height="2160" xlink:href="Vodafone-Logo.png"  transform="matrix(6.677476e-02 0 0 7.012579e-02 -42.6604 3.6038)">
</image>
</svg>
