<?xml version="1.0" encoding="utf-8"?>
<!-- Generator: Adobe Illustrator 25.0.0, SVG Export Plug-In . SVG Version: 6.00 Build 0)  -->
<svg version="1.1" id="Layer_1" xmlns="http://www.w3.org/2000/svg" xmlns:xlink="http://www.w3.org/1999/xlink" x="0px" y="0px"
	 viewBox="0 0 2869 2008" style="enable-background:new 0 0 2869 2008;" xml:space="preserve">
<style type="text/css">
	.st0{clip-path:url(#SVGID_2_);fill:url(#SVGID_3_);}
	.st1{clip-path:url(#SVGID_5_);fill:url(#SVGID_6_);}
	.st2{clip-path:url(#SVGID_8_);fill:url(#SVGID_9_);}
	.st3{clip-path:url(#SVGID_11_);fill:url(#SVGID_12_);}
	.st4{clip-path:url(#SVGID_14_);fill:url(#SVGID_15_);}
	.st5{fill:#41B4E1;}
	.st6{fill:url(#SVGID_16_);}
	.st7{fill:url(#SVGID_17_);}
	.st8{fill:url(#SVGID_18_);}
	.st9{fill:url(#SVGID_19_);}
	.st10{fill:url(#SVGID_20_);}
	.st11{fill:url(#SVGID_21_);}
</style>
<g>
	<g>
		<defs>
			<path id="SVGID_1_" d="M2522.7,644.7c55.5,63.6,89,146.4,89,236.7c0,19.1-1.3,38.2-3.9,57.3v2.5
				c-4.1,250.2-270.8,592-580.4,590.8c-50.3-0.2-98-6.4-143.2-17.8c-89-21.6-168.1-70.5-235.2-129c0,0-23.7-23.3-40.5-36
				c98,113.3,219,202,366,241.4c59.3,15.3,122.5,24.2,188.3,24.2c358.5,0,655.2-276.5,709.4-615c-40-222.7-209.3-400.8-428.5-455.5
				c-34.8-8.9-60.1-13.6-109.2-16.7C2408,546.7,2475,590,2522.7,644.7"/>
		</defs>
		<clipPath id="SVGID_2_">
			<use xlink:href="#SVGID_1_"  style="overflow:visible;"/>
		</clipPath>
		
			<linearGradient id="SVGID_3_" gradientUnits="userSpaceOnUse" x1="1037.2274" y1="1241.2002" x2="1041.0422" y2="1241.2002" gradientTransform="matrix(409.5973 -317.0778 369.3678 351.6122 -881838.6875 -105869.9688)">
			<stop  offset="0" style="stop-color:#FAE417"/>
			<stop  offset="0.5753" style="stop-color:#F9D010"/>
			<stop  offset="1" style="stop-color:#EE9121"/>
		</linearGradient>
		<polygon class="st0" points="2173.7,2155.5 3502.1,1127.2 2304.2,-13.2 975.8,1015.2 		"/>
	</g>
	<g>
		<defs>
			<path id="SVGID_4_" d="M424.3,566.5C205.3,621.3,42.9,804.2,3,1027.1c54.1,338.8,341.6,597.8,699.8,597.8
				c64.4,0,127.6-7.6,188.1-24.2c146.9-39.5,278.2-125.9,370.9-239.2c-73.5,77.7-172.5,136-280.7,162.8
				c-46.4,11.5-94.1,17.8-143,17.8c-320.9,0-579.9-257.3-579.9-573.2v-2.5c-2.6-19.1-3.9-38.2-3.9-57.3
				c0-90.4,33.5-173.2,88.9-236.9c47.7-54.8,117-103.8,190.5-122.9C497.6,551.6,459.1,557.6,424.3,566.5"/>
		</defs>
		<clipPath id="SVGID_5_">
			<use xlink:href="#SVGID_4_"  style="overflow:visible;"/>
		</clipPath>
		
			<linearGradient id="SVGID_6_" gradientUnits="userSpaceOnUse" x1="1037.8948" y1="1239.6385" x2="1041.7096" y2="1239.6385" gradientTransform="matrix(-288.2517 -234.4915 274.4049 -246.3242 -39991.2656 550113.8125)">
			<stop  offset="0" style="stop-color:#FAE417"/>
			<stop  offset="0.4289" style="stop-color:#F9D010"/>
			<stop  offset="1" style="stop-color:#EE9121"/>
		</linearGradient>
		<polygon class="st1" points="1890.5,1060.5 601.4,11.9 -625.7,1113.4 663.4,2162.1 		"/>
	</g>
	<g>
		<defs>
			<path id="SVGID_7_" d="M2172.4,198.5c-0.6,0-1.2,0-1.8,0c-214.8,0-407.8,95.8-539,246l-185.2,198.1l-274,293.9
				c0,0-12.9,14.2-34.7,38.8c-88.8,95.8-365.4,310.7-528.8,310.7c-184,0-326.9-138-355.2-315.3c-8,320.5,267.9,585.9,586.9,585.9
				c50.2,0,97.8-6.5,142.8-18.1c108.1-27.2,204.5-85.4,277.9-164.4c81-82.9,174.9-173.5,174.9-173.5l2.6-2.6l279.8-279.5
				c174.7-182.1,263-274,264.7-275.7c155.4-175.8,433.2-81.8,468-72.7c218.7,55.7,378.1,221.5,418,448c6.4-37.5,9-75.1,9-113.9
				c0-396.4-309.5-705.4-704.3-705.7H2172.4z"/>
		</defs>
		<clipPath id="SVGID_8_">
			<use xlink:href="#SVGID_7_"  style="overflow:visible;"/>
		</clipPath>
		
			<linearGradient id="SVGID_9_" gradientUnits="userSpaceOnUse" x1="1036.4569" y1="1240.1747" x2="1040.2717" y2="1240.1747" gradientTransform="matrix(736.8342 -98.3248 190.0203 381.27 -999339.4375 -369848.1875)">
			<stop  offset="0" style="stop-color:#EE9121"/>
			<stop  offset="0.4722" style="stop-color:#F9D010"/>
			<stop  offset="1" style="stop-color:#FAE417"/>
		</linearGradient>
		<polygon class="st2" points="409.7,1886 3512.7,1471.9 2713.9,-130.8 -389.1,283.2 		"/>
	</g>
	<g>
		<defs>
			<path id="SVGID_10_" d="M1451.9,1183.2l148.8,158.1l2.6,2.6l51.5,51.3l1.3,1.3c69.5,69.7,146.7,108.1,236.8,131.7
				c46.3,11.8,95.8,19.4,144.7,19.4c320.5,0,570.3-281.7,570.3-607.7l0,0c-27,181.4-171.8,327.7-359.8,329
				c-78.5,0-171.2-55.2-258.7-122.3c-95.2-74.9-182.7-165.7-229.1-216.9c-21.9-23.7-26.1-28.2-26.1-28.2L1451.9,1183.2z"/>
		</defs>
		<clipPath id="SVGID_11_">
			<use xlink:href="#SVGID_10_"  style="overflow:visible;"/>
		</clipPath>
		
			<linearGradient id="SVGID_12_" gradientUnits="userSpaceOnUse" x1="1034.8368" y1="1240.3181" x2="1038.6516" y2="1240.3181" gradientTransform="matrix(-248.201 -29.8698 54.7314 -135.4561 191334.75 200182.8438)">
			<stop  offset="0" style="stop-color:#FAE417"/>
			<stop  offset="0.2831" style="stop-color:#F9D010"/>
			<stop  offset="1" style="stop-color:#EE9121"/>
		</linearGradient>
		<polygon class="st3" points="2868.5,934.9 1509.9,771.4 1210.3,1512.9 2568.9,1676.4 		"/>
	</g>
	<g>
		<defs>
			<path id="SVGID_13_" d="M-5.9,914.4c0,38.7,2.6,77.4,9,113.5c39.6-224.3,207.2-404.9,424.6-460.3c34.5-9,70.3-14.2,106.2-16.8
				c30.7-9,62.7-12.9,95.9-12.9c101,0,193.1,41.3,259.6,108.3c2.6,2.6,3.8,3.9,6.4,6.5c33.3,33.5,209.8,211.5,209.8,211.5l55,55.4
				l16.7,13.5l274.1-293.4l-208.9-198.4c-130.5-150.9-322.3-245-535.9-245C312.6,196.3-5.9,517.3-5.9,914.4"/>
		</defs>
		<clipPath id="SVGID_14_">
			<use xlink:href="#SVGID_13_"  style="overflow:visible;"/>
		</clipPath>
		
			<linearGradient id="SVGID_15_" gradientUnits="userSpaceOnUse" x1="1035.0619" y1="1239.2885" x2="1038.8767" y2="1239.2885" gradientTransform="matrix(478.7759 21.0866 -36.9499 273.2281 -450050.2812 -359866.4375)">
			<stop  offset="0" style="stop-color:#FAE417"/>
			<stop  offset="0.4638" style="stop-color:#F9D010"/>
			<stop  offset="0.9995" style="stop-color:#EE9121"/>
			<stop  offset="1" style="stop-color:#EE9121"/>
		</linearGradient>
		<polygon class="st4" points="-117.7,1023 1442.7,1091.7 1563.1,201.2 2.7,132.5 		"/>
	</g>
</g>
<image style="overflow:visible;" width="2000" height="2008" xlink:href="scooter.png"  transform="matrix(1 0 0 1 256.2449 0)">
</image>
<g>
	<circle class="st5" cx="588.6" cy="80" r="46.8"/>
	<radialGradient id="SVGID_16_" cx="588.5894" cy="79.9986" r="28.9174" gradientUnits="userSpaceOnUse">
		<stop  offset="5.592227e-07" style="stop-color:#EE9121"/>
		<stop  offset="4.750061e-04" style="stop-color:#EE9121"/>
		<stop  offset="0.5362" style="stop-color:#F9D010"/>
		<stop  offset="1" style="stop-color:#FAE417"/>
	</radialGradient>
	<circle class="st6" cx="588.6" cy="80" r="28.9"/>
</g>
<g>
	<circle class="st5" cx="629.5" cy="1617.1" r="46.8"/>
	<radialGradient id="SVGID_17_" cx="629.5435" cy="1617.1316" r="28.9174" gradientUnits="userSpaceOnUse">
		<stop  offset="5.592227e-07" style="stop-color:#EE9121"/>
		<stop  offset="4.750061e-04" style="stop-color:#EE9121"/>
		<stop  offset="0.5362" style="stop-color:#F9D010"/>
		<stop  offset="1" style="stop-color:#FAE417"/>
	</radialGradient>
	<circle class="st7" cx="629.5" cy="1617.1" r="28.9"/>
</g>
<g>
	<circle class="st5" cx="896.4" cy="968.5" r="46.8"/>
	<radialGradient id="SVGID_18_" cx="896.4053" cy="968.4724" r="28.9174" gradientUnits="userSpaceOnUse">
		<stop  offset="5.592227e-07" style="stop-color:#EE9121"/>
		<stop  offset="4.750061e-04" style="stop-color:#EE9121"/>
		<stop  offset="0.5362" style="stop-color:#F9D010"/>
		<stop  offset="1" style="stop-color:#FAE417"/>
	</radialGradient>
	<circle class="st8" cx="896.4" cy="968.5" r="28.9"/>
</g>
<g>
	<circle class="st5" cx="1385.2" cy="1462.6" r="46.8"/>
	<radialGradient id="SVGID_19_" cx="1385.2117" cy="1462.5631" r="28.9174" gradientUnits="userSpaceOnUse">
		<stop  offset="5.592227e-07" style="stop-color:#EE9121"/>
		<stop  offset="4.750061e-04" style="stop-color:#EE9121"/>
		<stop  offset="0.5362" style="stop-color:#F9D010"/>
		<stop  offset="1" style="stop-color:#FAE417"/>
	</radialGradient>
	<circle class="st9" cx="1385.2" cy="1462.6" r="28.9"/>
</g>
<g>
	<circle class="st5" cx="2041.8" cy="1500.9" r="46.8"/>
	<radialGradient id="SVGID_20_" cx="2041.7975" cy="1500.8749" r="28.9174" gradientUnits="userSpaceOnUse">
		<stop  offset="5.592227e-07" style="stop-color:#EE9121"/>
		<stop  offset="4.750061e-04" style="stop-color:#EE9121"/>
		<stop  offset="0.5362" style="stop-color:#F9D010"/>
		<stop  offset="1" style="stop-color:#FAE417"/>
	</radialGradient>
	<circle class="st10" cx="2041.8" cy="1500.9" r="28.9"/>
</g>
<g>
	<circle class="st5" cx="1037.8" cy="87.5" r="46.8"/>
	<radialGradient id="SVGID_21_" cx="1037.7628" cy="87.5053" r="28.9174" gradientUnits="userSpaceOnUse">
		<stop  offset="5.592227e-07" style="stop-color:#EE9121"/>
		<stop  offset="4.750061e-04" style="stop-color:#EE9121"/>
		<stop  offset="0.5362" style="stop-color:#F9D010"/>
		<stop  offset="1" style="stop-color:#FAE417"/>
	</radialGradient>
	<circle class="st11" cx="1037.8" cy="87.5" r="28.9"/>
</g>
</svg>
