<?xml version="1.0" encoding="utf-8"?>
<!-- Generator: Adobe Illustrator 25.0.0, SVG Export Plug-In . SVG Version: 6.00 Build 0)  -->
<svg version="1.1" id="Layer_1" xmlns="http://www.w3.org/2000/svg" xmlns:xlink="http://www.w3.org/1999/xlink" x="0px" y="0px"
	 viewBox="0 0 2386 874" style="enable-background:new 0 0 2386 874;" xml:space="preserve">
<style type="text/css">
	.st0{opacity:0.8;}
	.st1{clip-path:url(#SVGID_2_);fill:url(#SVGID_3_);}
	.st2{clip-path:url(#SVGID_5_);fill:url(#SVGID_6_);}
	.st3{clip-path:url(#SVGID_8_);fill:url(#SVGID_9_);}
	.st4{clip-path:url(#SVGID_11_);fill:url(#SVGID_12_);}
	.st5{clip-path:url(#SVGID_11_);fill:url(#SVGID_13_);}
	.st6{clip-path:url(#SVGID_15_);fill:url(#SVGID_16_);}
	.st7{clip-path:url(#SVGID_15_);fill:url(#SVGID_17_);}
	.st8{clip-path:url(#SVGID_15_);fill:url(#SVGID_18_);}
	.st9{fill:#FFFFFF;}
	.st10{fill:#41B4E1;}
	.st11{fill:url(#SVGID_19_);}
	.st12{fill:url(#SVGID_20_);}
	.st13{fill:url(#SVGID_21_);}
	.st14{font-family:'MyriadPro-Regular';}
	.st15{font-size:28px;}
	.st16{font-size:20px;}
	.st17{fill:url(#SVGID_22_);}
	.st18{fill:url(#SVGID_23_);}
	.st19{fill:url(#SVGID_24_);}
</style>
<g id="EmziW7_1_">
	<image style="overflow:visible;" width="2386" height="874" id="EmziW7" xlink:href="FF9E61043B43FC8.jpg" >
	</image>
</g>
<g class="st0">
	<g>
		<defs>
			<path id="SVGID_1_" d="M1625,294.7c22.7,26,36.4,59.8,36.4,96.8c0,7.8-0.5,15.6-1.6,23.4v1c-1.7,102.3-110.7,242-237.2,241.5
				c-20.6-0.1-40.1-2.6-58.5-7.3c-36.4-8.8-68.7-28.8-96.1-52.7c0,0-9.7-9.5-16.5-14.7c40.1,46.3,89.5,82.6,149.6,98.7
				c24.2,6.2,50.1,9.9,77,9.9c146.5,0,267.8-113,289.9-251.4c-16.3-91-85.5-163.8-175.2-186.2c-14.2-3.6-24.6-5.6-44.6-6.8
				C1578.2,254.6,1605.5,272.3,1625,294.7"/>
		</defs>
		<clipPath id="SVGID_2_">
			<use xlink:href="#SVGID_1_"  style="overflow:visible;"/>
		</clipPath>
		
			<linearGradient id="SVGID_3_" gradientUnits="userSpaceOnUse" x1="604.9661" y1="566.8132" x2="606.5253" y2="566.8132" gradientTransform="matrix(409.5973 -317.0778 369.3678 351.6122 -455961.7812 -6763.6094)">
			<stop  offset="0" style="stop-color:#FDE500"/>
			<stop  offset="0.5753" style="stop-color:#FBD100"/>
			<stop  offset="1" style="stop-color:#ED9000"/>
		</linearGradient>
		<path class="st1" d="M1535.7,25.8L992.8,446.1l489.6,466.1l542.9-420.3L1535.7,25.8z M1531.7,707c-2.8,2.8-6.3,3.7-9.7,3.2
			c-0.3,0.1-0.7,0.3-1,0.4c-3.1,1-6.4,0.3-9.2-1.2c-2.6-1.4-4.7-4.4-5.5-7.2c-0.2-0.7-0.3-1.5-0.4-2.2c-0.9-0.6-1.8-1.2-2.8-1.7
			c-2.4-1.4-4.2-2.5-6-3.5c-0.8,0.4-1.5,0.6-2.3,0.8c-1.5,2.8-4.1,4.9-7.3,5.9c-7.9,2.5-20.9,1-25.6-6.5c-7,3.8-14.9,6.2-22.5,7.6
			c-1.8,0.3-3.8,0.5-5.7,0.6c-4.4,1.7-10,0.6-13.2-2.7c-1.1-1.1-1.8-2.2-2.4-3.4c-2,0-4-0.4-5.7-1.2c-0.9,0.6-2,1.4-1.9,1.3
			c-0.2,0.2-0.4,0.4-0.7,0.6c-4,10.7-23,9.1-23.2-4.6c-0.1-8,6.7-13.2,12.7-17.3c2.7-1.9,5.6-3,8.7-4.3c2.7-1.2,7.4-3.3,11.1-4.8
			c1.1-0.4,2.3-0.6,3.5-0.6c1.4-0.4,2.9-0.8,4.5-1.3c7.3-2,14.4-2.9,21.9-3.1c5.8-0.2,13.1,0.1,18.6,1.9c1.6,0.2,3.1,0.5,4.7,0.8
			c3.2,0.5,6.5,0.7,9.7,1.3c3.8,0.7,7.4,2.1,10.7,3.9c2.2-0.6,4.4-0.6,6.5-0.1c1.2,0.2,2.5,0.7,3.6,1.2c3.1,1.5,9.3,5.1,13.7,7.6
			c3.5,2,6.4,4.4,9.4,6.9c1.7,1,3.3,2.2,4.8,3.7c0.4,0.4,0.8,0.9,1.1,1.3C1536.7,694.5,1535.8,702.9,1531.7,707z"/>
	</g>
	<g>
		<defs>
			<path id="SVGID_4_" d="M767.4,262.7c-89.5,22.4-155.9,97.1-172.2,188.3c22.1,138.5,139.6,244.3,286,244.3
				c26.3,0,52.1-3.1,76.9-9.9c60-16.1,113.7-51.4,151.6-97.8c-30,31.8-70.5,55.6-114.7,66.5c-19,4.7-38.4,7.3-58.5,7.3
				c-131.1,0-237-105.2-237-234.3v-1c-1.1-7.8-1.6-15.6-1.6-23.4c0-37,13.7-70.8,36.3-96.8c19.5-22.4,47.8-42.4,77.8-50.3
				C797.3,256.6,781.6,259.1,767.4,262.7"/>
		</defs>
		<clipPath id="SVGID_5_">
			<use xlink:href="#SVGID_4_"  style="overflow:visible;"/>
		</clipPath>
		
			<linearGradient id="SVGID_6_" gradientUnits="userSpaceOnUse" x1="604.4519" y1="566.4971" x2="606.0111" y2="566.4971" gradientTransform="matrix(-288.2517 -234.4915 274.4049 -246.3242 19786.0215 281877.375)">
			<stop  offset="0" style="stop-color:#FDE500"/>
			<stop  offset="0.4289" style="stop-color:#FBD100"/>
			<stop  offset="1" style="stop-color:#ED9000"/>
		</linearGradient>
		<path class="st2" d="M1023.6,185.6c-0.3,0.1-0.7,0.1-1,0.1c-3.4,10.5-5.7,21.3-8.7,31.9c-3.6,12.7-8.2,24.9-11.1,37.8
			c-0.9,4-1.6,8.1-2.4,12.1c0.8-0.5,1.6-0.9,2.5-1.3c1-0.5,1.9-0.9,2.9-1.4c0.2-0.1,0.4-0.2,0.5-0.3c0,0,0.1,0,0.1-0.1c0,0,0,0,0,0
			c0.5-1,1.7-1.4,2.7-1.2c1.1,0.2,1.7,1.3,1.7,2.4c1,0.9,0.8,2.4,0,3.3c-1.7,2.1-4,3.8-6.2,5.3c-1.8,1.3-3.9,2.8-6.1,3.3
			c-1.2,5.1-3,10-4,15.2c-1.1,5.5-2,11.1-3.9,16.4c-0.2,0.5-0.4,1-0.5,1.5c0,0,0,0,0,0c-0.2,1.5-0.7,3-1.1,4.4c0,0,0,0,0,0
			c0,0.1-0.1,0.2-0.1,0.3c-0.2,1.2-0.5,2.2-1,3.3c-0.3,1.1-0.5,2.3-0.5,3.4c0,0.7-0.2,1.3-0.4,1.8c0,0.2,0,0.4,0,0.6c0,0,0,0,0,0
			c0,0,0,0,0,0c-0.1,0.4-0.1,0.9-0.2,1.3c-0.4,2.7-2.3,3.7-4.3,3.6c-0.1,0.1-0.2,0.2-0.3,0.4c-2.3,2.7-6.5,1.4-8-1.4
			c-2.6-0.5-4.9-2.8-4.1-6.1c0.2-0.6,0.3-1.2,0.5-1.8c-1.1-0.8-1.9-2.1-1.7-3.9c0.1-0.7,0.2-1.5,0.3-2.3c-0.9-0.8-1.4-1.9-1.5-3.2
			c-0.5-0.7-0.9-1.6-0.9-2.5c-1.5,4.4-2.9,8.7-4.3,13.1c-1.6,5.2-10.2,4.5-9.8-1.3c1-15,7.4-29.4,11.6-43.8
			c2.1-7.2,3.8-14.4,6.4-21.5c0.9-2.5,1.9-5.1,2.8-7.7c-1.7-3.7-0.2-7.8,1.5-11.8c0.2-0.4,0.4-0.7,0.6-1c-1.7-0.9-2.9-2.8-2.2-5.5
			c1.1-4.2,3-8.1,4.2-12.3c1.2-4.2,2.1-8.5,3.3-12.8c1.3-4.2,3-8.3,4.6-12.4c0.9-4.3,2.2-8.5,3.9-12.7c-1.8,1.4-3.5,2.9-5.3,4.4
			c-8.3,7.3-15.5,15.8-22.7,24.2c-5,5.9-11.6,16.3-20.4,16.3c-7,0-12-5.4-17.9-8.1c-1.6,0.1-3.3-0.5-4.5-2.2
			c-0.4-0.6-0.7-1.3-0.9-2.1c-0.1-0.5-0.2-0.9-0.2-1.4c-0.3-1.5,0-3.1,1.3-4.3c0.1-0.1,0.1-0.1,0.2-0.2c0.3-0.3,0.7-0.6,1.1-0.8
			c2.4-1.9,3.8-5.1,5.6-7.6c1.9-2.7,4.2-4.8,6.7-7c5.8-5,11.2-10.3,16.6-15.8c7.8-7.9,15.8-15.8,23.4-23.9c-0.8-1.2-1.3-2.6-1.2-4
			c-4,0.1-7-1.9-10.2-5.1c-0.8-0.8-1.2-1.7-1.3-2.7c-5.6-0.4-11.1-0.8-16.6-2.5c-5-1.6-7.1-6-12.1-7.1c-6-1.4-11.6-3.9-17.6-5.2
			c-4.8-1-9.1-1.7-13-4.8c-0.1-0.1-0.3-0.2-0.4-0.4c-1.4-0.3-2.8-0.9-4-2.5c-2.4-3.1-1.6-7,2.2-8.4c1.8-0.7,3.7-0.9,5.7-0.9
			c0.4-0.3,0.8-0.6,1.3-0.8c0.6-0.6,1.2-1,2-1.2c1-0.2,1.9-0.4,2.9-0.4c0.2,0,0.5,0,0.7,0c0.6-0.2,1.1-0.4,1.7-0.5
			c2.7-0.4,4.8,1.1,5.7,3.1c1.5,0.9,2.6,2.2,2.8,3.8c2,1,4.1,1.7,6.5,1.8c2.8,0.1,5.9,0.3,8.4,1.8c1.7,1.1,1.9,2,3,1.9L839.8,36
			L338.2,486.3l526.9,428.6l501.6-450.2L1023.6,185.6z M980.7,706.9c-2.9-3-5.7-6-8.5-9.1c0.2,0.3,0.4,0.6,0.5,0.9
			c7.9,13.3-12.8,25.3-20.7,12.1c-7.3-12.2-15.6-23.6-24.1-35c-2.3-3-4.7-6-6.7-9.2c-1.9-2.8-3-6-4.9-8.7c-1-1.4-1.9-2.8-2.9-4.2
			c-0.1,0.2-0.1,0.4-0.2,0.5c-0.5,1.8-0.8,3.6-1.1,5.5c-0.7,4.5-1.4,9.1-1.5,13.6c0.5,1.2,0.8,2.6,0.8,4.2c0,0.6,0.1,1.1,0.1,1.7
			c0.6,7.6,4.1,15.3,5,22.9c0.8,6.5-6.1,12-12,12c-2.6,0-4.8-0.7-6.5-2c-1.7-0.7-3.2-1.8-4.3-3.3c-0.5,0.1-1,0.3-1.6,0.3
			c-1.7,0.3-3.5,0.1-5.2-0.4c-1.3,0.3-2.7,0.4-4,0.3c-3,2.7-7.1,4-11.3,2.9c-1-0.3-2.1-0.8-3.1-1.4c-2.3-0.2-4.5-1-6.3-2.1
			c0,1.9-0.5,3.8-1.4,5.6c0,3.6-1.7,7.3-5.8,9.6c-0.5,0.3-1.1,0.6-1.7,0.8c-5.2,2.2-10.5,1.3-13.9-1.7c-1.1-0.4-2.3-1-3.4-1.8
			c-5.5-3.9-6.1-9.2-4.7-14.6c0-0.3,0-0.6,0-0.9c0.6-6.4,3.4-11.1,8.4-15c2.2-1.7,4.5-3.4,6.8-4.9c0.1-0.1,0.3-0.2,0.4-0.3
			c0.1-0.4,0.1-0.8,0.2-1.1c1.2-6.8,6.5-11.1,10.7-16.4c3-3.8,5.9-12.7,5.1-17.4c-0.5-3.3-3.6-6.5-3.8-10.7c-0.1-2.9,0.5-5.6,1.7-8
			c0.2-0.9,0.4-1.7,0.6-2.6c0.2-0.6,0.6-1.5,1-2.3c0.6-4.9,1.8-9.6,2.9-14.3c1.4-5.6,1.9-11.4,2.8-17.1c0.9-5.7,1.8-11.3,5-16.3
			c2.6-4.1,6-7.5,9.3-10.9c0.1-4.5,1-9.1,2.5-13.3c0.3-0.8,0.6-1.6,0.9-2.3c0.3-3.2,1.1-6.2,2.8-9c0.2-0.3,0.4-0.6,0.6-0.9
			c1.9-3.6,4.9-6.4,8.7-7.1c1-2.8,2.3-5.2,4.3-7.5c0.5-0.5,1-1,1.4-1.5c0-0.1,0.5-0.7,0.6-0.9c1.6-2.9,4.2-4.7,7.1-5.4
			c0.4-0.7,0.8-1.3,1.1-2c1-1.8,2.4-3.2,4.2-4.2c6.6-6.3,20.7-3.6,20.6,8.2c0,4.6,1.2,7.8,2.2,12.3c1.2,5.7,1.2,11.2-0.6,16.7
			c-3.3,10.3-5.7,20.9-9.1,31.1c-0.2,0.5-0.3,0.9-0.6,1.4c-1.1,5.7-2.7,11.2-3.7,16.9c4.1,5.9,7.7,12.2,11.8,18.1
			c0.5,0.7,1,1.3,1.5,2c0.1,0.1,0.1,0.2,0.2,0.2c1.2,1.6,2.5,3.1,3.7,4.7c0.5,0.6,0.9,1.1,1.4,1.6c2.9,1.2,5.3,3.6,6.4,7.2
			c0.9,1,1.8,1.9,2.8,2.9c1,1,1.7,2.1,2.3,3.1c2.4,2.9,4.8,5.8,7,8.8c10.7,14.4,22.2,27.8,34.6,40.8
			C1008.3,701.1,991.4,718,980.7,706.9z"/>
	</g>
	<g>
		<defs>
			<path id="SVGID_7_" d="M1481.9,112.3c-0.2,0-0.5,0-0.7,0c-87.8,0-166.7,39.2-220.3,100.5l-75.7,81l-112,120.1
				c0,0-5.3,5.8-14.2,15.9c-36.3,39.2-149.4,127-216.1,127c-75.2,0-133.6-56.4-145.2-128.9c-3.3,131,109.5,239.5,239.9,239.5
				c20.5,0,40-2.6,58.4-7.4c44.2-11.1,83.6-34.9,113.6-67.2c33.1-33.9,71.5-70.9,71.5-70.9l1.1-1.1l114.3-114.2
				c71.4-74.4,107.5-112,108.2-112.7c63.5-71.8,177.1-33.4,191.3-29.7c89.4,22.8,154.5,90.5,170.8,183.1c2.6-15.3,3.7-30.7,3.7-46.6
				c0-162-126.5-288.3-287.9-288.4H1481.9z"/>
		</defs>
		<clipPath id="SVGID_8_">
			<use xlink:href="#SVGID_7_"  style="overflow:visible;"/>
		</clipPath>
		
			<linearGradient id="SVGID_9_" gradientUnits="userSpaceOnUse" x1="604.8357" y1="566.5279" x2="606.395" y2="566.5279" gradientTransform="matrix(736.8342 -98.3248 190.0203 381.27 -552715.0625 -156055.5938)">
			<stop  offset="0" style="stop-color:#ED9000"/>
			<stop  offset="0.4722" style="stop-color:#FBD100"/>
			<stop  offset="1" style="stop-color:#FDE500"/>
		</linearGradient>
		<path class="st3" d="M2029.7,632.8L1703.2-22.3L434.9,146.9L761.4,802l745-99.4c0-0.1-0.1-0.2-0.1-0.3c-0.2-0.7-0.3-1.5-0.4-2.2
			c-0.9-0.6-1.8-1.2-2.8-1.7c-2.4-1.4-4.2-2.5-6-3.5c-0.8,0.4-1.5,0.6-2.3,0.8c-1.5,2.8-4.1,4.9-7.3,5.9c-7.9,2.5-20.9,1-25.6-6.5
			c-7,3.8-14.9,6.2-22.5,7.6c-1.8,0.3-3.8,0.5-5.7,0.6c-4.4,1.7-10,0.6-13.2-2.7c-1.1-1.1-1.8-2.2-2.4-3.4c-2,0-4-0.4-5.7-1.2
			c-0.9,0.6-2,1.4-1.9,1.3c-0.2,0.2-0.4,0.4-0.7,0.6c-4,10.7-23,9.1-23.2-4.6c-0.1-8,6.7-13.2,12.7-17.3c2.7-1.9,5.6-3,8.7-4.3
			c2.7-1.2,7.4-3.3,11.1-4.8c1.1-0.4,2.3-0.6,3.5-0.6c1.4-0.4,2.9-0.8,4.5-1.3c7.3-2,14.4-2.9,21.9-3.1c5.8-0.2,13.1,0.1,18.6,1.9
			c1.6,0.2,3.1,0.5,4.7,0.8c3.2,0.5,6.5,0.7,9.7,1.3c3.8,0.7,7.4,2.1,10.7,3.9c2.2-0.6,4.4-0.6,6.5-0.1c1.2,0.2,2.5,0.7,3.6,1.2
			c3.1,1.5,9.3,5.1,13.7,7.6c3.5,2,6.4,4.4,9.4,6.9c1.7,1,3.3,2.2,4.8,3.7c0.4,0.4,0.8,0.9,1.1,1.3c2.4,2.1,3.4,5.3,3.2,8.4
			L2029.7,632.8z M980.7,706.9c-2.9-3-5.7-6-8.5-9.1c0.2,0.3,0.4,0.6,0.5,0.9c7.9,13.3-12.8,25.3-20.7,12.1
			c-7.3-12.2-15.6-23.6-24.1-35c-2.3-3-4.7-6-6.7-9.2c-1.9-2.8-3-6-4.9-8.7c-1-1.4-1.9-2.8-2.9-4.2c-0.1,0.2-0.1,0.4-0.2,0.5
			c-0.5,1.8-0.8,3.6-1.1,5.5c-0.7,4.5-1.4,9.1-1.5,13.6c0.5,1.2,0.8,2.6,0.8,4.2c0,0.6,0.1,1.1,0.1,1.7c0.6,7.6,4.1,15.3,5,22.9
			c0.8,6.5-6.1,12-12,12c-2.6,0-4.8-0.7-6.5-2c-1.7-0.7-3.2-1.8-4.3-3.3c-0.5,0.1-1,0.3-1.6,0.3c-1.7,0.3-3.5,0.1-5.2-0.4
			c-1.3,0.3-2.7,0.4-4,0.3c-3,2.7-7.1,4-11.3,2.9c-1-0.3-2.1-0.8-3.1-1.4c-2.3-0.2-4.5-1-6.3-2.1c0,1.9-0.5,3.8-1.4,5.6
			c0,3.6-1.7,7.3-5.8,9.6c-0.5,0.3-1.1,0.6-1.7,0.8c-5.2,2.2-10.5,1.3-13.9-1.7c-1.1-0.4-2.3-1-3.4-1.8c-5.5-3.9-6.1-9.2-4.7-14.6
			c0-0.3,0-0.6,0-0.9c0.6-6.4,3.4-11.1,8.4-15c2.2-1.7,4.5-3.4,6.8-4.9c0.1-0.1,0.3-0.2,0.4-0.3c0.1-0.4,0.1-0.8,0.2-1.1
			c1.2-6.8,6.5-11.1,10.7-16.4c3-3.8,5.9-12.7,5.1-17.4c-0.5-3.3-3.6-6.5-3.8-10.7c-0.1-2.9,0.5-5.6,1.7-8c0.2-0.9,0.4-1.7,0.6-2.6
			c0.2-0.6,0.6-1.5,1-2.3c0.6-4.9,1.8-9.6,2.9-14.3c1.4-5.6,1.9-11.4,2.8-17.1c0.9-5.7,1.8-11.3,5-16.3c2.6-4.1,6-7.5,9.3-10.9
			c0.1-4.5,1-9.1,2.5-13.3c0.3-0.8,0.6-1.6,0.9-2.3c0.3-3.2,1.1-6.2,2.8-9c0.2-0.3,0.4-0.6,0.6-0.9c1.9-3.6,4.9-6.4,8.7-7.1
			c1-2.8,2.3-5.2,4.3-7.5c0.5-0.5,1-1,1.4-1.5c0-0.1,0.5-0.7,0.6-0.9c1.6-2.9,4.2-4.7,7.1-5.4c0.4-0.7,0.8-1.3,1.1-2
			c1-1.8,2.4-3.2,4.2-4.2c6.6-6.3,20.7-3.6,20.6,8.2c0,4.6,1.2,7.8,2.2,12.3c1.2,5.7,1.2,11.2-0.6,16.7c-3.3,10.3-5.7,20.9-9.1,31.1
			c-0.2,0.5-0.3,0.9-0.6,1.4c-1.1,5.7-2.7,11.2-3.7,16.9c4.1,5.9,7.7,12.2,11.8,18.1c0.5,0.7,1,1.3,1.5,2c0.1,0.1,0.1,0.2,0.2,0.2
			c1.2,1.6,2.5,3.1,3.7,4.7c0.5,0.6,0.9,1.1,1.4,1.6c2.9,1.2,5.3,3.6,6.4,7.2c0.9,1,1.8,1.9,2.8,2.9c1,1,1.7,2.1,2.3,3.1
			c2.4,2.9,4.8,5.8,7,8.8c10.7,14.4,22.2,27.8,34.6,40.8C1008.3,701.1,991.4,718,980.7,706.9z M1067.7,173.6
			c-0.9-0.2-1.9-0.4-2.8-0.6c-4.8-1-9.5-1.8-14-4c-0.6-0.3-1.1-0.7-1.5-1.1c-0.1,0-0.2-0.1-0.3-0.1c-2.1-0.6-4.1-1.2-6-2
			c-4,0.7-8.3,1-12,0.1c-1.1,1.2-2.7,2.1-4.9,2.6c-1.7,0.3-3.1,0.2-4.3-0.3c-0.1,0.1-0.1,0.1-0.2,0.2c0,0.1,0.1,0.2,0.1,0.3
			c0.1,0.5,0.1,1,0.2,1.5c0.7,0.4,1.3,0.9,1.9,1.6c1.6,1.9,2.1,4.3,3.1,6.5c1.8,3.9-1.3,7.4-4.5,7.5c-3.4,10.5-5.7,21.3-8.7,31.9
			c-3.6,12.7-8.2,24.9-11.1,37.8c-0.9,4-1.6,8.1-2.4,12.1c0.8-0.5,1.6-0.9,2.5-1.3c1-0.5,1.9-0.9,2.9-1.4c0.2-0.1,0.4-0.2,0.5-0.3
			c0,0,0.1,0,0.1-0.1c0,0,0,0,0,0c0.5-1,1.7-1.4,2.7-1.2c1.1,0.2,1.7,1.3,1.7,2.4c1,0.9,0.8,2.4,0,3.3c-1.7,2.1-4,3.8-6.2,5.3
			c-1.8,1.3-3.9,2.8-6.1,3.3c-1.2,5.1-3,10-4,15.2c-1.1,5.5-2,11.1-3.9,16.4c-0.2,0.5-0.4,1-0.5,1.5c0,0,0,0,0,0
			c-0.2,1.5-0.7,3-1.1,4.4c0,0,0,0,0,0c0,0.1-0.1,0.2-0.1,0.3c-0.2,1.2-0.5,2.2-1,3.3c-0.3,1.1-0.5,2.3-0.5,3.4
			c0,0.7-0.2,1.3-0.4,1.8c0,0.2,0,0.4,0,0.6c0,0,0,0,0,0c0,0,0,0,0,0c-0.1,0.4-0.1,0.9-0.2,1.3c-0.4,2.7-2.3,3.7-4.3,3.6
			c-0.1,0.1-0.2,0.2-0.3,0.4c-2.3,2.7-6.5,1.4-8-1.4c-2.6-0.5-4.9-2.8-4.1-6.1c0.2-0.6,0.3-1.2,0.5-1.8c-1.1-0.8-1.9-2.1-1.7-3.9
			c0.1-0.7,0.2-1.5,0.3-2.3c-0.9-0.8-1.4-1.9-1.5-3.2c-0.5-0.7-0.9-1.6-0.9-2.5c-1.5,4.4-2.9,8.7-4.3,13.1
			c-1.6,5.2-10.2,4.5-9.8-1.3c1-15,7.4-29.4,11.6-43.8c2.1-7.2,3.8-14.4,6.4-21.5c0.9-2.5,1.9-5.1,2.8-7.7
			c-1.7-3.7-0.2-7.8,1.5-11.8c0.2-0.4,0.4-0.7,0.6-1c-1.7-0.9-2.9-2.8-2.2-5.5c1.1-4.2,3-8.1,4.2-12.3c1.2-4.2,2.1-8.5,3.3-12.8
			c1.3-4.2,3-8.3,4.6-12.4c0.9-4.3,2.2-8.5,3.9-12.7c-1.8,1.4-3.5,2.9-5.3,4.4c-8.3,7.3-15.5,15.8-22.7,24.2
			c-5,5.9-11.6,16.3-20.4,16.3c-7,0-12-5.4-17.9-8.1c-1.6,0.1-3.3-0.5-4.5-2.2c-0.4-0.6-0.7-1.3-0.9-2.1c-0.1-0.5-0.2-0.9-0.2-1.4
			c-0.3-1.5,0-3.1,1.3-4.3c0.1-0.1,0.1-0.1,0.2-0.2c0.3-0.3,0.7-0.6,1.1-0.8c2.4-1.9,3.8-5.1,5.6-7.6c1.9-2.7,4.2-4.8,6.7-7
			c5.8-5,11.2-10.3,16.6-15.8c7.8-7.9,15.8-15.8,23.4-23.9c-0.8-1.2-1.3-2.6-1.2-4c-4,0.1-7-1.9-10.2-5.1c-0.8-0.8-1.2-1.7-1.3-2.7
			c-5.6-0.4-11.1-0.8-16.6-2.5c-5-1.6-7.1-6-12.1-7.1c-6-1.4-11.6-3.9-17.6-5.2c-4.8-1-9.1-1.7-13-4.8c-0.1-0.1-0.3-0.2-0.4-0.4
			c-1.4-0.3-2.8-0.9-4-2.5c-2.4-3.1-1.6-7,2.2-8.4c1.8-0.7,3.7-0.9,5.7-0.9c0.4-0.3,0.8-0.6,1.3-0.8c0.6-0.6,1.2-1,2-1.2
			c1-0.2,1.9-0.4,2.9-0.4c0.2,0,0.5,0,0.7,0c0.6-0.2,1.1-0.4,1.7-0.5c2.7-0.4,4.8,1.1,5.7,3.1c1.5,0.9,2.6,2.2,2.8,3.8
			c2,1,4.1,1.7,6.5,1.8c2.8,0.1,5.9,0.3,8.4,1.8c2.3,1.4,1.8,2.5,4.4,1.4c1.9-0.8,4.8,0.5,5.6,2.3c0.2,0.4,0.3,0.6,0.5,0.9
			c0.2-0.1,0.4-0.3,0.5-0.3c1.9-1.6,5.5-2.1,7.3,0c0.3,0.2,0.6,0.4,0.8,0.6c1.6-2.9,5.3-3.5,7.6-1.9c1.4-0.8,3.1-0.9,4.7,0.2
			c0.4,0.3,0.7,0.5,1,0.8l0,0c0,0,0.1,0.1,0.1,0.1c0.4,0.4,0.8,0.8,1.2,1.2c2.1-2.1,5.8-2.3,7.8,0.8c0.5,0.7,1.4,3.5,2.3,5.9
			c0.8-0.7,1.8-1.2,2.8-1.6c5-1.6,6.8,2.6,10.9,3.7c2.8,0.8,3.8,3.2,3.5,5.5c0.1,0.1,0.1,0.1,0.2,0.2c2.5-0.2,5,0.3,7.3,1.5
			c3.4,0.3,6.7,1.8,9.3,3.8c2.3,0.8,4.5,2.1,6.1,3.8c0.2,0.2,0.4,0.5,0.6,0.8c1.7,0.6,3.3,1.6,4.5,2.8c1.7-0.1,3.2-0.4,4.5-1.1
			c2.2-1.3,4.3-0.8,5.7,0.6c1.2-0.1,2.5,0.3,3.7,1.3c0.4,0.4,0.9,0.8,1.3,1.1c0.1,0,0.3,0,0.4,0c2.4,0.3,4.5,1.7,4.9,4.1
			c0.7,0.5,1.3,1,2,1.5c0.4-0.1,0.8-0.2,1.3-0.3c3.6-0.9,6,1.8,6.2,4.7c0.4,0.1,0.7,0.2,1,0.3c4.2,1.5,8.4,3.2,12.7,4.3
			c0.7,0.1,1.4,0.3,2.2,0.5C1076.6,165.6,1073.9,174.8,1067.7,173.6z"/>
	</g>
	<g>
		<defs>
			<path id="SVGID_10_" d="M1187.4,514.8l60.8,64.6l1.1,1.1l21,21l0.5,0.5c28.4,28.5,60,44.2,96.8,53.8c18.9,4.8,39.1,7.9,59.1,7.9
				c131,0,233.1-115.1,233.1-248.4l0,0c-11,74.2-70.2,134-147,134.5c-32.1,0-70-22.6-105.7-50c-38.9-30.6-74.7-67.7-93.6-88.7
				c-8.9-9.7-10.7-11.5-10.7-11.5L1187.4,514.8z"/>
		</defs>
		<clipPath id="SVGID_11_">
			<use xlink:href="#SVGID_10_"  style="overflow:visible;"/>
		</clipPath>
		
			<linearGradient id="SVGID_12_" gradientUnits="userSpaceOnUse" x1="603.4695" y1="565.0513" x2="605.0288" y2="565.0513" gradientTransform="matrix(-248.201 -29.8698 54.7314 -135.4561 120358.4766 95262.5781)">
			<stop  offset="0" style="stop-color:#FDE500"/>
			<stop  offset="0.2831" style="stop-color:#FBD100"/>
			<stop  offset="1" style="stop-color:#ED9000"/>
		</linearGradient>
		<path class="st4" d="M1497.2,694.9c-0.8,0.4-1.5,0.6-2.3,0.8c-0.5,0.9-1.2,1.8-1.9,2.6l12.3,1.5c-0.7-0.5-1.4-0.9-2.2-1.3
			C1500.7,697,1499,695.9,1497.2,694.9z"/>
		
			<linearGradient id="SVGID_13_" gradientUnits="userSpaceOnUse" x1="603.4695" y1="566.1564" x2="605.0288" y2="566.1564" gradientTransform="matrix(-248.201 -29.8698 54.7314 -135.4561 120358.4766 95262.5781)">
			<stop  offset="0" style="stop-color:#FDE500"/>
			<stop  offset="0.2831" style="stop-color:#FBD100"/>
			<stop  offset="1" style="stop-color:#ED9000"/>
		</linearGradient>
		<path class="st5" d="M1211.1,346.5l-122.5,303.1l300.4,36.2c2.5-4,6.7-7.2,10.5-9.8c2.7-1.9,5.6-3,8.7-4.3
			c2.7-1.2,7.4-3.3,11.1-4.8c1.1-0.4,2.3-0.6,3.5-0.6c1.4-0.4,2.9-0.8,4.5-1.3c7.3-2,14.4-2.9,21.9-3.1c5.8-0.2,13.1,0.1,18.6,1.9
			c1.6,0.2,3.1,0.5,4.7,0.8c3.2,0.5,6.5,0.7,9.7,1.3c3.8,0.7,7.4,2.1,10.7,3.9c2.2-0.6,4.4-0.6,6.5-0.1c1.2,0.2,2.5,0.7,3.6,1.2
			c3.1,1.5,9.3,5.1,13.7,7.6c3.5,2,6.4,4.4,9.4,6.9c1.7,1,3.3,2.2,4.8,3.7c0.4,0.4,0.8,0.9,1.1,1.3c3.6,3.1,4,8.5,2.3,12.8
			l109.7,13.2l122.5-303.1L1211.1,346.5z"/>
	</g>
	<g>
		<defs>
			<path id="SVGID_14_" d="M591.5,404.9c0,15.8,1,31.6,3.7,46.4c16.2-91.7,84.7-165.5,173.6-188.1c14.1-3.7,28.8-5.8,43.4-6.9
				c12.5-3.7,25.6-5.3,39.2-5.3c41.3,0,78.9,16.9,106.1,44.3c1,1.1,1.6,1.6,2.6,2.6c13.6,13.7,85.7,86.4,85.7,86.4l22.5,22.7
				l6.8,5.5l112-119.9l-85.4-81.1c-53.3-61.7-131.7-100.1-219-100.1C721.7,111.4,591.5,242.6,591.5,404.9"/>
		</defs>
		<clipPath id="SVGID_15_">
			<use xlink:href="#SVGID_14_"  style="overflow:visible;"/>
		</clipPath>
		
			<linearGradient id="SVGID_16_" gradientUnits="userSpaceOnUse" x1="604.7653" y1="565.993" x2="606.3245" y2="565.993" gradientTransform="matrix(478.7759 21.0866 -36.9499 273.2281 -268142.4062 -167218.9062)">
			<stop  offset="0" style="stop-color:#FDE500"/>
			<stop  offset="0.4638" style="stop-color:#FBD100"/>
			<stop  offset="0.9995" style="stop-color:#ED9000"/>
			<stop  offset="1" style="stop-color:#ED9000"/>
		</linearGradient>
		<path class="st6" d="M962.9,205.8c0,0.1,0.1,0.1,0.1,0.1c0.2,0.3,0.3,0.8,0.3,1.2c0.1,0,0.4,0.6,0.5,0.7c0.2,0.3,0.5,0.6,0.7,0.9
			c0.6,0.8,1.3,1.5,2,2.2c1.5,1.4,2.8,2.9,4,4.5c1.7,2.1,3.4,4.2,5.2,6.3c0.6-1.6,1.2-3.2,1.7-4.8c1.2-4.2,2.1-8.5,3.3-12.8
			c1.3-4.2,3-8.3,4.6-12.4c0.9-4.3,2.2-8.5,3.9-12.7c-1.8,1.4-3.5,2.9-5.3,4.4C976.3,190.2,969.6,198,962.9,205.8z"/>
		
			<linearGradient id="SVGID_17_" gradientUnits="userSpaceOnUse" x1="604.7653" y1="565.8757" x2="606.3245" y2="565.8757" gradientTransform="matrix(478.7759 21.0866 -36.9499 273.2281 -268142.4062 -167218.9062)">
			<stop  offset="0" style="stop-color:#FDE500"/>
			<stop  offset="0.4638" style="stop-color:#FBD100"/>
			<stop  offset="0.9995" style="stop-color:#ED9000"/>
			<stop  offset="1" style="stop-color:#ED9000"/>
		</linearGradient>
		<path class="st7" d="M949.1,151.8c-3.2-0.4-6.4-0.3-9.5,0.2c-1.3,0.2-2.9,0.6-3.9,1.4c-0.3,0.3-0.6,0.6-0.9,0.9
			c0,0.1-0.1,0.2-0.1,0.3c-0.2,0.5-0.6,1-0.8,1.6c-0.2,0.6-0.3,1.2-0.4,1.8c-0.2,1.3-0.4,2.7-0.5,4c-0.1,2.9,1,5.3,1.9,8
			c0.9,2.6,2,5.1,3.6,7.4c1,1.4,2.1,2.6,3.3,3.9c2.3-2.3,4.6-4.6,6.9-6.9c5.9-6,11.9-11.9,17.7-18
			C960.8,154.4,955,152.6,949.1,151.8z"/>
		
			<linearGradient id="SVGID_18_" gradientUnits="userSpaceOnUse" x1="604.7653" y1="566.3026" x2="606.3245" y2="566.3026" gradientTransform="matrix(478.7759 21.0866 -36.9499 273.2281 -268142.4062 -167218.9062)">
			<stop  offset="0" style="stop-color:#FDE500"/>
			<stop  offset="0.4638" style="stop-color:#FBD100"/>
			<stop  offset="0.9995" style="stop-color:#ED9000"/>
			<stop  offset="1" style="stop-color:#ED9000"/>
		</linearGradient>
		<path class="st8" d="M595,85.3l-49.2,364l637.8,28.1l49.2-364L595,85.3z M1067.7,173.6c-0.9-0.2-1.9-0.4-2.8-0.6
			c-4.8-1-9.5-1.8-14-4c-0.6-0.3-1.1-0.7-1.5-1.1c-0.1,0-0.2-0.1-0.3-0.1c-2.1-0.6-4.1-1.2-6-2c-4,0.7-8.3,1-12,0.1
			c-1.1,1.2-2.7,2.1-4.9,2.6c-1.7,0.3-3.1,0.2-4.3-0.3c-0.1,0.1-0.1,0.1-0.2,0.2c0,0.1,0.1,0.2,0.1,0.3c0.1,0.5,0.1,1,0.2,1.5
			c0.7,0.4,1.3,0.9,1.9,1.6c1.6,1.9,2.1,4.3,3.1,6.5c1.8,3.9-1.3,7.4-4.5,7.5c-3.4,10.5-5.7,21.3-8.7,31.9
			c-3.6,12.7-8.2,24.9-11.1,37.8c-0.9,4-1.6,8.1-2.4,12.1c0.8-0.5,1.6-0.9,2.5-1.3c1-0.5,1.9-0.9,2.9-1.4c0.2-0.1,0.4-0.2,0.5-0.3
			c0,0,0.1,0,0.1-0.1c0,0,0,0,0,0c0.5-1,1.7-1.4,2.7-1.2c1.1,0.2,1.7,1.3,1.7,2.4c1,0.9,0.8,2.4,0,3.3c-1.7,2.1-4,3.8-6.2,5.3
			c-1.8,1.3-3.9,2.8-6.1,3.3c-1.2,5.1-3,10-4,15.2c-1.1,5.5-2,11.1-3.9,16.4c-0.2,0.5-0.4,1-0.5,1.5c0,0,0,0,0,0
			c-0.2,1.5-0.7,3-1.1,4.4c0,0,0,0,0,0c0,0.1-0.1,0.2-0.1,0.3c-0.2,1.2-0.5,2.2-1,3.3c-0.3,1.1-0.5,2.3-0.5,3.4
			c0,0.7-0.2,1.3-0.4,1.8c0,0.2,0,0.4,0,0.6c0,0,0,0,0,0c0,0,0,0,0,0c-0.1,0.4-0.1,0.9-0.2,1.3c-0.4,2.7-2.3,3.7-4.3,3.6
			c-0.1,0.1-0.2,0.2-0.3,0.4c-2.3,2.7-6.5,1.4-8-1.4c-2.6-0.5-4.9-2.8-4.1-6.1c0.2-0.6,0.3-1.2,0.5-1.8c-1.1-0.8-1.9-2.1-1.7-3.9
			c0.1-0.7,0.2-1.5,0.3-2.3c-0.9-0.8-1.4-1.9-1.5-3.2c-0.5-0.7-0.9-1.6-0.9-2.5c-1.5,4.4-2.9,8.7-4.3,13.1
			c-1.6,5.2-10.2,4.5-9.8-1.3c1-15,7.4-29.4,11.6-43.8c2.1-7.2,3.8-14.4,6.4-21.5c0.9-2.5,1.9-5.1,2.8-7.7
			c-1.7-3.7-0.2-7.8,1.5-11.8c0.2-0.4,0.4-0.7,0.6-1c-1.7-0.9-2.9-2.8-2.2-5.5c0.2-0.8,0.4-1.6,0.7-2.3c-2.5-2.9-5-5.9-7.4-8.9
			c-1.4-1.8-3.1-3.3-4.6-4.9c-0.9-1-1.8-2-2.4-3.2c-5.2,6.2-13.3,15.4-18.6,14.2c-6.1-1.5-12-5.4-17.9-8.1c-1.6,0.1-3.3-0.5-4.5-2.2
			c-0.4-0.6-0.7-1.3-0.9-2.1c-0.1-0.5-0.2-0.9-0.2-1.4c-0.3-1.5,0-3.1,1.3-4.3c0.1-0.1,0.1-0.1,0.2-0.2c0.3-0.3,0.7-0.6,1.1-0.8
			c2.4-1.9,3.8-5.1,5.6-7.6c1.9-2.7,4.2-4.8,6.7-7c2.1-1.8,4.2-3.7,6.2-5.6c-1.4-1.6-2.8-3.2-4.1-4.9c-1.9-2.7-3.1-5.7-4.1-8.8
			c-0.5-1.5-1.2-3.1-1.6-4.7c-0.4-1.6-0.4-3.4-0.3-5c0.1-1.6,0.3-3.2,0.6-4.8c0.1-0.3,0.2-0.6,0.2-0.9c-0.1-0.7,0-1.4,0.6-2.1
			c0.3-0.3,0.6-0.7,0.9-1.1c0.1-0.2,0.2-0.3,0.4-0.5c0.6-0.8,1.2-1.7,2.1-2.3c1.3-0.9,2.9-1.6,4.5-1.9c3.5-0.8,7.2-0.9,10.8-0.6
			c7.5,0.8,14.7,3.1,21.8,5.6c0.7-0.7,1.4-1.4,2.1-2.2c-0.8-1.2-1.3-2.6-1.2-4c-4,0.1-7-1.9-10.2-5.1c-0.8-0.8-1.2-1.7-1.3-2.7
			c-5.6-0.4-11.1-0.8-16.6-2.5c-5-1.6-7.1-6-12.1-7.1c-6-1.4-11.6-3.9-17.6-5.2c-4.8-1-9.1-1.7-13-4.8c-0.1-0.1-0.3-0.2-0.4-0.4
			c-1.4-0.3-2.8-0.9-4-2.5c-2.4-3.1-1.6-7,2.2-8.4c1.8-0.7,3.7-0.9,5.7-0.9c0.4-0.3,0.8-0.6,1.3-0.8c0.6-0.6,1.2-1,2-1.2
			c1-0.2,1.9-0.4,2.9-0.4c0.2,0,0.5,0,0.7,0c0.6-0.2,1.1-0.4,1.7-0.5c2.7-0.4,4.8,1.1,5.7,3.1c1.5,0.9,2.6,2.2,2.8,3.8
			c2,1,4.1,1.7,6.5,1.8c2.8,0.1,5.9,0.3,8.4,1.8c2.3,1.4,1.8,2.5,4.4,1.4c1.9-0.8,4.8,0.5,5.6,2.3c0.2,0.4,0.3,0.6,0.5,0.9
			c0.2-0.1,0.4-0.3,0.5-0.3c1.9-1.6,5.5-2.1,7.3,0c0.3,0.2,0.6,0.4,0.8,0.6c1.6-2.9,5.3-3.5,7.6-1.9c1.4-0.8,3.1-0.9,4.7,0.2
			c0.4,0.3,0.7,0.5,1,0.8l0,0c0,0,0.1,0.1,0.1,0.1c0.4,0.4,0.8,0.8,1.2,1.2c2.1-2.1,5.8-2.3,7.8,0.8c0.5,0.7,1.4,3.5,2.3,5.9
			c0.8-0.7,1.8-1.2,2.8-1.6c5-1.6,6.8,2.6,10.9,3.7c2.8,0.8,3.8,3.2,3.5,5.5c0.1,0.1,0.1,0.1,0.2,0.2c2.5-0.2,5,0.3,7.3,1.5
			c3.4,0.3,6.7,1.8,9.3,3.8c2.3,0.8,4.5,2.1,6.1,3.8c0.2,0.2,0.4,0.5,0.6,0.8c1.7,0.6,3.3,1.6,4.5,2.8c1.7-0.1,3.2-0.4,4.5-1.1
			c2.2-1.3,4.3-0.8,5.7,0.6c1.2-0.1,2.5,0.3,3.7,1.3c0.4,0.4,0.9,0.8,1.3,1.1c0.1,0,0.3,0,0.4,0c2.4,0.3,4.5,1.7,4.9,4.1
			c0.7,0.5,1.3,1,2,1.5c0.4-0.1,0.8-0.2,1.3-0.3c3.6-0.9,6,1.8,6.2,4.7c0.4,0.1,0.7,0.2,1,0.3c4.2,1.5,8.4,3.2,12.7,4.3
			c0.7,0.1,1.4,0.3,2.2,0.5C1076.6,165.6,1073.9,174.8,1067.7,173.6z"/>
	</g>
</g>
<g>
	<g>
		<path d="M1193.4,736.8c-9.1,0-16.5-7.4-16.5-16.5c0-9.1,7.4-16.5,16.5-16.5c9.1,0,16.5,7.4,16.5,16.5
			C1209.9,729.4,1202.5,736.8,1193.4,736.8z"/>
		<path class="st9" d="M1193.4,704.4c8.8,0,16,7.2,16,16s-7.2,16-16,16c-8.8,0-16-7.2-16-16S1184.6,704.4,1193.4,704.4
			 M1193.4,703.4c-9.4,0-17,7.6-17,17c0,9.4,7.6,17,17,17c9.4,0,17-7.6,17-17C1210.4,711,1202.8,703.4,1193.4,703.4L1193.4,703.4z"
			/>
	</g>
	<circle class="st10" cx="1193.4" cy="720.4" r="14.1"/>
	
		<radialGradient id="SVGID_19_" cx="1193.4181" cy="38.4444" r="8.7242" gradientTransform="matrix(1 0 0 -1 0 758.8039)" gradientUnits="userSpaceOnUse">
		<stop  offset="5.592227e-07" style="stop-color:#EE9121"/>
		<stop  offset="4.750061e-04" style="stop-color:#EE9121"/>
		<stop  offset="0.5362" style="stop-color:#F9D010"/>
		<stop  offset="1" style="stop-color:#FAE417"/>
	</radialGradient>
	<circle class="st11" cx="1193.4" cy="720.4" r="8.7"/>
</g>
<g>
	<g>
		<path d="M1487.4,812.8c-9.1,0-16.5-7.4-16.5-16.5c0-9.1,7.4-16.5,16.5-16.5c9.1,0,16.5,7.4,16.5,16.5
			C1503.9,805.4,1496.5,812.8,1487.4,812.8z"/>
		<path class="st9" d="M1487.4,780.4c8.8,0,16,7.2,16,16s-7.2,16-16,16s-16-7.2-16-16S1478.6,780.4,1487.4,780.4 M1487.4,779.4
			c-9.4,0-17,7.6-17,17c0,9.4,7.6,17,17,17s17-7.6,17-17C1504.4,787,1496.8,779.4,1487.4,779.4L1487.4,779.4z"/>
	</g>
	<circle class="st10" cx="1487.4" cy="796.4" r="14.1"/>
	
		<radialGradient id="SVGID_20_" cx="1487.4181" cy="-37.5556" r="8.7242" gradientTransform="matrix(1 0 0 -1 0 758.8039)" gradientUnits="userSpaceOnUse">
		<stop  offset="5.592227e-07" style="stop-color:#EE9121"/>
		<stop  offset="4.750061e-04" style="stop-color:#EE9121"/>
		<stop  offset="0.5362" style="stop-color:#F9D010"/>
		<stop  offset="1" style="stop-color:#FAE417"/>
	</radialGradient>
	<circle class="st12" cx="1487.4" cy="796.4" r="8.7"/>
</g>
<g>
	<g>
		<g>
			<circle cx="896.4" cy="102.4" r="16.5"/>
			<path class="st9" d="M896.4,86.4c8.8,0,16,7.2,16,16s-7.2,16-16,16c-8.8,0-16-7.2-16-16S887.6,86.4,896.4,86.4 M896.4,85.4
				c-9.4,0-17,7.6-17,17s7.6,17,17,17c9.4,0,17-7.6,17-17S905.8,85.4,896.4,85.4L896.4,85.4z"/>
		</g>
		<circle class="st10" cx="896.4" cy="102.4" r="14.1"/>
		
			<radialGradient id="SVGID_21_" cx="896.4182" cy="656.4444" r="8.7242" gradientTransform="matrix(1 0 0 -1 0 758.8039)" gradientUnits="userSpaceOnUse">
			<stop  offset="5.592227e-07" style="stop-color:#EE9121"/>
			<stop  offset="4.750061e-04" style="stop-color:#EE9121"/>
			<stop  offset="0.5362" style="stop-color:#F9D010"/>
			<stop  offset="1" style="stop-color:#FAE417"/>
		</radialGradient>
		<circle class="st13" cx="896.4" cy="102.4" r="8.7"/>
	</g>
	<text transform="matrix(1 0 0 1 735.0826 105.773)" class="st14 st15">Smart Grip</text>
	<text transform="matrix(1 0 0 1 628.3648 141.773)" class="st14 st16">Enables Throttle Experience</text>
</g>
<g>
	<g>
		<g>
			<path d="M1000.4,172.8c-9.1,0-16.5-7.4-16.5-16.5s7.4-16.5,16.5-16.5c9.1,0,16.5,7.4,16.5,16.5S1009.5,172.8,1000.4,172.8z"/>
			<path class="st9" d="M1000.4,140.4c8.8,0,16,7.2,16,16s-7.2,16-16,16c-8.8,0-16-7.2-16-16S991.6,140.4,1000.4,140.4
				 M1000.4,139.4c-9.4,0-17,7.6-17,17s7.6,17,17,17c9.4,0,17-7.6,17-17S1009.8,139.4,1000.4,139.4L1000.4,139.4z"/>
		</g>
		<circle class="st10" cx="1000.4" cy="156.4" r="14.1"/>
		
			<radialGradient id="SVGID_22_" cx="1000.4182" cy="602.4444" r="8.7242" gradientTransform="matrix(1 0 0 -1 0 758.8039)" gradientUnits="userSpaceOnUse">
			<stop  offset="5.592227e-07" style="stop-color:#EE9121"/>
			<stop  offset="4.750061e-04" style="stop-color:#EE9121"/>
			<stop  offset="0.5362" style="stop-color:#F9D010"/>
			<stop  offset="1" style="stop-color:#FAE417"/>
		</radialGradient>
		<circle class="st17" cx="1000.4" cy="156.4" r="8.7"/>
	</g>
	<text transform="matrix(1 0 0 1 1039.0175 210.5208)" class="st14 st15">Speed Controls</text>
	<text transform="matrix(1 0 0 1 1039.0175 246.5208)" class="st14 st16">Three Speed Ride</text>
</g>
<g>
	<g>
		<g>
			<path d="M922.4,444.8c-9.1,0-16.5-7.4-16.5-16.5c0-9.1,7.4-16.5,16.5-16.5s16.5,7.4,16.5,16.5
				C938.9,437.4,931.5,444.8,922.4,444.8z"/>
			<path class="st9" d="M922.4,412.4c8.8,0,16,7.2,16,16s-7.2,16-16,16c-8.8,0-16-7.2-16-16S913.6,412.4,922.4,412.4 M922.4,411.4
				c-9.4,0-17,7.6-17,17c0,9.4,7.6,17,17,17c9.4,0,17-7.6,17-17C939.4,419,931.8,411.4,922.4,411.4L922.4,411.4z"/>
		</g>
		<circle class="st10" cx="922.4" cy="428.4" r="14.1"/>
		
			<radialGradient id="SVGID_23_" cx="922.4182" cy="330.4444" r="8.7242" gradientTransform="matrix(1 0 0 -1 0 758.8039)" gradientUnits="userSpaceOnUse">
			<stop  offset="5.592227e-07" style="stop-color:#EE9121"/>
			<stop  offset="4.750061e-04" style="stop-color:#EE9121"/>
			<stop  offset="0.5362" style="stop-color:#F9D010"/>
			<stop  offset="1" style="stop-color:#FAE417"/>
		</radialGradient>
		<circle class="st18" cx="922.4" cy="428.4" r="8.7"/>
	</g>
	<text transform="matrix(1 0 0 1 972.0175 450.5208)" class="st14 st15">Powerful Handlebar</text>
</g>
<g>
	<g>
		<g>
			<path d="M820.4,762.8c-9.1,0-16.5-7.4-16.5-16.5c0-9.1,7.4-16.5,16.5-16.5s16.5,7.4,16.5,16.5
				C836.9,755.4,829.5,762.8,820.4,762.8z"/>
			<path class="st9" d="M820.4,730.4c8.8,0,16,7.2,16,16s-7.2,16-16,16c-8.8,0-16-7.2-16-16S811.6,730.4,820.4,730.4 M820.4,729.4
				c-9.4,0-17,7.6-17,17c0,9.4,7.6,17,17,17c9.4,0,17-7.6,17-17C837.4,737,829.8,729.4,820.4,729.4L820.4,729.4z"/>
		</g>
		<circle class="st10" cx="820.4" cy="746.4" r="14.1"/>
		
			<radialGradient id="SVGID_24_" cx="820.4182" cy="12.4444" r="8.7242" gradientTransform="matrix(1 0 0 -1 0 758.8039)" gradientUnits="userSpaceOnUse">
			<stop  offset="5.592227e-07" style="stop-color:#EE9121"/>
			<stop  offset="4.750061e-04" style="stop-color:#EE9121"/>
			<stop  offset="0.5362" style="stop-color:#F9D010"/>
			<stop  offset="1" style="stop-color:#FAE417"/>
		</radialGradient>
		<circle class="st19" cx="820.4" cy="746.4" r="8.7"/>
	</g>
	<text transform="matrix(1 0 0 1 601.5413 729.3089)" class="st14 st15">High Grip Tyres</text>
	<text transform="matrix(1 0 0 1 579.5374 765.3089)" class="st14 st16">For All Weather Traction</text>
</g>
<text transform="matrix(1 0 0 1 1184.5145 649.3089)" class="st14 st15">Long Deck</text>
<text transform="matrix(1 0 0 1 1184.5145 685.3089)" class="st14 st16">For Improved Stability</text>
<text transform="matrix(1 0 0 1 1541.5145 774.3089)" class="st14 st15">Disc Brakes</text>
<text transform="matrix(1 0 0 1 1541.5145 810.3089)" class="st14 st16">For Fast Responsive Breaking</text>
</svg>
